<svg width="384" height="812" viewBox="0 0 384 812" fill="none" xmlns="http://www.w3.org/2000/svg">
<path d="M49 2H344C364.987 2 382 19.0132 382 40V772C382 792.987 364.987 810 344 810H49C28.0132 810 11 792.987 11 772V40C11 19.0132 28.0132 2 49 2Z" fill="white"/>
<path d="M129.741 66.27C128.445 66.27 127.335 65.988 126.411 65.424C125.487 64.854 124.776 64.062 124.278 63.048C123.786 62.034 123.54 60.858 123.54 59.52C123.54 58.182 123.786 57.006 124.278 55.992C124.776 54.978 125.487 54.189 126.411 53.625C127.335 53.055 128.445 52.77 129.741 52.77C131.235 52.77 132.48 53.145 133.476 53.895C134.472 54.639 135.171 55.644 135.573 56.91L133.386 57.513C133.134 56.667 132.705 56.007 132.099 55.533C131.493 55.053 130.707 54.813 129.741 54.813C128.871 54.813 128.145 55.008 127.563 55.398C126.987 55.788 126.552 56.337 126.258 57.045C125.97 57.747 125.823 58.572 125.817 59.52C125.817 60.468 125.961 61.296 126.249 62.004C126.543 62.706 126.981 63.252 127.563 63.642C128.145 64.032 128.871 64.227 129.741 64.227C130.707 64.227 131.493 63.987 132.099 63.507C132.705 63.027 133.134 62.367 133.386 61.527L135.573 62.13C135.171 63.396 134.472 64.404 133.476 65.154C132.48 65.898 131.235 66.27 129.741 66.27ZM142.092 66.27C141.12 66.27 140.271 66.051 139.545 65.613C138.819 65.175 138.255 64.572 137.853 63.804C137.457 63.03 137.259 62.142 137.259 61.14C137.259 60.12 137.463 59.226 137.871 58.458C138.279 57.69 138.846 57.09 139.572 56.658C140.298 56.226 141.138 56.01 142.092 56.01C143.07 56.01 143.922 56.229 144.648 56.667C145.374 57.105 145.938 57.711 146.34 58.485C146.742 59.253 146.943 60.138 146.943 61.14C146.943 62.148 146.739 63.039 146.331 63.813C145.929 64.581 145.365 65.184 144.639 65.622C143.913 66.054 143.064 66.27 142.092 66.27ZM142.092 64.236C142.956 64.236 143.598 63.948 144.018 63.372C144.438 62.796 144.648 62.052 144.648 61.14C144.648 60.198 144.435 59.448 144.009 58.89C143.583 58.326 142.944 58.044 142.092 58.044C141.51 58.044 141.03 58.176 140.652 58.44C140.28 58.698 140.004 59.061 139.824 59.529C139.644 59.991 139.554 60.528 139.554 61.14C139.554 62.082 139.767 62.835 140.193 63.399C140.625 63.957 141.258 64.236 142.092 64.236ZM155.899 66V61.32C155.899 61.014 155.878 60.675 155.836 60.303C155.794 59.931 155.695 59.574 155.539 59.232C155.389 58.884 155.161 58.599 154.855 58.377C154.555 58.155 154.147 58.044 153.631 58.044C153.355 58.044 153.082 58.089 152.812 58.179C152.542 58.269 152.296 58.425 152.074 58.647C151.858 58.863 151.684 59.163 151.552 59.547C151.42 59.925 151.354 60.411 151.354 61.005L150.067 60.456C150.067 59.628 150.226 58.878 150.544 58.206C150.868 57.534 151.342 57 151.966 56.604C152.59 56.202 153.358 56.001 154.27 56.001C154.99 56.001 155.584 56.121 156.052 56.361C156.52 56.601 156.892 56.907 157.168 57.279C157.444 57.651 157.648 58.047 157.78 58.467C157.912 58.887 157.996 59.286 158.032 59.664C158.074 60.036 158.095 60.339 158.095 60.573V66H155.899ZM149.158 66V56.28H151.093V59.295H151.354V66H149.158ZM161.54 66V56.127C161.54 55.881 161.549 55.611 161.567 55.317C161.585 55.017 161.636 54.72 161.72 54.426C161.804 54.132 161.957 53.865 162.179 53.625C162.455 53.319 162.752 53.109 163.07 52.995C163.394 52.875 163.712 52.809 164.024 52.797C164.336 52.779 164.609 52.77 164.843 52.77H166.058V54.534H164.933C164.519 54.534 164.21 54.639 164.006 54.849C163.808 55.053 163.709 55.323 163.709 55.659V66H161.54ZM159.974 57.981V56.28H166.058V57.981H159.974ZM167.948 54.804V52.815H170.117V54.804H167.948ZM167.948 66V56.28H170.117V66H167.948ZM173.073 66V56.28H174.99V58.647L174.756 58.341C174.876 58.017 175.035 57.723 175.233 57.459C175.437 57.189 175.68 56.967 175.962 56.793C176.202 56.631 176.466 56.505 176.754 56.415C177.048 56.319 177.348 56.262 177.654 56.244C177.96 56.22 178.257 56.232 178.545 56.28V58.305C178.257 58.221 177.924 58.194 177.546 58.224C177.174 58.254 176.838 58.359 176.538 58.539C176.238 58.701 175.992 58.908 175.8 59.16C175.614 59.412 175.476 59.7 175.386 60.024C175.296 60.342 175.251 60.687 175.251 61.059V66H173.073ZM192.185 66V60.096C192.185 59.43 192.02 58.911 191.69 58.539C191.36 58.161 190.913 57.972 190.349 57.972C190.001 57.972 189.689 58.053 189.413 58.215C189.137 58.371 188.918 58.605 188.756 58.917C188.594 59.223 188.513 59.589 188.513 60.015L187.55 59.448C187.544 58.776 187.694 58.185 188 57.675C188.312 57.159 188.732 56.757 189.26 56.469C189.788 56.181 190.376 56.037 191.024 56.037C192.098 56.037 192.92 56.361 193.49 57.009C194.066 57.651 194.354 58.497 194.354 59.547V66H192.185ZM180.494 66V56.28H182.411V59.295H182.681V66H180.494ZM186.353 66V60.123C186.353 59.445 186.188 58.917 185.858 58.539C185.528 58.161 185.078 57.972 184.508 57.972C183.956 57.972 183.512 58.161 183.176 58.539C182.846 58.917 182.681 59.409 182.681 60.015L181.709 59.367C181.709 58.737 181.865 58.17 182.177 57.666C182.489 57.162 182.909 56.766 183.437 56.478C183.971 56.184 184.568 56.037 185.228 56.037C185.954 56.037 186.56 56.193 187.046 56.505C187.538 56.811 187.904 57.231 188.144 57.765C188.39 58.293 188.513 58.89 188.513 59.556V66H186.353ZM200.805 66V53.04H204.936C205.044 53.04 205.257 53.043 205.575 53.049C205.899 53.055 206.211 53.076 206.511 53.112C207.537 53.244 208.404 53.61 209.112 54.21C209.826 54.804 210.366 55.563 210.732 56.487C211.098 57.411 211.281 58.422 211.281 59.52C211.281 60.618 211.098 61.629 210.732 62.553C210.366 63.477 209.826 64.239 209.112 64.839C208.404 65.433 207.537 65.796 206.511 65.928C206.217 65.964 205.908 65.985 205.584 65.991C205.26 65.997 205.044 66 204.936 66H200.805ZM203.01 63.957H204.936C205.116 63.957 205.344 63.951 205.62 63.939C205.902 63.927 206.151 63.9 206.367 63.858C206.979 63.744 207.477 63.471 207.861 63.039C208.245 62.607 208.527 62.082 208.707 61.464C208.893 60.846 208.986 60.198 208.986 59.52C208.986 58.818 208.893 58.158 208.707 57.54C208.521 56.922 208.233 56.403 207.843 55.983C207.459 55.563 206.967 55.296 206.367 55.182C206.151 55.134 205.902 55.107 205.62 55.101C205.344 55.089 205.116 55.083 204.936 55.083H203.01V63.957ZM218.077 66.27C217.093 66.27 216.229 66.057 215.485 65.631C214.741 65.205 214.159 64.614 213.739 63.858C213.325 63.102 213.118 62.232 213.118 61.248C213.118 60.186 213.322 59.265 213.73 58.485C214.138 57.699 214.705 57.09 215.431 56.658C216.157 56.226 216.997 56.01 217.951 56.01C218.959 56.01 219.814 56.247 220.516 56.721C221.224 57.189 221.749 57.852 222.091 58.71C222.433 59.568 222.562 60.579 222.478 61.743H220.327V60.951C220.321 59.895 220.135 59.124 219.769 58.638C219.403 58.152 218.827 57.909 218.041 57.909C217.153 57.909 216.493 58.185 216.061 58.737C215.629 59.283 215.413 60.084 215.413 61.14C215.413 62.124 215.629 62.886 216.061 63.426C216.493 63.966 217.123 64.236 217.951 64.236C218.485 64.236 218.944 64.119 219.328 63.885C219.718 63.645 220.018 63.3 220.228 62.85L222.37 63.498C221.998 64.374 221.422 65.055 220.642 65.541C219.868 66.027 219.013 66.27 218.077 66.27ZM214.729 61.743V60.105H221.416V61.743H214.729ZM229.144 66.27C228.196 66.27 227.401 66.045 226.759 65.595C226.117 65.145 225.634 64.533 225.31 63.759C224.986 62.979 224.824 62.106 224.824 61.14C224.824 60.162 224.986 59.286 225.31 58.512C225.634 57.738 226.108 57.129 226.732 56.685C227.362 56.235 228.139 56.01 229.063 56.01C229.981 56.01 230.776 56.235 231.448 56.685C232.126 57.129 232.651 57.738 233.023 58.512C233.395 59.28 233.581 60.156 233.581 61.14C233.581 62.112 233.398 62.985 233.032 63.759C232.666 64.533 232.15 65.145 231.484 65.595C230.818 66.045 230.038 66.27 229.144 66.27ZM224.455 70.32V56.28H226.372V63.102H226.642V70.32H224.455ZM228.811 64.326C229.375 64.326 229.84 64.185 230.206 63.903C230.572 63.621 230.842 63.24 231.016 62.76C231.196 62.274 231.286 61.734 231.286 61.14C231.286 60.552 231.196 60.018 231.016 59.538C230.836 59.052 230.557 58.668 230.179 58.386C229.801 58.098 229.321 57.954 228.739 57.954C228.187 57.954 227.737 58.089 227.389 58.359C227.041 58.623 226.783 58.995 226.615 59.475C226.453 59.949 226.372 60.504 226.372 61.14C226.372 61.77 226.453 62.325 226.615 62.805C226.783 63.285 227.044 63.66 227.398 63.93C227.758 64.194 228.229 64.326 228.811 64.326ZM240.108 66.27C239.136 66.27 238.287 66.051 237.561 65.613C236.835 65.175 236.271 64.572 235.869 63.804C235.473 63.03 235.275 62.142 235.275 61.14C235.275 60.12 235.479 59.226 235.887 58.458C236.295 57.69 236.862 57.09 237.588 56.658C238.314 56.226 239.154 56.01 240.108 56.01C241.086 56.01 241.938 56.229 242.664 56.667C243.39 57.105 243.954 57.711 244.356 58.485C244.758 59.253 244.959 60.138 244.959 61.14C244.959 62.148 244.755 63.039 244.347 63.813C243.945 64.581 243.381 65.184 242.655 65.622C241.929 66.054 241.08 66.27 240.108 66.27ZM240.108 64.236C240.972 64.236 241.614 63.948 242.034 63.372C242.454 62.796 242.664 62.052 242.664 61.14C242.664 60.198 242.451 59.448 242.025 58.89C241.599 58.326 240.96 58.044 240.108 58.044C239.526 58.044 239.046 58.176 238.668 58.44C238.296 58.698 238.02 59.061 237.84 59.529C237.66 59.991 237.57 60.528 237.57 61.14C237.57 62.082 237.783 62.835 238.209 63.399C238.641 63.957 239.274 64.236 240.108 64.236ZM250.716 66.27C249.516 66.27 248.541 66 247.791 65.46C247.041 64.92 246.585 64.161 246.423 63.183L248.637 62.841C248.751 63.321 249.003 63.699 249.393 63.975C249.783 64.251 250.275 64.389 250.869 64.389C251.391 64.389 251.793 64.287 252.075 64.083C252.363 63.873 252.507 63.588 252.507 63.228C252.507 63.006 252.453 62.829 252.345 62.697C252.243 62.559 252.015 62.427 251.661 62.301C251.307 62.175 250.764 62.016 250.032 61.824C249.216 61.608 248.568 61.377 248.088 61.131C247.608 60.879 247.263 60.582 247.053 60.24C246.843 59.898 246.738 59.484 246.738 58.998C246.738 58.392 246.897 57.864 247.215 57.414C247.533 56.964 247.977 56.619 248.547 56.379C249.117 56.133 249.789 56.01 250.563 56.01C251.319 56.01 251.988 56.127 252.57 56.361C253.158 56.595 253.632 56.928 253.992 57.36C254.352 57.792 254.574 58.299 254.658 58.881L252.444 59.277C252.39 58.863 252.201 58.536 251.877 58.296C251.559 58.056 251.133 57.921 250.599 57.891C250.089 57.861 249.678 57.939 249.366 58.125C249.054 58.305 248.898 58.56 248.898 58.89C248.898 59.076 248.961 59.235 249.087 59.367C249.213 59.499 249.465 59.631 249.843 59.763C250.227 59.895 250.797 60.057 251.553 60.249C252.327 60.447 252.945 60.675 253.407 60.933C253.875 61.185 254.211 61.488 254.415 61.842C254.625 62.196 254.73 62.625 254.73 63.129C254.73 64.107 254.373 64.875 253.659 65.433C252.951 65.991 251.97 66.27 250.716 66.27ZM257.131 54.804V52.815H259.3V54.804H257.131ZM257.131 66V56.28H259.3V66H257.131ZM267.943 66C267.301 66.12 266.671 66.171 266.053 66.153C265.441 66.141 264.892 66.03 264.406 65.82C263.92 65.604 263.551 65.265 263.299 64.803C263.077 64.383 262.96 63.954 262.948 63.516C262.936 63.078 262.93 62.583 262.93 62.031V53.58H265.09V61.905C265.09 62.295 265.093 62.637 265.099 62.931C265.111 63.225 265.174 63.465 265.288 63.651C265.504 64.011 265.849 64.212 266.323 64.254C266.797 64.296 267.337 64.272 267.943 64.182V66ZM261.166 57.981V56.28H267.943V57.981H261.166Z" fill="black"/>
<path d="M20 59C20 48.5066 28.5066 40 39 40V40C49.4934 40 58 48.5066 58 59V59C58 69.4934 49.4934 78 39 78V78C28.5066 78 20 69.4934 20 59V59Z" fill="#EFF0F6" fill-opacity="0.75"/>
<path d="M44.5001 53.5001L33.5001 64.5001M33.5001 53.5001L44.5001 64.5001" stroke="black" stroke-width="3" stroke-linecap="round" stroke-linejoin="round"/>
<path d="M164.806 163.383V159.405H168.359V163.383H164.806ZM164.806 136.132V132.137H168.359V136.132H164.806ZM166.761 160.51C165.061 160.51 163.542 160.204 162.205 159.592C160.868 158.98 159.768 158.113 158.907 156.991C158.057 155.858 157.502 154.52 157.241 152.979L160.76 152.418C161.1 153.869 161.825 155.025 162.936 155.886C164.047 156.736 165.378 157.161 166.931 157.161C168.472 157.161 169.725 156.793 170.688 156.056C171.663 155.319 172.15 154.379 172.15 153.234C172.15 152.418 171.901 151.755 171.402 151.245C170.915 150.735 170.116 150.304 169.005 149.953L163.259 148.185C159.859 147.131 158.159 145.091 158.159 142.065C158.159 140.637 158.499 139.396 159.179 138.342C159.87 137.288 160.839 136.472 162.086 135.894C163.333 135.316 164.789 135.027 166.455 135.027C168.053 135.05 169.47 135.344 170.705 135.911C171.952 136.478 172.983 137.294 173.799 138.359C174.626 139.424 175.199 140.705 175.516 142.201L171.895 142.847C171.736 141.974 171.402 141.204 170.892 140.535C170.393 139.866 169.759 139.345 168.988 138.971C168.229 138.597 167.373 138.404 166.421 138.393C165.526 138.37 164.721 138.512 164.007 138.818C163.304 139.113 162.743 139.532 162.324 140.076C161.916 140.609 161.712 141.215 161.712 141.895C161.712 142.643 162.001 143.278 162.579 143.799C163.157 144.32 164.069 144.768 165.316 145.142L169.821 146.451C171.884 147.063 173.374 147.885 174.292 148.916C175.21 149.947 175.669 151.319 175.669 153.03C175.669 154.526 175.295 155.835 174.547 156.957C173.81 158.068 172.773 158.94 171.436 159.575C170.099 160.198 168.54 160.51 166.761 160.51ZM183.815 160V139.43L179.208 142.235V138.274L183.815 135.52H187.436V160H183.815ZM202.676 160.51C201.01 160.51 199.536 160.147 198.256 159.422C196.975 158.685 195.966 157.677 195.23 156.396C194.504 155.115 194.142 153.642 194.142 151.976V143.544C194.142 141.878 194.504 140.405 195.23 139.124C195.966 137.843 196.975 136.84 198.256 136.115C199.536 135.378 201.01 135.01 202.676 135.01C204.342 135.01 205.815 135.378 207.096 136.115C208.376 136.84 209.379 137.843 210.105 139.124C210.841 140.405 211.21 141.878 211.21 143.544V151.976C211.21 153.642 210.841 155.115 210.105 156.396C209.379 157.677 208.376 158.685 207.096 159.422C205.815 160.147 204.342 160.51 202.676 160.51ZM202.676 157.11C203.582 157.11 204.404 156.895 205.141 156.464C205.889 156.022 206.484 155.433 206.926 154.696C207.368 153.948 207.589 153.115 207.589 152.197V143.289C207.589 142.382 207.368 141.561 206.926 140.824C206.484 140.076 205.889 139.487 205.141 139.056C204.404 138.614 203.582 138.393 202.676 138.393C201.769 138.393 200.942 138.614 200.194 139.056C199.457 139.487 198.868 140.076 198.426 140.824C197.984 141.561 197.763 142.382 197.763 143.289V152.197C197.763 153.115 197.984 153.948 198.426 154.696C198.868 155.433 199.457 156.022 200.194 156.464C200.942 156.895 201.769 157.11 202.676 157.11ZM224.74 160.51C223.074 160.51 221.601 160.147 220.32 159.422C219.04 158.685 218.031 157.677 217.294 156.396C216.569 155.115 216.206 153.642 216.206 151.976V143.544C216.206 141.878 216.569 140.405 217.294 139.124C218.031 137.843 219.04 136.84 220.32 136.115C221.601 135.378 223.074 135.01 224.74 135.01C226.406 135.01 227.88 135.378 229.16 136.115C230.441 136.84 231.444 137.843 232.169 139.124C232.906 140.405 233.274 141.878 233.274 143.544V151.976C233.274 153.642 232.906 155.115 232.169 156.396C231.444 157.677 230.441 158.685 229.16 159.422C227.88 160.147 226.406 160.51 224.74 160.51ZM224.74 157.11C225.647 157.11 226.469 156.895 227.205 156.464C227.953 156.022 228.548 155.433 228.99 154.696C229.432 153.948 229.653 153.115 229.653 152.197V143.289C229.653 142.382 229.432 141.561 228.99 140.824C228.548 140.076 227.953 139.487 227.205 139.056C226.469 138.614 225.647 138.393 224.74 138.393C223.834 138.393 223.006 138.614 222.258 139.056C221.522 139.487 220.932 140.076 220.49 140.824C220.048 141.561 219.827 142.382 219.827 143.289V152.197C219.827 153.115 220.048 153.948 220.49 154.696C220.932 155.433 221.522 156.022 222.258 156.464C223.006 156.895 223.834 157.11 224.74 157.11Z" fill="black"/>
<path d="M32.12 267V255.48H36.672C36.784 255.48 36.9173 255.485 37.072 255.496C37.2267 255.501 37.376 255.517 37.52 255.544C38.144 255.64 38.6667 255.853 39.088 256.184C39.5147 256.515 39.8347 256.933 40.048 257.44C40.2613 257.941 40.368 258.499 40.368 259.112C40.368 259.72 40.2587 260.277 40.04 260.784C39.8267 261.285 39.5067 261.704 39.08 262.04C38.6587 262.371 38.1387 262.584 37.52 262.68C37.376 262.701 37.2267 262.717 37.072 262.728C36.9173 262.739 36.784 262.744 36.672 262.744H33.544V267H32.12ZM33.544 261.392H36.624C36.7253 261.392 36.84 261.387 36.968 261.376C37.1013 261.365 37.2267 261.347 37.344 261.32C37.712 261.235 38.0107 261.08 38.24 260.856C38.4747 260.627 38.6453 260.36 38.752 260.056C38.8587 259.747 38.912 259.432 38.912 259.112C38.912 258.792 38.8587 258.48 38.752 258.176C38.6453 257.867 38.4747 257.597 38.24 257.368C38.0107 257.139 37.712 256.984 37.344 256.904C37.2267 256.872 37.1013 256.853 36.968 256.848C36.84 256.837 36.7253 256.832 36.624 256.832H33.544V261.392ZM44.3416 267.24C43.6963 267.24 43.155 267.123 42.7176 266.888C42.2856 266.648 41.9576 266.333 41.7336 265.944C41.515 265.555 41.4056 265.128 41.4056 264.664C41.4056 264.211 41.491 263.819 41.6616 263.488C41.8376 263.152 42.083 262.875 42.3976 262.656C42.7123 262.432 43.0883 262.256 43.5256 262.128C43.9363 262.016 44.395 261.92 44.9016 261.84C45.4136 261.755 45.931 261.677 46.4536 261.608C46.9763 261.539 47.4643 261.472 47.9176 261.408L47.4056 261.704C47.4216 260.936 47.267 260.368 46.9416 260C46.6216 259.632 46.067 259.448 45.2776 259.448C44.755 259.448 44.2963 259.568 43.9016 259.808C43.5123 260.043 43.2376 260.427 43.0776 260.96L41.7256 260.552C41.9336 259.795 42.3363 259.2 42.9336 258.768C43.531 258.336 44.3176 258.12 45.2936 258.12C46.0776 258.12 46.7496 258.261 47.3096 258.544C47.875 258.821 48.2803 259.243 48.5256 259.808C48.6483 260.075 48.7256 260.365 48.7576 260.68C48.7896 260.989 48.8056 261.315 48.8056 261.656V267H47.5416V264.928L47.8376 265.12C47.5123 265.819 47.0563 266.347 46.4696 266.704C45.8883 267.061 45.179 267.24 44.3416 267.24ZM44.5576 266.048C45.0696 266.048 45.5123 265.957 45.8856 265.776C46.2643 265.589 46.5683 265.347 46.7976 265.048C47.027 264.744 47.1763 264.413 47.2456 264.056C47.3256 263.789 47.3683 263.493 47.3736 263.168C47.3843 262.837 47.3896 262.584 47.3896 262.408L47.8856 262.624C47.4216 262.688 46.9656 262.749 46.5176 262.808C46.0696 262.867 45.6456 262.931 45.2456 263C44.8456 263.064 44.4856 263.141 44.1656 263.232C43.931 263.307 43.7096 263.403 43.5016 263.52C43.299 263.637 43.1336 263.789 43.0056 263.976C42.883 264.157 42.8216 264.384 42.8216 264.656C42.8216 264.891 42.8803 265.115 42.9976 265.328C43.1203 265.541 43.307 265.715 43.5576 265.848C43.8136 265.981 44.147 266.048 44.5576 266.048ZM51.8513 270.84L53.5233 266.296L53.5473 267.64L49.7713 258.36H51.2673L54.2273 265.824H53.7153L56.4913 258.36H57.9392L53.2353 270.84H51.8513ZM69.8386 267L69.8466 261.472C69.8466 260.827 69.6733 260.323 69.3266 259.96C68.9853 259.592 68.54 259.408 67.9906 259.408C67.6706 259.408 67.3666 259.483 67.0786 259.632C66.7906 259.776 66.556 260.005 66.3746 260.32C66.1933 260.629 66.1026 261.027 66.1026 261.512L65.3506 261.208C65.34 260.595 65.4653 260.059 65.7266 259.6C65.9933 259.136 66.356 258.776 66.8146 258.52C67.2733 258.264 67.7906 258.136 68.3666 258.136C69.268 258.136 69.9773 258.411 70.4946 258.96C71.012 259.504 71.2706 260.237 71.2706 261.16L71.2626 267H69.8386ZM59.5026 267V258.36H60.7746V260.672H60.9346V267H59.5026ZM64.6786 267L64.6866 261.528C64.6866 260.867 64.516 260.349 64.1746 259.976C63.8333 259.597 63.38 259.408 62.8146 259.408C62.2546 259.408 61.8013 259.6 61.4546 259.984C61.108 260.368 60.9346 260.877 60.9346 261.512L60.1826 261.064C60.1826 260.504 60.316 260.003 60.5826 259.56C60.8493 259.117 61.212 258.771 61.6706 258.52C62.1293 258.264 62.6493 258.136 63.2306 258.136C63.812 258.136 64.3186 258.259 64.7506 258.504C65.1826 258.749 65.516 259.101 65.7506 259.56C65.9853 260.013 66.1026 260.555 66.1026 261.184L66.0946 267H64.6786ZM77.2703 267.24C76.4223 267.24 75.6809 267.053 75.0463 266.68C74.4169 266.301 73.9263 265.776 73.5743 265.104C73.2223 264.427 73.0463 263.637 73.0463 262.736C73.0463 261.792 73.2196 260.976 73.5663 260.288C73.9129 259.595 74.3956 259.061 75.0143 258.688C75.6383 258.309 76.3689 258.12 77.2063 258.12C78.0756 258.12 78.8143 258.32 79.4223 258.72C80.0356 259.12 80.4943 259.691 80.7983 260.432C81.1076 261.173 81.2409 262.056 81.1983 263.08H79.7583V262.568C79.7423 261.507 79.5263 260.715 79.1103 260.192C78.6943 259.664 78.0756 259.4 77.2543 259.4C76.3743 259.4 75.7049 259.683 75.2463 260.248C74.7876 260.813 74.5583 261.624 74.5583 262.68C74.5583 263.699 74.7876 264.488 75.2463 265.048C75.7049 265.608 76.3583 265.888 77.2063 265.888C77.7769 265.888 78.2729 265.757 78.6943 265.496C79.1156 265.235 79.4463 264.859 79.6863 264.368L81.0543 264.84C80.7183 265.603 80.2116 266.195 79.5343 266.616C78.8623 267.032 78.1076 267.24 77.2703 267.24ZM74.0783 263.08V261.936H80.4623V263.08H74.0783ZM89.147 267V262.672C89.147 262.261 89.1097 261.867 89.035 261.488C88.9657 261.109 88.8403 260.771 88.659 260.472C88.483 260.168 88.243 259.928 87.939 259.752C87.6403 259.576 87.2617 259.488 86.803 259.488C86.4457 259.488 86.1203 259.549 85.827 259.672C85.539 259.789 85.291 259.971 85.083 260.216C84.875 260.461 84.7123 260.771 84.595 261.144C84.483 261.512 84.427 261.947 84.427 262.448L83.491 262.16C83.491 261.323 83.6403 260.605 83.939 260.008C84.243 259.405 84.667 258.944 85.211 258.624C85.7603 258.299 86.4057 258.136 87.147 258.136C87.707 258.136 88.1843 258.224 88.579 258.4C88.9737 258.576 89.3017 258.811 89.563 259.104C89.8243 259.392 90.0297 259.717 90.179 260.08C90.3283 260.437 90.4323 260.803 90.491 261.176C90.555 261.544 90.587 261.893 90.587 262.224V267H89.147ZM82.987 267V258.36H84.267V260.672H84.427V267H82.987ZM97.7409 267C97.2289 267.101 96.7222 267.141 96.2209 267.12C95.7249 267.104 95.2822 267.005 94.8929 266.824C94.5035 266.637 94.2075 266.349 94.0049 265.96C93.8342 265.619 93.7409 265.275 93.7249 264.928C93.7142 264.576 93.7089 264.179 93.7089 263.736V255.96H95.1329V263.672C95.1329 264.024 95.1355 264.325 95.1409 264.576C95.1515 264.827 95.2075 265.043 95.3089 265.224C95.5009 265.565 95.8049 265.765 96.2209 265.824C96.6422 265.883 97.1489 265.867 97.7409 265.776V267ZM91.9569 259.536V258.36H97.7409V259.536H91.9569ZM103.198 267V255.48H104.494L108.846 264.656L113.174 255.48H114.486V266.992H113.134V258.608L109.222 267H108.462L104.55 258.608V267H103.198ZM120.723 267.24C119.875 267.24 119.134 267.053 118.499 266.68C117.87 266.301 117.379 265.776 117.027 265.104C116.675 264.427 116.499 263.637 116.499 262.736C116.499 261.792 116.673 260.976 117.019 260.288C117.366 259.595 117.849 259.061 118.467 258.688C119.091 258.309 119.822 258.12 120.659 258.12C121.529 258.12 122.267 258.32 122.875 258.72C123.489 259.12 123.947 259.691 124.251 260.432C124.561 261.173 124.694 262.056 124.651 263.08H123.211V262.568C123.195 261.507 122.979 260.715 122.563 260.192C122.147 259.664 121.529 259.4 120.707 259.4C119.827 259.4 119.158 259.683 118.699 260.248C118.241 260.813 118.011 261.624 118.011 262.68C118.011 263.699 118.241 264.488 118.699 265.048C119.158 265.608 119.811 265.888 120.659 265.888C121.23 265.888 121.726 265.757 122.147 265.496C122.569 265.235 122.899 264.859 123.139 264.368L124.507 264.84C124.171 265.603 123.665 266.195 122.987 266.616C122.315 267.032 121.561 267.24 120.723 267.24ZM117.531 263.08V261.936H123.915V263.08H117.531ZM131.507 267C130.995 267.101 130.488 267.141 129.987 267.12C129.491 267.104 129.048 267.005 128.659 266.824C128.269 266.637 127.973 266.349 127.771 265.96C127.6 265.619 127.507 265.275 127.491 264.928C127.48 264.576 127.475 264.179 127.475 263.736V255.96H128.899V263.672C128.899 264.024 128.901 264.325 128.907 264.576C128.917 264.827 128.973 265.043 129.075 265.224C129.267 265.565 129.571 265.765 129.987 265.824C130.408 265.883 130.915 265.867 131.507 265.776V267ZM125.723 259.536V258.36H131.507V259.536H125.723ZM139.663 267V262.672C139.663 262.261 139.625 261.867 139.551 261.488C139.481 261.109 139.356 260.771 139.175 260.472C138.999 260.168 138.759 259.928 138.455 259.752C138.156 259.576 137.777 259.488 137.319 259.488C136.961 259.488 136.636 259.549 136.343 259.672C136.055 259.789 135.807 259.971 135.599 260.216C135.391 260.461 135.228 260.771 135.111 261.144C134.999 261.512 134.943 261.947 134.943 262.448L134.007 262.16C134.007 261.323 134.156 260.605 134.455 260.008C134.759 259.405 135.183 258.944 135.727 258.624C136.276 258.299 136.921 258.136 137.663 258.136C138.223 258.136 138.7 258.224 139.095 258.4C139.489 258.576 139.817 258.811 140.079 259.104C140.34 259.392 140.545 259.717 140.695 260.08C140.844 260.437 140.948 260.803 141.007 261.176C141.071 261.544 141.103 261.893 141.103 262.224V267H139.663ZM133.503 267V255.48H134.783V261.84H134.943V267H133.503ZM147.113 267.24C146.254 267.24 145.513 267.045 144.889 266.656C144.27 266.267 143.793 265.728 143.457 265.04C143.121 264.352 142.953 263.563 142.953 262.672C142.953 261.765 143.123 260.971 143.465 260.288C143.806 259.605 144.289 259.075 144.913 258.696C145.537 258.312 146.27 258.12 147.113 258.12C147.977 258.12 148.721 258.315 149.345 258.704C149.969 259.088 150.446 259.624 150.777 260.312C151.113 260.995 151.281 261.781 151.281 262.672C151.281 263.573 151.113 264.368 150.777 265.056C150.441 265.739 149.961 266.275 149.337 266.664C148.713 267.048 147.971 267.24 147.113 267.24ZM147.113 265.888C148.009 265.888 148.675 265.589 149.113 264.992C149.55 264.395 149.769 263.621 149.769 262.672C149.769 261.696 149.547 260.92 149.105 260.344C148.662 259.763 147.998 259.472 147.113 259.472C146.51 259.472 146.014 259.608 145.625 259.88C145.235 260.152 144.945 260.528 144.753 261.008C144.561 261.488 144.465 262.043 144.465 262.672C144.465 263.643 144.689 264.421 145.137 265.008C145.585 265.595 146.243 265.888 147.113 265.888ZM156.684 267.24C155.879 267.24 155.188 267.04 154.612 266.64C154.036 266.235 153.591 265.688 153.276 265C152.967 264.312 152.812 263.536 152.812 262.672C152.812 261.808 152.967 261.032 153.276 260.344C153.591 259.656 154.036 259.115 154.612 258.72C155.188 258.32 155.876 258.12 156.676 258.12C157.492 258.12 158.177 258.317 158.732 258.712C159.287 259.107 159.705 259.648 159.988 260.336C160.276 261.024 160.42 261.803 160.42 262.672C160.42 263.531 160.276 264.307 159.988 265C159.705 265.688 159.287 266.235 158.732 266.64C158.177 267.04 157.495 267.24 156.684 267.24ZM156.86 265.936C157.441 265.936 157.919 265.797 158.292 265.52C158.665 265.237 158.94 264.851 159.116 264.36C159.297 263.864 159.388 263.301 159.388 262.672C159.388 262.032 159.297 261.469 159.116 260.984C158.94 260.493 158.668 260.112 158.3 259.84C157.932 259.563 157.465 259.424 156.9 259.424C156.313 259.424 155.828 259.568 155.444 259.856C155.065 260.144 154.783 260.533 154.596 261.024C154.415 261.515 154.324 262.064 154.324 262.672C154.324 263.285 154.417 263.84 154.604 264.336C154.791 264.827 155.071 265.216 155.444 265.504C155.823 265.792 156.295 265.936 156.86 265.936ZM159.388 267V260.64H159.228V255.48H160.66V267H159.388Z" fill="#A0A3BD"/>
<path d="M32.12 321V309.48H38.84V310.904H33.544V314.528H37.88V315.952H33.544V321H32.12ZM44.0359 321.24C43.1879 321.24 42.4465 321.053 41.8119 320.68C41.1825 320.301 40.6919 319.776 40.3399 319.104C39.9879 318.427 39.8119 317.637 39.8119 316.736C39.8119 315.792 39.9852 314.976 40.3319 314.288C40.6785 313.595 41.1612 313.061 41.7799 312.688C42.4039 312.309 43.1345 312.12 43.9719 312.12C44.8412 312.12 45.5799 312.32 46.1879 312.72C46.8012 313.12 47.2599 313.691 47.5639 314.432C47.8732 315.173 48.0065 316.056 47.9639 317.08H46.5239V316.568C46.5079 315.507 46.2919 314.715 45.8759 314.192C45.4599 313.664 44.8412 313.4 44.0199 313.4C43.1399 313.4 42.4705 313.683 42.0119 314.248C41.5532 314.813 41.3239 315.624 41.3239 316.68C41.3239 317.699 41.5532 318.488 42.0119 319.048C42.4705 319.608 43.1239 319.888 43.9719 319.888C44.5425 319.888 45.0385 319.757 45.4599 319.496C45.8812 319.235 46.2119 318.859 46.4519 318.368L47.8199 318.84C47.4839 319.603 46.9772 320.195 46.2999 320.616C45.6279 321.032 44.8732 321.24 44.0359 321.24ZM40.8439 317.08V315.936H47.2279V317.08H40.8439ZM53.739 321.24C52.891 321.24 52.1497 321.053 51.515 320.68C50.8857 320.301 50.395 319.776 50.043 319.104C49.691 318.427 49.515 317.637 49.515 316.736C49.515 315.792 49.6883 314.976 50.035 314.288C50.3817 313.595 50.8643 313.061 51.483 312.688C52.107 312.309 52.8377 312.12 53.675 312.12C54.5443 312.12 55.283 312.32 55.891 312.72C56.5043 313.12 56.963 313.691 57.267 314.432C57.5763 315.173 57.7097 316.056 57.667 317.08H56.227V316.568C56.211 315.507 55.995 314.715 55.579 314.192C55.163 313.664 54.5443 313.4 53.723 313.4C52.843 313.4 52.1737 313.683 51.715 314.248C51.2563 314.813 51.027 315.624 51.027 316.68C51.027 317.699 51.2563 318.488 51.715 319.048C52.1737 319.608 52.827 319.888 53.675 319.888C54.2457 319.888 54.7417 319.757 55.163 319.496C55.5843 319.235 55.915 318.859 56.155 318.368L57.523 318.84C57.187 319.603 56.6803 320.195 56.003 320.616C55.331 321.032 54.5763 321.24 53.739 321.24ZM50.547 317.08V315.936H56.931V317.08H50.547Z" fill="#A0A3BD"/>
<path d="M35.088 375V364.832H31.16V363.48H40.44V364.832H36.512V375H35.088ZM42.1238 364.832V363.36H43.5478V364.832H42.1238ZM42.1238 375V366.36H43.5478V375H42.1238ZM56.5261 375L56.5341 369.472C56.5341 368.827 56.3608 368.323 56.0141 367.96C55.6728 367.592 55.2275 367.408 54.6781 367.408C54.3581 367.408 54.0541 367.483 53.7661 367.632C53.4781 367.776 53.2435 368.005 53.0621 368.32C52.8808 368.629 52.7901 369.027 52.7901 369.512L52.0381 369.208C52.0275 368.595 52.1528 368.059 52.4141 367.6C52.6808 367.136 53.0435 366.776 53.5021 366.52C53.9608 366.264 54.4781 366.136 55.0541 366.136C55.9555 366.136 56.6648 366.411 57.1821 366.96C57.6995 367.504 57.9581 368.237 57.9581 369.16L57.9501 375H56.5261ZM46.1901 375V366.36H47.4621V368.672H47.6221V375H46.1901ZM51.3661 375L51.3741 369.528C51.3741 368.867 51.2035 368.349 50.8621 367.976C50.5208 367.597 50.0675 367.408 49.5021 367.408C48.9421 367.408 48.4888 367.6 48.1421 367.984C47.7955 368.368 47.6221 368.877 47.6221 369.512L46.8701 369.064C46.8701 368.504 47.0035 368.003 47.2701 367.56C47.5368 367.117 47.8995 366.771 48.3581 366.52C48.8168 366.264 49.3368 366.136 49.9181 366.136C50.4995 366.136 51.0061 366.259 51.4381 366.504C51.8701 366.749 52.2035 367.101 52.4381 367.56C52.6728 368.013 52.7901 368.555 52.7901 369.184L52.7821 375H51.3661ZM63.9578 375.24C63.1098 375.24 62.3684 375.053 61.7338 374.68C61.1044 374.301 60.6138 373.776 60.2618 373.104C59.9098 372.427 59.7338 371.637 59.7338 370.736C59.7338 369.792 59.9071 368.976 60.2538 368.288C60.6004 367.595 61.0831 367.061 61.7018 366.688C62.3258 366.309 63.0564 366.12 63.8938 366.12C64.7631 366.12 65.5018 366.32 66.1098 366.72C66.7231 367.12 67.1818 367.691 67.4858 368.432C67.7951 369.173 67.9284 370.056 67.8858 371.08H66.4458V370.568C66.4298 369.507 66.2138 368.715 65.7978 368.192C65.3818 367.664 64.7631 367.4 63.9418 367.4C63.0618 367.4 62.3924 367.683 61.9338 368.248C61.4751 368.813 61.2458 369.624 61.2458 370.68C61.2458 371.699 61.4751 372.488 61.9338 373.048C62.3924 373.608 63.0458 373.888 63.8938 373.888C64.4644 373.888 64.9604 373.757 65.3818 373.496C65.8031 373.235 66.1338 372.859 66.3738 372.368L67.7418 372.84C67.4058 373.603 66.8991 374.195 66.2218 374.616C65.5498 375.032 64.7951 375.24 63.9578 375.24ZM60.7658 371.08V369.936H67.1498V371.08H60.7658ZM78.194 375C77.682 375.101 77.1753 375.141 76.674 375.12C76.178 375.104 75.7353 375.005 75.346 374.824C74.9567 374.637 74.6607 374.349 74.458 373.96C74.2873 373.619 74.194 373.275 74.178 372.928C74.1673 372.576 74.162 372.179 74.162 371.736V363.96H75.586V371.672C75.586 372.024 75.5887 372.325 75.594 372.576C75.6047 372.827 75.6607 373.043 75.762 373.224C75.954 373.565 76.258 373.765 76.674 373.824C77.0953 373.883 77.602 373.867 78.194 373.776V375ZM72.41 367.536V366.36H78.194V367.536H72.41ZM83.5188 375.24C82.6601 375.24 81.9188 375.045 81.2948 374.656C80.6761 374.267 80.1988 373.728 79.8628 373.04C79.5268 372.352 79.3588 371.563 79.3588 370.672C79.3588 369.765 79.5294 368.971 79.8708 368.288C80.2121 367.605 80.6948 367.075 81.3188 366.696C81.9428 366.312 82.6761 366.12 83.5188 366.12C84.3828 366.12 85.1268 366.315 85.7508 366.704C86.3748 367.088 86.8521 367.624 87.1828 368.312C87.5188 368.995 87.6868 369.781 87.6868 370.672C87.6868 371.573 87.5188 372.368 87.1828 373.056C86.8468 373.739 86.3668 374.275 85.7428 374.664C85.1188 375.048 84.3774 375.24 83.5188 375.24ZM83.5188 373.888C84.4148 373.888 85.0814 373.589 85.5188 372.992C85.9561 372.395 86.1748 371.621 86.1748 370.672C86.1748 369.696 85.9534 368.92 85.5108 368.344C85.0681 367.763 84.4041 367.472 83.5188 367.472C82.9161 367.472 82.4201 367.608 82.0308 367.88C81.6414 368.152 81.3508 368.528 81.1588 369.008C80.9668 369.488 80.8708 370.043 80.8708 370.672C80.8708 371.643 81.0948 372.421 81.5428 373.008C81.9908 373.595 82.6494 373.888 83.5188 373.888ZM92.3513 375L96.2073 363.48H98.1913L102.047 375H100.567L96.9593 364.312H97.4073L93.8313 375H92.3513ZM94.2073 372.304V370.968H100.191V372.304H94.2073ZM103.729 375V366.36H105.001V368.448L104.793 368.176C104.895 367.909 105.025 367.664 105.185 367.44C105.351 367.216 105.535 367.032 105.737 366.888C105.961 366.707 106.215 366.568 106.497 366.472C106.78 366.376 107.068 366.32 107.361 366.304C107.655 366.283 107.929 366.301 108.185 366.36V367.696C107.887 367.616 107.559 367.595 107.201 367.632C106.844 367.669 106.513 367.8 106.209 368.024C105.932 368.221 105.716 368.461 105.561 368.744C105.412 369.027 105.308 369.333 105.249 369.664C105.191 369.989 105.161 370.323 105.161 370.664V375H103.729ZM109.948 375V366.36H111.22V368.448L111.012 368.176C111.113 367.909 111.244 367.664 111.404 367.44C111.569 367.216 111.753 367.032 111.956 366.888C112.18 366.707 112.433 366.568 112.716 366.472C112.999 366.376 113.287 366.32 113.58 366.304C113.873 366.283 114.148 366.301 114.404 366.36V367.696C114.105 367.616 113.777 367.595 113.42 367.632C113.063 367.669 112.732 367.8 112.428 368.024C112.151 368.221 111.935 368.461 111.78 368.744C111.631 369.027 111.527 369.333 111.468 369.664C111.409 369.989 111.38 370.323 111.38 370.664V375H109.948ZM116.327 364.832V363.36H117.751V364.832H116.327ZM116.327 375V366.36H117.751V375H116.327ZM122.737 375L119.601 366.36H121.041L123.465 373.184L125.881 366.36H127.329L124.193 375H122.737ZM132.458 375.24C131.61 375.24 130.868 375.053 130.234 374.68C129.604 374.301 129.114 373.776 128.762 373.104C128.41 372.427 128.234 371.637 128.234 370.736C128.234 369.792 128.407 368.976 128.754 368.288C129.1 367.595 129.583 367.061 130.202 366.688C130.826 366.309 131.556 366.12 132.394 366.12C133.263 366.12 134.002 366.32 134.61 366.72C135.223 367.12 135.682 367.691 135.986 368.432C136.295 369.173 136.428 370.056 136.386 371.08H134.946V370.568C134.93 369.507 134.714 368.715 134.298 368.192C133.882 367.664 133.263 367.4 132.442 367.4C131.562 367.4 130.892 367.683 130.434 368.248C129.975 368.813 129.746 369.624 129.746 370.68C129.746 371.699 129.975 372.488 130.434 373.048C130.892 373.608 131.546 373.888 132.394 373.888C132.964 373.888 133.46 373.757 133.882 373.496C134.303 373.235 134.634 372.859 134.874 372.368L136.242 372.84C135.906 373.603 135.399 374.195 134.722 374.616C134.05 375.032 133.295 375.24 132.458 375.24ZM129.266 371.08V369.936H135.65V371.08H129.266Z" fill="#A0A3BD"/>
<path d="M276.856 267.24C275.709 267.24 274.736 266.987 273.936 266.48C273.136 265.973 272.525 265.269 272.104 264.368C271.688 263.467 271.48 262.424 271.48 261.24C271.48 260.056 271.688 259.013 272.104 258.112C272.525 257.211 273.136 256.507 273.936 256C274.736 255.493 275.709 255.24 276.856 255.24C278.189 255.24 279.285 255.579 280.144 256.256C281.008 256.933 281.603 257.845 281.928 258.992L280.48 259.376C280.245 258.517 279.827 257.84 279.224 257.344C278.621 256.848 277.832 256.6 276.856 256.6C275.997 256.6 275.283 256.795 274.712 257.184C274.141 257.573 273.712 258.117 273.424 258.816C273.136 259.509 272.989 260.317 272.984 261.24C272.979 262.157 273.12 262.965 273.408 263.664C273.696 264.357 274.128 264.901 274.704 265.296C275.28 265.685 275.997 265.88 276.856 265.88C277.832 265.88 278.621 265.632 279.224 265.136C279.827 264.635 280.245 263.957 280.48 263.104L281.928 263.488C281.603 264.629 281.008 265.541 280.144 266.224C279.285 266.901 278.189 267.24 276.856 267.24ZM290.085 267V262.672C290.085 262.261 290.047 261.867 289.973 261.488C289.903 261.109 289.778 260.771 289.597 260.472C289.421 260.168 289.181 259.928 288.877 259.752C288.578 259.576 288.199 259.488 287.741 259.488C287.383 259.488 287.058 259.549 286.765 259.672C286.477 259.789 286.229 259.971 286.021 260.216C285.813 260.461 285.65 260.771 285.533 261.144C285.421 261.512 285.365 261.947 285.365 262.448L284.429 262.16C284.429 261.323 284.578 260.605 284.877 260.008C285.181 259.405 285.605 258.944 286.149 258.624C286.698 258.299 287.343 258.136 288.085 258.136C288.645 258.136 289.122 258.224 289.517 258.4C289.911 258.576 290.239 258.811 290.501 259.104C290.762 259.392 290.967 259.717 291.117 260.08C291.266 260.437 291.37 260.803 291.429 261.176C291.493 261.544 291.525 261.893 291.525 262.224V267H290.085ZM283.925 267V255.48H285.205V261.84H285.365V267H283.925ZM296.31 267.24C295.665 267.24 295.124 267.123 294.686 266.888C294.254 266.648 293.926 266.333 293.702 265.944C293.484 265.555 293.374 265.128 293.374 264.664C293.374 264.211 293.46 263.819 293.63 263.488C293.806 263.152 294.052 262.875 294.366 262.656C294.681 262.432 295.057 262.256 295.494 262.128C295.905 262.016 296.364 261.92 296.87 261.84C297.382 261.755 297.9 261.677 298.422 261.608C298.945 261.539 299.433 261.472 299.886 261.408L299.374 261.704C299.39 260.936 299.236 260.368 298.91 260C298.59 259.632 298.036 259.448 297.246 259.448C296.724 259.448 296.265 259.568 295.87 259.808C295.481 260.043 295.206 260.427 295.046 260.96L293.694 260.552C293.902 259.795 294.305 259.2 294.902 258.768C295.5 258.336 296.286 258.12 297.262 258.12C298.046 258.12 298.718 258.261 299.278 258.544C299.844 258.821 300.249 259.243 300.494 259.808C300.617 260.075 300.694 260.365 300.726 260.68C300.758 260.989 300.774 261.315 300.774 261.656V267H299.51V264.928L299.806 265.12C299.481 265.819 299.025 266.347 298.438 266.704C297.857 267.061 297.148 267.24 296.31 267.24ZM296.526 266.048C297.038 266.048 297.481 265.957 297.854 265.776C298.233 265.589 298.537 265.347 298.766 265.048C298.996 264.744 299.145 264.413 299.214 264.056C299.294 263.789 299.337 263.493 299.342 263.168C299.353 262.837 299.358 262.584 299.358 262.408L299.854 262.624C299.39 262.688 298.934 262.749 298.486 262.808C298.038 262.867 297.614 262.931 297.214 263C296.814 263.064 296.454 263.141 296.134 263.232C295.9 263.307 295.678 263.403 295.47 263.52C295.268 263.637 295.102 263.789 294.974 263.976C294.852 264.157 294.79 264.384 294.79 264.656C294.79 264.891 294.849 265.115 294.966 265.328C295.089 265.541 295.276 265.715 295.526 265.848C295.782 265.981 296.116 266.048 296.526 266.048ZM306.368 267.232C305.339 267.232 304.494 267.008 303.832 266.56C303.176 266.107 302.774 265.475 302.624 264.664L304.08 264.432C304.198 264.901 304.467 265.275 304.888 265.552C305.31 265.824 305.832 265.96 306.456 265.96C307.048 265.96 307.512 265.837 307.848 265.592C308.184 265.347 308.352 265.013 308.352 264.592C308.352 264.347 308.296 264.149 308.184 264C308.072 263.845 307.84 263.701 307.488 263.568C307.142 263.435 306.616 263.275 305.912 263.088C305.15 262.885 304.55 262.675 304.112 262.456C303.675 262.237 303.363 261.984 303.176 261.696C302.99 261.408 302.896 261.059 302.896 260.648C302.896 260.141 303.035 259.699 303.312 259.32C303.59 258.936 303.976 258.64 304.472 258.432C304.974 258.224 305.555 258.12 306.216 258.12C306.872 258.12 307.459 258.224 307.976 258.432C308.494 258.64 308.91 258.936 309.224 259.32C309.544 259.699 309.734 260.141 309.792 260.648L308.336 260.912C308.267 260.448 308.043 260.083 307.664 259.816C307.291 259.549 306.808 259.408 306.216 259.392C305.656 259.371 305.2 259.469 304.848 259.688C304.502 259.907 304.328 260.203 304.328 260.576C304.328 260.784 304.392 260.963 304.52 261.112C304.654 261.261 304.896 261.403 305.248 261.536C305.606 261.669 306.123 261.821 306.8 261.992C307.563 262.184 308.163 262.395 308.6 262.624C309.043 262.848 309.358 263.115 309.544 263.424C309.731 263.728 309.824 264.104 309.824 264.552C309.824 265.384 309.518 266.04 308.904 266.52C308.291 266.995 307.446 267.232 306.368 267.232ZM315.583 267.24C314.735 267.24 313.993 267.053 313.359 266.68C312.729 266.301 312.239 265.776 311.887 265.104C311.535 264.427 311.359 263.637 311.359 262.736C311.359 261.792 311.532 260.976 311.879 260.288C312.225 259.595 312.708 259.061 313.327 258.688C313.951 258.309 314.681 258.12 315.519 258.12C316.388 258.12 317.127 258.32 317.735 258.72C318.348 259.12 318.807 259.691 319.111 260.432C319.42 261.173 319.553 262.056 319.511 263.08H318.071V262.568C318.055 261.507 317.839 260.715 317.423 260.192C317.007 259.664 316.388 259.4 315.567 259.4C314.687 259.4 314.017 259.683 313.559 260.248C313.1 260.813 312.871 261.624 312.871 262.68C312.871 263.699 313.1 264.488 313.559 265.048C314.017 265.608 314.671 265.888 315.519 265.888C316.089 265.888 316.585 265.757 317.007 265.496C317.428 265.235 317.759 264.859 317.999 264.368L319.367 264.84C319.031 265.603 318.524 266.195 317.847 266.616C317.175 267.032 316.42 267.24 315.583 267.24ZM312.391 263.08V261.936H318.775V263.08H312.391ZM324.995 267V255.48H329.483C330.171 255.48 330.758 255.621 331.243 255.904C331.734 256.187 332.107 256.56 332.363 257.024C332.624 257.483 332.755 257.979 332.755 258.512C332.755 259.136 332.595 259.683 332.275 260.152C331.955 260.621 331.523 260.944 330.979 261.12L330.963 260.728C331.704 260.925 332.28 261.288 332.691 261.816C333.102 262.344 333.307 262.973 333.307 263.704C333.307 264.376 333.168 264.957 332.891 265.448C332.619 265.939 332.224 266.32 331.707 266.592C331.195 266.864 330.587 267 329.883 267H324.995ZM326.435 265.64H329.611C330.038 265.64 330.419 265.563 330.755 265.408C331.091 265.248 331.355 265.024 331.547 264.736C331.744 264.448 331.843 264.101 331.843 263.696C331.843 263.307 331.755 262.957 331.579 262.648C331.408 262.339 331.166 262.093 330.851 261.912C330.542 261.725 330.182 261.632 329.771 261.632H326.435V265.64ZM326.435 260.288H329.467C329.808 260.288 330.115 260.216 330.387 260.072C330.664 259.923 330.883 259.715 331.043 259.448C331.208 259.181 331.291 258.869 331.291 258.512C331.291 258.016 331.123 257.611 330.787 257.296C330.451 256.981 330.011 256.824 329.467 256.824H326.435V260.288ZM337.607 267.24C336.962 267.24 336.421 267.123 335.983 266.888C335.551 266.648 335.223 266.333 334.999 265.944C334.781 265.555 334.671 265.128 334.671 264.664C334.671 264.211 334.757 263.819 334.927 263.488C335.103 263.152 335.349 262.875 335.663 262.656C335.978 262.432 336.354 262.256 336.791 262.128C337.202 262.016 337.661 261.92 338.167 261.84C338.679 261.755 339.197 261.677 339.719 261.608C340.242 261.539 340.73 261.472 341.183 261.408L340.671 261.704C340.687 260.936 340.533 260.368 340.207 260C339.887 259.632 339.333 259.448 338.543 259.448C338.021 259.448 337.562 259.568 337.167 259.808C336.778 260.043 336.503 260.427 336.343 260.96L334.991 260.552C335.199 259.795 335.602 259.2 336.199 258.768C336.797 258.336 337.583 258.12 338.559 258.12C339.343 258.12 340.015 258.261 340.575 258.544C341.141 258.821 341.546 259.243 341.791 259.808C341.914 260.075 341.991 260.365 342.023 260.68C342.055 260.989 342.071 261.315 342.071 261.656V267H340.807V264.928L341.103 265.12C340.778 265.819 340.322 266.347 339.735 266.704C339.154 267.061 338.445 267.24 337.607 267.24ZM337.823 266.048C338.335 266.048 338.778 265.957 339.151 265.776C339.53 265.589 339.834 265.347 340.063 265.048C340.293 264.744 340.442 264.413 340.511 264.056C340.591 263.789 340.634 263.493 340.639 263.168C340.65 262.837 340.655 262.584 340.655 262.408L341.151 262.624C340.687 262.688 340.231 262.749 339.783 262.808C339.335 262.867 338.911 262.931 338.511 263C338.111 263.064 337.751 263.141 337.431 263.232C337.197 263.307 336.975 263.403 336.767 263.52C336.565 263.637 336.399 263.789 336.271 263.976C336.149 264.157 336.087 264.384 336.087 264.656C336.087 264.891 336.146 265.115 336.263 265.328C336.386 265.541 336.573 265.715 336.823 265.848C337.079 265.981 337.413 266.048 337.823 266.048ZM350.553 267V262.672C350.553 262.261 350.516 261.867 350.441 261.488C350.372 261.109 350.247 260.771 350.065 260.472C349.889 260.168 349.649 259.928 349.345 259.752C349.047 259.576 348.668 259.488 348.209 259.488C347.852 259.488 347.527 259.549 347.233 259.672C346.945 259.789 346.697 259.971 346.489 260.216C346.281 260.461 346.119 260.771 346.001 261.144C345.889 261.512 345.833 261.947 345.833 262.448L344.897 262.16C344.897 261.323 345.047 260.605 345.345 260.008C345.649 259.405 346.073 258.944 346.617 258.624C347.167 258.299 347.812 258.136 348.553 258.136C349.113 258.136 349.591 258.224 349.985 258.4C350.38 258.576 350.708 258.811 350.969 259.104C351.231 259.392 351.436 259.717 351.585 260.08C351.735 260.437 351.839 260.803 351.897 261.176C351.961 261.544 351.993 261.893 351.993 262.224V267H350.553ZM344.393 267V258.36H345.673V260.672H345.833V267H344.393ZM354.315 267L354.323 255.48H355.763V262.52L359.387 258.36H361.235L357.419 262.68L361.683 267H359.691L355.763 262.84V267H354.315Z" fill="black"/>
<path d="M322.12 321V309.48H323.56L329.568 318.48V309.48H331.008V321H329.568L323.56 311.992V321H322.12ZM337.175 321.24C336.316 321.24 335.575 321.045 334.951 320.656C334.332 320.267 333.855 319.728 333.519 319.04C333.183 318.352 333.015 317.563 333.015 316.672C333.015 315.765 333.186 314.971 333.527 314.288C333.868 313.605 334.351 313.075 334.975 312.696C335.599 312.312 336.332 312.12 337.175 312.12C338.039 312.12 338.783 312.315 339.407 312.704C340.031 313.088 340.508 313.624 340.839 314.312C341.175 314.995 341.343 315.781 341.343 316.672C341.343 317.573 341.175 318.368 340.839 319.056C340.503 319.739 340.023 320.275 339.399 320.664C338.775 321.048 338.034 321.24 337.175 321.24ZM337.175 319.888C338.071 319.888 338.738 319.589 339.175 318.992C339.612 318.395 339.831 317.621 339.831 316.672C339.831 315.696 339.61 314.92 339.167 314.344C338.724 313.763 338.06 313.472 337.175 313.472C336.572 313.472 336.076 313.608 335.687 313.88C335.298 314.152 335.007 314.528 334.815 315.008C334.623 315.488 334.527 316.043 334.527 316.672C334.527 317.643 334.751 318.421 335.199 319.008C335.647 319.595 336.306 319.888 337.175 319.888ZM349.506 321V316.672C349.506 316.261 349.469 315.867 349.394 315.488C349.325 315.109 349.2 314.771 349.018 314.472C348.842 314.168 348.602 313.928 348.298 313.752C348 313.576 347.621 313.488 347.162 313.488C346.805 313.488 346.48 313.549 346.186 313.672C345.898 313.789 345.65 313.971 345.442 314.216C345.234 314.461 345.072 314.771 344.954 315.144C344.842 315.512 344.786 315.947 344.786 316.448L343.85 316.16C343.85 315.323 344 314.605 344.298 314.008C344.602 313.405 345.026 312.944 345.57 312.624C346.12 312.299 346.765 312.136 347.506 312.136C348.066 312.136 348.544 312.224 348.938 312.4C349.333 312.576 349.661 312.811 349.922 313.104C350.184 313.392 350.389 313.717 350.538 314.08C350.688 314.437 350.792 314.803 350.85 315.176C350.914 315.544 350.946 315.893 350.946 316.224V321H349.506ZM343.346 321V312.36H344.626V314.672H344.786V321H343.346ZM356.942 321.24C356.094 321.24 355.353 321.053 354.718 320.68C354.089 320.301 353.598 319.776 353.246 319.104C352.894 318.427 352.718 317.637 352.718 316.736C352.718 315.792 352.891 314.976 353.238 314.288C353.585 313.595 354.067 313.061 354.686 312.688C355.31 312.309 356.041 312.12 356.878 312.12C357.747 312.12 358.486 312.32 359.094 312.72C359.707 313.12 360.166 313.691 360.47 314.432C360.779 315.173 360.913 316.056 360.87 317.08H359.43V316.568C359.414 315.507 359.198 314.715 358.782 314.192C358.366 313.664 357.747 313.4 356.926 313.4C356.046 313.4 355.377 313.683 354.918 314.248C354.459 314.813 354.23 315.624 354.23 316.68C354.23 317.699 354.459 318.488 354.918 319.048C355.377 319.608 356.03 319.888 356.878 319.888C357.449 319.888 357.945 319.757 358.366 319.496C358.787 319.235 359.118 318.859 359.358 318.368L360.726 318.84C360.39 319.603 359.883 320.195 359.206 320.616C358.534 321.032 357.779 321.24 356.942 321.24ZM353.75 317.08V315.936H360.134V317.08H353.75Z" fill="black"/>
<path d="M301.128 375V365.056L298.96 366.368V364.776L301.128 363.48H302.576V375H301.128ZM305.71 370.544V369.368H310.51V370.544H305.71ZM312.519 374.992L312.527 373.712L317.639 369.112C318.065 368.728 318.351 368.365 318.495 368.024C318.644 367.677 318.719 367.323 318.719 366.96C318.719 366.517 318.617 366.117 318.415 365.76C318.212 365.403 317.935 365.12 317.583 364.912C317.236 364.704 316.841 364.6 316.399 364.6C315.94 364.6 315.532 364.709 315.175 364.928C314.817 365.141 314.535 365.427 314.327 365.784C314.124 366.141 314.025 366.531 314.031 366.952H312.575C312.575 366.227 312.743 365.587 313.079 365.032C313.415 364.472 313.871 364.035 314.447 363.72C315.028 363.4 315.687 363.24 316.423 363.24C317.137 363.24 317.777 363.405 318.343 363.736C318.908 364.061 319.353 364.507 319.679 365.072C320.009 365.632 320.175 366.267 320.175 366.976C320.175 367.477 320.111 367.912 319.983 368.28C319.86 368.648 319.668 368.989 319.407 369.304C319.145 369.613 318.817 369.944 318.423 370.296L314.175 374.112L313.991 373.632H320.175V374.992H312.519ZM325.792 375V363.48H329.344C329.461 363.48 329.667 363.483 329.96 363.488C330.253 363.493 330.533 363.515 330.8 363.552C331.691 363.669 332.435 363.995 333.032 364.528C333.635 365.056 334.088 365.728 334.392 366.544C334.696 367.36 334.848 368.259 334.848 369.24C334.848 370.221 334.696 371.12 334.392 371.936C334.088 372.752 333.635 373.427 333.032 373.96C332.435 374.488 331.691 374.811 330.8 374.928C330.533 374.96 330.251 374.981 329.952 374.992C329.659 374.997 329.456 375 329.344 375H325.792ZM327.256 373.64H329.344C329.547 373.64 329.773 373.635 330.024 373.624C330.275 373.608 330.493 373.584 330.68 373.552C331.309 373.435 331.819 373.171 332.208 372.76C332.597 372.349 332.883 371.837 333.064 371.224C333.245 370.611 333.336 369.949 333.336 369.24C333.336 368.515 333.243 367.845 333.056 367.232C332.875 366.619 332.589 366.109 332.2 365.704C331.811 365.299 331.304 365.04 330.68 364.928C330.493 364.891 330.272 364.867 330.016 364.856C329.76 364.845 329.536 364.84 329.344 364.84H327.256V373.64ZM339.389 375.24C338.743 375.24 338.202 375.123 337.765 374.888C337.333 374.648 337.005 374.333 336.781 373.944C336.562 373.555 336.453 373.128 336.453 372.664C336.453 372.211 336.538 371.819 336.709 371.488C336.885 371.152 337.13 370.875 337.445 370.656C337.759 370.432 338.135 370.256 338.573 370.128C338.983 370.016 339.442 369.92 339.949 369.84C340.461 369.755 340.978 369.677 341.501 369.608C342.023 369.539 342.511 369.472 342.965 369.408L342.453 369.704C342.469 368.936 342.314 368.368 341.989 368C341.669 367.632 341.114 367.448 340.325 367.448C339.802 367.448 339.343 367.568 338.949 367.808C338.559 368.043 338.285 368.427 338.125 368.96L336.773 368.552C336.981 367.795 337.383 367.2 337.981 366.768C338.578 366.336 339.365 366.12 340.341 366.12C341.125 366.12 341.797 366.261 342.357 366.544C342.922 366.821 343.327 367.243 343.573 367.808C343.695 368.075 343.773 368.365 343.805 368.68C343.837 368.989 343.852 369.315 343.852 369.656V375H342.589V372.928L342.885 373.12C342.559 373.819 342.103 374.347 341.517 374.704C340.935 375.061 340.226 375.24 339.389 375.24ZM339.605 374.048C340.117 374.048 340.559 373.957 340.933 373.776C341.311 373.589 341.615 373.347 341.845 373.048C342.074 372.744 342.223 372.413 342.293 372.056C342.373 371.789 342.415 371.493 342.421 371.168C342.431 370.837 342.437 370.584 342.437 370.408L342.933 370.624C342.469 370.688 342.013 370.749 341.565 370.808C341.117 370.867 340.693 370.931 340.293 371C339.893 371.064 339.533 371.141 339.213 371.232C338.978 371.307 338.757 371.403 338.549 371.52C338.346 371.637 338.181 371.789 338.053 371.976C337.93 372.157 337.868 372.384 337.868 372.656C337.868 372.891 337.927 373.115 338.045 373.328C338.167 373.541 338.354 373.715 338.605 373.848C338.861 373.981 339.194 374.048 339.605 374.048ZM346.898 378.84L348.57 374.296L348.594 375.64L344.818 366.36H346.314L349.274 373.824H348.762L351.538 366.36H352.986L348.282 378.84H346.898ZM357.822 375.232C356.792 375.232 355.947 375.008 355.286 374.56C354.63 374.107 354.227 373.475 354.078 372.664L355.534 372.432C355.651 372.901 355.92 373.275 356.342 373.552C356.763 373.824 357.286 373.96 357.91 373.96C358.502 373.96 358.966 373.837 359.302 373.592C359.638 373.347 359.806 373.013 359.806 372.592C359.806 372.347 359.75 372.149 359.638 372C359.526 371.845 359.294 371.701 358.942 371.568C358.595 371.435 358.07 371.275 357.366 371.088C356.603 370.885 356.003 370.675 355.566 370.456C355.128 370.237 354.816 369.984 354.63 369.696C354.443 369.408 354.35 369.059 354.35 368.648C354.35 368.141 354.488 367.699 354.766 367.32C355.043 366.936 355.43 366.64 355.926 366.432C356.427 366.224 357.008 366.12 357.67 366.12C358.326 366.12 358.912 366.224 359.43 366.432C359.947 366.64 360.363 366.936 360.678 367.32C360.998 367.699 361.187 368.141 361.246 368.648L359.79 368.912C359.72 368.448 359.496 368.083 359.118 367.816C358.744 367.549 358.262 367.408 357.67 367.392C357.11 367.371 356.654 367.469 356.302 367.688C355.955 367.907 355.782 368.203 355.782 368.576C355.782 368.784 355.846 368.963 355.974 369.112C356.107 369.261 356.35 369.403 356.702 369.536C357.059 369.669 357.576 369.821 358.254 369.992C359.016 370.184 359.616 370.395 360.054 370.624C360.496 370.848 360.811 371.115 360.998 371.424C361.184 371.728 361.278 372.104 361.278 372.552C361.278 373.384 360.971 374.04 360.358 374.52C359.744 374.995 358.899 375.232 357.822 375.232Z" fill="black"/>
<path d="M35.088 429V418.832H31.16V417.48H40.44V418.832H36.512V429H35.088ZM44.3625 429.24C43.5038 429.24 42.7625 429.045 42.1385 428.656C41.5198 428.267 41.0425 427.728 40.7065 427.04C40.3705 426.352 40.2025 425.563 40.2025 424.672C40.2025 423.765 40.3732 422.971 40.7145 422.288C41.0558 421.605 41.5385 421.075 42.1625 420.696C42.7865 420.312 43.5198 420.12 44.3625 420.12C45.2265 420.12 45.9705 420.315 46.5945 420.704C47.2185 421.088 47.6958 421.624 48.0265 422.312C48.3625 422.995 48.5305 423.781 48.5305 424.672C48.5305 425.573 48.3625 426.368 48.0265 427.056C47.6905 427.739 47.2105 428.275 46.5865 428.664C45.9625 429.048 45.2212 429.24 44.3625 429.24ZM44.3625 427.888C45.2585 427.888 45.9252 427.589 46.3625 426.992C46.7998 426.395 47.0185 425.621 47.0185 424.672C47.0185 423.696 46.7972 422.92 46.3545 422.344C45.9118 421.763 45.2478 421.472 44.3625 421.472C43.7598 421.472 43.2638 421.608 42.8745 421.88C42.4852 422.152 42.1945 422.528 42.0025 423.008C41.8105 423.488 41.7145 424.043 41.7145 424.672C41.7145 425.643 41.9385 426.421 42.3865 427.008C42.8345 427.595 43.4932 427.888 44.3625 427.888ZM55.3659 429C54.8539 429.101 54.3472 429.141 53.8459 429.12C53.3499 429.104 52.9072 429.005 52.5179 428.824C52.1285 428.637 51.8325 428.349 51.6299 427.96C51.4592 427.619 51.3659 427.275 51.3499 426.928C51.3392 426.576 51.3339 426.179 51.3339 425.736V417.96H52.7579V425.672C52.7579 426.024 52.7605 426.325 52.7659 426.576C52.7765 426.827 52.8325 427.043 52.9339 427.224C53.1259 427.565 53.4299 427.765 53.8459 427.824C54.2672 427.883 54.7739 427.867 55.3659 427.776V429ZM49.5819 421.536V420.36H55.3659V421.536H49.5819ZM59.826 429.24C59.1807 429.24 58.6393 429.123 58.202 428.888C57.77 428.648 57.442 428.333 57.218 427.944C56.9993 427.555 56.89 427.128 56.89 426.664C56.89 426.211 56.9753 425.819 57.146 425.488C57.322 425.152 57.5673 424.875 57.882 424.656C58.1967 424.432 58.5727 424.256 59.01 424.128C59.4207 424.016 59.8793 423.92 60.386 423.84C60.898 423.755 61.4153 423.677 61.938 423.608C62.4607 423.539 62.9487 423.472 63.402 423.408L62.89 423.704C62.906 422.936 62.7513 422.368 62.426 422C62.106 421.632 61.5513 421.448 60.762 421.448C60.2393 421.448 59.7807 421.568 59.386 421.808C58.9967 422.043 58.722 422.427 58.562 422.96L57.21 422.552C57.418 421.795 57.8207 421.2 58.418 420.768C59.0153 420.336 59.802 420.12 60.778 420.12C61.562 420.12 62.234 420.261 62.794 420.544C63.3593 420.821 63.7647 421.243 64.01 421.808C64.1327 422.075 64.21 422.365 64.242 422.68C64.274 422.989 64.29 423.315 64.29 423.656V429H63.026V426.928L63.322 427.12C62.9967 427.819 62.5407 428.347 61.954 428.704C61.3727 429.061 60.6633 429.24 59.826 429.24ZM60.042 428.048C60.554 428.048 60.9967 427.957 61.37 427.776C61.7487 427.589 62.0527 427.347 62.282 427.048C62.5113 426.744 62.6607 426.413 62.73 426.056C62.81 425.789 62.8527 425.493 62.858 425.168C62.8687 424.837 62.874 424.584 62.874 424.408L63.37 424.624C62.906 424.688 62.45 424.749 62.002 424.808C61.554 424.867 61.13 424.931 60.73 425C60.33 425.064 59.97 425.141 59.65 425.232C59.4153 425.307 59.194 425.403 58.986 425.52C58.7833 425.637 58.618 425.789 58.49 425.976C58.3673 426.157 58.306 426.384 58.306 426.656C58.306 426.891 58.3647 427.115 58.482 427.328C58.6047 427.541 58.7913 427.715 59.042 427.848C59.298 427.981 59.6313 428.048 60.042 428.048ZM66.78 429V417.24H68.204V429H66.78ZM74.3075 429V417.48H77.8595C77.9768 417.48 78.1822 417.483 78.4755 417.488C78.7688 417.493 79.0488 417.515 79.3155 417.552C80.2062 417.669 80.9502 417.995 81.5475 418.528C82.1502 419.056 82.6035 419.728 82.9075 420.544C83.2115 421.36 83.3635 422.259 83.3635 423.24C83.3635 424.221 83.2115 425.12 82.9075 425.936C82.6035 426.752 82.1502 427.427 81.5475 427.96C80.9502 428.488 80.2062 428.811 79.3155 428.928C79.0488 428.96 78.7662 428.981 78.4675 428.992C78.1742 428.997 77.9715 429 77.8595 429H74.3075ZM75.7715 427.64H77.8595C78.0622 427.64 78.2888 427.635 78.5395 427.624C78.7902 427.608 79.0088 427.584 79.1955 427.552C79.8248 427.435 80.3342 427.171 80.7235 426.76C81.1128 426.349 81.3982 425.837 81.5795 425.224C81.7608 424.611 81.8515 423.949 81.8515 423.24C81.8515 422.515 81.7582 421.845 81.5715 421.232C81.3902 420.619 81.1048 420.109 80.7155 419.704C80.3262 419.299 79.8195 419.04 79.1955 418.928C79.0088 418.891 78.7875 418.867 78.5315 418.856C78.2755 418.845 78.0515 418.84 77.8595 418.84H75.7715V427.64ZM89.1921 429.24C88.3441 429.24 87.6028 429.053 86.9681 428.68C86.3388 428.301 85.8481 427.776 85.4961 427.104C85.1441 426.427 84.9681 425.637 84.9681 424.736C84.9681 423.792 85.1415 422.976 85.4881 422.288C85.8348 421.595 86.3175 421.061 86.9361 420.688C87.5601 420.309 88.2908 420.12 89.1281 420.12C89.9975 420.12 90.7361 420.32 91.3441 420.72C91.9575 421.12 92.4161 421.691 92.7201 422.432C93.0295 423.173 93.1628 424.056 93.1201 425.08H91.6801V424.568C91.6641 423.507 91.4481 422.715 91.0321 422.192C90.6161 421.664 89.9975 421.4 89.1761 421.4C88.2961 421.4 87.6268 421.683 87.1681 422.248C86.7095 422.813 86.4801 423.624 86.4801 424.68C86.4801 425.699 86.7095 426.488 87.1681 427.048C87.6268 427.608 88.2801 427.888 89.1281 427.888C89.6988 427.888 90.1948 427.757 90.6161 427.496C91.0375 427.235 91.3681 426.859 91.6081 426.368L92.9761 426.84C92.6401 427.603 92.1335 428.195 91.4561 428.616C90.7841 429.032 90.0295 429.24 89.1921 429.24ZM86.0001 425.08V423.936H92.3841V425.08H86.0001ZM98.8849 429.24C98.0742 429.24 97.3915 429.04 96.8369 428.64C96.2822 428.235 95.8609 427.688 95.5729 427C95.2902 426.307 95.1489 425.531 95.1489 424.672C95.1489 423.803 95.2902 423.024 95.5729 422.336C95.8609 421.648 96.2822 421.107 96.8369 420.712C97.3969 420.317 98.0822 420.12 98.8929 420.12C99.6929 420.12 100.381 420.32 100.957 420.72C101.538 421.115 101.984 421.656 102.293 422.344C102.602 423.032 102.757 423.808 102.757 424.672C102.757 425.536 102.602 426.312 102.293 427C101.984 427.688 101.538 428.235 100.957 428.64C100.381 429.04 99.6902 429.24 98.8849 429.24ZM94.9089 432.84V420.36H96.1809V426.72H96.3409V432.84H94.9089ZM98.7089 427.936C99.2795 427.936 99.7515 427.792 100.125 427.504C100.498 427.216 100.778 426.827 100.965 426.336C101.152 425.84 101.245 425.285 101.245 424.672C101.245 424.064 101.152 423.515 100.965 423.024C100.784 422.533 100.501 422.144 100.117 421.856C99.7382 421.568 99.2555 421.424 98.6689 421.424C98.1089 421.424 97.6449 421.563 97.2769 421.84C96.9089 422.112 96.6342 422.493 96.4529 422.984C96.2715 423.469 96.1809 424.032 96.1809 424.672C96.1809 425.301 96.2689 425.864 96.4449 426.36C96.6262 426.851 96.9035 427.237 97.2769 427.52C97.6502 427.797 98.1275 427.936 98.7089 427.936ZM108.441 429.24C107.582 429.24 106.841 429.045 106.217 428.656C105.598 428.267 105.121 427.728 104.785 427.04C104.449 426.352 104.281 425.563 104.281 424.672C104.281 423.765 104.451 422.971 104.793 422.288C105.134 421.605 105.617 421.075 106.241 420.696C106.865 420.312 107.598 420.12 108.441 420.12C109.305 420.12 110.049 420.315 110.673 420.704C111.297 421.088 111.774 421.624 112.105 422.312C112.441 422.995 112.609 423.781 112.609 424.672C112.609 425.573 112.441 426.368 112.105 427.056C111.769 427.739 111.289 428.275 110.665 428.664C110.041 429.048 109.299 429.24 108.441 429.24ZM108.441 427.888C109.337 427.888 110.003 427.589 110.441 426.992C110.878 426.395 111.097 425.621 111.097 424.672C111.097 423.696 110.875 422.92 110.433 422.344C109.99 421.763 109.326 421.472 108.441 421.472C107.838 421.472 107.342 421.608 106.953 421.88C106.563 422.152 106.273 422.528 106.081 423.008C105.889 423.488 105.793 424.043 105.793 424.672C105.793 425.643 106.017 426.421 106.465 427.008C106.913 427.595 107.571 427.888 108.441 427.888ZM117.759 429.232C116.73 429.232 115.884 429.008 115.223 428.56C114.567 428.107 114.164 427.475 114.015 426.664L115.471 426.432C115.588 426.901 115.858 427.275 116.279 427.552C116.7 427.824 117.223 427.96 117.847 427.96C118.439 427.96 118.903 427.837 119.239 427.592C119.575 427.347 119.743 427.013 119.743 426.592C119.743 426.347 119.687 426.149 119.575 426C119.463 425.845 119.231 425.701 118.879 425.568C118.532 425.435 118.007 425.275 117.303 425.088C116.54 424.885 115.94 424.675 115.503 424.456C115.066 424.237 114.754 423.984 114.567 423.696C114.38 423.408 114.287 423.059 114.287 422.648C114.287 422.141 114.426 421.699 114.703 421.32C114.98 420.936 115.367 420.64 115.863 420.432C116.364 420.224 116.946 420.12 117.607 420.12C118.263 420.12 118.85 420.224 119.367 420.432C119.884 420.64 120.3 420.936 120.615 421.32C120.935 421.699 121.124 422.141 121.183 422.648L119.727 422.912C119.658 422.448 119.434 422.083 119.055 421.816C118.682 421.549 118.199 421.408 117.607 421.392C117.047 421.371 116.591 421.469 116.239 421.688C115.892 421.907 115.719 422.203 115.719 422.576C115.719 422.784 115.783 422.963 115.911 423.112C116.044 423.261 116.287 423.403 116.639 423.536C116.996 423.669 117.514 423.821 118.191 423.992C118.954 424.184 119.554 424.395 119.991 424.624C120.434 424.848 120.748 425.115 120.935 425.424C121.122 425.728 121.215 426.104 121.215 426.552C121.215 427.384 120.908 428.04 120.295 428.52C119.682 428.995 118.836 429.232 117.759 429.232ZM123.389 418.832V417.36H124.813V418.832H123.389ZM123.389 429V420.36H124.813V429H123.389ZM132.288 429C131.776 429.101 131.269 429.141 130.768 429.12C130.272 429.104 129.829 429.005 129.44 428.824C129.05 428.637 128.754 428.349 128.552 427.96C128.381 427.619 128.288 427.275 128.272 426.928C128.261 426.576 128.256 426.179 128.256 425.736V417.96H129.68V425.672C129.68 426.024 129.682 426.325 129.688 426.576C129.698 426.827 129.754 427.043 129.856 427.224C130.048 427.565 130.352 427.765 130.768 427.824C131.189 427.883 131.696 427.867 132.288 427.776V429ZM126.504 421.536V420.36H132.288V421.536H126.504Z" fill="#A0A3BD"/>
<path d="M304.152 430.584V428.736H305.576V430.584H304.152ZM304.152 417.744V415.888H305.576V417.744H304.152ZM304.976 429.24C304.197 429.24 303.496 429.101 302.872 428.824C302.253 428.541 301.744 428.144 301.344 427.632C300.944 427.115 300.683 426.507 300.56 425.808L301.96 425.576C302.131 426.285 302.491 426.848 303.04 427.264C303.595 427.68 304.261 427.888 305.04 427.888C305.824 427.888 306.459 427.699 306.944 427.32C307.429 426.941 307.672 426.453 307.672 425.856C307.672 425.419 307.541 425.067 307.28 424.8C307.024 424.533 306.592 424.307 305.984 424.12L303.352 423.304C301.779 422.813 300.992 421.875 300.992 420.488C300.992 419.837 301.149 419.269 301.464 418.784C301.784 418.293 302.229 417.915 302.8 417.648C303.376 417.376 304.045 417.243 304.808 417.248C305.549 417.253 306.211 417.392 306.792 417.664C307.373 417.931 307.853 418.315 308.232 418.816C308.616 419.317 308.875 419.917 309.008 420.616L307.568 420.88C307.493 420.427 307.328 420.029 307.072 419.688C306.821 419.347 306.501 419.083 306.112 418.896C305.723 418.704 305.285 418.605 304.8 418.6C304.347 418.595 303.939 418.669 303.576 418.824C303.219 418.979 302.936 419.195 302.728 419.472C302.52 419.749 302.416 420.067 302.416 420.424C302.416 420.813 302.56 421.144 302.848 421.416C303.141 421.683 303.6 421.912 304.224 422.104L306.384 422.744C307.333 423.027 308.019 423.408 308.44 423.888C308.861 424.363 309.072 424.997 309.072 425.792C309.072 426.48 308.901 427.083 308.56 427.6C308.224 428.117 307.747 428.52 307.128 428.808C306.515 429.096 305.797 429.24 304.976 429.24ZM313.003 429V419.056L310.835 420.368V418.776L313.003 417.48H314.451V429H313.003ZM321.633 429.24C320.886 429.24 320.22 429.072 319.633 428.736C319.052 428.395 318.59 427.933 318.249 427.352C317.913 426.765 317.745 426.099 317.745 425.352V421.128C317.745 420.381 317.913 419.715 318.249 419.128C318.59 418.541 319.052 418.08 319.633 417.744C320.22 417.408 320.886 417.24 321.633 417.24C322.38 417.24 323.046 417.408 323.633 417.744C324.22 418.08 324.681 418.541 325.017 419.128C325.353 419.715 325.521 420.381 325.521 421.128V425.352C325.521 426.099 325.353 426.765 325.017 427.352C324.681 427.933 324.22 428.395 323.633 428.736C323.046 429.072 322.38 429.24 321.633 429.24ZM321.633 427.872C322.086 427.872 322.497 427.763 322.865 427.544C323.233 427.325 323.526 427.032 323.745 426.664C323.964 426.291 324.073 425.88 324.073 425.432V421.04C324.073 420.587 323.964 420.176 323.745 419.808C323.526 419.44 323.233 419.147 322.865 418.928C322.497 418.709 322.086 418.6 321.633 418.6C321.185 418.6 320.774 418.709 320.401 418.928C320.033 419.147 319.74 419.44 319.521 419.808C319.302 420.176 319.193 420.587 319.193 421.04V425.432C319.193 425.88 319.302 426.291 319.521 426.664C319.74 427.032 320.033 427.325 320.401 427.544C320.774 427.763 321.185 427.872 321.633 427.872ZM331.899 429.24C331.152 429.24 330.485 429.072 329.899 428.736C329.317 428.395 328.856 427.933 328.515 427.352C328.179 426.765 328.011 426.099 328.011 425.352V421.128C328.011 420.381 328.179 419.715 328.515 419.128C328.856 418.541 329.317 418.08 329.899 417.744C330.485 417.408 331.152 417.24 331.899 417.24C332.645 417.24 333.312 417.408 333.899 417.744C334.485 418.08 334.947 418.541 335.283 419.128C335.619 419.715 335.787 420.381 335.787 421.128V425.352C335.787 426.099 335.619 426.765 335.283 427.352C334.947 427.933 334.485 428.395 333.899 428.736C333.312 429.072 332.645 429.24 331.899 429.24ZM331.899 427.872C332.352 427.872 332.763 427.763 333.131 427.544C333.499 427.325 333.792 427.032 334.011 426.664C334.229 426.291 334.339 425.88 334.339 425.432V421.04C334.339 420.587 334.229 420.176 334.011 419.808C333.792 419.44 333.499 419.147 333.131 418.928C332.763 418.709 332.352 418.6 331.899 418.6C331.451 418.6 331.04 418.709 330.667 418.928C330.299 419.147 330.005 419.44 329.787 419.808C329.568 420.176 329.459 420.587 329.459 421.04V425.432C329.459 425.88 329.568 426.291 329.787 426.664C330.005 427.032 330.299 427.325 330.667 427.544C331.04 427.763 331.451 427.872 331.899 427.872ZM338.532 429V427.432H340.1V429H338.532ZM346.727 429.24C345.98 429.24 345.313 429.072 344.727 428.736C344.145 428.395 343.684 427.933 343.343 427.352C343.007 426.765 342.839 426.099 342.839 425.352V421.128C342.839 420.381 343.007 419.715 343.343 419.128C343.684 418.541 344.145 418.08 344.727 417.744C345.313 417.408 345.98 417.24 346.727 417.24C347.473 417.24 348.14 417.408 348.727 417.744C349.313 418.08 349.775 418.541 350.111 419.128C350.447 419.715 350.615 420.381 350.615 421.128V425.352C350.615 426.099 350.447 426.765 350.111 427.352C349.775 427.933 349.313 428.395 348.727 428.736C348.14 429.072 347.473 429.24 346.727 429.24ZM346.727 427.872C347.18 427.872 347.591 427.763 347.959 427.544C348.327 427.325 348.62 427.032 348.839 426.664C349.057 426.291 349.167 425.88 349.167 425.432V421.04C349.167 420.587 349.057 420.176 348.839 419.808C348.62 419.44 348.327 419.147 347.959 418.928C347.591 418.709 347.18 418.6 346.727 418.6C346.279 418.6 345.868 418.709 345.495 418.928C345.127 419.147 344.833 419.44 344.615 419.808C344.396 420.176 344.287 420.587 344.287 421.04V425.432C344.287 425.88 344.396 426.291 344.615 426.664C344.833 427.032 345.127 427.325 345.495 427.544C345.868 427.763 346.279 427.872 346.727 427.872ZM356.992 429.24C356.246 429.24 355.579 429.072 354.992 428.736C354.411 428.395 353.95 427.933 353.608 427.352C353.272 426.765 353.104 426.099 353.104 425.352V421.128C353.104 420.381 353.272 419.715 353.608 419.128C353.95 418.541 354.411 418.08 354.992 417.744C355.579 417.408 356.246 417.24 356.992 417.24C357.739 417.24 358.406 417.408 358.992 417.744C359.579 418.08 360.04 418.541 360.376 419.128C360.712 419.715 360.88 420.381 360.88 421.128V425.352C360.88 426.099 360.712 426.765 360.376 427.352C360.04 427.933 359.579 428.395 358.992 428.736C358.406 429.072 357.739 429.24 356.992 429.24ZM356.992 427.872C357.446 427.872 357.856 427.763 358.224 427.544C358.592 427.325 358.886 427.032 359.104 426.664C359.323 426.291 359.432 425.88 359.432 425.432V421.04C359.432 420.587 359.323 420.176 359.104 419.808C358.886 419.44 358.592 419.147 358.224 418.928C357.856 418.709 357.446 418.6 356.992 418.6C356.544 418.6 356.134 418.709 355.76 418.928C355.392 419.147 355.099 419.44 354.88 419.808C354.662 420.176 354.552 420.587 354.552 421.04V425.432C354.552 425.88 354.662 426.291 354.88 426.664C355.099 427.032 355.392 427.325 355.76 427.544C356.134 427.763 356.544 427.872 356.992 427.872Z" fill="black"/>
<rect width="365" height="1" transform="translate(14 208)" fill="white"/>
<path fill-rule="evenodd" clip-rule="evenodd" d="M379 209H14V208H379V209Z" fill="#EFF0F6" fill-opacity="0.75"/>
<path d="M202 744.5C202 732.074 212.074 722 224.5 722H339.5C351.926 722 362 732.074 362 744.5V744.5C362 756.926 351.926 767 339.5 767H224.5C212.074 767 202 756.926 202 744.5V744.5Z" fill="#0BDA62"/>
<path d="M252.241 751.77C250.945 751.77 249.835 751.488 248.911 750.924C247.987 750.354 247.276 749.562 246.778 748.548C246.286 747.534 246.04 746.358 246.04 745.02C246.04 743.682 246.286 742.506 246.778 741.492C247.276 740.478 247.987 739.689 248.911 739.125C249.835 738.555 250.945 738.27 252.241 738.27C253.735 738.27 254.98 738.645 255.976 739.395C256.972 740.139 257.671 741.144 258.073 742.41L255.886 743.013C255.634 742.167 255.205 741.507 254.599 741.033C253.993 740.553 253.207 740.313 252.241 740.313C251.371 740.313 250.645 740.508 250.063 740.898C249.487 741.288 249.052 741.837 248.758 742.545C248.47 743.247 248.323 744.072 248.317 745.02C248.317 745.968 248.461 746.796 248.749 747.504C249.043 748.206 249.481 748.752 250.063 749.142C250.645 749.532 251.371 749.727 252.241 749.727C253.207 749.727 253.993 749.487 254.599 749.007C255.205 748.527 255.634 747.867 255.886 747.027L258.073 747.63C257.671 748.896 256.972 749.904 255.976 750.654C254.98 751.398 253.735 751.77 252.241 751.77ZM264.592 751.77C263.62 751.77 262.771 751.551 262.045 751.113C261.319 750.675 260.755 750.072 260.353 749.304C259.957 748.53 259.759 747.642 259.759 746.64C259.759 745.62 259.963 744.726 260.371 743.958C260.779 743.19 261.346 742.59 262.072 742.158C262.798 741.726 263.638 741.51 264.592 741.51C265.57 741.51 266.422 741.729 267.148 742.167C267.874 742.605 268.438 743.211 268.84 743.985C269.242 744.753 269.443 745.638 269.443 746.64C269.443 747.648 269.239 748.539 268.831 749.313C268.429 750.081 267.865 750.684 267.139 751.122C266.413 751.554 265.564 751.77 264.592 751.77ZM264.592 749.736C265.456 749.736 266.098 749.448 266.518 748.872C266.938 748.296 267.148 747.552 267.148 746.64C267.148 745.698 266.935 744.948 266.509 744.39C266.083 743.826 265.444 743.544 264.592 743.544C264.01 743.544 263.53 743.676 263.152 743.94C262.78 744.198 262.504 744.561 262.324 745.029C262.144 745.491 262.054 746.028 262.054 746.64C262.054 747.582 262.267 748.335 262.693 748.899C263.125 749.457 263.758 749.736 264.592 749.736ZM278.399 751.5V746.82C278.399 746.514 278.378 746.175 278.336 745.803C278.294 745.431 278.195 745.074 278.039 744.732C277.889 744.384 277.661 744.099 277.355 743.877C277.055 743.655 276.647 743.544 276.131 743.544C275.855 743.544 275.582 743.589 275.312 743.679C275.042 743.769 274.796 743.925 274.574 744.147C274.358 744.363 274.184 744.663 274.052 745.047C273.92 745.425 273.854 745.911 273.854 746.505L272.567 745.956C272.567 745.128 272.726 744.378 273.044 743.706C273.368 743.034 273.842 742.5 274.466 742.104C275.09 741.702 275.858 741.501 276.77 741.501C277.49 741.501 278.084 741.621 278.552 741.861C279.02 742.101 279.392 742.407 279.668 742.779C279.944 743.151 280.148 743.547 280.28 743.967C280.412 744.387 280.496 744.786 280.532 745.164C280.574 745.536 280.595 745.839 280.595 746.073V751.5H278.399ZM271.658 751.5V741.78H273.593V744.795H273.854V751.5H271.658ZM284.04 751.5V741.627C284.04 741.381 284.049 741.111 284.067 740.817C284.085 740.517 284.136 740.22 284.22 739.926C284.304 739.632 284.457 739.365 284.679 739.125C284.955 738.819 285.252 738.609 285.57 738.495C285.894 738.375 286.212 738.309 286.524 738.297C286.836 738.279 287.109 738.27 287.343 738.27H288.558V740.034H287.433C287.019 740.034 286.71 740.139 286.506 740.349C286.308 740.553 286.209 740.823 286.209 741.159V751.5H284.04ZM282.474 743.481V741.78H288.558V743.481H282.474ZM290.448 740.304V738.315H292.617V740.304H290.448ZM290.448 751.5V741.78H292.617V751.5H290.448ZM295.573 751.5V741.78H297.49V744.147L297.256 743.841C297.376 743.517 297.535 743.223 297.733 742.959C297.937 742.689 298.18 742.467 298.462 742.293C298.702 742.131 298.966 742.005 299.254 741.915C299.548 741.819 299.848 741.762 300.154 741.744C300.46 741.72 300.757 741.732 301.045 741.78V743.805C300.757 743.721 300.424 743.694 300.046 743.724C299.674 743.754 299.338 743.859 299.038 744.039C298.738 744.201 298.492 744.408 298.3 744.66C298.114 744.912 297.976 745.2 297.886 745.524C297.796 745.842 297.751 746.187 297.751 746.559V751.5H295.573ZM314.685 751.5V745.596C314.685 744.93 314.52 744.411 314.19 744.039C313.86 743.661 313.413 743.472 312.849 743.472C312.501 743.472 312.189 743.553 311.913 743.715C311.637 743.871 311.418 744.105 311.256 744.417C311.094 744.723 311.013 745.089 311.013 745.515L310.05 744.948C310.044 744.276 310.194 743.685 310.5 743.175C310.812 742.659 311.232 742.257 311.76 741.969C312.288 741.681 312.876 741.537 313.524 741.537C314.598 741.537 315.42 741.861 315.99 742.509C316.566 743.151 316.854 743.997 316.854 745.047V751.5H314.685ZM302.994 751.5V741.78H304.911V744.795H305.181V751.5H302.994ZM308.853 751.5V745.623C308.853 744.945 308.688 744.417 308.358 744.039C308.028 743.661 307.578 743.472 307.008 743.472C306.456 743.472 306.012 743.661 305.676 744.039C305.346 744.417 305.181 744.909 305.181 745.515L304.209 744.867C304.209 744.237 304.365 743.67 304.677 743.166C304.989 742.662 305.409 742.266 305.937 741.978C306.471 741.684 307.068 741.537 307.728 741.537C308.454 741.537 309.06 741.693 309.546 742.005C310.038 742.311 310.404 742.731 310.644 743.265C310.89 743.793 311.013 744.39 311.013 745.056V751.5H308.853Z" fill="white"/>
<path d="M31 744.5C31 732.074 41.0736 722 53.5 722H168.5C180.926 722 191 732.074 191 744.5V744.5C191 756.926 180.926 767 168.5 767H53.5C41.0736 767 31 756.926 31 744.5V744.5Z" fill="#EFF0F6" fill-opacity="0.75"/>
<path d="M90.76 751.5V738.54H95.899C96.775 738.54 97.492 738.717 98.05 739.071C98.614 739.419 99.031 739.866 99.301 740.412C99.577 740.958 99.715 741.522 99.715 742.104C99.715 742.818 99.544 743.424 99.202 743.922C98.866 744.42 98.407 744.756 97.825 744.93V744.48C98.641 744.666 99.259 745.053 99.679 745.641C100.105 746.229 100.318 746.898 100.318 747.648C100.318 748.416 100.171 749.088 99.877 749.664C99.583 750.24 99.145 750.69 98.563 751.014C97.987 751.338 97.273 751.5 96.421 751.5H90.76ZM92.956 749.457H96.151C96.529 749.457 96.868 749.382 97.168 749.232C97.468 749.076 97.702 748.86 97.87 748.584C98.044 748.302 98.131 747.969 98.131 747.585C98.131 747.237 98.056 746.925 97.906 746.649C97.756 746.373 97.537 746.154 97.249 745.992C96.961 745.824 96.616 745.74 96.214 745.74H92.956V749.457ZM92.956 743.715H95.872C96.184 743.715 96.463 743.655 96.709 743.535C96.955 743.415 97.15 743.238 97.294 743.004C97.438 742.77 97.51 742.482 97.51 742.14C97.51 741.69 97.366 741.315 97.078 741.015C96.79 740.715 96.388 740.565 95.872 740.565H92.956V743.715ZM105.083 751.77C104.381 751.77 103.787 751.638 103.301 751.374C102.815 751.104 102.446 750.747 102.194 750.303C101.948 749.859 101.825 749.37 101.825 748.836C101.825 748.368 101.903 747.948 102.059 747.576C102.215 747.198 102.455 746.874 102.779 746.604C103.103 746.328 103.523 746.103 104.039 745.929C104.429 745.803 104.885 745.689 105.407 745.587C105.935 745.485 106.505 745.392 107.117 745.308C107.735 745.218 108.38 745.122 109.052 745.02L108.278 745.461C108.284 744.789 108.134 744.294 107.828 743.976C107.522 743.658 107.006 743.499 106.28 743.499C105.842 743.499 105.419 743.601 105.011 743.805C104.603 744.009 104.318 744.36 104.156 744.858L102.176 744.237C102.416 743.415 102.872 742.755 103.544 742.257C104.222 741.759 105.134 741.51 106.28 741.51C107.144 741.51 107.903 741.651 108.557 741.933C109.217 742.215 109.706 742.677 110.024 743.319C110.198 743.661 110.303 744.012 110.339 744.372C110.375 744.726 110.393 745.113 110.393 745.533V751.5H108.494V749.394L108.809 749.736C108.371 750.438 107.858 750.954 107.27 751.284C106.688 751.608 105.959 751.77 105.083 751.77ZM105.515 750.042C106.007 750.042 106.427 749.955 106.775 749.781C107.123 749.607 107.399 749.394 107.603 749.142C107.813 748.89 107.954 748.653 108.026 748.431C108.14 748.155 108.203 747.84 108.215 747.486C108.233 747.126 108.242 746.835 108.242 746.613L108.908 746.811C108.254 746.913 107.693 747.003 107.225 747.081C106.757 747.159 106.355 747.234 106.019 747.306C105.683 747.372 105.386 747.447 105.128 747.531C104.876 747.621 104.663 747.726 104.489 747.846C104.315 747.966 104.18 748.104 104.084 748.26C103.994 748.416 103.949 748.599 103.949 748.809C103.949 749.049 104.009 749.262 104.129 749.448C104.249 749.628 104.423 749.772 104.651 749.88C104.885 749.988 105.173 750.042 105.515 750.042ZM117.208 751.77C116.206 751.77 115.351 751.548 114.643 751.104C113.935 750.654 113.392 750.042 113.014 749.268C112.642 748.494 112.453 747.618 112.447 746.64C112.453 745.644 112.648 744.762 113.032 743.994C113.422 743.22 113.974 742.614 114.688 742.176C115.402 741.732 116.251 741.51 117.235 741.51C118.339 741.51 119.272 741.789 120.034 742.347C120.802 742.899 121.303 743.655 121.537 744.615L119.377 745.2C119.209 744.678 118.93 744.273 118.54 743.985C118.15 743.691 117.706 743.544 117.208 743.544C116.644 743.544 116.179 743.679 115.813 743.949C115.447 744.213 115.177 744.579 115.003 745.047C114.829 745.515 114.742 746.046 114.742 746.64C114.742 747.564 114.949 748.311 115.363 748.881C115.777 749.451 116.392 749.736 117.208 749.736C117.784 749.736 118.237 749.604 118.567 749.34C118.903 749.076 119.155 748.695 119.323 748.197L121.537 748.692C121.237 749.682 120.712 750.444 119.962 750.978C119.212 751.506 118.294 751.77 117.208 751.77ZM123.572 751.5L123.59 738.54H125.786V746.46L129.341 741.78H132.05L128.279 746.64L132.374 751.5H129.503L125.786 746.82V751.5H123.572Z" fill="black"/>
<path opacity="0.35" d="M338.667 17.8334H355.333C356.53 17.8334 357.5 18.8034 357.5 20V26C357.5 27.1967 356.53 28.1667 355.333 28.1667H338.667C337.47 28.1667 336.5 27.1967 336.5 26V20C336.5 18.8034 337.47 17.8334 338.667 17.8334Z" stroke="black"/>
<path opacity="0.4" d="M359 21V25C359.805 24.6612 360.328 23.8731 360.328 23C360.328 22.1269 359.805 21.3388 359 21" fill="black"/>
<path d="M338 20.6667C338 19.9303 338.597 19.3334 339.333 19.3334H354.667C355.403 19.3334 356 19.9303 356 20.6667V25.3334C356 26.0698 355.403 26.6667 354.667 26.6667H339.333C338.597 26.6667 338 26.0698 338 25.3334V20.6667Z" fill="black"/>
<path fill-rule="evenodd" clip-rule="evenodd" d="M323.33 19.608C325.546 19.6081 327.677 20.4596 329.283 21.9863C329.404 22.1042 329.598 22.1027 329.717 21.983L330.873 20.8163C330.933 20.7556 330.967 20.6734 330.966 20.5878C330.966 20.5022 330.931 20.4204 330.87 20.3603C326.655 16.3208 320.005 16.3208 315.79 20.3603C315.729 20.4203 315.694 20.5021 315.694 20.5877C315.693 20.6733 315.727 20.7556 315.787 20.8163L316.943 21.983C317.062 22.1029 317.256 22.1044 317.377 21.9863C318.983 20.4595 321.114 19.608 323.33 19.608ZM323.33 23.4037C324.548 23.4036 325.722 23.8561 326.624 24.6733C326.746 24.7893 326.939 24.7868 327.058 24.6677L328.212 23.501C328.273 23.4398 328.307 23.3568 328.306 23.2705C328.305 23.1843 328.27 23.102 328.208 23.042C325.459 20.4856 321.204 20.4856 318.455 23.042C318.393 23.102 318.358 23.1843 318.357 23.2706C318.356 23.3569 318.39 23.4399 318.451 23.501L319.605 24.6677C319.724 24.7868 319.917 24.7893 320.039 24.6733C320.941 23.8567 322.114 23.4042 323.33 23.4037ZM325.643 25.9575C325.645 26.044 325.611 26.1274 325.549 26.188L323.552 28.2037C323.493 28.2629 323.414 28.2963 323.33 28.2963C323.247 28.2963 323.167 28.2629 323.109 28.2037L321.111 26.188C321.049 26.1274 321.015 26.0439 321.017 25.9574C321.019 25.8709 321.056 25.789 321.121 25.731C322.396 24.6521 324.264 24.6521 325.54 25.731C325.604 25.789 325.642 25.871 325.643 25.9575Z" fill="black"/>
<path fill-rule="evenodd" clip-rule="evenodd" d="M309.667 17.6666H308.667C308.114 17.6666 307.667 18.1143 307.667 18.6666V27.3333C307.667 27.8856 308.114 28.3333 308.667 28.3333H309.667C310.219 28.3333 310.667 27.8856 310.667 27.3333V18.6666C310.667 18.1143 310.219 17.6666 309.667 17.6666ZM304 20H305C305.552 20 306 20.4477 306 21V27.3333C306 27.8856 305.552 28.3333 305 28.3333H304C303.448 28.3333 303 27.8856 303 27.3333V21C303 20.4477 303.448 20 304 20ZM300.333 22.3333H299.333C298.781 22.3333 298.333 22.781 298.333 23.3333V27.3333C298.333 27.8856 298.781 28.3333 299.333 28.3333H300.333C300.886 28.3333 301.333 27.8856 301.333 27.3333V23.3333C301.333 22.781 300.886 22.3333 300.333 22.3333ZM295.667 24.3333H294.667C294.114 24.3333 293.667 24.781 293.667 25.3333V27.3333C293.667 27.8856 294.114 28.3333 294.667 28.3333H295.667C296.219 28.3333 296.667 27.8856 296.667 27.3333V25.3333C296.667 24.781 296.219 24.3333 295.667 24.3333Z" fill="black"/>
<path d="M37.3207 28.2563C40.0087 28.2563 41.6054 26.1543 41.6054 22.5947C41.6054 21.2544 41.349 20.1265 40.8583 19.2549C40.1479 17.8999 38.9247 17.1675 37.3793 17.1675C35.0795 17.1675 33.4535 18.7129 33.4535 20.8809C33.4535 22.917 34.9184 24.3965 36.9325 24.3965C38.1703 24.3965 39.1737 23.8179 39.6718 22.8145H39.6938C39.6938 22.8145 39.7231 22.8145 39.7304 22.8145C39.745 22.8145 39.7963 22.8145 39.7963 22.8145C39.7963 25.2314 38.8808 26.6743 37.3354 26.6743C36.4272 26.6743 35.724 26.1763 35.4823 25.3779H33.6C33.9149 27.1138 35.3871 28.2563 37.3207 28.2563ZM37.3866 22.895C36.1708 22.895 35.3065 22.0308 35.3065 20.8223C35.3065 19.6431 36.2148 18.7422 37.394 18.7422C38.5732 18.7422 39.4814 19.6577 39.4814 20.8516C39.4814 22.0308 38.5951 22.895 37.3866 22.895Z" fill="black"/>
<path d="M44.6965 28.1538C45.3923 28.1538 45.8684 27.6558 45.8684 26.9966C45.8684 26.3301 45.3923 25.8394 44.6965 25.8394C44.008 25.8394 43.5246 26.3301 43.5246 26.9966C43.5246 27.6558 44.008 28.1538 44.6965 28.1538ZM44.6965 22.6606C45.3923 22.6606 45.8684 22.1699 45.8684 21.5107C45.8684 20.8442 45.3923 20.3535 44.6965 20.3535C44.008 20.3535 43.5246 20.8442 43.5246 21.5107C43.5246 22.1699 44.008 22.6606 44.6965 22.6606Z" fill="black"/>
<path d="M52.7241 28H54.5332V26.0298H55.9614V24.4331H54.5332V17.4312H51.8672C49.9995 20.2437 48.5127 22.5947 47.5606 24.3452V26.0298H52.7241V28ZM49.311 24.3672C50.5415 22.1992 51.6401 20.4634 52.6509 18.9692H52.7534V24.4771H49.311V24.3672Z" fill="black"/>
<path d="M59.99 28H61.8797V17.4312H59.9974L57.2361 19.3647V21.1812L59.8655 19.3354H59.99V28Z" fill="black"/>
<path d="M49 2H344C364.987 2 382 19.0132 382 40V772C382 792.987 364.987 810 344 810H49C28.0132 810 11 792.987 11 772V40C11 19.0132 28.0132 2 49 2Z" stroke="black" stroke-width="4"/>
</svg>
