<svg width="200" height="200" viewBox="0 0 200 200" fill="none" xmlns="http://www.w3.org/2000/svg">
<rect width="200" height="200" rx="100" fill="#0BDA62"/>
<path d="M115.167 80.5L130.333 65.3333M139 56.6666L130.333 65.3333L139 56.6666ZM97.3567 98.31C99.5941 100.518 101.373 103.146 102.59 106.044C103.808 108.942 104.44 112.052 104.45 115.195C104.461 118.339 103.85 121.453 102.652 124.359C101.454 127.265 99.6926 129.905 97.47 132.128C95.2473 134.351 92.607 136.112 89.701 137.31C86.795 138.508 83.6807 139.119 80.5374 139.108C77.3941 139.098 74.284 138.466 71.3861 137.248C68.4882 136.031 65.8597 134.252 63.652 132.015C59.3106 127.52 56.9083 121.499 56.9626 115.25C57.0169 109.001 59.5234 103.024 63.9423 98.6046C68.3612 94.1857 74.3389 91.6792 80.5879 91.6249C86.837 91.5706 92.8573 93.9729 97.3523 98.3143L97.3567 98.31ZM97.3567 98.31L115.167 80.5L97.3567 98.31ZM115.167 80.5L128.167 93.5L143.333 78.3333L130.333 65.3333L115.167 80.5Z" stroke="white" stroke-width="7" stroke-linecap="round" stroke-linejoin="round"/>
</svg>
