<svg width="200" height="200" viewBox="0 0 200 200" fill="none" xmlns="http://www.w3.org/2000/svg">
<rect width="200" height="200" rx="100" fill="#01893D"/>
<path d="M130.333 95.6666H69.6667C64.8802 95.6666 61 99.5468 61 104.333V134.667C61 139.453 64.8802 143.333 69.6667 143.333H130.333C135.12 143.333 139 139.453 139 134.667V104.333C139 99.5468 135.12 95.6666 130.333 95.6666Z" stroke="white" stroke-width="7" stroke-linecap="round" stroke-linejoin="round"/>
<path d="M78.3333 95.6666V78.3333C78.3333 72.5869 80.6161 67.0759 84.6794 63.0126C88.7427 58.9494 94.2537 56.6666 100 56.6666C105.746 56.6666 111.257 58.9494 115.321 63.0126C119.384 67.0759 121.667 72.5869 121.667 78.3333V95.6666" stroke="white" stroke-width="7" stroke-linecap="round" stroke-linejoin="round"/>
</svg>
