<svg width="185" height="24" viewBox="0 0 185 24" fill="none" xmlns="http://www.w3.org/2000/svg">
<path d="M0.1 23V1.4H7.09C7.26 1.4 7.61 1.405 8.14 1.415C8.67 1.425 9.18 1.46 9.67 1.52C11.41 1.73 12.885 2.335 14.095 3.335C15.305 4.335 16.225 5.605 16.855 7.145C17.485 8.685 17.8 10.37 17.8 12.2C17.8 14.03 17.485 15.715 16.855 17.255C16.225 18.795 15.305 20.065 14.095 21.065C12.885 22.065 11.41 22.67 9.67 22.88C9.18 22.94 8.67 22.975 8.14 22.985C7.61 22.995 7.26 23 7.09 23H0.1ZM4.24 19.16H7.09C7.36 19.16 7.725 19.155 8.185 19.145C8.645 19.125 9.06 19.08 9.43 19.01C10.37 18.82 11.135 18.38 11.725 17.69C12.325 17 12.765 16.17 13.045 15.2C13.335 14.23 13.48 13.23 13.48 12.2C13.48 11.12 13.33 10.095 13.03 9.125C12.74 8.155 12.295 7.335 11.695 6.665C11.095 5.995 10.34 5.57 9.43 5.39C9.06 5.31 8.645 5.265 8.185 5.255C7.725 5.245 7.36 5.24 7.09 5.24H4.24V19.16ZM24.3988 23V1.4H33.5188C33.7288 1.4 34.0088 1.41 34.3588 1.43C34.7188 1.44 35.0388 1.47 35.3188 1.52C36.6088 1.72 37.6638 2.145 38.4838 2.795C39.3138 3.445 39.9238 4.265 40.3138 5.255C40.7038 6.235 40.8988 7.33 40.8988 8.54C40.8988 10.35 40.4488 11.9 39.5488 13.19C38.6488 14.47 37.2388 15.26 35.3188 15.56L33.5188 15.68H28.4788V23H24.3988ZM36.5788 23L32.3188 14.21L36.5188 13.4L41.1988 23H36.5788ZM28.4788 11.87H33.3388C33.5488 11.87 33.7788 11.86 34.0288 11.84C34.2788 11.82 34.5088 11.78 34.7188 11.72C35.2688 11.57 35.6938 11.32 35.9938 10.97C36.2938 10.61 36.4988 10.215 36.6088 9.785C36.7288 9.345 36.7888 8.93 36.7888 8.54C36.7888 8.15 36.7288 7.74 36.6088 7.31C36.4988 6.87 36.2938 6.475 35.9938 6.125C35.6938 5.765 35.2688 5.51 34.7188 5.36C34.5088 5.3 34.2788 5.26 34.0288 5.24C33.7788 5.22 33.5488 5.21 33.3388 5.21H28.4788V11.87ZM56.7665 23.45C54.6065 23.45 52.7415 22.98 51.1715 22.04C49.6115 21.1 48.4065 19.785 47.5565 18.095C46.7165 16.405 46.2965 14.44 46.2965 12.2C46.2965 9.96 46.7165 7.995 47.5565 6.305C48.4065 4.615 49.6115 3.3 51.1715 2.36C52.7415 1.42 54.6065 0.95 56.7665 0.95C58.9265 0.95 60.7865 1.42 62.3465 2.36C63.9165 3.3 65.1215 4.615 65.9615 6.305C66.8115 7.995 67.2365 9.96 67.2365 12.2C67.2365 14.44 66.8115 16.405 65.9615 18.095C65.1215 19.785 63.9165 21.1 62.3465 22.04C60.7865 22.98 58.9265 23.45 56.7665 23.45ZM56.7665 19.61C58.1365 19.63 59.2765 19.335 60.1865 18.725C61.0965 18.115 61.7765 17.25 62.2265 16.13C62.6865 15.01 62.9165 13.7 62.9165 12.2C62.9165 10.7 62.6865 9.4 62.2265 8.3C61.7765 7.2 61.0965 6.345 60.1865 5.735C59.2765 5.125 58.1365 4.81 56.7665 4.79C55.3965 4.77 54.2565 5.065 53.3465 5.675C52.4365 6.285 51.7515 7.15 51.2915 8.27C50.8415 9.39 50.6165 10.7 50.6165 12.2C50.6165 13.7 50.8415 15 51.2915 16.1C51.7515 17.2 52.4365 18.055 53.3465 18.665C54.2565 19.275 55.3965 19.59 56.7665 19.61ZM73.2309 23V1.4H82.3509C82.5609 1.4 82.8409 1.41 83.1909 1.43C83.5509 1.44 83.8709 1.47 84.1509 1.52C85.4409 1.72 86.4959 2.145 87.3159 2.795C88.1459 3.445 88.7559 4.265 89.1459 5.255C89.5359 6.235 89.7309 7.33 89.7309 8.54C89.7309 9.75 89.5309 10.85 89.1309 11.84C88.7409 12.82 88.1309 13.635 87.3009 14.285C86.4809 14.935 85.4309 15.36 84.1509 15.56C83.8709 15.6 83.5509 15.63 83.1909 15.65C82.8309 15.67 82.5509 15.68 82.3509 15.68H77.3109V23H73.2309ZM77.3109 11.87H82.1709C82.3809 11.87 82.6109 11.86 82.8609 11.84C83.1109 11.82 83.3409 11.78 83.5509 11.72C84.1009 11.57 84.5259 11.32 84.8259 10.97C85.1259 10.61 85.3309 10.215 85.4409 9.785C85.5609 9.345 85.6209 8.93 85.6209 8.54C85.6209 8.15 85.5609 7.74 85.4409 7.31C85.3309 6.87 85.1259 6.475 84.8259 6.125C84.5259 5.765 84.1009 5.51 83.5509 5.36C83.3409 5.3 83.1109 5.26 82.8609 5.24C82.6109 5.22 82.3809 5.21 82.1709 5.21H77.3109V11.87ZM105.013 23.45C102.853 23.45 100.988 22.98 99.4176 22.04C97.8576 21.1 96.6526 19.785 95.8026 18.095C94.9626 16.405 94.5426 14.44 94.5426 12.2C94.5426 9.96 94.9626 7.995 95.8026 6.305C96.6526 4.615 97.8576 3.3 99.4176 2.36C100.988 1.42 102.853 0.95 105.013 0.95C107.493 0.95 109.573 1.565 111.253 2.795C112.943 4.025 114.133 5.69 114.823 7.79L110.713 8.93C110.313 7.62 109.638 6.605 108.688 5.885C107.738 5.155 106.513 4.79 105.013 4.79C103.643 4.79 102.498 5.095 101.578 5.705C100.668 6.315 99.9826 7.175 99.5226 8.285C99.0626 9.395 98.8326 10.7 98.8326 12.2C98.8326 13.7 99.0626 15.005 99.5226 16.115C99.9826 17.225 100.668 18.085 101.578 18.695C102.498 19.305 103.643 19.61 105.013 19.61C106.513 19.61 107.738 19.245 108.688 18.515C109.638 17.785 110.313 16.77 110.713 15.47L114.823 16.61C114.133 18.71 112.943 20.375 111.253 21.605C109.573 22.835 107.493 23.45 105.013 23.45ZM119.039 23L125.639 1.4H131.729L138.329 23H134.129L128.249 3.95H129.029L123.239 23H119.039ZM122.999 18.5V14.69H134.399V18.5H122.999ZM151.592 23.45C149.992 23.45 148.547 23.17 147.257 22.61C145.977 22.04 144.922 21.23 144.092 20.18C143.272 19.12 142.752 17.86 142.532 16.4L146.792 15.77C147.092 17.01 147.712 17.965 148.652 18.635C149.592 19.305 150.662 19.64 151.862 19.64C152.532 19.64 153.182 19.535 153.812 19.325C154.442 19.115 154.957 18.805 155.357 18.395C155.767 17.985 155.972 17.48 155.972 16.88C155.972 16.66 155.937 16.45 155.867 16.25C155.807 16.04 155.702 15.845 155.552 15.665C155.402 15.485 155.187 15.315 154.907 15.155C154.637 14.995 154.292 14.85 153.872 14.72L148.262 13.07C147.842 12.95 147.352 12.78 146.792 12.56C146.242 12.34 145.707 12.025 145.187 11.615C144.667 11.205 144.232 10.665 143.882 9.995C143.542 9.315 143.372 8.46 143.372 7.43C143.372 5.98 143.737 4.775 144.467 3.815C145.197 2.855 146.172 2.14 147.392 1.67C148.612 1.2 149.962 0.969999 151.442 0.979999C152.932 0.999999 154.262 1.255 155.432 1.745C156.602 2.235 157.582 2.95 158.372 3.89C159.162 4.82 159.732 5.96 160.082 7.31L155.672 8.06C155.512 7.36 155.217 6.77 154.787 6.29C154.357 5.81 153.842 5.445 153.242 5.195C152.652 4.945 152.032 4.81 151.382 4.79C150.742 4.77 150.137 4.86 149.567 5.06C149.007 5.25 148.547 5.53 148.187 5.9C147.837 6.27 147.662 6.71 147.662 7.22C147.662 7.69 147.807 8.075 148.097 8.375C148.387 8.665 148.752 8.9 149.192 9.08C149.632 9.26 150.082 9.41 150.542 9.53L154.292 10.55C154.852 10.7 155.472 10.9 156.152 11.15C156.832 11.39 157.482 11.73 158.102 12.17C158.732 12.6 159.247 13.17 159.647 13.88C160.057 14.59 160.262 15.49 160.262 16.58C160.262 17.74 160.017 18.755 159.527 19.625C159.047 20.485 158.397 21.2 157.577 21.77C156.757 22.33 155.827 22.75 154.787 23.03C153.757 23.31 152.692 23.45 151.592 23.45ZM166.559 23V1.4H170.639V10.28H180.299V1.4H184.379V23H180.299V14.09H170.639V23H166.559Z" fill="#0BDA62"/>
</svg>
