<svg width="381" height="812" viewBox="0 0 381 812" fill="none" xmlns="http://www.w3.org/2000/svg">
<path d="M46 3H341C361.435 3 378 19.5655 378 40V772C378 792.435 361.435 809 341 809H46C25.5655 809 9 792.435 9 772V40C9 19.5655 25.5655 3 46 3Z" fill="#101323"/>
<path d="M29.12 121V109.48H33.688C34.4667 109.48 35.104 109.637 35.6 109.952C36.1013 110.261 36.472 110.659 36.712 111.144C36.9573 111.629 37.08 112.131 37.08 112.648C37.08 113.283 36.928 113.821 36.624 114.264C36.3253 114.707 35.9173 115.005 35.4 115.16V114.76C36.1253 114.925 36.6747 115.269 37.048 115.792C37.4267 116.315 37.616 116.909 37.616 117.576C37.616 118.259 37.4853 118.856 37.224 119.368C36.9627 119.88 36.5733 120.28 36.056 120.568C35.544 120.856 34.9093 121 34.152 121H29.12ZM31.072 119.184H33.912C34.248 119.184 34.5493 119.117 34.816 118.984C35.0827 118.845 35.2907 118.653 35.44 118.408C35.5947 118.157 35.672 117.861 35.672 117.52C35.672 117.211 35.6053 116.933 35.472 116.688C35.3387 116.443 35.144 116.248 34.888 116.104C34.632 115.955 34.3253 115.88 33.968 115.88H31.072V119.184ZM31.072 114.08H33.664C33.9413 114.08 34.1893 114.027 34.408 113.92C34.6267 113.813 34.8 113.656 34.928 113.448C35.056 113.24 35.12 112.984 35.12 112.68C35.12 112.28 34.992 111.947 34.736 111.68C34.48 111.413 34.1227 111.28 33.664 111.28H31.072V114.08ZM39.6238 111.048V109.28H41.5518V111.048H39.6238ZM39.6238 121V112.36H41.5518V121H39.6238ZM48.0141 121.24C47.1501 121.24 46.3955 121.045 45.7501 120.656C45.1048 120.267 44.6035 119.731 44.2461 119.048C43.8941 118.36 43.7181 117.571 43.7181 116.68C43.7181 115.773 43.8995 114.979 44.2621 114.296C44.6248 113.613 45.1288 113.08 45.7741 112.696C46.4195 112.312 47.1661 112.12 48.0141 112.12C48.8835 112.12 49.6408 112.315 50.2861 112.704C50.9315 113.093 51.4328 113.632 51.7901 114.32C52.1475 115.003 52.3261 115.789 52.3261 116.68C52.3261 117.576 52.1448 118.368 51.7821 119.056C51.4248 119.739 50.9235 120.275 50.2781 120.664C49.6328 121.048 48.8781 121.24 48.0141 121.24ZM48.0141 119.432C48.7821 119.432 49.3528 119.176 49.7261 118.664C50.0995 118.152 50.2861 117.491 50.2861 116.68C50.2861 115.843 50.0968 115.176 49.7181 114.68C49.3395 114.179 48.7715 113.928 48.0141 113.928C47.4968 113.928 47.0701 114.045 46.7341 114.28C46.4035 114.509 46.1581 114.832 45.9981 115.248C45.8381 115.659 45.7581 116.136 45.7581 116.68C45.7581 117.517 45.9475 118.187 46.3261 118.688C46.7101 119.184 47.2728 119.432 48.0141 119.432ZM64.7148 121V115.752C64.7148 115.16 64.5681 114.699 64.2748 114.368C63.9814 114.032 63.5841 113.864 63.0828 113.864C62.7734 113.864 62.4961 113.936 62.2508 114.08C62.0054 114.219 61.8108 114.427 61.6667 114.704C61.5228 114.976 61.4508 115.301 61.4508 115.68L60.5948 115.176C60.5894 114.579 60.7228 114.053 60.9948 113.6C61.2721 113.141 61.6454 112.784 62.1148 112.528C62.5841 112.272 63.1068 112.144 63.6828 112.144C64.6374 112.144 65.3681 112.432 65.8748 113.008C66.3868 113.579 66.6428 114.331 66.6428 115.264V121H64.7148ZM54.3228 121V112.36H56.0268V115.04H56.2668V121H54.3228ZM59.5308 121V115.776C59.5308 115.173 59.3841 114.704 59.0908 114.368C58.7974 114.032 58.3974 113.864 57.8908 113.864C57.4001 113.864 57.0054 114.032 56.7068 114.368C56.4134 114.704 56.2668 115.141 56.2668 115.68L55.4028 115.104C55.4028 114.544 55.5414 114.04 55.8188 113.592C56.0961 113.144 56.4694 112.792 56.9388 112.536C57.4134 112.275 57.9441 112.144 58.5308 112.144C59.1761 112.144 59.7148 112.283 60.1468 112.56C60.5841 112.832 60.9094 113.205 61.1228 113.68C61.3414 114.149 61.4508 114.68 61.4508 115.272V121H59.5308ZM72.7668 121.24C71.8921 121.24 71.1241 121.051 70.4628 120.672C69.8014 120.293 69.2841 119.768 68.9108 119.096C68.5428 118.424 68.3588 117.651 68.3588 116.776C68.3588 115.832 68.5401 115.013 68.9028 114.32C69.2654 113.621 69.7694 113.08 70.4148 112.696C71.0601 112.312 71.8068 112.12 72.6548 112.12C73.5508 112.12 74.3108 112.331 74.9348 112.752C75.5641 113.168 76.0308 113.757 76.3348 114.52C76.6388 115.283 76.7534 116.181 76.6788 117.216H74.7668V116.512C74.7614 115.573 74.5961 114.888 74.2708 114.456C73.9454 114.024 73.4334 113.808 72.7348 113.808C71.9454 113.808 71.3588 114.053 70.9748 114.544C70.5908 115.029 70.3988 115.741 70.3988 116.68C70.3988 117.555 70.5908 118.232 70.9748 118.712C71.3588 119.192 71.9188 119.432 72.6548 119.432C73.1294 119.432 73.5374 119.328 73.8788 119.12C74.2254 118.907 74.4921 118.6 74.6788 118.2L76.5828 118.776C76.2521 119.555 75.7401 120.16 75.0468 120.592C74.3588 121.024 73.5988 121.24 72.7668 121.24ZM69.7908 117.216V115.76H75.7348V117.216H69.7908ZM83.7778 121C83.2071 121.107 82.6471 121.152 82.0978 121.136C81.5538 121.125 81.0658 121.027 80.6338 120.84C80.2018 120.648 79.8738 120.347 79.6497 119.936C79.4524 119.563 79.3484 119.181 79.3378 118.792C79.3271 118.403 79.3218 117.963 79.3218 117.472V109.96H81.2418V117.36C81.2418 117.707 81.2444 118.011 81.2498 118.272C81.2604 118.533 81.3164 118.747 81.4178 118.912C81.6098 119.232 81.9164 119.411 82.3378 119.448C82.7591 119.485 83.2391 119.464 83.7778 119.384V121ZM77.7538 113.872V112.36H83.7778V113.872H77.7538ZM85.8856 121V112.36H87.5896V114.464L87.3816 114.192C87.4883 113.904 87.6296 113.643 87.8056 113.408C87.987 113.168 88.203 112.971 88.4536 112.816C88.667 112.672 88.9016 112.56 89.1576 112.48C89.419 112.395 89.6856 112.344 89.9576 112.328C90.2296 112.307 90.4936 112.317 90.7496 112.36V114.16C90.4936 114.085 90.1976 114.061 89.8616 114.088C89.531 114.115 89.2323 114.208 88.9656 114.368C88.699 114.512 88.4803 114.696 88.3096 114.92C88.1443 115.144 88.0216 115.4 87.9416 115.688C87.8616 115.971 87.8216 116.277 87.8216 116.608V121H85.8856ZM92.6863 111.048V109.28H94.6143V111.048H92.6863ZM92.6863 121V112.36H94.6143V121H92.6863ZM101.013 121.24C100.122 121.24 99.362 121.043 98.7326 120.648C98.1033 120.248 97.6206 119.704 97.2846 119.016C96.954 118.328 96.786 117.549 96.7806 116.68C96.786 115.795 96.9593 115.011 97.3006 114.328C97.6473 113.64 98.138 113.101 98.7726 112.712C99.4073 112.317 100.162 112.12 101.037 112.12C102.018 112.12 102.847 112.368 103.525 112.864C104.207 113.355 104.653 114.027 104.861 114.88L102.941 115.4C102.791 114.936 102.543 114.576 102.197 114.32C101.85 114.059 101.455 113.928 101.013 113.928C100.511 113.928 100.098 114.048 99.7726 114.288C99.4473 114.523 99.2073 114.848 99.0526 115.264C98.898 115.68 98.8206 116.152 98.8206 116.68C98.8206 117.501 99.0046 118.165 99.3726 118.672C99.7406 119.179 100.287 119.432 101.013 119.432C101.525 119.432 101.927 119.315 102.221 119.08C102.519 118.845 102.743 118.507 102.893 118.064L104.861 118.504C104.594 119.384 104.127 120.061 103.461 120.536C102.794 121.005 101.978 121.24 101.013 121.24ZM110.05 121.24C108.983 121.24 108.116 121 107.45 120.52C106.783 120.04 106.378 119.365 106.234 118.496L108.202 118.192C108.303 118.619 108.527 118.955 108.874 119.2C109.22 119.445 109.658 119.568 110.186 119.568C110.65 119.568 111.007 119.477 111.258 119.296C111.514 119.109 111.642 118.856 111.642 118.536C111.642 118.339 111.594 118.181 111.498 118.064C111.407 117.941 111.204 117.824 110.89 117.712C110.575 117.6 110.092 117.459 109.442 117.288C108.716 117.096 108.14 116.891 107.714 116.672C107.287 116.448 106.98 116.184 106.794 115.88C106.607 115.576 106.514 115.208 106.514 114.776C106.514 114.237 106.655 113.768 106.938 113.368C107.22 112.968 107.615 112.661 108.122 112.448C108.628 112.229 109.226 112.12 109.914 112.12C110.586 112.12 111.18 112.224 111.698 112.432C112.22 112.64 112.642 112.936 112.962 113.32C113.282 113.704 113.479 114.155 113.554 114.672L111.586 115.024C111.538 114.656 111.37 114.365 111.082 114.152C110.799 113.939 110.42 113.819 109.946 113.792C109.492 113.765 109.127 113.835 108.85 114C108.572 114.16 108.434 114.387 108.434 114.68C108.434 114.845 108.49 114.987 108.602 115.104C108.714 115.221 108.938 115.339 109.274 115.456C109.615 115.573 110.122 115.717 110.794 115.888C111.482 116.064 112.031 116.267 112.442 116.496C112.858 116.72 113.156 116.989 113.338 117.304C113.524 117.619 113.618 118 113.618 118.448C113.618 119.317 113.3 120 112.666 120.496C112.036 120.992 111.164 121.24 110.05 121.24Z" fill="white"/>
<path d="M29.12 358V346.48H33.88C33.992 346.48 34.136 346.485 34.312 346.496C34.488 346.501 34.6507 346.517 34.8 346.544C35.4667 346.645 36.016 346.867 36.448 347.208C36.8853 347.549 37.208 347.981 37.416 348.504C37.6293 349.021 37.736 349.597 37.736 350.232C37.736 350.861 37.6293 351.437 37.416 351.96C37.2027 352.477 36.8773 352.907 36.44 353.248C36.008 353.589 35.4613 353.811 34.8 353.912C34.6507 353.933 34.4853 353.949 34.304 353.96C34.128 353.971 33.9867 353.976 33.88 353.976H31.048V358H29.12ZM31.048 352.176H33.8C33.9067 352.176 34.0267 352.171 34.16 352.16C34.2933 352.149 34.416 352.128 34.528 352.096C34.848 352.016 35.0987 351.875 35.28 351.672C35.4667 351.469 35.5973 351.24 35.672 350.984C35.752 350.728 35.792 350.477 35.792 350.232C35.792 349.987 35.752 349.736 35.672 349.48C35.5973 349.219 35.4667 348.987 35.28 348.784C35.0987 348.581 34.848 348.44 34.528 348.36C34.416 348.328 34.2933 348.309 34.16 348.304C34.0267 348.293 33.9067 348.288 33.8 348.288H31.048V352.176ZM39.7488 358V346.48H41.6768V358H39.7488ZM44.3231 358V346.48H46.2751L51.6191 354.6V346.48H53.5711V358H51.6191L46.2751 349.88V358H44.3231Z" fill="white"/>
<path d="M33.856 402.24C32.7093 402.24 31.736 401.987 30.936 401.48C30.136 400.973 29.5253 400.269 29.104 399.368C28.688 398.467 28.48 397.424 28.48 396.24C28.48 395.056 28.688 394.013 29.104 393.112C29.5253 392.211 30.136 391.507 30.936 391C31.736 390.493 32.7093 390.24 33.856 390.24C35.1893 390.24 36.2853 390.579 37.144 391.256C38.008 391.933 38.6027 392.845 38.928 393.992L37.48 394.376C37.2453 393.517 36.8267 392.84 36.224 392.344C35.6213 391.848 34.832 391.6 33.856 391.6C32.9973 391.6 32.2827 391.795 31.712 392.184C31.1413 392.573 30.712 393.117 30.424 393.816C30.136 394.509 29.9893 395.317 29.984 396.24C29.9787 397.157 30.12 397.965 30.408 398.664C30.696 399.357 31.128 399.901 31.704 400.296C32.28 400.685 32.9973 400.88 33.856 400.88C34.832 400.88 35.6213 400.632 36.224 400.136C36.8267 399.635 37.2453 398.957 37.48 398.104L38.928 398.488C38.6027 399.629 38.008 400.541 37.144 401.224C36.2853 401.901 35.1893 402.24 33.856 402.24ZM47.0845 402V397.672C47.0845 397.261 47.0472 396.867 46.9725 396.488C46.9032 396.109 46.7778 395.771 46.5965 395.472C46.4205 395.168 46.1805 394.928 45.8765 394.752C45.5778 394.576 45.1992 394.488 44.7405 394.488C44.3832 394.488 44.0578 394.549 43.7645 394.672C43.4765 394.789 43.2285 394.971 43.0205 395.216C42.8125 395.461 42.6498 395.771 42.5325 396.144C42.4205 396.512 42.3645 396.947 42.3645 397.448L41.4285 397.16C41.4285 396.323 41.5778 395.605 41.8765 395.008C42.1805 394.405 42.6045 393.944 43.1485 393.624C43.6978 393.299 44.3432 393.136 45.0845 393.136C45.6445 393.136 46.1218 393.224 46.5165 393.4C46.9112 393.576 47.2392 393.811 47.5005 394.104C47.7618 394.392 47.9672 394.717 48.1165 395.08C48.2658 395.437 48.3698 395.803 48.4285 396.176C48.4925 396.544 48.5245 396.893 48.5245 397.224V402H47.0845ZM40.9245 402V390.48H42.2045V396.84H42.3645V402H40.9245ZM53.3104 402.24C52.665 402.24 52.1237 402.123 51.6864 401.888C51.2544 401.648 50.9264 401.333 50.7024 400.944C50.4837 400.555 50.3744 400.128 50.3744 399.664C50.3744 399.211 50.4597 398.819 50.6304 398.488C50.8064 398.152 51.0517 397.875 51.3664 397.656C51.681 397.432 52.057 397.256 52.4944 397.128C52.905 397.016 53.3637 396.92 53.8704 396.84C54.3824 396.755 54.8997 396.677 55.4224 396.608C55.945 396.539 56.433 396.472 56.8864 396.408L56.3744 396.704C56.3904 395.936 56.2357 395.368 55.9104 395C55.5904 394.632 55.0357 394.448 54.2464 394.448C53.7237 394.448 53.265 394.568 52.8704 394.808C52.481 395.043 52.2064 395.427 52.0464 395.96L50.6944 395.552C50.9024 394.795 51.305 394.2 51.9024 393.768C52.4997 393.336 53.2864 393.12 54.2624 393.12C55.0464 393.12 55.7184 393.261 56.2784 393.544C56.8437 393.821 57.249 394.243 57.4944 394.808C57.617 395.075 57.6944 395.365 57.7264 395.68C57.7584 395.989 57.7744 396.315 57.7744 396.656V402H56.5104V399.928L56.8064 400.12C56.481 400.819 56.025 401.347 55.4384 401.704C54.857 402.061 54.1477 402.24 53.3104 402.24ZM53.5264 401.048C54.0384 401.048 54.481 400.957 54.8544 400.776C55.233 400.589 55.537 400.347 55.7664 400.048C55.9957 399.744 56.145 399.413 56.2144 399.056C56.2944 398.789 56.337 398.493 56.3424 398.168C56.353 397.837 56.3584 397.584 56.3584 397.408L56.8544 397.624C56.3904 397.688 55.9344 397.749 55.4864 397.808C55.0384 397.867 54.6144 397.931 54.2144 398C53.8144 398.064 53.4544 398.141 53.1344 398.232C52.8997 398.307 52.6784 398.403 52.4704 398.52C52.2677 398.637 52.1024 398.789 51.9744 398.976C51.8517 399.157 51.7904 399.384 51.7904 399.656C51.7904 399.891 51.849 400.115 51.9664 400.328C52.089 400.541 52.2757 400.715 52.5264 400.848C52.7824 400.981 53.1157 401.048 53.5264 401.048ZM66.2564 402V397.672C66.2564 397.261 66.219 396.867 66.1444 396.488C66.075 396.109 65.9497 395.771 65.7684 395.472C65.5924 395.168 65.3524 394.928 65.0484 394.752C64.7497 394.576 64.371 394.488 63.9124 394.488C63.555 394.488 63.2297 394.549 62.9364 394.672C62.6484 394.789 62.4004 394.971 62.1924 395.216C61.9844 395.461 61.8217 395.771 61.7044 396.144C61.5924 396.512 61.5364 396.947 61.5364 397.448L60.6004 397.16C60.6004 396.323 60.7497 395.605 61.0484 395.008C61.3524 394.405 61.7764 393.944 62.3204 393.624C62.8697 393.299 63.515 393.136 64.2564 393.136C64.8164 393.136 65.2937 393.224 65.6884 393.4C66.083 393.576 66.411 393.811 66.6724 394.104C66.9337 394.392 67.139 394.717 67.2884 395.08C67.4377 395.437 67.5417 395.803 67.6004 396.176C67.6644 396.544 67.6964 396.893 67.6964 397.224V402H66.2564ZM60.0964 402V393.36H61.3764V395.672H61.5364V402H60.0964ZM73.5223 406.08C73.0689 406.08 72.6263 406.011 72.1943 405.872C71.7623 405.733 71.3649 405.523 71.0023 405.24C70.6449 404.963 70.3463 404.611 70.1063 404.184L71.4103 403.496C71.6236 403.917 71.9249 404.224 72.3143 404.416C72.7089 404.608 73.1143 404.704 73.5303 404.704C74.0796 404.704 74.5356 404.603 74.8983 404.4C75.2609 404.203 75.5276 403.907 75.6983 403.512C75.8743 403.117 75.9596 402.627 75.9543 402.04V399.68H76.1223V393.36H77.3863V402.056C77.3863 402.291 77.3783 402.517 77.3623 402.736C77.3516 402.955 77.3249 403.171 77.2823 403.384C77.1703 403.997 76.9489 404.501 76.6183 404.896C76.2876 405.296 75.8609 405.592 75.3383 405.784C74.8156 405.981 74.2103 406.08 73.5223 406.08ZM73.4183 402.24C72.6129 402.24 71.9223 402.04 71.3463 401.64C70.7703 401.235 70.3249 400.688 70.0103 400C69.7009 399.312 69.5463 398.536 69.5463 397.672C69.5463 396.808 69.7009 396.032 70.0103 395.344C70.3249 394.656 70.7703 394.115 71.3463 393.72C71.9223 393.32 72.6103 393.12 73.4103 393.12C74.2263 393.12 74.9116 393.317 75.4663 393.712C76.0209 394.107 76.4396 394.648 76.7223 395.336C77.0103 396.024 77.1543 396.803 77.1543 397.672C77.1543 398.531 77.0103 399.307 76.7223 400C76.4396 400.688 76.0209 401.235 75.4663 401.64C74.9116 402.04 74.2289 402.24 73.4183 402.24ZM73.5943 400.936C74.1756 400.936 74.6529 400.797 75.0263 400.52C75.3996 400.237 75.6743 399.851 75.8503 399.36C76.0316 398.864 76.1223 398.301 76.1223 397.672C76.1223 397.032 76.0316 396.469 75.8503 395.984C75.6743 395.493 75.4023 395.112 75.0343 394.84C74.6663 394.563 74.1996 394.424 73.6343 394.424C73.0476 394.424 72.5623 394.568 72.1783 394.856C71.7996 395.144 71.5169 395.533 71.3303 396.024C71.1489 396.515 71.0583 397.064 71.0583 397.672C71.0583 398.285 71.1516 398.84 71.3383 399.336C71.5249 399.827 71.8049 400.216 72.1783 400.504C72.5569 400.792 73.0289 400.936 73.5943 400.936ZM83.614 402.24C82.766 402.24 82.0247 402.053 81.39 401.68C80.7607 401.301 80.27 400.776 79.918 400.104C79.566 399.427 79.39 398.637 79.39 397.736C79.39 396.792 79.5633 395.976 79.91 395.288C80.2567 394.595 80.7393 394.061 81.358 393.688C81.982 393.309 82.7127 393.12 83.55 393.12C84.4193 393.12 85.158 393.32 85.766 393.72C86.3793 394.12 86.838 394.691 87.142 395.432C87.4513 396.173 87.5847 397.056 87.542 398.08H86.102V397.568C86.086 396.507 85.87 395.715 85.454 395.192C85.038 394.664 84.4193 394.4 83.598 394.4C82.718 394.4 82.0487 394.683 81.59 395.248C81.1313 395.813 80.902 396.624 80.902 397.68C80.902 398.699 81.1313 399.488 81.59 400.048C82.0487 400.608 82.702 400.888 83.55 400.888C84.1207 400.888 84.6167 400.757 85.038 400.496C85.4593 400.235 85.79 399.859 86.03 399.368L87.398 399.84C87.062 400.603 86.5553 401.195 85.878 401.616C85.206 402.032 84.4513 402.24 83.614 402.24ZM80.422 398.08V396.936H86.806V398.08H80.422ZM94.2263 405.84L95.8983 401.296L95.9223 402.64L92.1463 393.36H93.6423L96.6023 400.824H96.0903L98.8663 393.36H100.314L95.6103 405.84H94.2263ZM105.253 402.24C104.394 402.24 103.653 402.045 103.029 401.656C102.41 401.267 101.933 400.728 101.597 400.04C101.261 399.352 101.093 398.563 101.093 397.672C101.093 396.765 101.264 395.971 101.605 395.288C101.946 394.605 102.429 394.075 103.053 393.696C103.677 393.312 104.41 393.12 105.253 393.12C106.117 393.12 106.861 393.315 107.485 393.704C108.109 394.088 108.586 394.624 108.917 395.312C109.253 395.995 109.421 396.781 109.421 397.672C109.421 398.573 109.253 399.368 108.917 400.056C108.581 400.739 108.101 401.275 107.477 401.664C106.853 402.048 106.112 402.24 105.253 402.24ZM105.253 400.888C106.149 400.888 106.816 400.589 107.253 399.992C107.69 399.395 107.909 398.621 107.909 397.672C107.909 396.696 107.688 395.92 107.245 395.344C106.802 394.763 106.138 394.472 105.253 394.472C104.65 394.472 104.154 394.608 103.765 394.88C103.376 395.152 103.085 395.528 102.893 396.008C102.701 396.488 102.605 397.043 102.605 397.672C102.605 398.643 102.829 399.421 103.277 400.008C103.725 400.595 104.384 400.888 105.253 400.888ZM114.713 402.224C114.158 402.224 113.681 402.136 113.281 401.96C112.886 401.784 112.558 401.549 112.297 401.256C112.035 400.963 111.83 400.637 111.681 400.28C111.531 399.923 111.425 399.557 111.361 399.184C111.302 398.811 111.273 398.461 111.273 398.136V393.36H112.713V397.688C112.713 398.093 112.75 398.485 112.825 398.864C112.899 399.243 113.025 399.584 113.201 399.888C113.382 400.192 113.622 400.432 113.921 400.608C114.225 400.784 114.603 400.872 115.057 400.872C115.414 400.872 115.739 400.811 116.033 400.688C116.326 400.565 116.577 400.384 116.785 400.144C116.993 399.899 117.153 399.589 117.265 399.216C117.377 398.843 117.433 398.408 117.433 397.912L118.369 398.2C118.369 399.032 118.217 399.749 117.913 400.352C117.614 400.955 117.19 401.419 116.641 401.744C116.097 402.064 115.454 402.224 114.713 402.224ZM117.593 402V399.688H117.433V393.36H118.865V402H117.593ZM121.354 402V393.36H122.626V395.448L122.418 395.176C122.52 394.909 122.65 394.664 122.81 394.44C122.976 394.216 123.16 394.032 123.362 393.888C123.586 393.707 123.84 393.568 124.122 393.472C124.405 393.376 124.693 393.32 124.986 393.304C125.28 393.283 125.554 393.301 125.81 393.36V394.696C125.512 394.616 125.184 394.595 124.826 394.632C124.469 394.669 124.138 394.8 123.834 395.024C123.557 395.221 123.341 395.461 123.186 395.744C123.037 396.027 122.933 396.333 122.874 396.664C122.816 396.989 122.786 397.323 122.786 397.664V402H121.354ZM131.026 402V390.48H135.578C135.69 390.48 135.824 390.485 135.978 390.496C136.133 390.501 136.282 390.517 136.426 390.544C137.05 390.64 137.573 390.853 137.994 391.184C138.421 391.515 138.741 391.933 138.954 392.44C139.168 392.941 139.274 393.499 139.274 394.112C139.274 394.72 139.165 395.277 138.946 395.784C138.733 396.285 138.413 396.704 137.986 397.04C137.565 397.371 137.045 397.584 136.426 397.68C136.282 397.701 136.133 397.717 135.978 397.728C135.824 397.739 135.69 397.744 135.578 397.744H132.45V402H131.026ZM132.45 396.392H135.53C135.632 396.392 135.746 396.387 135.874 396.376C136.008 396.365 136.133 396.347 136.25 396.32C136.618 396.235 136.917 396.08 137.146 395.856C137.381 395.627 137.552 395.36 137.658 395.056C137.765 394.747 137.818 394.432 137.818 394.112C137.818 393.792 137.765 393.48 137.658 393.176C137.552 392.867 137.381 392.597 137.146 392.368C136.917 392.139 136.618 391.984 136.25 391.904C136.133 391.872 136.008 391.853 135.874 391.848C135.746 391.837 135.632 391.832 135.53 391.832H132.45V396.392ZM141.28 402V390.48H142.704V402H141.28ZM145.354 402V390.48H146.794L152.802 399.48V390.48H154.242V402H152.802L146.794 392.992V402H145.354Z" fill="white"/>
<path d="M346.5 401L351.5 396L346.5 391" stroke="#A0A3BD" stroke-width="2.5" stroke-linecap="round" stroke-linejoin="round"/>
<path d="M29.12 456V444.48H35.84V445.904H30.544V449.528H34.88V450.952H30.544V456H29.12ZM40.9719 456.24C40.1132 456.24 39.3719 456.045 38.7479 455.656C38.1292 455.267 37.6519 454.728 37.3159 454.04C36.9799 453.352 36.8119 452.563 36.8119 451.672C36.8119 450.765 36.9825 449.971 37.3239 449.288C37.6652 448.605 38.1479 448.075 38.7719 447.696C39.3959 447.312 40.1292 447.12 40.9719 447.12C41.8359 447.12 42.5799 447.315 43.2039 447.704C43.8279 448.088 44.3052 448.624 44.6359 449.312C44.9719 449.995 45.1399 450.781 45.1399 451.672C45.1399 452.573 44.9719 453.368 44.6359 454.056C44.2999 454.739 43.8199 455.275 43.1959 455.664C42.5719 456.048 41.8305 456.24 40.9719 456.24ZM40.9719 454.888C41.8679 454.888 42.5345 454.589 42.9719 453.992C43.4092 453.395 43.6279 452.621 43.6279 451.672C43.6279 450.696 43.4065 449.92 42.9639 449.344C42.5212 448.763 41.8572 448.472 40.9719 448.472C40.3692 448.472 39.8732 448.608 39.4839 448.88C39.0945 449.152 38.8039 449.528 38.6119 450.008C38.4199 450.488 38.3239 451.043 38.3239 451.672C38.3239 452.643 38.5479 453.421 38.9959 454.008C39.4439 454.595 40.1025 454.888 40.9719 454.888ZM47.1513 456V447.36H48.4233V449.448L48.2153 449.176C48.3166 448.909 48.4473 448.664 48.6073 448.44C48.7726 448.216 48.9566 448.032 49.1593 447.888C49.3833 447.707 49.6366 447.568 49.9193 447.472C50.2019 447.376 50.4899 447.32 50.7833 447.304C51.0766 447.283 51.3513 447.301 51.6073 447.36V448.696C51.3086 448.616 50.9806 448.595 50.6233 448.632C50.2659 448.669 49.9353 448.8 49.6313 449.024C49.3539 449.221 49.1379 449.461 48.9833 449.744C48.8339 450.027 48.7299 450.333 48.6713 450.664C48.6126 450.989 48.5833 451.323 48.5833 451.664V456H47.1513ZM56.5535 460.08C56.1002 460.08 55.6575 460.011 55.2255 459.872C54.7935 459.733 54.3962 459.523 54.0335 459.24C53.6762 458.963 53.3775 458.611 53.1375 458.184L54.4415 457.496C54.6548 457.917 54.9562 458.224 55.3455 458.416C55.7402 458.608 56.1455 458.704 56.5615 458.704C57.1108 458.704 57.5668 458.603 57.9295 458.4C58.2922 458.203 58.5588 457.907 58.7295 457.512C58.9055 457.117 58.9908 456.627 58.9855 456.04V453.68H59.1535V447.36H60.4175V456.056C60.4175 456.291 60.4095 456.517 60.3935 456.736C60.3828 456.955 60.3562 457.171 60.3135 457.384C60.2015 457.997 59.9802 458.501 59.6495 458.896C59.3188 459.296 58.8922 459.592 58.3695 459.784C57.8468 459.981 57.2415 460.08 56.5535 460.08ZM56.4495 456.24C55.6442 456.24 54.9535 456.04 54.3775 455.64C53.8015 455.235 53.3562 454.688 53.0415 454C52.7322 453.312 52.5775 452.536 52.5775 451.672C52.5775 450.808 52.7322 450.032 53.0415 449.344C53.3562 448.656 53.8015 448.115 54.3775 447.72C54.9535 447.32 55.6415 447.12 56.4415 447.12C57.2575 447.12 57.9428 447.317 58.4975 447.712C59.0522 448.107 59.4708 448.648 59.7535 449.336C60.0415 450.024 60.1855 450.803 60.1855 451.672C60.1855 452.531 60.0415 453.307 59.7535 454C59.4708 454.688 59.0522 455.235 58.4975 455.64C57.9428 456.04 57.2602 456.24 56.4495 456.24ZM56.6255 454.936C57.2068 454.936 57.6842 454.797 58.0575 454.52C58.4308 454.237 58.7055 453.851 58.8815 453.36C59.0628 452.864 59.1535 452.301 59.1535 451.672C59.1535 451.032 59.0628 450.469 58.8815 449.984C58.7055 449.493 58.4335 449.112 58.0655 448.84C57.6975 448.563 57.2308 448.424 56.6655 448.424C56.0788 448.424 55.5935 448.568 55.2095 448.856C54.8308 449.144 54.5482 449.533 54.3615 450.024C54.1802 450.515 54.0895 451.064 54.0895 451.672C54.0895 452.285 54.1828 452.84 54.3695 453.336C54.5562 453.827 54.8362 454.216 55.2095 454.504C55.5882 454.792 56.0602 454.936 56.6255 454.936ZM66.5813 456.24C65.7226 456.24 64.9813 456.045 64.3573 455.656C63.7386 455.267 63.2613 454.728 62.9253 454.04C62.5893 453.352 62.4213 452.563 62.4213 451.672C62.4213 450.765 62.5919 449.971 62.9333 449.288C63.2746 448.605 63.7573 448.075 64.3813 447.696C65.0053 447.312 65.7386 447.12 66.5813 447.12C67.4453 447.12 68.1893 447.315 68.8133 447.704C69.4373 448.088 69.9146 448.624 70.2453 449.312C70.5813 449.995 70.7493 450.781 70.7493 451.672C70.7493 452.573 70.5813 453.368 70.2453 454.056C69.9093 454.739 69.4293 455.275 68.8053 455.664C68.1813 456.048 67.4399 456.24 66.5813 456.24ZM66.5813 454.888C67.4773 454.888 68.1439 454.589 68.5813 453.992C69.0186 453.395 69.2373 452.621 69.2373 451.672C69.2373 450.696 69.0159 449.92 68.5733 449.344C68.1306 448.763 67.4666 448.472 66.5813 448.472C65.9786 448.472 65.4826 448.608 65.0933 448.88C64.7039 449.152 64.4133 449.528 64.2213 450.008C64.0293 450.488 63.9333 451.043 63.9333 451.672C63.9333 452.643 64.1573 453.421 64.6053 454.008C65.0533 454.595 65.7119 454.888 66.5813 454.888ZM77.5846 456C77.0726 456.101 76.566 456.141 76.0646 456.12C75.5686 456.104 75.126 456.005 74.7366 455.824C74.3473 455.637 74.0513 455.349 73.8486 454.96C73.678 454.619 73.5846 454.275 73.5686 453.928C73.558 453.576 73.5526 453.179 73.5526 452.736V444.96H74.9766V452.672C74.9766 453.024 74.9793 453.325 74.9846 453.576C74.9953 453.827 75.0513 454.043 75.1526 454.224C75.3446 454.565 75.6486 454.765 76.0646 454.824C76.486 454.883 76.9926 454.867 77.5846 454.776V456ZM71.8006 448.536V447.36H77.5846V448.536H71.8006ZM84.2419 459.84L85.9139 455.296L85.9379 456.64L82.1619 447.36H83.6579L86.6179 454.824H86.1059L88.8819 447.36H90.3299L85.6259 459.84H84.2419ZM95.2688 456.24C94.4101 456.24 93.6688 456.045 93.0448 455.656C92.4261 455.267 91.9488 454.728 91.6128 454.04C91.2768 453.352 91.1088 452.563 91.1088 451.672C91.1088 450.765 91.2794 449.971 91.6208 449.288C91.9621 448.605 92.4448 448.075 93.0688 447.696C93.6928 447.312 94.4261 447.12 95.2688 447.12C96.1328 447.12 96.8768 447.315 97.5008 447.704C98.1248 448.088 98.6021 448.624 98.9328 449.312C99.2688 449.995 99.4368 450.781 99.4368 451.672C99.4368 452.573 99.2688 453.368 98.9328 454.056C98.5968 454.739 98.1168 455.275 97.4928 455.664C96.8688 456.048 96.1274 456.24 95.2688 456.24ZM95.2688 454.888C96.1648 454.888 96.8314 454.589 97.2688 453.992C97.7061 453.395 97.9248 452.621 97.9248 451.672C97.9248 450.696 97.7034 449.92 97.2608 449.344C96.8181 448.763 96.1541 448.472 95.2688 448.472C94.6661 448.472 94.1701 448.608 93.7808 448.88C93.3914 449.152 93.1008 449.528 92.9088 450.008C92.7168 450.488 92.6208 451.043 92.6208 451.672C92.6208 452.643 92.8448 453.421 93.2928 454.008C93.7408 454.595 94.3994 454.888 95.2688 454.888ZM104.728 456.224C104.173 456.224 103.696 456.136 103.296 455.96C102.901 455.784 102.573 455.549 102.312 455.256C102.051 454.963 101.845 454.637 101.696 454.28C101.547 453.923 101.44 453.557 101.376 453.184C101.317 452.811 101.288 452.461 101.288 452.136V447.36H102.728V451.688C102.728 452.093 102.765 452.485 102.84 452.864C102.915 453.243 103.04 453.584 103.216 453.888C103.397 454.192 103.637 454.432 103.936 454.608C104.24 454.784 104.619 454.872 105.072 454.872C105.429 454.872 105.755 454.811 106.048 454.688C106.341 454.565 106.592 454.384 106.8 454.144C107.008 453.899 107.168 453.589 107.28 453.216C107.392 452.843 107.448 452.408 107.448 451.912L108.384 452.2C108.384 453.032 108.232 453.749 107.928 454.352C107.629 454.955 107.205 455.419 106.656 455.744C106.112 456.064 105.469 456.224 104.728 456.224ZM107.608 456V453.688H107.448V447.36H108.88V456H107.608ZM111.37 456V447.36H112.642V449.448L112.434 449.176C112.535 448.909 112.666 448.664 112.826 448.44C112.991 448.216 113.175 448.032 113.378 447.888C113.602 447.707 113.855 447.568 114.138 447.472C114.421 447.376 114.709 447.32 115.002 447.304C115.295 447.283 115.57 447.301 115.826 447.36V448.696C115.527 448.616 115.199 448.595 114.842 448.632C114.485 448.669 114.154 448.8 113.85 449.024C113.573 449.221 113.357 449.461 113.202 449.744C113.053 450.027 112.949 450.333 112.89 450.664C112.831 450.989 112.802 451.323 112.802 451.664V456H111.37ZM121.042 456V444.48H125.594C125.706 444.48 125.839 444.485 125.994 444.496C126.149 444.501 126.298 444.517 126.442 444.544C127.066 444.64 127.589 444.853 128.01 445.184C128.437 445.515 128.757 445.933 128.97 446.44C129.183 446.941 129.29 447.499 129.29 448.112C129.29 448.72 129.181 449.277 128.962 449.784C128.749 450.285 128.429 450.704 128.002 451.04C127.581 451.371 127.061 451.584 126.442 451.68C126.298 451.701 126.149 451.717 125.994 451.728C125.839 451.739 125.706 451.744 125.594 451.744H122.466V456H121.042ZM122.466 450.392H125.546C125.647 450.392 125.762 450.387 125.89 450.376C126.023 450.365 126.149 450.347 126.266 450.32C126.634 450.235 126.933 450.08 127.162 449.856C127.397 449.627 127.567 449.36 127.674 449.056C127.781 448.747 127.834 448.432 127.834 448.112C127.834 447.792 127.781 447.48 127.674 447.176C127.567 446.867 127.397 446.597 127.162 446.368C126.933 446.139 126.634 445.984 126.266 445.904C126.149 445.872 126.023 445.853 125.89 445.848C125.762 445.837 125.647 445.832 125.546 445.832H122.466V450.392ZM131.296 456V444.48H132.72V456H131.296ZM135.37 456V444.48H136.81L142.818 453.48V444.48H144.258V456H142.818L136.81 446.992V456H135.37Z" fill="white"/>
<path d="M346.5 455L351.5 450L346.5 445" stroke="#A0A3BD" stroke-width="2.5" stroke-linecap="round" stroke-linejoin="round"/>
<path d="M33.664 165.24C32.7733 165.24 31.9867 165.056 31.304 164.688C30.6213 164.32 30.0853 163.805 29.696 163.144C29.312 162.477 29.12 161.696 29.12 160.8V153.488L30.56 153.48V160.68C30.56 161.224 30.6507 161.699 30.832 162.104C31.0187 162.504 31.264 162.837 31.568 163.104C31.872 163.371 32.2053 163.571 32.568 163.704C32.936 163.832 33.3013 163.896 33.664 163.896C34.032 163.896 34.4 163.829 34.768 163.696C35.136 163.563 35.4693 163.365 35.768 163.104C36.072 162.837 36.3147 162.501 36.496 162.096C36.6773 161.691 36.768 161.219 36.768 160.68V153.48H38.208V160.8C38.208 161.691 38.0133 162.469 37.624 163.136C37.24 163.803 36.7067 164.32 36.024 164.688C35.3413 165.056 34.5547 165.24 33.664 165.24ZM43.9621 165.232C42.9328 165.232 42.0875 165.008 41.4261 164.56C40.7701 164.107 40.3675 163.475 40.2181 162.664L41.6741 162.432C41.7915 162.901 42.0608 163.275 42.4821 163.552C42.9035 163.824 43.4261 163.96 44.0501 163.96C44.6421 163.96 45.1061 163.837 45.4421 163.592C45.7781 163.347 45.9461 163.013 45.9461 162.592C45.9461 162.347 45.8901 162.149 45.7781 162C45.6661 161.845 45.4341 161.701 45.0821 161.568C44.7355 161.435 44.2101 161.275 43.5061 161.088C42.7435 160.885 42.1435 160.675 41.7061 160.456C41.2688 160.237 40.9568 159.984 40.7701 159.696C40.5835 159.408 40.4901 159.059 40.4901 158.648C40.4901 158.141 40.6288 157.699 40.9061 157.32C41.1835 156.936 41.5701 156.64 42.0661 156.432C42.5675 156.224 43.1488 156.12 43.8101 156.12C44.4661 156.12 45.0528 156.224 45.5701 156.432C46.0875 156.64 46.5035 156.936 46.8181 157.32C47.1381 157.699 47.3275 158.141 47.3861 158.648L45.9301 158.912C45.8608 158.448 45.6368 158.083 45.2581 157.816C44.8848 157.549 44.4021 157.408 43.8101 157.392C43.2501 157.371 42.7941 157.469 42.4421 157.688C42.0955 157.907 41.9221 158.203 41.9221 158.576C41.9221 158.784 41.9861 158.963 42.1141 159.112C42.2475 159.261 42.4901 159.403 42.8421 159.536C43.1995 159.669 43.7168 159.821 44.3941 159.992C45.1568 160.184 45.7568 160.395 46.1941 160.624C46.6368 160.848 46.9515 161.115 47.1381 161.424C47.3248 161.728 47.4181 162.104 47.4181 162.552C47.4181 163.384 47.1115 164.04 46.4981 164.52C45.8848 164.995 45.0395 165.232 43.9621 165.232ZM53.1765 165.24C52.3285 165.24 51.5872 165.053 50.9525 164.68C50.3232 164.301 49.8325 163.776 49.4805 163.104C49.1285 162.427 48.9525 161.637 48.9525 160.736C48.9525 159.792 49.1258 158.976 49.4725 158.288C49.8192 157.595 50.3018 157.061 50.9205 156.688C51.5445 156.309 52.2752 156.12 53.1125 156.12C53.9818 156.12 54.7205 156.32 55.3285 156.72C55.9418 157.12 56.4005 157.691 56.7045 158.432C57.0138 159.173 57.1472 160.056 57.1045 161.08H55.6645V160.568C55.6485 159.507 55.4325 158.715 55.0165 158.192C54.6005 157.664 53.9818 157.4 53.1605 157.4C52.2805 157.4 51.6112 157.683 51.1525 158.248C50.6938 158.813 50.4645 159.624 50.4645 160.68C50.4645 161.699 50.6938 162.488 51.1525 163.048C51.6112 163.608 52.2645 163.888 53.1125 163.888C53.6832 163.888 54.1792 163.757 54.6005 163.496C55.0218 163.235 55.3525 162.859 55.5925 162.368L56.9605 162.84C56.6245 163.603 56.1178 164.195 55.4405 164.616C54.7685 165.032 54.0138 165.24 53.1765 165.24ZM49.9845 161.08V159.936H56.3685V161.08H49.9845ZM66.5568 165.24C65.7461 165.24 65.0634 165.04 64.5088 164.64C63.9541 164.235 63.5328 163.688 63.2448 163C62.9621 162.307 62.8208 161.531 62.8208 160.672C62.8208 159.803 62.9621 159.024 63.2448 158.336C63.5328 157.648 63.9541 157.107 64.5088 156.712C65.0688 156.317 65.7541 156.12 66.5648 156.12C67.3648 156.12 68.0528 156.32 68.6288 156.72C69.2101 157.115 69.6554 157.656 69.9648 158.344C70.2741 159.032 70.4288 159.808 70.4288 160.672C70.4288 161.536 70.2741 162.312 69.9648 163C69.6554 163.688 69.2101 164.235 68.6288 164.64C68.0528 165.04 67.3621 165.24 66.5568 165.24ZM62.5808 165V153.48H64.0128V158.64H63.8528V165H62.5808ZM66.3808 163.936C66.9514 163.936 67.4234 163.792 67.7968 163.504C68.1701 163.216 68.4501 162.827 68.6368 162.336C68.8234 161.84 68.9168 161.285 68.9168 160.672C68.9168 160.064 68.8234 159.515 68.6368 159.024C68.4554 158.533 68.1728 158.144 67.7888 157.856C67.4101 157.568 66.9274 157.424 66.3408 157.424C65.7808 157.424 65.3168 157.563 64.9488 157.84C64.5808 158.112 64.3061 158.493 64.1248 158.984C63.9434 159.469 63.8528 160.032 63.8528 160.672C63.8528 161.301 63.9408 161.864 64.1168 162.36C64.2981 162.851 64.5754 163.237 64.9488 163.52C65.3221 163.797 65.7994 163.936 66.3808 163.936ZM72.5925 154.832V153.36H74.0165V154.832H72.5925ZM72.5925 165V156.36H74.0165V165H72.5925ZM80.3469 165.24C79.4882 165.24 78.7469 165.045 78.1229 164.656C77.5042 164.267 77.0269 163.728 76.6909 163.04C76.3549 162.352 76.1869 161.563 76.1869 160.672C76.1869 159.765 76.3575 158.971 76.6989 158.288C77.0402 157.605 77.5229 157.075 78.1469 156.696C78.7709 156.312 79.5042 156.12 80.3469 156.12C81.2109 156.12 81.9549 156.315 82.5789 156.704C83.2029 157.088 83.6802 157.624 84.0109 158.312C84.3469 158.995 84.5149 159.781 84.5149 160.672C84.5149 161.573 84.3469 162.368 84.0109 163.056C83.6749 163.739 83.1949 164.275 82.5709 164.664C81.9469 165.048 81.2055 165.24 80.3469 165.24ZM80.3469 163.888C81.2429 163.888 81.9095 163.589 82.3469 162.992C82.7842 162.395 83.0029 161.621 83.0029 160.672C83.0029 159.696 82.7815 158.92 82.3389 158.344C81.8962 157.763 81.2322 157.472 80.3469 157.472C79.7442 157.472 79.2482 157.608 78.8589 157.88C78.4695 158.152 78.1789 158.528 77.9869 159.008C77.7949 159.488 77.6989 160.043 77.6989 160.672C77.6989 161.643 77.9229 162.421 78.3709 163.008C78.8189 163.595 79.4775 163.888 80.3469 163.888ZM96.8543 165L96.8623 159.472C96.8623 158.827 96.6889 158.323 96.3423 157.96C96.0009 157.592 95.5556 157.408 95.0063 157.408C94.6863 157.408 94.3823 157.483 94.0943 157.632C93.8063 157.776 93.5716 158.005 93.3903 158.32C93.2089 158.629 93.1183 159.027 93.1183 159.512L92.3663 159.208C92.3556 158.595 92.4809 158.059 92.7423 157.6C93.0089 157.136 93.3716 156.776 93.8303 156.52C94.2889 156.264 94.8063 156.136 95.3823 156.136C96.2836 156.136 96.9929 156.411 97.5103 156.96C98.0276 157.504 98.2863 158.237 98.2863 159.16L98.2783 165H96.8543ZM86.5183 165V156.36H87.7903V158.672H87.9503V165H86.5183ZM91.6943 165L91.7023 159.528C91.7023 158.867 91.5316 158.349 91.1903 157.976C90.8489 157.597 90.3956 157.408 89.8303 157.408C89.2703 157.408 88.8169 157.6 88.4703 157.984C88.1236 158.368 87.9503 158.877 87.9503 159.512L87.1983 159.064C87.1983 158.504 87.3316 158.003 87.5983 157.56C87.8649 157.117 88.2276 156.771 88.6863 156.52C89.1449 156.264 89.6649 156.136 90.2463 156.136C90.8276 156.136 91.3343 156.259 91.7663 156.504C92.1983 156.749 92.5316 157.101 92.7663 157.56C93.0009 158.013 93.1183 158.555 93.1183 159.184L93.1103 165H91.6943ZM104.286 165.24C103.438 165.24 102.697 165.053 102.062 164.68C101.433 164.301 100.942 163.776 100.59 163.104C100.238 162.427 100.062 161.637 100.062 160.736C100.062 159.792 100.235 158.976 100.582 158.288C100.929 157.595 101.411 157.061 102.03 156.688C102.654 156.309 103.385 156.12 104.222 156.12C105.091 156.12 105.83 156.32 106.438 156.72C107.051 157.12 107.51 157.691 107.814 158.432C108.123 159.173 108.257 160.056 108.214 161.08H106.774V160.568C106.758 159.507 106.542 158.715 106.126 158.192C105.71 157.664 105.091 157.4 104.27 157.4C103.39 157.4 102.721 157.683 102.262 158.248C101.803 158.813 101.574 159.624 101.574 160.68C101.574 161.699 101.803 162.488 102.262 163.048C102.721 163.608 103.374 163.888 104.222 163.888C104.793 163.888 105.289 163.757 105.71 163.496C106.131 163.235 106.462 162.859 106.702 162.368L108.07 162.84C107.734 163.603 107.227 164.195 106.55 164.616C105.878 165.032 105.123 165.24 104.286 165.24ZM101.094 161.08V159.936H107.478V161.08H101.094ZM115.069 165C114.557 165.101 114.05 165.141 113.549 165.12C113.053 165.104 112.61 165.005 112.221 164.824C111.832 164.637 111.536 164.349 111.333 163.96C111.162 163.619 111.069 163.275 111.053 162.928C111.042 162.576 111.037 162.179 111.037 161.736V153.96H112.461V161.672C112.461 162.024 112.464 162.325 112.469 162.576C112.48 162.827 112.536 163.043 112.637 163.224C112.829 163.565 113.133 163.765 113.549 163.824C113.97 163.883 114.477 163.867 115.069 163.776V165ZM109.285 157.536V156.36H115.069V157.536H109.285ZM117.073 165V156.36H118.345V158.448L118.137 158.176C118.238 157.909 118.369 157.664 118.529 157.44C118.694 157.216 118.878 157.032 119.081 156.888C119.305 156.707 119.558 156.568 119.841 156.472C120.124 156.376 120.412 156.32 120.705 156.304C120.998 156.283 121.273 156.301 121.529 156.36V157.696C121.23 157.616 120.902 157.595 120.545 157.632C120.188 157.669 119.857 157.8 119.553 158.024C119.276 158.221 119.06 158.461 118.905 158.744C118.756 159.027 118.652 159.333 118.593 159.664C118.534 159.989 118.505 160.323 118.505 160.664V165H117.073ZM123.452 154.832V153.36H124.876V154.832H123.452ZM123.452 165V156.36H124.876V165H123.452ZM131.166 165.24C130.292 165.24 129.548 165.045 128.934 164.656C128.326 164.261 127.862 163.72 127.542 163.032C127.222 162.344 127.057 161.56 127.046 160.68C127.057 159.779 127.225 158.987 127.55 158.304C127.881 157.616 128.353 157.08 128.966 156.696C129.58 156.312 130.318 156.12 131.182 156.12C132.094 156.12 132.878 156.344 133.534 156.792C134.196 157.24 134.638 157.853 134.862 158.632L133.454 159.056C133.273 158.555 132.977 158.165 132.566 157.888C132.161 157.611 131.694 157.472 131.166 157.472C130.574 157.472 130.086 157.611 129.702 157.888C129.318 158.16 129.033 158.539 128.846 159.024C128.66 159.504 128.564 160.056 128.558 160.68C128.569 161.64 128.79 162.416 129.222 163.008C129.66 163.595 130.308 163.888 131.166 163.888C131.732 163.888 132.201 163.76 132.574 163.504C132.948 163.243 133.23 162.867 133.422 162.376L134.862 162.752C134.564 163.557 134.097 164.173 133.462 164.6C132.828 165.027 132.062 165.24 131.166 165.24ZM140.009 165.232C138.98 165.232 138.134 165.008 137.473 164.56C136.817 164.107 136.414 163.475 136.265 162.664L137.721 162.432C137.838 162.901 138.108 163.275 138.529 163.552C138.95 163.824 139.473 163.96 140.097 163.96C140.689 163.96 141.153 163.837 141.489 163.592C141.825 163.347 141.993 163.013 141.993 162.592C141.993 162.347 141.937 162.149 141.825 162C141.713 161.845 141.481 161.701 141.129 161.568C140.782 161.435 140.257 161.275 139.553 161.088C138.79 160.885 138.19 160.675 137.753 160.456C137.316 160.237 137.004 159.984 136.817 159.696C136.63 159.408 136.537 159.059 136.537 158.648C136.537 158.141 136.676 157.699 136.953 157.32C137.23 156.936 137.617 156.64 138.113 156.432C138.614 156.224 139.196 156.12 139.857 156.12C140.513 156.12 141.1 156.224 141.617 156.432C142.134 156.64 142.55 156.936 142.865 157.32C143.185 157.699 143.374 158.141 143.433 158.648L141.977 158.912C141.908 158.448 141.684 158.083 141.305 157.816C140.932 157.549 140.449 157.408 139.857 157.392C139.297 157.371 138.841 157.469 138.489 157.688C138.142 157.907 137.969 158.203 137.969 158.576C137.969 158.784 138.033 158.963 138.161 159.112C138.294 159.261 138.537 159.403 138.889 159.536C139.246 159.669 139.764 159.821 140.441 159.992C141.204 160.184 141.804 160.395 142.241 160.624C142.684 160.848 142.998 161.115 143.185 161.424C143.372 161.728 143.465 162.104 143.465 162.552C143.465 163.384 143.158 164.04 142.545 164.52C141.932 164.995 141.086 165.232 140.009 165.232Z" fill="white"/>
<g clip-path="url(#clip0_1385_8342)">
<path d="M315 159C315 152.373 320.373 147 327 147H347C353.627 147 359 152.373 359 159V159C359 165.627 353.627 171 347 171H327C320.373 171 315 165.627 315 159V159Z" fill="#36BFFA"/>
<g filter="url(#filter0_dd_1385_8342)">
<circle cx="347" cy="159" r="10" fill="white"/>
</g>
</g>
<path d="M29.12 219V207.48H33.672C33.784 207.48 33.9173 207.485 34.072 207.496C34.2267 207.501 34.376 207.517 34.52 207.544C35.144 207.64 35.6667 207.853 36.088 208.184C36.5147 208.515 36.8347 208.933 37.048 209.44C37.2613 209.941 37.368 210.499 37.368 211.112C37.368 212.003 37.136 212.776 36.672 213.432C36.208 214.083 35.528 214.491 34.632 214.656L34.088 214.744H30.544V219H29.12ZM35.976 219L33.704 214.312L35.112 213.88L37.608 219H35.976ZM30.544 213.392H33.624C33.7253 213.392 33.84 213.387 33.968 213.376C34.1013 213.365 34.2267 213.347 34.344 213.32C34.712 213.235 35.0107 213.08 35.24 212.856C35.4747 212.627 35.6453 212.36 35.752 212.056C35.8587 211.747 35.912 211.432 35.912 211.112C35.912 210.792 35.8587 210.48 35.752 210.176C35.6453 209.867 35.4747 209.597 35.24 209.368C35.0107 209.139 34.712 208.984 34.344 208.904C34.2267 208.872 34.1013 208.853 33.968 208.848C33.84 208.837 33.7253 208.832 33.624 208.832H30.544V213.392ZM43.364 219.24C42.516 219.24 41.7747 219.053 41.14 218.68C40.5107 218.301 40.02 217.776 39.668 217.104C39.316 216.427 39.14 215.637 39.14 214.736C39.14 213.792 39.3133 212.976 39.66 212.288C40.0067 211.595 40.4893 211.061 41.108 210.688C41.732 210.309 42.4627 210.12 43.3 210.12C44.1693 210.12 44.908 210.32 45.516 210.72C46.1293 211.12 46.588 211.691 46.892 212.432C47.2013 213.173 47.3347 214.056 47.292 215.08H45.852V214.568C45.836 213.507 45.62 212.715 45.204 212.192C44.788 211.664 44.1693 211.4 43.348 211.4C42.468 211.4 41.7987 211.683 41.34 212.248C40.8813 212.813 40.652 213.624 40.652 214.68C40.652 215.699 40.8813 216.488 41.34 217.048C41.7987 217.608 42.452 217.888 43.3 217.888C43.8707 217.888 44.3667 217.757 44.788 217.496C45.2093 217.235 45.54 216.859 45.78 216.368L47.148 216.84C46.812 217.603 46.3053 218.195 45.628 218.616C44.956 219.032 44.2013 219.24 43.364 219.24ZM40.172 215.08V213.936H46.556V215.08H40.172ZM52.7151 219.24C51.9098 219.24 51.2191 219.04 50.6431 218.64C50.0671 218.235 49.6218 217.688 49.3071 217C48.9978 216.312 48.8431 215.536 48.8431 214.672C48.8431 213.808 48.9978 213.032 49.3071 212.344C49.6218 211.656 50.0671 211.115 50.6431 210.72C51.2191 210.32 51.9071 210.12 52.7071 210.12C53.5231 210.12 54.2085 210.317 54.7631 210.712C55.3178 211.107 55.7365 211.648 56.0191 212.336C56.3071 213.024 56.4511 213.803 56.4511 214.672C56.4511 215.531 56.3071 216.307 56.0191 217C55.7365 217.688 55.3178 218.235 54.7631 218.64C54.2085 219.04 53.5258 219.24 52.7151 219.24ZM52.8911 217.936C53.4725 217.936 53.9498 217.797 54.3231 217.52C54.6965 217.237 54.9711 216.851 55.1471 216.36C55.3285 215.864 55.4191 215.301 55.4191 214.672C55.4191 214.032 55.3285 213.469 55.1471 212.984C54.9711 212.493 54.6991 212.112 54.3311 211.84C53.9631 211.563 53.4965 211.424 52.9311 211.424C52.3445 211.424 51.8591 211.568 51.4751 211.856C51.0965 212.144 50.8138 212.533 50.6271 213.024C50.4458 213.515 50.3551 214.064 50.3551 214.672C50.3551 215.285 50.4485 215.84 50.6351 216.336C50.8218 216.827 51.1018 217.216 51.4751 217.504C51.8538 217.792 52.3258 217.936 52.8911 217.936ZM55.2591 222.84V216.72H55.4191V210.36H56.6911V222.84H55.2591ZM62.4625 219.224C61.9078 219.224 61.4305 219.136 61.0305 218.96C60.6358 218.784 60.3078 218.549 60.0465 218.256C59.7852 217.963 59.5798 217.637 59.4305 217.28C59.2812 216.923 59.1745 216.557 59.1105 216.184C59.0518 215.811 59.0225 215.461 59.0225 215.136V210.36H60.4625V214.688C60.4625 215.093 60.4998 215.485 60.5745 215.864C60.6492 216.243 60.7745 216.584 60.9505 216.888C61.1318 217.192 61.3718 217.432 61.6705 217.608C61.9745 217.784 62.3532 217.872 62.8065 217.872C63.1638 217.872 63.4892 217.811 63.7825 217.688C64.0758 217.565 64.3265 217.384 64.5345 217.144C64.7425 216.899 64.9025 216.589 65.0145 216.216C65.1265 215.843 65.1825 215.408 65.1825 214.912L66.1185 215.2C66.1185 216.032 65.9665 216.749 65.6625 217.352C65.3638 217.955 64.9398 218.419 64.3905 218.744C63.8465 219.064 63.2038 219.224 62.4625 219.224ZM65.3425 219V216.688H65.1825V210.36H66.6145V219H65.3425ZM69.2644 208.832V207.36H70.6884V208.832H69.2644ZM69.2644 219V210.36H70.6884V219H69.2644ZM73.3388 219V210.36H74.6108V212.448L74.4028 212.176C74.5041 211.909 74.6348 211.664 74.7948 211.44C74.9601 211.216 75.1441 211.032 75.3468 210.888C75.5708 210.707 75.8241 210.568 76.1068 210.472C76.3894 210.376 76.6774 210.32 76.9708 210.304C77.2641 210.283 77.5388 210.301 77.7948 210.36V211.696C77.4961 211.616 77.1681 211.595 76.8108 211.632C76.4534 211.669 76.1228 211.8 75.8188 212.024C75.5414 212.221 75.3254 212.461 75.1708 212.744C75.0214 213.027 74.9174 213.333 74.8588 213.664C74.8001 213.989 74.7708 214.323 74.7708 214.664V219H73.3388ZM83.1453 219.24C82.2973 219.24 81.5559 219.053 80.9213 218.68C80.2919 218.301 79.8013 217.776 79.4493 217.104C79.0973 216.427 78.9213 215.637 78.9213 214.736C78.9213 213.792 79.0946 212.976 79.4413 212.288C79.7879 211.595 80.2706 211.061 80.8893 210.688C81.5133 210.309 82.2439 210.12 83.0813 210.12C83.9506 210.12 84.6893 210.32 85.2973 210.72C85.9106 211.12 86.3693 211.691 86.6733 212.432C86.9826 213.173 87.1159 214.056 87.0733 215.08H85.6333V214.568C85.6173 213.507 85.4013 212.715 84.9853 212.192C84.5693 211.664 83.9506 211.4 83.1293 211.4C82.2493 211.4 81.5799 211.683 81.1213 212.248C80.6626 212.813 80.4333 213.624 80.4333 214.68C80.4333 215.699 80.6626 216.488 81.1213 217.048C81.5799 217.608 82.2333 217.888 83.0813 217.888C83.6519 217.888 84.1479 217.757 84.5693 217.496C84.9906 217.235 85.3213 216.859 85.5613 216.368L86.9293 216.84C86.5933 217.603 86.0866 218.195 85.4093 218.616C84.7373 219.032 83.9826 219.24 83.1453 219.24ZM79.9533 215.08V213.936H86.3373V215.08H79.9533ZM97.3815 219C96.8695 219.101 96.3628 219.141 95.8615 219.12C95.3655 219.104 94.9228 219.005 94.5335 218.824C94.1442 218.637 93.8482 218.349 93.6455 217.96C93.4748 217.619 93.3815 217.275 93.3655 216.928C93.3548 216.576 93.3495 216.179 93.3495 215.736V207.96H94.7735V215.672C94.7735 216.024 94.7762 216.325 94.7815 216.576C94.7922 216.827 94.8482 217.043 94.9495 217.224C95.1415 217.565 95.4455 217.765 95.8615 217.824C96.2828 217.883 96.7895 217.867 97.3815 217.776V219ZM91.5975 211.536V210.36H97.3815V211.536H91.5975ZM102.706 219.24C101.848 219.24 101.106 219.045 100.482 218.656C99.8636 218.267 99.3863 217.728 99.0503 217.04C98.7143 216.352 98.5463 215.563 98.5463 214.672C98.5463 213.765 98.7169 212.971 99.0583 212.288C99.3996 211.605 99.8823 211.075 100.506 210.696C101.13 210.312 101.864 210.12 102.706 210.12C103.57 210.12 104.314 210.315 104.938 210.704C105.562 211.088 106.04 211.624 106.37 212.312C106.706 212.995 106.874 213.781 106.874 214.672C106.874 215.573 106.706 216.368 106.37 217.056C106.034 217.739 105.554 218.275 104.93 218.664C104.306 219.048 103.565 219.24 102.706 219.24ZM102.706 217.888C103.602 217.888 104.269 217.589 104.706 216.992C105.144 216.395 105.362 215.621 105.362 214.672C105.362 213.696 105.141 212.92 104.698 212.344C104.256 211.763 103.592 211.472 102.706 211.472C102.104 211.472 101.608 211.608 101.218 211.88C100.829 212.152 100.538 212.528 100.346 213.008C100.154 213.488 100.058 214.043 100.058 214.672C100.058 215.643 100.282 216.421 100.73 217.008C101.178 217.595 101.837 217.888 102.706 217.888ZM116.019 219.24C115.16 219.24 114.419 219.045 113.795 218.656C113.176 218.267 112.699 217.728 112.363 217.04C112.027 216.352 111.859 215.563 111.859 214.672C111.859 213.765 112.029 212.971 112.371 212.288C112.712 211.605 113.195 211.075 113.819 210.696C114.443 210.312 115.176 210.12 116.019 210.12C116.883 210.12 117.627 210.315 118.251 210.704C118.875 211.088 119.352 211.624 119.683 212.312C120.019 212.995 120.187 213.781 120.187 214.672C120.187 215.573 120.019 216.368 119.683 217.056C119.347 217.739 118.867 218.275 118.243 218.664C117.619 219.048 116.877 219.24 116.019 219.24ZM116.019 217.888C116.915 217.888 117.581 217.589 118.019 216.992C118.456 216.395 118.675 215.621 118.675 214.672C118.675 213.696 118.453 212.92 118.011 212.344C117.568 211.763 116.904 211.472 116.019 211.472C115.416 211.472 114.92 211.608 114.531 211.88C114.141 212.152 113.851 212.528 113.659 213.008C113.467 213.488 113.371 214.043 113.371 214.672C113.371 215.643 113.595 216.421 114.043 217.008C114.491 217.595 115.149 217.888 116.019 217.888ZM126.166 219.24C125.355 219.24 124.673 219.04 124.118 218.64C123.563 218.235 123.142 217.688 122.854 217C122.571 216.307 122.43 215.531 122.43 214.672C122.43 213.803 122.571 213.024 122.854 212.336C123.142 211.648 123.563 211.107 124.118 210.712C124.678 210.317 125.363 210.12 126.174 210.12C126.974 210.12 127.662 210.32 128.238 210.72C128.819 211.115 129.265 211.656 129.574 212.344C129.883 213.032 130.038 213.808 130.038 214.672C130.038 215.536 129.883 216.312 129.574 217C129.265 217.688 128.819 218.235 128.238 218.64C127.662 219.04 126.971 219.24 126.166 219.24ZM122.19 222.84V210.36H123.462V216.72H123.622V222.84H122.19ZM125.99 217.936C126.561 217.936 127.033 217.792 127.406 217.504C127.779 217.216 128.059 216.827 128.246 216.336C128.433 215.84 128.526 215.285 128.526 214.672C128.526 214.064 128.433 213.515 128.246 213.024C128.065 212.533 127.782 212.144 127.398 211.856C127.019 211.568 126.537 211.424 125.95 211.424C125.39 211.424 124.926 211.563 124.558 211.84C124.19 212.112 123.915 212.493 123.734 212.984C123.553 213.469 123.462 214.032 123.462 214.672C123.462 215.301 123.55 215.864 123.726 216.36C123.907 216.851 124.185 217.237 124.558 217.52C124.931 217.797 125.409 217.936 125.99 217.936ZM135.786 219.24C134.938 219.24 134.197 219.053 133.562 218.68C132.933 218.301 132.442 217.776 132.09 217.104C131.738 216.427 131.562 215.637 131.562 214.736C131.562 213.792 131.735 212.976 132.082 212.288C132.429 211.595 132.911 211.061 133.53 210.688C134.154 210.309 134.885 210.12 135.722 210.12C136.591 210.12 137.33 210.32 137.938 210.72C138.551 211.12 139.01 211.691 139.314 212.432C139.623 213.173 139.757 214.056 139.714 215.08H138.274V214.568C138.258 213.507 138.042 212.715 137.626 212.192C137.21 211.664 136.591 211.4 135.77 211.4C134.89 211.4 134.221 211.683 133.762 212.248C133.303 212.813 133.074 213.624 133.074 214.68C133.074 215.699 133.303 216.488 133.762 217.048C134.221 217.608 134.874 217.888 135.722 217.888C136.293 217.888 136.789 217.757 137.21 217.496C137.631 217.235 137.962 216.859 138.202 216.368L139.57 216.84C139.234 217.603 138.727 218.195 138.05 218.616C137.378 219.032 136.623 219.24 135.786 219.24ZM132.594 215.08V213.936H138.978V215.08H132.594ZM147.663 219V214.672C147.663 214.261 147.625 213.867 147.551 213.488C147.481 213.109 147.356 212.771 147.175 212.472C146.999 212.168 146.759 211.928 146.455 211.752C146.156 211.576 145.777 211.488 145.319 211.488C144.961 211.488 144.636 211.549 144.343 211.672C144.055 211.789 143.807 211.971 143.599 212.216C143.391 212.461 143.228 212.771 143.111 213.144C142.999 213.512 142.943 213.947 142.943 214.448L142.007 214.16C142.007 213.323 142.156 212.605 142.455 212.008C142.759 211.405 143.183 210.944 143.727 210.624C144.276 210.299 144.921 210.136 145.663 210.136C146.223 210.136 146.7 210.224 147.095 210.4C147.489 210.576 147.817 210.811 148.079 211.104C148.34 211.392 148.545 211.717 148.695 212.08C148.844 212.437 148.948 212.803 149.007 213.176C149.071 213.544 149.103 213.893 149.103 214.224V219H147.663ZM141.503 219V210.36H142.783V212.672H142.943V219H141.503ZM157.342 219.24C156.696 219.24 156.155 219.123 155.718 218.888C155.286 218.648 154.958 218.333 154.734 217.944C154.515 217.555 154.406 217.128 154.406 216.664C154.406 216.211 154.491 215.819 154.662 215.488C154.838 215.152 155.083 214.875 155.398 214.656C155.712 214.432 156.088 214.256 156.526 214.128C156.936 214.016 157.395 213.92 157.902 213.84C158.414 213.755 158.931 213.677 159.454 213.608C159.976 213.539 160.464 213.472 160.918 213.408L160.406 213.704C160.422 212.936 160.267 212.368 159.942 212C159.622 211.632 159.067 211.448 158.278 211.448C157.755 211.448 157.296 211.568 156.902 211.808C156.512 212.043 156.238 212.427 156.078 212.96L154.726 212.552C154.934 211.795 155.336 211.2 155.934 210.768C156.531 210.336 157.318 210.12 158.294 210.12C159.078 210.12 159.75 210.261 160.31 210.544C160.875 210.821 161.28 211.243 161.526 211.808C161.648 212.075 161.726 212.365 161.758 212.68C161.79 212.989 161.806 213.315 161.806 213.656V219H160.542V216.928L160.838 217.12C160.512 217.819 160.056 218.347 159.47 218.704C158.888 219.061 158.179 219.24 157.342 219.24ZM157.558 218.048C158.07 218.048 158.512 217.957 158.886 217.776C159.264 217.589 159.568 217.347 159.798 217.048C160.027 216.744 160.176 216.413 160.246 216.056C160.326 215.789 160.368 215.493 160.374 215.168C160.384 214.837 160.39 214.584 160.39 214.408L160.886 214.624C160.422 214.688 159.966 214.749 159.518 214.808C159.07 214.867 158.646 214.931 158.246 215C157.846 215.064 157.486 215.141 157.166 215.232C156.931 215.307 156.71 215.403 156.502 215.52C156.299 215.637 156.134 215.789 156.006 215.976C155.883 216.157 155.822 216.384 155.822 216.656C155.822 216.891 155.88 217.115 155.998 217.328C156.12 217.541 156.307 217.715 156.558 217.848C156.814 217.981 157.147 218.048 157.558 218.048ZM168.104 219.24C167.293 219.24 166.61 219.04 166.056 218.64C165.501 218.235 165.08 217.688 164.792 217C164.509 216.307 164.368 215.531 164.368 214.672C164.368 213.803 164.509 213.024 164.792 212.336C165.08 211.648 165.501 211.107 166.056 210.712C166.616 210.317 167.301 210.12 168.112 210.12C168.912 210.12 169.6 210.32 170.176 210.72C170.757 211.115 171.202 211.656 171.512 212.344C171.821 213.032 171.976 213.808 171.976 214.672C171.976 215.536 171.821 216.312 171.512 217C171.202 217.688 170.757 218.235 170.176 218.64C169.6 219.04 168.909 219.24 168.104 219.24ZM164.128 222.84V210.36H165.4V216.72H165.56V222.84H164.128ZM167.928 217.936C168.498 217.936 168.97 217.792 169.344 217.504C169.717 217.216 169.997 216.827 170.184 216.336C170.37 215.84 170.464 215.285 170.464 214.672C170.464 214.064 170.37 213.515 170.184 213.024C170.002 212.533 169.72 212.144 169.336 211.856C168.957 211.568 168.474 211.424 167.888 211.424C167.328 211.424 166.864 211.563 166.496 211.84C166.128 212.112 165.853 212.493 165.672 212.984C165.49 213.469 165.4 214.032 165.4 214.672C165.4 215.301 165.488 215.864 165.664 216.36C165.845 216.851 166.122 217.237 166.496 217.52C166.869 217.797 167.346 217.936 167.928 217.936ZM177.947 219.24C177.137 219.24 176.454 219.04 175.899 218.64C175.345 218.235 174.923 217.688 174.635 217C174.353 216.307 174.211 215.531 174.211 214.672C174.211 213.803 174.353 213.024 174.635 212.336C174.923 211.648 175.345 211.107 175.899 210.712C176.459 210.317 177.145 210.12 177.955 210.12C178.755 210.12 179.443 210.32 180.019 210.72C180.601 211.115 181.046 211.656 181.355 212.344C181.665 213.032 181.819 213.808 181.819 214.672C181.819 215.536 181.665 216.312 181.355 217C181.046 217.688 180.601 218.235 180.019 218.64C179.443 219.04 178.753 219.24 177.947 219.24ZM173.971 222.84V210.36H175.243V216.72H175.403V222.84H173.971ZM177.771 217.936C178.342 217.936 178.814 217.792 179.187 217.504C179.561 217.216 179.841 216.827 180.027 216.336C180.214 215.84 180.307 215.285 180.307 214.672C180.307 214.064 180.214 213.515 180.027 213.024C179.846 212.533 179.563 212.144 179.179 211.856C178.801 211.568 178.318 211.424 177.731 211.424C177.171 211.424 176.707 211.563 176.339 211.84C175.971 212.112 175.697 212.493 175.515 212.984C175.334 213.469 175.243 214.032 175.243 214.672C175.243 215.301 175.331 215.864 175.507 216.36C175.689 216.851 175.966 217.237 176.339 217.52C176.713 217.797 177.19 217.936 177.771 217.936Z" fill="white"/>
<g clip-path="url(#clip1_1385_8342)">
<path d="M315 213C315 206.373 320.373 201 327 201H347C353.627 201 359 206.373 359 213V213C359 219.627 353.627 225 347 225H327C320.373 225 315 219.627 315 213V213Z" fill="#36BFFA"/>
<g filter="url(#filter1_dd_1385_8342)">
<circle cx="347" cy="213" r="10" fill="white"/>
</g>
</g>
<path d="M29.12 273V261.48H33.672C33.784 261.48 33.9173 261.485 34.072 261.496C34.2267 261.501 34.376 261.517 34.52 261.544C35.144 261.64 35.6667 261.853 36.088 262.184C36.5147 262.515 36.8347 262.933 37.048 263.44C37.2613 263.941 37.368 264.499 37.368 265.112C37.368 266.003 37.136 266.776 36.672 267.432C36.208 268.083 35.528 268.491 34.632 268.656L34.088 268.744H30.544V273H29.12ZM35.976 273L33.704 268.312L35.112 267.88L37.608 273H35.976ZM30.544 267.392H33.624C33.7253 267.392 33.84 267.387 33.968 267.376C34.1013 267.365 34.2267 267.347 34.344 267.32C34.712 267.235 35.0107 267.08 35.24 266.856C35.4747 266.627 35.6453 266.36 35.752 266.056C35.8587 265.747 35.912 265.432 35.912 265.112C35.912 264.792 35.8587 264.48 35.752 264.176C35.6453 263.867 35.4747 263.597 35.24 263.368C35.0107 263.139 34.712 262.984 34.344 262.904C34.2267 262.872 34.1013 262.853 33.968 262.848C33.84 262.837 33.7253 262.832 33.624 262.832H30.544V267.392ZM43.364 273.24C42.516 273.24 41.7747 273.053 41.14 272.68C40.5107 272.301 40.02 271.776 39.668 271.104C39.316 270.427 39.14 269.637 39.14 268.736C39.14 267.792 39.3133 266.976 39.66 266.288C40.0067 265.595 40.4893 265.061 41.108 264.688C41.732 264.309 42.4627 264.12 43.3 264.12C44.1693 264.12 44.908 264.32 45.516 264.72C46.1293 265.12 46.588 265.691 46.892 266.432C47.2013 267.173 47.3347 268.056 47.292 269.08H45.852V268.568C45.836 267.507 45.62 266.715 45.204 266.192C44.788 265.664 44.1693 265.4 43.348 265.4C42.468 265.4 41.7987 265.683 41.34 266.248C40.8813 266.813 40.652 267.624 40.652 268.68C40.652 269.699 40.8813 270.488 41.34 271.048C41.7987 271.608 42.452 271.888 43.3 271.888C43.8707 271.888 44.3667 271.757 44.788 271.496C45.2093 271.235 45.54 270.859 45.78 270.368L47.148 270.84C46.812 271.603 46.3053 272.195 45.628 272.616C44.956 273.032 44.2013 273.24 43.364 273.24ZM40.172 269.08V267.936H46.556V269.08H40.172ZM52.7151 273.24C51.9098 273.24 51.2191 273.04 50.6431 272.64C50.0671 272.235 49.6218 271.688 49.3071 271C48.9978 270.312 48.8431 269.536 48.8431 268.672C48.8431 267.808 48.9978 267.032 49.3071 266.344C49.6218 265.656 50.0671 265.115 50.6431 264.72C51.2191 264.32 51.9071 264.12 52.7071 264.12C53.5231 264.12 54.2085 264.317 54.7631 264.712C55.3178 265.107 55.7365 265.648 56.0191 266.336C56.3071 267.024 56.4511 267.803 56.4511 268.672C56.4511 269.531 56.3071 270.307 56.0191 271C55.7365 271.688 55.3178 272.235 54.7631 272.64C54.2085 273.04 53.5258 273.24 52.7151 273.24ZM52.8911 271.936C53.4725 271.936 53.9498 271.797 54.3231 271.52C54.6965 271.237 54.9711 270.851 55.1471 270.36C55.3285 269.864 55.4191 269.301 55.4191 268.672C55.4191 268.032 55.3285 267.469 55.1471 266.984C54.9711 266.493 54.6991 266.112 54.3311 265.84C53.9631 265.563 53.4965 265.424 52.9311 265.424C52.3445 265.424 51.8591 265.568 51.4751 265.856C51.0965 266.144 50.8138 266.533 50.6271 267.024C50.4458 267.515 50.3551 268.064 50.3551 268.672C50.3551 269.285 50.4485 269.84 50.6351 270.336C50.8218 270.827 51.1018 271.216 51.4751 271.504C51.8538 271.792 52.3258 271.936 52.8911 271.936ZM55.2591 276.84V270.72H55.4191V264.36H56.6911V276.84H55.2591ZM62.4625 273.224C61.9078 273.224 61.4305 273.136 61.0305 272.96C60.6358 272.784 60.3078 272.549 60.0465 272.256C59.7852 271.963 59.5798 271.637 59.4305 271.28C59.2812 270.923 59.1745 270.557 59.1105 270.184C59.0518 269.811 59.0225 269.461 59.0225 269.136V264.36H60.4625V268.688C60.4625 269.093 60.4998 269.485 60.5745 269.864C60.6492 270.243 60.7745 270.584 60.9505 270.888C61.1318 271.192 61.3718 271.432 61.6705 271.608C61.9745 271.784 62.3532 271.872 62.8065 271.872C63.1638 271.872 63.4892 271.811 63.7825 271.688C64.0758 271.565 64.3265 271.384 64.5345 271.144C64.7425 270.899 64.9025 270.589 65.0145 270.216C65.1265 269.843 65.1825 269.408 65.1825 268.912L66.1185 269.2C66.1185 270.032 65.9665 270.749 65.6625 271.352C65.3638 271.955 64.9398 272.419 64.3905 272.744C63.8465 273.064 63.2038 273.224 62.4625 273.224ZM65.3425 273V270.688H65.1825V264.36H66.6145V273H65.3425ZM69.2644 262.832V261.36H70.6884V262.832H69.2644ZM69.2644 273V264.36H70.6884V273H69.2644ZM73.3388 273V264.36H74.6108V266.448L74.4028 266.176C74.5041 265.909 74.6348 265.664 74.7948 265.44C74.9601 265.216 75.1441 265.032 75.3468 264.888C75.5708 264.707 75.8241 264.568 76.1068 264.472C76.3894 264.376 76.6774 264.32 76.9708 264.304C77.2641 264.283 77.5388 264.301 77.7948 264.36V265.696C77.4961 265.616 77.1681 265.595 76.8108 265.632C76.4534 265.669 76.1228 265.8 75.8188 266.024C75.5414 266.221 75.3254 266.461 75.1708 266.744C75.0214 267.027 74.9174 267.333 74.8588 267.664C74.8001 267.989 74.7708 268.323 74.7708 268.664V273H73.3388ZM83.1453 273.24C82.2973 273.24 81.5559 273.053 80.9213 272.68C80.2919 272.301 79.8013 271.776 79.4493 271.104C79.0973 270.427 78.9213 269.637 78.9213 268.736C78.9213 267.792 79.0946 266.976 79.4413 266.288C79.7879 265.595 80.2706 265.061 80.8893 264.688C81.5133 264.309 82.2439 264.12 83.0813 264.12C83.9506 264.12 84.6893 264.32 85.2973 264.72C85.9106 265.12 86.3693 265.691 86.6733 266.432C86.9826 267.173 87.1159 268.056 87.0733 269.08H85.6333V268.568C85.6173 267.507 85.4013 266.715 84.9853 266.192C84.5693 265.664 83.9506 265.4 83.1293 265.4C82.2493 265.4 81.5799 265.683 81.1213 266.248C80.6626 266.813 80.4333 267.624 80.4333 268.68C80.4333 269.699 80.6626 270.488 81.1213 271.048C81.5799 271.608 82.2333 271.888 83.0813 271.888C83.6519 271.888 84.1479 271.757 84.5693 271.496C84.9906 271.235 85.3213 270.859 85.5613 270.368L86.9293 270.84C86.5933 271.603 86.0866 272.195 85.4093 272.616C84.7373 273.032 83.9826 273.24 83.1453 273.24ZM79.9533 269.08V267.936H86.3373V269.08H79.9533ZM93.3815 273V263.888C93.3815 263.664 93.3922 263.437 93.4135 263.208C93.4348 262.973 93.4828 262.747 93.5575 262.528C93.6322 262.304 93.7548 262.099 93.9255 261.912C94.1228 261.693 94.3388 261.539 94.5735 261.448C94.8082 261.352 95.0455 261.293 95.2855 261.272C95.5308 261.251 95.7628 261.24 95.9815 261.24H97.0775V262.424H96.0615C95.6402 262.424 95.3255 262.528 95.1175 262.736C94.9095 262.939 94.8055 263.248 94.8055 263.664V273H93.3815ZM91.9175 265.536V264.36H97.0775V265.536H91.9175ZM101.972 273.24C101.113 273.24 100.372 273.045 99.7479 272.656C99.1292 272.267 98.6519 271.728 98.3159 271.04C97.9799 270.352 97.8119 269.563 97.8119 268.672C97.8119 267.765 97.9825 266.971 98.3239 266.288C98.6652 265.605 99.1479 265.075 99.7719 264.696C100.396 264.312 101.129 264.12 101.972 264.12C102.836 264.12 103.58 264.315 104.204 264.704C104.828 265.088 105.305 265.624 105.636 266.312C105.972 266.995 106.14 267.781 106.14 268.672C106.14 269.573 105.972 270.368 105.636 271.056C105.3 271.739 104.82 272.275 104.196 272.664C103.572 273.048 102.831 273.24 101.972 273.24ZM101.972 271.888C102.868 271.888 103.535 271.589 103.972 270.992C104.409 270.395 104.628 269.621 104.628 268.672C104.628 267.696 104.407 266.92 103.964 266.344C103.521 265.763 102.857 265.472 101.972 265.472C101.369 265.472 100.873 265.608 100.484 265.88C100.095 266.152 99.8039 266.528 99.6119 267.008C99.4199 267.488 99.3239 268.043 99.3239 268.672C99.3239 269.643 99.5479 270.421 99.9959 271.008C100.444 271.595 101.103 271.888 101.972 271.888ZM108.151 273V264.36H109.423V266.448L109.215 266.176C109.317 265.909 109.447 265.664 109.607 265.44C109.773 265.216 109.957 265.032 110.159 264.888C110.383 264.707 110.637 264.568 110.919 264.472C111.202 264.376 111.49 264.32 111.783 264.304C112.077 264.283 112.351 264.301 112.607 264.36V265.696C112.309 265.616 111.981 265.595 111.623 265.632C111.266 265.669 110.935 265.8 110.631 266.024C110.354 266.221 110.138 266.461 109.983 266.744C109.834 267.027 109.73 267.333 109.671 267.664C109.613 267.989 109.583 268.323 109.583 268.664V273H108.151ZM122.647 273C122.135 273.101 121.628 273.141 121.127 273.12C120.631 273.104 120.188 273.005 119.799 272.824C119.41 272.637 119.114 272.349 118.911 271.96C118.74 271.619 118.647 271.275 118.631 270.928C118.62 270.576 118.615 270.179 118.615 269.736V261.96H120.039V269.672C120.039 270.024 120.042 270.325 120.047 270.576C120.058 270.827 120.114 271.043 120.215 271.224C120.407 271.565 120.711 271.765 121.127 271.824C121.548 271.883 122.055 271.867 122.647 271.776V273ZM116.863 265.536V264.36H122.647V265.536H116.863ZM124.651 273V264.36H125.923V266.448L125.715 266.176C125.817 265.909 125.947 265.664 126.107 265.44C126.273 265.216 126.457 265.032 126.659 264.888C126.883 264.707 127.137 264.568 127.419 264.472C127.702 264.376 127.99 264.32 128.283 264.304C128.577 264.283 128.851 264.301 129.107 264.36V265.696C128.809 265.616 128.481 265.595 128.123 265.632C127.766 265.669 127.435 265.8 127.131 266.024C126.854 266.221 126.638 266.461 126.483 266.744C126.334 267.027 126.23 267.333 126.171 267.664C126.113 267.989 126.083 268.323 126.083 268.664V273H124.651ZM133.045 273.24C132.399 273.24 131.858 273.123 131.421 272.888C130.989 272.648 130.661 272.333 130.437 271.944C130.218 271.555 130.109 271.128 130.109 270.664C130.109 270.211 130.194 269.819 130.365 269.488C130.541 269.152 130.786 268.875 131.101 268.656C131.415 268.432 131.791 268.256 132.229 268.128C132.639 268.016 133.098 267.92 133.605 267.84C134.117 267.755 134.634 267.677 135.157 267.608C135.679 267.539 136.167 267.472 136.621 267.408L136.109 267.704C136.125 266.936 135.97 266.368 135.645 266C135.325 265.632 134.77 265.448 133.981 265.448C133.458 265.448 132.999 265.568 132.605 265.808C132.215 266.043 131.941 266.427 131.781 266.96L130.429 266.552C130.637 265.795 131.039 265.2 131.637 264.768C132.234 264.336 133.021 264.12 133.997 264.12C134.781 264.12 135.453 264.261 136.013 264.544C136.578 264.821 136.983 265.243 137.229 265.808C137.351 266.075 137.429 266.365 137.461 266.68C137.493 266.989 137.509 267.315 137.509 267.656V273H136.245V270.928L136.541 271.12C136.215 271.819 135.759 272.347 135.173 272.704C134.591 273.061 133.882 273.24 133.045 273.24ZM133.261 272.048C133.773 272.048 134.215 271.957 134.589 271.776C134.967 271.589 135.271 271.347 135.501 271.048C135.73 270.744 135.879 270.413 135.949 270.056C136.029 269.789 136.071 269.493 136.077 269.168C136.087 268.837 136.093 268.584 136.093 268.408L136.589 268.624C136.125 268.688 135.669 268.749 135.221 268.808C134.773 268.867 134.349 268.931 133.949 269C133.549 269.064 133.189 269.141 132.869 269.232C132.634 269.307 132.413 269.403 132.205 269.52C132.002 269.637 131.837 269.789 131.709 269.976C131.586 270.157 131.525 270.384 131.525 270.656C131.525 270.891 131.583 271.115 131.701 271.328C131.823 271.541 132.01 271.715 132.261 271.848C132.517 271.981 132.85 272.048 133.261 272.048ZM145.991 273V268.672C145.991 268.261 145.953 267.867 145.879 267.488C145.809 267.109 145.684 266.771 145.503 266.472C145.327 266.168 145.087 265.928 144.783 265.752C144.484 265.576 144.105 265.488 143.647 265.488C143.289 265.488 142.964 265.549 142.671 265.672C142.383 265.789 142.135 265.971 141.927 266.216C141.719 266.461 141.556 266.771 141.439 267.144C141.327 267.512 141.271 267.947 141.271 268.448L140.335 268.16C140.335 267.323 140.484 266.605 140.783 266.008C141.087 265.405 141.511 264.944 142.055 264.624C142.604 264.299 143.249 264.136 143.991 264.136C144.551 264.136 145.028 264.224 145.423 264.4C145.817 264.576 146.145 264.811 146.407 265.104C146.668 265.392 146.873 265.717 147.023 266.08C147.172 266.437 147.276 266.803 147.335 267.176C147.399 267.544 147.431 267.893 147.431 268.224V273H145.991ZM139.831 273V264.36H141.111V266.672H141.271V273H139.831ZM153.025 273.232C151.995 273.232 151.15 273.008 150.489 272.56C149.833 272.107 149.43 271.475 149.281 270.664L150.737 270.432C150.854 270.901 151.123 271.275 151.545 271.552C151.966 271.824 152.489 271.96 153.113 271.96C153.705 271.96 154.169 271.837 154.505 271.592C154.841 271.347 155.009 271.013 155.009 270.592C155.009 270.347 154.953 270.149 154.841 270C154.729 269.845 154.497 269.701 154.145 269.568C153.798 269.435 153.273 269.275 152.569 269.088C151.806 268.885 151.206 268.675 150.769 268.456C150.331 268.237 150.019 267.984 149.833 267.696C149.646 267.408 149.553 267.059 149.553 266.648C149.553 266.141 149.691 265.699 149.969 265.32C150.246 264.936 150.633 264.64 151.129 264.432C151.63 264.224 152.211 264.12 152.873 264.12C153.529 264.12 154.115 264.224 154.633 264.432C155.15 264.64 155.566 264.936 155.881 265.32C156.201 265.699 156.39 266.141 156.449 266.648L154.993 266.912C154.923 266.448 154.699 266.083 154.321 265.816C153.947 265.549 153.465 265.408 152.873 265.392C152.313 265.371 151.857 265.469 151.505 265.688C151.158 265.907 150.985 266.203 150.985 266.576C150.985 266.784 151.049 266.963 151.177 267.112C151.31 267.261 151.553 267.403 151.905 267.536C152.262 267.669 152.779 267.821 153.457 267.992C154.219 268.184 154.819 268.395 155.257 268.624C155.699 268.848 156.014 269.115 156.201 269.424C156.387 269.728 156.481 270.104 156.481 270.552C156.481 271.384 156.174 272.04 155.561 272.52C154.947 272.995 154.102 273.232 153.025 273.232ZM160.951 273.24C160.306 273.24 159.764 273.123 159.327 272.888C158.895 272.648 158.567 272.333 158.343 271.944C158.124 271.555 158.015 271.128 158.015 270.664C158.015 270.211 158.1 269.819 158.271 269.488C158.447 269.152 158.692 268.875 159.007 268.656C159.322 268.432 159.698 268.256 160.135 268.128C160.546 268.016 161.004 267.92 161.511 267.84C162.023 267.755 162.54 267.677 163.063 267.608C163.586 267.539 164.074 267.472 164.527 267.408L164.015 267.704C164.031 266.936 163.876 266.368 163.551 266C163.231 265.632 162.676 265.448 161.887 265.448C161.364 265.448 160.906 265.568 160.511 265.808C160.122 266.043 159.847 266.427 159.687 266.96L158.335 266.552C158.543 265.795 158.946 265.2 159.543 264.768C160.14 264.336 160.927 264.12 161.903 264.12C162.687 264.12 163.359 264.261 163.919 264.544C164.484 264.821 164.89 265.243 165.135 265.808C165.258 266.075 165.335 266.365 165.367 266.68C165.399 266.989 165.415 267.315 165.415 267.656V273H164.151V270.928L164.447 271.12C164.122 271.819 163.666 272.347 163.079 272.704C162.498 273.061 161.788 273.24 160.951 273.24ZM161.167 272.048C161.679 272.048 162.122 271.957 162.495 271.776C162.874 271.589 163.178 271.347 163.407 271.048C163.636 270.744 163.786 270.413 163.855 270.056C163.935 269.789 163.978 269.493 163.983 269.168C163.994 268.837 163.999 268.584 163.999 268.408L164.495 268.624C164.031 268.688 163.575 268.749 163.127 268.808C162.679 268.867 162.255 268.931 161.855 269C161.455 269.064 161.095 269.141 160.775 269.232C160.54 269.307 160.319 269.403 160.111 269.52C159.908 269.637 159.743 269.789 159.615 269.976C159.492 270.157 159.431 270.384 159.431 270.656C159.431 270.891 159.49 271.115 159.607 271.328C159.73 271.541 159.916 271.715 160.167 271.848C160.423 271.981 160.756 272.048 161.167 272.048ZM171.385 273.24C170.51 273.24 169.766 273.045 169.153 272.656C168.545 272.261 168.081 271.72 167.761 271.032C167.441 270.344 167.276 269.56 167.265 268.68C167.276 267.779 167.444 266.987 167.769 266.304C168.1 265.616 168.572 265.08 169.185 264.696C169.798 264.312 170.537 264.12 171.401 264.12C172.313 264.12 173.097 264.344 173.753 264.792C174.414 265.24 174.857 265.853 175.081 266.632L173.673 267.056C173.492 266.555 173.196 266.165 172.785 265.888C172.38 265.611 171.913 265.472 171.385 265.472C170.793 265.472 170.305 265.611 169.921 265.888C169.537 266.16 169.252 266.539 169.065 267.024C168.878 267.504 168.782 268.056 168.777 268.68C168.788 269.64 169.009 270.416 169.441 271.008C169.878 271.595 170.526 271.888 171.385 271.888C171.95 271.888 172.42 271.76 172.793 271.504C173.166 271.243 173.449 270.867 173.641 270.376L175.081 270.752C174.782 271.557 174.316 272.173 173.681 272.6C173.046 273.027 172.281 273.24 171.385 273.24ZM181.788 273C181.276 273.101 180.769 273.141 180.268 273.12C179.772 273.104 179.329 273.005 178.94 272.824C178.55 272.637 178.254 272.349 178.052 271.96C177.881 271.619 177.788 271.275 177.772 270.928C177.761 270.576 177.756 270.179 177.756 269.736V261.96H179.18V269.672C179.18 270.024 179.182 270.325 179.188 270.576C179.198 270.827 179.254 271.043 179.356 271.224C179.548 271.565 179.852 271.765 180.268 271.824C180.689 271.883 181.196 271.867 181.788 271.776V273ZM176.004 265.536V264.36H181.788V265.536H176.004ZM183.952 262.832V261.36H185.376V262.832H183.952ZM183.952 273V264.36H185.376V273H183.952ZM191.706 273.24C190.848 273.24 190.106 273.045 189.482 272.656C188.864 272.267 188.386 271.728 188.05 271.04C187.714 270.352 187.546 269.563 187.546 268.672C187.546 267.765 187.717 266.971 188.058 266.288C188.4 265.605 188.882 265.075 189.506 264.696C190.13 264.312 190.864 264.12 191.706 264.12C192.57 264.12 193.314 264.315 193.938 264.704C194.562 265.088 195.04 265.624 195.37 266.312C195.706 266.995 195.874 267.781 195.874 268.672C195.874 269.573 195.706 270.368 195.37 271.056C195.034 271.739 194.554 272.275 193.93 272.664C193.306 273.048 192.565 273.24 191.706 273.24ZM191.706 271.888C192.602 271.888 193.269 271.589 193.706 270.992C194.144 270.395 194.362 269.621 194.362 268.672C194.362 267.696 194.141 266.92 193.698 266.344C193.256 265.763 192.592 265.472 191.706 265.472C191.104 265.472 190.608 265.608 190.218 265.88C189.829 266.152 189.538 266.528 189.346 267.008C189.154 267.488 189.058 268.043 189.058 268.672C189.058 269.643 189.282 270.421 189.73 271.008C190.178 271.595 190.837 271.888 191.706 271.888ZM204.038 273V268.672C204.038 268.261 204 267.867 203.926 267.488C203.856 267.109 203.731 266.771 203.55 266.472C203.374 266.168 203.134 265.928 202.83 265.752C202.531 265.576 202.152 265.488 201.694 265.488C201.336 265.488 201.011 265.549 200.718 265.672C200.43 265.789 200.182 265.971 199.974 266.216C199.766 266.461 199.603 266.771 199.486 267.144C199.374 267.512 199.318 267.947 199.318 268.448L198.382 268.16C198.382 267.323 198.531 266.605 198.83 266.008C199.134 265.405 199.558 264.944 200.102 264.624C200.651 264.299 201.296 264.136 202.038 264.136C202.598 264.136 203.075 264.224 203.47 264.4C203.864 264.576 204.192 264.811 204.454 265.104C204.715 265.392 204.92 265.717 205.07 266.08C205.219 266.437 205.323 266.803 205.382 267.176C205.446 267.544 205.478 267.893 205.478 268.224V273H204.038ZM197.878 273V264.36H199.158V266.672H199.318V273H197.878ZM211.072 273.232C210.042 273.232 209.197 273.008 208.536 272.56C207.88 272.107 207.477 271.475 207.328 270.664L208.784 270.432C208.901 270.901 209.17 271.275 209.592 271.552C210.013 271.824 210.536 271.96 211.16 271.96C211.752 271.96 212.216 271.837 212.552 271.592C212.888 271.347 213.056 271.013 213.056 270.592C213.056 270.347 213 270.149 212.888 270C212.776 269.845 212.544 269.701 212.192 269.568C211.845 269.435 211.32 269.275 210.616 269.088C209.853 268.885 209.253 268.675 208.816 268.456C208.378 268.237 208.066 267.984 207.88 267.696C207.693 267.408 207.6 267.059 207.6 266.648C207.6 266.141 207.738 265.699 208.016 265.32C208.293 264.936 208.68 264.64 209.176 264.432C209.677 264.224 210.258 264.12 210.92 264.12C211.576 264.12 212.162 264.224 212.68 264.432C213.197 264.64 213.613 264.936 213.928 265.32C214.248 265.699 214.437 266.141 214.496 266.648L213.04 266.912C212.97 266.448 212.746 266.083 212.368 265.816C211.994 265.549 211.512 265.408 210.92 265.392C210.36 265.371 209.904 265.469 209.552 265.688C209.205 265.907 209.032 266.203 209.032 266.576C209.032 266.784 209.096 266.963 209.224 267.112C209.357 267.261 209.6 267.403 209.952 267.536C210.309 267.669 210.826 267.821 211.504 267.992C212.266 268.184 212.866 268.395 213.304 268.624C213.746 268.848 214.061 269.115 214.248 269.424C214.434 269.728 214.528 270.104 214.528 270.552C214.528 271.384 214.221 272.04 213.608 272.52C212.994 272.995 212.149 273.232 211.072 273.232Z" fill="white"/>
<g clip-path="url(#clip2_1385_8342)">
<path d="M315 267C315 260.373 320.373 255 327 255H347C353.627 255 359 260.373 359 267V267C359 273.627 353.627 279 347 279H327C320.373 279 315 273.627 315 267V267Z" fill="#36BFFA"/>
<g filter="url(#filter2_dd_1385_8342)">
<circle cx="347" cy="267" r="10" fill="white"/>
</g>
</g>
<path d="M44.5 53.5L33.5 64.5M33.5 53.5L44.5 64.5" stroke="white" stroke-width="3" stroke-linecap="round" stroke-linejoin="round"/>
<path d="M162.057 66.27C161.109 66.27 160.254 66.105 159.492 65.775C158.736 65.445 158.112 64.974 157.62 64.362C157.134 63.744 156.825 63.012 156.693 62.166L158.943 61.824C159.135 62.592 159.528 63.186 160.122 63.606C160.722 64.026 161.412 64.236 162.192 64.236C162.654 64.236 163.089 64.164 163.497 64.02C163.905 63.876 164.235 63.666 164.487 63.39C164.745 63.114 164.874 62.775 164.874 62.373C164.874 62.193 164.844 62.028 164.784 61.878C164.724 61.722 164.634 61.584 164.514 61.464C164.4 61.344 164.25 61.236 164.064 61.14C163.884 61.038 163.674 60.951 163.434 60.879L160.086 59.889C159.798 59.805 159.486 59.694 159.15 59.556C158.82 59.412 158.505 59.217 158.205 58.971C157.911 58.719 157.668 58.401 157.476 58.017C157.29 57.627 157.197 57.147 157.197 56.577C157.197 55.743 157.407 55.044 157.827 54.48C158.253 53.91 158.823 53.484 159.537 53.202C160.257 52.92 161.055 52.782 161.931 52.788C162.819 52.794 163.611 52.947 164.307 53.247C165.003 53.541 165.585 53.97 166.053 54.534C166.521 55.098 166.851 55.779 167.043 56.577L164.712 56.982C164.616 56.526 164.43 56.139 164.154 55.821C163.884 55.497 163.551 55.251 163.155 55.083C162.765 54.915 162.348 54.825 161.904 54.813C161.472 54.807 161.07 54.873 160.698 55.011C160.332 55.143 160.035 55.335 159.807 55.587C159.585 55.839 159.474 56.133 159.474 56.469C159.474 56.787 159.57 57.048 159.762 57.252C159.954 57.45 160.191 57.609 160.473 57.729C160.761 57.843 161.052 57.939 161.346 58.017L163.668 58.665C163.986 58.749 164.343 58.863 164.739 59.007C165.135 59.151 165.516 59.352 165.882 59.61C166.248 59.868 166.548 60.207 166.782 60.627C167.022 61.047 167.142 61.581 167.142 62.229C167.142 62.901 167.001 63.492 166.719 64.002C166.443 64.506 166.068 64.926 165.594 65.262C165.12 65.598 164.577 65.85 163.965 66.018C163.359 66.186 162.723 66.27 162.057 66.27ZM173.759 66.27C172.775 66.27 171.911 66.057 171.167 65.631C170.423 65.205 169.841 64.614 169.421 63.858C169.007 63.102 168.8 62.232 168.8 61.248C168.8 60.186 169.004 59.265 169.412 58.485C169.82 57.699 170.387 57.09 171.113 56.658C171.839 56.226 172.679 56.01 173.633 56.01C174.641 56.01 175.496 56.247 176.198 56.721C176.906 57.189 177.431 57.852 177.773 58.71C178.115 59.568 178.244 60.579 178.16 61.743H176.009V60.951C176.003 59.895 175.817 59.124 175.451 58.638C175.085 58.152 174.509 57.909 173.723 57.909C172.835 57.909 172.175 58.185 171.743 58.737C171.311 59.283 171.095 60.084 171.095 61.14C171.095 62.124 171.311 62.886 171.743 63.426C172.175 63.966 172.805 64.236 173.633 64.236C174.167 64.236 174.626 64.119 175.01 63.885C175.4 63.645 175.7 63.3 175.91 62.85L178.052 63.498C177.68 64.374 177.104 65.055 176.324 65.541C175.55 66.027 174.695 66.27 173.759 66.27ZM170.411 61.743V60.105H177.098V61.743H170.411ZM184.639 66.27C183.637 66.27 182.782 66.048 182.074 65.604C181.366 65.154 180.823 64.542 180.445 63.768C180.073 62.994 179.884 62.118 179.878 61.14C179.884 60.144 180.079 59.262 180.463 58.494C180.853 57.72 181.405 57.114 182.119 56.676C182.833 56.232 183.682 56.01 184.666 56.01C185.77 56.01 186.703 56.289 187.465 56.847C188.233 57.399 188.734 58.155 188.968 59.115L186.808 59.7C186.64 59.178 186.361 58.773 185.971 58.485C185.581 58.191 185.137 58.044 184.639 58.044C184.075 58.044 183.61 58.179 183.244 58.449C182.878 58.713 182.608 59.079 182.434 59.547C182.26 60.015 182.173 60.546 182.173 61.14C182.173 62.064 182.38 62.811 182.794 63.381C183.208 63.951 183.823 64.236 184.639 64.236C185.215 64.236 185.668 64.104 185.998 63.84C186.334 63.576 186.586 63.195 186.754 62.697L188.968 63.192C188.668 64.182 188.143 64.944 187.393 65.478C186.643 66.006 185.725 66.27 184.639 66.27ZM194.667 66.279C193.947 66.279 193.353 66.159 192.885 65.919C192.417 65.679 192.045 65.373 191.769 65.001C191.493 64.629 191.289 64.233 191.157 63.813C191.025 63.393 190.938 62.997 190.896 62.625C190.86 62.247 190.842 61.941 190.842 61.707V56.28H193.038V60.96C193.038 61.26 193.059 61.599 193.101 61.977C193.143 62.349 193.239 62.709 193.389 63.057C193.545 63.399 193.773 63.681 194.073 63.903C194.379 64.125 194.79 64.236 195.306 64.236C195.582 64.236 195.855 64.191 196.125 64.101C196.395 64.011 196.638 63.858 196.854 63.642C197.076 63.42 197.253 63.117 197.385 62.733C197.517 62.349 197.583 61.863 197.583 61.275L198.87 61.824C198.87 62.652 198.708 63.402 198.384 64.074C198.066 64.746 197.595 65.283 196.971 65.685C196.347 66.081 195.579 66.279 194.667 66.279ZM197.844 66V62.985H197.583V56.28H199.761V66H197.844ZM202.539 66V56.28H204.456V58.647L204.222 58.341C204.342 58.017 204.501 57.723 204.699 57.459C204.903 57.189 205.146 56.967 205.428 56.793C205.668 56.631 205.932 56.505 206.22 56.415C206.514 56.319 206.814 56.262 207.12 56.244C207.426 56.22 207.723 56.232 208.011 56.28V58.305C207.723 58.221 207.39 58.194 207.012 58.224C206.64 58.254 206.304 58.359 206.004 58.539C205.704 58.701 205.458 58.908 205.266 59.16C205.08 59.412 204.942 59.7 204.852 60.024C204.762 60.342 204.717 60.687 204.717 61.059V66H202.539ZM210.159 54.804V52.815H212.328V54.804H210.159ZM210.159 66V56.28H212.328V66H210.159ZM220.971 66C220.329 66.12 219.699 66.171 219.081 66.153C218.469 66.141 217.92 66.03 217.434 65.82C216.948 65.604 216.579 65.265 216.327 64.803C216.105 64.383 215.988 63.954 215.976 63.516C215.964 63.078 215.958 62.583 215.958 62.031V53.58H218.118V61.905C218.118 62.295 218.121 62.637 218.127 62.931C218.139 63.225 218.202 63.465 218.316 63.651C218.532 64.011 218.877 64.212 219.351 64.254C219.825 64.296 220.365 64.272 220.971 64.182V66ZM214.194 57.981V56.28H220.971V57.981H214.194ZM224.325 70.32L226.197 65.181L226.233 66.693L221.994 56.28H224.253L227.259 63.984H226.683L229.608 56.28H231.777L226.359 70.32H224.325Z" fill="white"/>
<path fill-rule="evenodd" clip-rule="evenodd" d="M359 310H28V309H359V310Z" fill="white"/>
<path opacity="0.35" d="M338.667 21.8334H355.333C356.53 21.8334 357.5 22.8034 357.5 24V30C357.5 31.1967 356.53 32.1667 355.333 32.1667H338.667C337.47 32.1667 336.5 31.1967 336.5 30V24C336.5 22.8034 337.47 21.8334 338.667 21.8334Z" stroke="white"/>
<path opacity="0.4" d="M359 25V29C359.805 28.6613 360.328 27.8732 360.328 27C360.328 26.1269 359.805 25.3388 359 25" fill="white"/>
<path d="M338 24.6667C338 23.9303 338.597 23.3334 339.333 23.3334H354.667C355.403 23.3334 356 23.9303 356 24.6667V29.3334C356 30.0698 355.403 30.6667 354.667 30.6667H339.333C338.597 30.6667 338 30.0698 338 29.3334V24.6667Z" fill="white"/>
<path fill-rule="evenodd" clip-rule="evenodd" d="M323.33 23.608C325.546 23.6081 327.678 24.4596 329.283 25.9863C329.404 26.1042 329.598 26.1027 329.717 25.983L330.873 24.8163C330.933 24.7556 330.967 24.6734 330.966 24.5878C330.966 24.5022 330.931 24.4204 330.87 24.3603C326.655 20.3208 320.005 20.3208 315.79 24.3603C315.729 24.4203 315.694 24.5021 315.694 24.5877C315.693 24.6733 315.727 24.7556 315.787 24.8163L316.943 25.983C317.062 26.1029 317.256 26.1044 317.377 25.9863C318.983 24.4595 321.114 23.608 323.33 23.608ZM323.33 27.4037C324.548 27.4036 325.722 27.8561 326.624 28.6733C326.747 28.7893 326.939 28.7868 327.058 28.6677L328.212 27.501C328.273 27.4398 328.307 27.3568 328.306 27.2705C328.305 27.1843 328.27 27.102 328.208 27.042C325.46 24.4856 321.204 24.4856 318.455 27.042C318.393 27.102 318.358 27.1843 318.357 27.2706C318.356 27.3569 318.39 27.4399 318.451 27.501L319.605 28.6677C319.724 28.7868 319.917 28.7893 320.039 28.6733C320.941 27.8567 322.114 27.4042 323.33 27.4037ZM325.643 29.9575C325.645 30.044 325.611 30.1274 325.549 30.188L323.552 32.2037C323.494 32.2629 323.414 32.2963 323.33 32.2963C323.247 32.2963 323.167 32.2629 323.109 32.2037L321.111 30.188C321.049 30.1274 321.015 30.0439 321.017 29.9574C321.019 29.8709 321.057 29.789 321.121 29.731C322.396 28.6521 324.265 28.6521 325.54 29.731C325.604 29.789 325.642 29.871 325.643 29.9575Z" fill="white"/>
<path fill-rule="evenodd" clip-rule="evenodd" d="M309.667 21.6666H308.667C308.114 21.6666 307.667 22.1143 307.667 22.6666V31.3333C307.667 31.8856 308.114 32.3333 308.667 32.3333H309.667C310.219 32.3333 310.667 31.8856 310.667 31.3333V22.6666C310.667 22.1143 310.219 21.6666 309.667 21.6666ZM304 24H305C305.552 24 306 24.4477 306 25V31.3333C306 31.8856 305.552 32.3333 305 32.3333H304C303.448 32.3333 303 31.8856 303 31.3333V25C303 24.4477 303.448 24 304 24ZM300.333 26.3333H299.333C298.781 26.3333 298.333 26.781 298.333 27.3333V31.3333C298.333 31.8856 298.781 32.3333 299.333 32.3333H300.333C300.886 32.3333 301.333 31.8856 301.333 31.3333V27.3333C301.333 26.781 300.886 26.3333 300.333 26.3333ZM295.667 28.3333H294.667C294.114 28.3333 293.667 28.781 293.667 29.3333V31.3333C293.667 31.8856 294.114 32.3333 294.667 32.3333H295.667C296.219 32.3333 296.667 31.8856 296.667 31.3333V29.3333C296.667 28.781 296.219 28.3333 295.667 28.3333Z" fill="white"/>
<path d="M37.3208 32.2563C40.0088 32.2563 41.6055 30.1543 41.6055 26.5947C41.6055 25.2544 41.3491 24.1265 40.8584 23.2549C40.1479 21.8999 38.9248 21.1675 37.3794 21.1675C35.0796 21.1675 33.4536 22.7129 33.4536 24.8809C33.4536 26.917 34.9185 28.3965 36.9326 28.3965C38.1704 28.3965 39.1738 27.8179 39.6719 26.8145H39.6938C39.6938 26.8145 39.7231 26.8145 39.7305 26.8145C39.7451 26.8145 39.7964 26.8145 39.7964 26.8145C39.7964 29.2314 38.8809 30.6743 37.3354 30.6743C36.4272 30.6743 35.7241 30.1763 35.4824 29.3779H33.6001C33.915 31.1138 35.3872 32.2563 37.3208 32.2563ZM37.3867 26.895C36.1709 26.895 35.3066 26.0308 35.3066 24.8223C35.3066 23.6431 36.2148 22.7422 37.394 22.7422C38.5732 22.7422 39.4814 23.6577 39.4814 24.8516C39.4814 26.0308 38.5952 26.895 37.3867 26.895Z" fill="white"/>
<path d="M44.6966 32.1538C45.3924 32.1538 45.8685 31.6558 45.8685 30.9966C45.8685 30.3301 45.3924 29.8394 44.6966 29.8394C44.0081 29.8394 43.5247 30.3301 43.5247 30.9966C43.5247 31.6558 44.0081 32.1538 44.6966 32.1538ZM44.6966 26.6606C45.3924 26.6606 45.8685 26.1699 45.8685 25.5107C45.8685 24.8442 45.3924 24.3535 44.6966 24.3535C44.0081 24.3535 43.5247 24.8442 43.5247 25.5107C43.5247 26.1699 44.0081 26.6606 44.6966 26.6606Z" fill="white"/>
<path d="M52.7242 32H54.5333V30.0298H55.9615V28.4331H54.5333V21.4312H51.8673C49.9996 24.2437 48.5128 26.5947 47.5606 28.3452V30.0298H52.7242V32ZM49.3111 28.3672C50.5416 26.1992 51.6402 24.4634 52.651 22.9692H52.7535V28.4771H49.3111V28.3672Z" fill="white"/>
<path d="M59.9901 32H61.8798V21.4312H59.9975L57.2362 23.3647V25.1812L59.8656 23.3354H59.9901V32Z" fill="white"/>
<path d="M46 3H341C361.435 3 378 19.5655 378 40V772C378 792.435 361.435 809 341 809H46C25.5655 809 9 792.435 9 772V40C9 19.5655 25.5655 3 46 3Z" stroke="white" stroke-width="6"/>
<defs>
<filter id="filter0_dd_1385_8342" x="334" y="147" width="26" height="26" filterUnits="userSpaceOnUse" color-interpolation-filters="sRGB">
<feFlood flood-opacity="0" result="BackgroundImageFix"/>
<feColorMatrix in="SourceAlpha" type="matrix" values="0 0 0 0 0 0 0 0 0 0 0 0 0 0 0 0 0 0 127 0" result="hardAlpha"/>
<feOffset dy="1"/>
<feGaussianBlur stdDeviation="1"/>
<feColorMatrix type="matrix" values="0 0 0 0 0.0627451 0 0 0 0 0.0941176 0 0 0 0 0.156863 0 0 0 0.06 0"/>
<feBlend mode="normal" in2="BackgroundImageFix" result="effect1_dropShadow_1385_8342"/>
<feColorMatrix in="SourceAlpha" type="matrix" values="0 0 0 0 0 0 0 0 0 0 0 0 0 0 0 0 0 0 127 0" result="hardAlpha"/>
<feOffset dy="1"/>
<feGaussianBlur stdDeviation="1.5"/>
<feColorMatrix type="matrix" values="0 0 0 0 0.0627451 0 0 0 0 0.0941176 0 0 0 0 0.156863 0 0 0 0.1 0"/>
<feBlend mode="normal" in2="effect1_dropShadow_1385_8342" result="effect2_dropShadow_1385_8342"/>
<feBlend mode="normal" in="SourceGraphic" in2="effect2_dropShadow_1385_8342" result="shape"/>
</filter>
<filter id="filter1_dd_1385_8342" x="334" y="201" width="26" height="26" filterUnits="userSpaceOnUse" color-interpolation-filters="sRGB">
<feFlood flood-opacity="0" result="BackgroundImageFix"/>
<feColorMatrix in="SourceAlpha" type="matrix" values="0 0 0 0 0 0 0 0 0 0 0 0 0 0 0 0 0 0 127 0" result="hardAlpha"/>
<feOffset dy="1"/>
<feGaussianBlur stdDeviation="1"/>
<feColorMatrix type="matrix" values="0 0 0 0 0.0627451 0 0 0 0 0.0941176 0 0 0 0 0.156863 0 0 0 0.06 0"/>
<feBlend mode="normal" in2="BackgroundImageFix" result="effect1_dropShadow_1385_8342"/>
<feColorMatrix in="SourceAlpha" type="matrix" values="0 0 0 0 0 0 0 0 0 0 0 0 0 0 0 0 0 0 127 0" result="hardAlpha"/>
<feOffset dy="1"/>
<feGaussianBlur stdDeviation="1.5"/>
<feColorMatrix type="matrix" values="0 0 0 0 0.0627451 0 0 0 0 0.0941176 0 0 0 0 0.156863 0 0 0 0.1 0"/>
<feBlend mode="normal" in2="effect1_dropShadow_1385_8342" result="effect2_dropShadow_1385_8342"/>
<feBlend mode="normal" in="SourceGraphic" in2="effect2_dropShadow_1385_8342" result="shape"/>
</filter>
<filter id="filter2_dd_1385_8342" x="334" y="255" width="26" height="26" filterUnits="userSpaceOnUse" color-interpolation-filters="sRGB">
<feFlood flood-opacity="0" result="BackgroundImageFix"/>
<feColorMatrix in="SourceAlpha" type="matrix" values="0 0 0 0 0 0 0 0 0 0 0 0 0 0 0 0 0 0 127 0" result="hardAlpha"/>
<feOffset dy="1"/>
<feGaussianBlur stdDeviation="1"/>
<feColorMatrix type="matrix" values="0 0 0 0 0.0627451 0 0 0 0 0.0941176 0 0 0 0 0.156863 0 0 0 0.06 0"/>
<feBlend mode="normal" in2="BackgroundImageFix" result="effect1_dropShadow_1385_8342"/>
<feColorMatrix in="SourceAlpha" type="matrix" values="0 0 0 0 0 0 0 0 0 0 0 0 0 0 0 0 0 0 127 0" result="hardAlpha"/>
<feOffset dy="1"/>
<feGaussianBlur stdDeviation="1.5"/>
<feColorMatrix type="matrix" values="0 0 0 0 0.0627451 0 0 0 0 0.0941176 0 0 0 0 0.156863 0 0 0 0.1 0"/>
<feBlend mode="normal" in2="effect1_dropShadow_1385_8342" result="effect2_dropShadow_1385_8342"/>
<feBlend mode="normal" in="SourceGraphic" in2="effect2_dropShadow_1385_8342" result="shape"/>
</filter>
<clipPath id="clip0_1385_8342">
<path d="M315 159C315 152.373 320.373 147 327 147H347C353.627 147 359 152.373 359 159V159C359 165.627 353.627 171 347 171H327C320.373 171 315 165.627 315 159V159Z" fill="white"/>
</clipPath>
<clipPath id="clip1_1385_8342">
<path d="M315 213C315 206.373 320.373 201 327 201H347C353.627 201 359 206.373 359 213V213C359 219.627 353.627 225 347 225H327C320.373 225 315 219.627 315 213V213Z" fill="white"/>
</clipPath>
<clipPath id="clip2_1385_8342">
<path d="M315 267C315 260.373 320.373 255 327 255H347C353.627 255 359 260.373 359 267V267C359 273.627 353.627 279 347 279H327C320.373 279 315 273.627 315 267V267Z" fill="white"/>
</clipPath>
</defs>
</svg>
