<svg width="375" height="812" viewBox="0 0 375 812" fill="none" xmlns="http://www.w3.org/2000/svg">
<path d="M40 2H335C355.987 2 373 19.0132 373 40V772C373 792.987 355.987 810 335 810H40C19.0132 810 2 792.987 2 772V40C2 19.0132 19.0132 2 40 2Z" fill="white"/>
<path d="M253.125 396.667H121.875C111.52 396.667 103.125 405.024 103.125 415.333V480.667C103.125 490.976 111.52 499.333 121.875 499.333H253.125C263.48 499.333 271.875 490.976 271.875 480.667V415.333C271.875 405.024 263.48 396.667 253.125 396.667Z" stroke="#0BDA62" stroke-width="10" stroke-linecap="round" stroke-linejoin="round"/>
<path d="M140.625 396.667V359.333C140.625 346.957 145.564 335.087 154.354 326.335C163.145 317.583 175.068 312.667 187.5 312.667C199.932 312.667 211.855 317.583 220.646 326.335C229.436 335.087 234.375 346.957 234.375 359.333V396.667" stroke="#0BDA62" stroke-width="10" stroke-linecap="round" stroke-linejoin="round"/>
<path d="M40 2H335C355.987 2 373 19.0132 373 40V772C373 792.987 355.987 810 335 810H40C19.0132 810 2 792.987 2 772V40C2 19.0132 19.0132 2 40 2Z" stroke="black" stroke-width="4"/>
</svg>
