<svg width="381" height="812" viewBox="0 0 381 812" fill="none" xmlns="http://www.w3.org/2000/svg">
<path d="M46 3H341C361.435 3 378 19.5655 378 40V772C378 792.435 361.435 809 341 809H46C25.5655 809 9 792.435 9 772V40C9 19.5655 25.5655 3 46 3Z" fill="#101323"/>
<path d="M144.057 66.27C143.109 66.27 142.254 66.105 141.492 65.775C140.736 65.445 140.112 64.974 139.62 64.362C139.134 63.744 138.825 63.012 138.693 62.166L140.943 61.824C141.135 62.592 141.528 63.186 142.122 63.606C142.722 64.026 143.412 64.236 144.192 64.236C144.654 64.236 145.089 64.164 145.497 64.02C145.905 63.876 146.235 63.666 146.487 63.39C146.745 63.114 146.874 62.775 146.874 62.373C146.874 62.193 146.844 62.028 146.784 61.878C146.724 61.722 146.634 61.584 146.514 61.464C146.4 61.344 146.25 61.236 146.064 61.14C145.884 61.038 145.674 60.951 145.434 60.879L142.086 59.889C141.798 59.805 141.486 59.694 141.15 59.556C140.82 59.412 140.505 59.217 140.205 58.971C139.911 58.719 139.668 58.401 139.476 58.017C139.29 57.627 139.197 57.147 139.197 56.577C139.197 55.743 139.407 55.044 139.827 54.48C140.253 53.91 140.823 53.484 141.537 53.202C142.257 52.92 143.055 52.782 143.931 52.788C144.819 52.794 145.611 52.947 146.307 53.247C147.003 53.541 147.585 53.97 148.053 54.534C148.521 55.098 148.851 55.779 149.043 56.577L146.712 56.982C146.616 56.526 146.43 56.139 146.154 55.821C145.884 55.497 145.551 55.251 145.155 55.083C144.765 54.915 144.348 54.825 143.904 54.813C143.472 54.807 143.07 54.873 142.698 55.011C142.332 55.143 142.035 55.335 141.807 55.587C141.585 55.839 141.474 56.133 141.474 56.469C141.474 56.787 141.57 57.048 141.762 57.252C141.954 57.45 142.191 57.609 142.473 57.729C142.761 57.843 143.052 57.939 143.346 58.017L145.668 58.665C145.986 58.749 146.343 58.863 146.739 59.007C147.135 59.151 147.516 59.352 147.882 59.61C148.248 59.868 148.548 60.207 148.782 60.627C149.022 61.047 149.142 61.581 149.142 62.229C149.142 62.901 149.001 63.492 148.719 64.002C148.443 64.506 148.068 64.926 147.594 65.262C147.12 65.598 146.577 65.85 145.965 66.018C145.359 66.186 144.723 66.27 144.057 66.27ZM155.759 66.27C154.775 66.27 153.911 66.057 153.167 65.631C152.423 65.205 151.841 64.614 151.421 63.858C151.007 63.102 150.8 62.232 150.8 61.248C150.8 60.186 151.004 59.265 151.412 58.485C151.82 57.699 152.387 57.09 153.113 56.658C153.839 56.226 154.679 56.01 155.633 56.01C156.641 56.01 157.496 56.247 158.198 56.721C158.906 57.189 159.431 57.852 159.773 58.71C160.115 59.568 160.244 60.579 160.16 61.743H158.009V60.951C158.003 59.895 157.817 59.124 157.451 58.638C157.085 58.152 156.509 57.909 155.723 57.909C154.835 57.909 154.175 58.185 153.743 58.737C153.311 59.283 153.095 60.084 153.095 61.14C153.095 62.124 153.311 62.886 153.743 63.426C154.175 63.966 154.805 64.236 155.633 64.236C156.167 64.236 156.626 64.119 157.01 63.885C157.4 63.645 157.7 63.3 157.91 62.85L160.052 63.498C159.68 64.374 159.104 65.055 158.324 65.541C157.55 66.027 156.695 66.27 155.759 66.27ZM152.411 61.743V60.105H159.098V61.743H152.411ZM168.878 66V61.32C168.878 61.014 168.857 60.675 168.815 60.303C168.773 59.931 168.674 59.574 168.518 59.232C168.368 58.884 168.14 58.599 167.834 58.377C167.534 58.155 167.126 58.044 166.61 58.044C166.334 58.044 166.061 58.089 165.791 58.179C165.521 58.269 165.275 58.425 165.053 58.647C164.837 58.863 164.663 59.163 164.531 59.547C164.399 59.925 164.333 60.411 164.333 61.005L163.046 60.456C163.046 59.628 163.205 58.878 163.523 58.206C163.847 57.534 164.321 57 164.945 56.604C165.569 56.202 166.337 56.001 167.249 56.001C167.969 56.001 168.563 56.121 169.031 56.361C169.499 56.601 169.871 56.907 170.147 57.279C170.423 57.651 170.627 58.047 170.759 58.467C170.891 58.887 170.975 59.286 171.011 59.664C171.053 60.036 171.074 60.339 171.074 60.573V66H168.878ZM162.137 66V56.28H164.072V59.295H164.333V66H162.137ZM177.411 66.27C176.517 66.27 175.737 66.045 175.071 65.595C174.405 65.145 173.889 64.533 173.523 63.759C173.157 62.985 172.974 62.112 172.974 61.14C172.974 60.156 173.157 59.28 173.523 58.512C173.895 57.738 174.42 57.129 175.098 56.685C175.776 56.235 176.574 56.01 177.492 56.01C178.416 56.01 179.19 56.235 179.814 56.685C180.444 57.129 180.921 57.738 181.245 58.512C181.569 59.286 181.731 60.162 181.731 61.14C181.731 62.106 181.569 62.979 181.245 63.759C180.921 64.533 180.438 65.145 179.796 65.595C179.154 66.045 178.359 66.27 177.411 66.27ZM177.744 64.326C178.326 64.326 178.794 64.194 179.148 63.93C179.508 63.66 179.769 63.285 179.931 62.805C180.099 62.325 180.183 61.77 180.183 61.14C180.183 60.504 180.099 59.949 179.931 59.475C179.769 58.995 179.514 58.623 179.166 58.359C178.818 58.089 178.368 57.954 177.816 57.954C177.234 57.954 176.754 58.098 176.376 58.386C175.998 58.668 175.719 59.052 175.539 59.538C175.359 60.018 175.269 60.552 175.269 61.14C175.269 61.734 175.356 62.274 175.53 62.76C175.71 63.24 175.983 63.621 176.349 63.903C176.715 64.185 177.18 64.326 177.744 64.326ZM180.183 66V59.178H179.913V53.04H182.1V66H180.183ZM194.208 66.27C192.912 66.27 191.802 65.988 190.878 65.424C189.954 64.854 189.243 64.062 188.745 63.048C188.253 62.034 188.007 60.858 188.007 59.52C188.007 58.182 188.253 57.006 188.745 55.992C189.243 54.978 189.954 54.189 190.878 53.625C191.802 53.055 192.912 52.77 194.208 52.77C195.702 52.77 196.947 53.145 197.943 53.895C198.939 54.639 199.638 55.644 200.04 56.91L197.853 57.513C197.601 56.667 197.172 56.007 196.566 55.533C195.96 55.053 195.174 54.813 194.208 54.813C193.338 54.813 192.612 55.008 192.03 55.398C191.454 55.788 191.019 56.337 190.725 57.045C190.437 57.747 190.29 58.572 190.284 59.52C190.284 60.468 190.428 61.296 190.716 62.004C191.01 62.706 191.448 63.252 192.03 63.642C192.612 64.032 193.338 64.227 194.208 64.227C195.174 64.227 195.96 63.987 196.566 63.507C197.172 63.027 197.601 62.367 197.853 61.527L200.04 62.13C199.638 63.396 198.939 64.404 197.943 65.154C196.947 65.898 195.702 66.27 194.208 66.27ZM202.266 66V56.28H204.183V58.647L203.949 58.341C204.069 58.017 204.228 57.723 204.426 57.459C204.63 57.189 204.873 56.967 205.155 56.793C205.395 56.631 205.659 56.505 205.947 56.415C206.241 56.319 206.541 56.262 206.847 56.244C207.153 56.22 207.45 56.232 207.738 56.28V58.305C207.45 58.221 207.117 58.194 206.739 58.224C206.367 58.254 206.031 58.359 205.731 58.539C205.431 58.701 205.185 58.908 204.993 59.16C204.807 59.412 204.669 59.7 204.579 60.024C204.489 60.342 204.444 60.687 204.444 61.059V66H202.266ZM210.684 70.32L212.556 65.181L212.592 66.693L208.353 56.28H210.612L213.618 63.984H213.042L215.967 56.28H218.136L212.718 70.32H210.684ZM224.4 66.27C223.452 66.27 222.657 66.045 222.015 65.595C221.373 65.145 220.89 64.533 220.566 63.759C220.242 62.979 220.08 62.106 220.08 61.14C220.08 60.162 220.242 59.286 220.566 58.512C220.89 57.738 221.364 57.129 221.988 56.685C222.618 56.235 223.395 56.01 224.319 56.01C225.237 56.01 226.032 56.235 226.704 56.685C227.382 57.129 227.907 57.738 228.279 58.512C228.651 59.28 228.837 60.156 228.837 61.14C228.837 62.112 228.654 62.985 228.288 63.759C227.922 64.533 227.406 65.145 226.74 65.595C226.074 66.045 225.294 66.27 224.4 66.27ZM219.711 70.32V56.28H221.628V63.102H221.898V70.32H219.711ZM224.067 64.326C224.631 64.326 225.096 64.185 225.462 63.903C225.828 63.621 226.098 63.24 226.272 62.76C226.452 62.274 226.542 61.734 226.542 61.14C226.542 60.552 226.452 60.018 226.272 59.538C226.092 59.052 225.813 58.668 225.435 58.386C225.057 58.098 224.577 57.954 223.995 57.954C223.443 57.954 222.993 58.089 222.645 58.359C222.297 58.623 222.039 58.995 221.871 59.475C221.709 59.949 221.628 60.504 221.628 61.14C221.628 61.77 221.709 62.325 221.871 62.805C222.039 63.285 222.3 63.66 222.654 63.93C223.014 64.194 223.485 64.326 224.067 64.326ZM236.768 66C236.126 66.12 235.496 66.171 234.878 66.153C234.266 66.141 233.717 66.03 233.231 65.82C232.745 65.604 232.376 65.265 232.124 64.803C231.902 64.383 231.785 63.954 231.773 63.516C231.761 63.078 231.755 62.583 231.755 62.031V53.58H233.915V61.905C233.915 62.295 233.918 62.637 233.924 62.931C233.936 63.225 233.999 63.465 234.113 63.651C234.329 64.011 234.674 64.212 235.148 64.254C235.622 64.296 236.162 64.272 236.768 64.182V66ZM229.991 57.981V56.28H236.768V57.981H229.991ZM242.908 66.27C241.936 66.27 241.087 66.051 240.361 65.613C239.635 65.175 239.071 64.572 238.669 63.804C238.273 63.03 238.075 62.142 238.075 61.14C238.075 60.12 238.279 59.226 238.687 58.458C239.095 57.69 239.662 57.09 240.388 56.658C241.114 56.226 241.954 56.01 242.908 56.01C243.886 56.01 244.738 56.229 245.464 56.667C246.19 57.105 246.754 57.711 247.156 58.485C247.558 59.253 247.759 60.138 247.759 61.14C247.759 62.148 247.555 63.039 247.147 63.813C246.745 64.581 246.181 65.184 245.455 65.622C244.729 66.054 243.88 66.27 242.908 66.27ZM242.908 64.236C243.772 64.236 244.414 63.948 244.834 63.372C245.254 62.796 245.464 62.052 245.464 61.14C245.464 60.198 245.251 59.448 244.825 58.89C244.399 58.326 243.76 58.044 242.908 58.044C242.326 58.044 241.846 58.176 241.468 58.44C241.096 58.698 240.82 59.061 240.64 59.529C240.46 59.991 240.37 60.528 240.37 61.14C240.37 62.082 240.583 62.835 241.009 63.399C241.441 63.957 242.074 64.236 242.908 64.236Z" fill="white"/>
<path d="M58.6732 533V520.9L55.9632 522.55V520.22L58.6732 518.6H60.8032V533H58.6732Z" fill="white"/>
<path d="M189.131 532.99L189.141 531.13L195.411 525.51C195.918 525.063 196.261 524.637 196.441 524.23C196.628 523.823 196.721 523.417 196.721 523.01C196.721 522.497 196.608 522.037 196.381 521.63C196.154 521.217 195.841 520.89 195.441 520.65C195.041 520.41 194.581 520.29 194.061 520.29C193.528 520.29 193.051 520.417 192.631 520.67C192.218 520.917 191.894 521.247 191.661 521.66C191.428 522.073 191.314 522.52 191.321 523H189.181C189.181 522.067 189.391 521.25 189.811 520.55C190.238 519.843 190.821 519.293 191.561 518.9C192.301 518.5 193.148 518.3 194.101 518.3C195.008 518.3 195.821 518.507 196.541 518.92C197.261 519.327 197.828 519.887 198.241 520.6C198.661 521.313 198.871 522.127 198.871 523.04C198.871 523.7 198.784 524.26 198.611 524.72C198.438 525.18 198.178 525.607 197.831 526C197.484 526.393 197.051 526.82 196.531 527.28L191.691 531.6L191.461 531H198.871V532.99H189.131Z" fill="white"/>
<path d="M328.725 533.27C328.012 533.27 327.342 533.137 326.715 532.87C326.089 532.597 325.545 532.21 325.085 531.71C324.632 531.21 324.302 530.62 324.095 529.94L326.115 529.38C326.309 530 326.645 530.477 327.125 530.81C327.605 531.137 328.139 531.297 328.725 531.29C329.252 531.283 329.715 531.16 330.115 530.92C330.515 530.68 330.829 530.357 331.055 529.95C331.282 529.537 331.395 529.063 331.395 528.53C331.395 527.73 331.145 527.07 330.645 526.55C330.152 526.03 329.505 525.77 328.705 525.77C328.479 525.77 328.245 525.803 328.005 525.87C327.772 525.937 327.552 526.023 327.345 526.13L326.365 524.48L331.445 519.99L331.665 520.59H324.665V518.6H333.325V520.59L329.105 524.65L329.085 523.97C329.992 523.97 330.779 524.173 331.445 524.58C332.112 524.98 332.625 525.527 332.985 526.22C333.352 526.907 333.535 527.677 333.535 528.53C333.535 529.45 333.319 530.267 332.885 530.98C332.459 531.693 331.882 532.253 331.155 532.66C330.435 533.067 329.625 533.27 328.725 533.27Z" fill="white"/>
<path d="M60.4566 603.823V601.313H53.9566V599.333L58.6366 589.423H61.0266L56.3466 599.333H60.4566V595.433H62.5766V599.333H64.0066V601.313H62.5766V603.823H60.4566Z" fill="white"/>
<path d="M193.84 604.123C193.1 604.123 192.41 603.973 191.77 603.673C191.137 603.366 190.593 602.946 190.14 602.413C189.687 601.873 189.363 601.253 189.17 600.553L191.18 600.013C191.293 600.44 191.487 600.81 191.76 601.123C192.04 601.436 192.367 601.68 192.74 601.853C193.113 602.02 193.5 602.103 193.9 602.103C194.427 602.103 194.903 601.976 195.33 601.723C195.763 601.47 196.103 601.13 196.35 600.703C196.603 600.276 196.73 599.806 196.73 599.293C196.73 598.766 196.6 598.29 196.34 597.863C196.087 597.436 195.743 597.1 195.31 596.853C194.883 596.6 194.413 596.473 193.9 596.473C193.313 596.473 192.817 596.59 192.41 596.823C192.003 597.056 191.687 597.326 191.46 597.633L189.64 596.993L190.08 589.423H197.85V591.393H191.15L192 590.603L191.65 596.273L191.24 595.743C191.62 595.363 192.073 595.073 192.6 594.873C193.127 594.673 193.65 594.573 194.17 594.573C195.063 594.573 195.86 594.78 196.56 595.193C197.267 595.606 197.823 596.17 198.23 596.883C198.637 597.59 198.84 598.393 198.84 599.293C198.84 600.186 198.61 601 198.15 601.733C197.69 602.46 197.08 603.04 196.32 603.473C195.56 603.906 194.733 604.123 193.84 604.123Z" fill="white"/>
<path d="M329.157 604.123C328.224 604.123 327.384 603.903 326.637 603.463C325.89 603.016 325.297 602.406 324.857 601.633C324.424 600.86 324.207 599.98 324.207 598.993V594.403C324.207 593.356 324.424 592.436 324.857 591.643C325.297 590.85 325.904 590.233 326.677 589.793C327.457 589.353 328.354 589.133 329.367 589.133C330.127 589.133 330.84 589.276 331.507 589.563C332.174 589.85 332.75 590.276 333.237 590.843L331.707 592.273C331.434 591.92 331.09 591.64 330.677 591.433C330.27 591.22 329.834 591.113 329.367 591.113C328.767 591.113 328.24 591.256 327.787 591.543C327.334 591.823 326.977 592.193 326.717 592.653C326.464 593.113 326.337 593.606 326.337 594.133V596.773L325.927 596.313C326.34 595.773 326.854 595.346 327.467 595.033C328.08 594.72 328.737 594.563 329.437 594.563C330.33 594.563 331.127 594.773 331.827 595.193C332.534 595.606 333.087 596.17 333.487 596.883C333.894 597.596 334.097 598.4 334.097 599.293C334.097 600.193 333.87 601.01 333.417 601.743C332.97 602.47 332.37 603.05 331.617 603.483C330.87 603.91 330.05 604.123 329.157 604.123ZM329.157 602.113C329.677 602.113 330.15 601.986 330.577 601.733C331.004 601.48 331.344 601.14 331.597 600.713C331.85 600.286 331.977 599.813 331.977 599.293C331.977 598.773 331.85 598.3 331.597 597.873C331.35 597.446 331.014 597.106 330.587 596.853C330.16 596.6 329.687 596.473 329.167 596.473C328.647 596.473 328.17 596.6 327.737 596.853C327.31 597.106 326.97 597.446 326.717 597.873C326.464 598.3 326.337 598.773 326.337 599.293C326.337 599.806 326.464 600.276 326.717 600.703C326.97 601.13 327.31 601.473 327.737 601.733C328.164 601.986 328.637 602.113 329.157 602.113Z" fill="white"/>
<path d="M55.8976 674.646L60.9576 662.236H54.5476V660.246H63.2076V662.236L58.1576 674.646H55.8976Z" fill="white"/>
<path d="M193.994 674.946C193.054 674.946 192.221 674.759 191.494 674.386C190.774 674.006 190.208 673.479 189.794 672.806C189.388 672.133 189.184 671.353 189.184 670.466C189.184 669.639 189.378 668.883 189.764 668.196C190.151 667.509 190.728 666.969 191.494 666.576L191.454 667.296C190.841 666.916 190.368 666.443 190.034 665.876C189.708 665.303 189.544 664.663 189.544 663.956C189.544 663.136 189.734 662.426 190.114 661.826C190.494 661.226 191.018 660.763 191.684 660.436C192.358 660.109 193.128 659.946 193.994 659.946C194.861 659.946 195.628 660.109 196.294 660.436C196.961 660.763 197.484 661.226 197.864 661.826C198.244 662.426 198.434 663.136 198.434 663.956C198.434 664.663 198.278 665.299 197.964 665.866C197.651 666.433 197.171 666.909 196.524 667.296L196.494 666.596C197.254 666.969 197.831 667.503 198.224 668.196C198.618 668.883 198.814 669.639 198.814 670.466C198.814 671.353 198.608 672.133 198.194 672.806C197.781 673.479 197.211 674.006 196.484 674.386C195.758 674.759 194.928 674.946 193.994 674.946ZM193.994 672.956C194.768 672.956 195.394 672.746 195.874 672.326C196.354 671.899 196.594 671.279 196.594 670.466C196.594 669.653 196.354 669.033 195.874 668.606C195.401 668.173 194.774 667.956 193.994 667.956C193.214 667.956 192.584 668.173 192.104 668.606C191.631 669.033 191.394 669.653 191.394 670.466C191.394 671.279 191.634 671.899 192.114 672.326C192.594 672.746 193.221 672.956 193.994 672.956ZM193.994 665.956C194.654 665.956 195.188 665.793 195.594 665.466C196.008 665.133 196.214 664.629 196.214 663.956C196.214 663.283 196.008 662.779 195.594 662.446C195.188 662.106 194.654 661.936 193.994 661.936C193.334 661.936 192.798 662.106 192.384 662.446C191.971 662.779 191.764 663.283 191.764 663.956C191.764 664.629 191.971 665.133 192.384 665.466C192.798 665.793 193.334 665.956 193.994 665.956Z" fill="white"/>
<path d="M328.887 659.956C329.814 659.956 330.65 660.179 331.397 660.626C332.144 661.066 332.737 661.673 333.177 662.446C333.617 663.219 333.837 664.103 333.837 665.096V669.676C333.837 670.729 333.617 671.653 333.177 672.446C332.744 673.233 332.137 673.846 331.357 674.286C330.584 674.726 329.69 674.946 328.677 674.946C327.917 674.946 327.204 674.803 326.537 674.516C325.87 674.229 325.29 673.803 324.797 673.236L326.337 671.806C326.61 672.159 326.954 672.443 327.367 672.656C327.78 672.869 328.217 672.976 328.677 672.976C329.27 672.976 329.794 672.833 330.247 672.546C330.707 672.259 331.064 671.886 331.317 671.426C331.57 670.966 331.697 670.473 331.697 669.946V667.306L332.117 667.766C331.704 668.306 331.19 668.733 330.577 669.046C329.964 669.359 329.307 669.516 328.607 669.516C327.707 669.516 326.907 669.309 326.207 668.896C325.507 668.483 324.954 667.919 324.547 667.206C324.14 666.493 323.937 665.686 323.937 664.786C323.937 663.886 324.164 663.073 324.617 662.346C325.07 661.619 325.67 661.039 326.417 660.606C327.164 660.173 327.987 659.956 328.887 659.956ZM328.887 661.976C328.367 661.976 327.89 662.103 327.457 662.356C327.03 662.603 326.69 662.939 326.437 663.366C326.184 663.793 326.057 664.266 326.057 664.786C326.057 665.306 326.184 665.783 326.437 666.216C326.69 666.643 327.03 666.983 327.457 667.236C327.884 667.489 328.357 667.616 328.877 667.616C329.397 667.616 329.87 667.489 330.297 667.236C330.724 666.983 331.064 666.643 331.317 666.216C331.57 665.783 331.697 665.306 331.697 664.786C331.697 664.273 331.57 663.803 331.317 663.376C331.07 662.949 330.734 662.609 330.307 662.356C329.88 662.103 329.407 661.976 328.887 661.976Z" fill="white"/>
<path d="M194.004 745.769C193.024 745.769 192.157 745.556 191.404 745.129C190.651 744.696 190.057 744.103 189.624 743.349C189.197 742.596 188.984 741.729 188.984 740.749V735.789C188.984 734.809 189.197 733.943 189.624 733.189C190.057 732.436 190.651 731.846 191.404 731.419C192.157 730.986 193.024 730.769 194.004 730.769C194.984 730.769 195.851 730.986 196.604 731.419C197.357 731.846 197.947 732.436 198.374 733.189C198.807 733.943 199.024 734.809 199.024 735.789V740.749C199.024 741.729 198.807 742.596 198.374 743.349C197.947 744.103 197.357 744.696 196.604 745.129C195.851 745.556 194.984 745.769 194.004 745.769ZM194.004 743.769C194.537 743.769 195.021 743.643 195.454 743.389C195.894 743.129 196.244 742.783 196.504 742.349C196.764 741.909 196.894 741.419 196.894 740.879V735.639C196.894 735.106 196.764 734.623 196.504 734.189C196.244 733.749 195.894 733.403 195.454 733.149C195.021 732.889 194.537 732.759 194.004 732.759C193.471 732.759 192.984 732.889 192.544 733.149C192.111 733.403 191.764 733.749 191.504 734.189C191.244 734.623 191.114 735.106 191.114 735.639V740.879C191.114 741.419 191.244 741.909 191.504 742.349C191.764 742.783 192.111 743.129 192.544 743.389C192.984 743.643 193.471 743.769 194.004 743.769Z" fill="white"/>
<path d="M56.1263 745V741.295H59.8313V745H56.1263Z" fill="white"/>
<path d="M326.958 731.875L320.542 738L326.958 744.125" stroke="white" stroke-width="2" stroke-linecap="round" stroke-linejoin="round"/>
<path d="M337.458 738H320.833" stroke="white" stroke-width="2" stroke-linecap="round" stroke-linejoin="round"/>
<path d="M38.36 251.98V247.3H42.54V251.98H38.36ZM38.36 219.92V215.22H42.54V219.92H38.36ZM40.66 248.6C38.66 248.6 36.8733 248.24 35.3 247.52C33.7267 246.8 32.4333 245.78 31.42 244.46C30.42 243.127 29.7667 241.553 29.46 239.74L33.6 239.08C34 240.787 34.8533 242.147 36.16 243.16C37.4667 244.16 39.0333 244.66 40.86 244.66C42.6733 244.66 44.1467 244.227 45.28 243.36C46.4267 242.493 47 241.387 47 240.04C47 239.08 46.7067 238.3 46.12 237.7C45.5467 237.1 44.6067 236.593 43.3 236.18L36.54 234.1C32.54 232.86 30.54 230.46 30.54 226.9C30.54 225.22 30.94 223.76 31.74 222.52C32.5533 221.28 33.6933 220.32 35.16 219.64C36.6267 218.96 38.34 218.62 40.3 218.62C42.18 218.647 43.8467 218.993 45.3 219.66C46.7667 220.327 47.98 221.287 48.94 222.54C49.9133 223.793 50.5867 225.3 50.96 227.06L46.7 227.82C46.5133 226.793 46.12 225.887 45.52 225.1C44.9333 224.313 44.1867 223.7 43.28 223.26C42.3867 222.82 41.38 222.593 40.26 222.58C39.2067 222.553 38.26 222.72 37.42 223.08C36.5933 223.427 35.9333 223.92 35.44 224.56C34.96 225.187 34.72 225.9 34.72 226.7C34.72 227.58 35.06 228.327 35.74 228.94C36.42 229.553 37.4933 230.08 38.96 230.52L44.26 232.06C46.6867 232.78 48.44 233.747 49.52 234.96C50.6 236.173 51.14 237.787 51.14 239.8C51.14 241.56 50.7 243.1 49.82 244.42C48.9533 245.727 47.7333 246.753 46.16 247.5C44.5867 248.233 42.7533 248.6 40.66 248.6ZM53.6094 247.98L53.6294 244.26L66.1694 233.02C67.1827 232.127 67.8694 231.273 68.2294 230.46C68.6027 229.647 68.7894 228.833 68.7894 228.02C68.7894 226.993 68.5627 226.073 68.1094 225.26C67.656 224.433 67.0294 223.78 66.2294 223.3C65.4294 222.82 64.5094 222.58 63.4694 222.58C62.4027 222.58 61.4494 222.833 60.6094 223.34C59.7827 223.833 59.136 224.493 58.6694 225.32C58.2027 226.147 57.976 227.04 57.9894 228H53.7094C53.7094 226.133 54.1294 224.5 54.9694 223.1C55.8227 221.687 56.9894 220.587 58.4694 219.8C59.9494 219 61.6427 218.6 63.5494 218.6C65.3627 218.6 66.9894 219.013 68.4294 219.84C69.8694 220.653 71.0027 221.773 71.8294 223.2C72.6694 224.627 73.0894 226.253 73.0894 228.08C73.0894 229.4 72.916 230.52 72.5694 231.44C72.2227 232.36 71.7027 233.213 71.0094 234C70.316 234.787 69.4494 235.64 68.4094 236.56L58.7294 245.2L58.2694 244H73.0894V247.98H53.6094ZM86.9259 248.6C84.9659 248.6 83.2326 248.173 81.7259 247.32C80.2193 246.453 79.0326 245.267 78.1659 243.76C77.3126 242.253 76.8859 240.52 76.8859 238.56V228.64C76.8859 226.68 77.3126 224.947 78.1659 223.44C79.0326 221.933 80.2193 220.753 81.7259 219.9C83.2326 219.033 84.9659 218.6 86.9259 218.6C88.8859 218.6 90.6193 219.033 92.1259 219.9C93.6326 220.753 94.8126 221.933 95.6659 223.44C96.5326 224.947 96.9659 226.68 96.9659 228.64V238.56C96.9659 240.52 96.5326 242.253 95.6659 243.76C94.8126 245.267 93.6326 246.453 92.1259 247.32C90.6193 248.173 88.8859 248.6 86.9259 248.6ZM86.9259 244.6C87.9926 244.6 88.9593 244.347 89.8259 243.84C90.7059 243.32 91.4059 242.627 91.9259 241.76C92.4459 240.88 92.7059 239.9 92.7059 238.82V228.34C92.7059 227.273 92.4459 226.307 91.9259 225.44C91.4059 224.56 90.7059 223.867 89.8259 223.36C88.9593 222.84 87.9926 222.58 86.9259 222.58C85.8593 222.58 84.8859 222.84 84.0059 223.36C83.1393 223.867 82.4459 224.56 81.9259 225.44C81.4059 226.307 81.1459 227.273 81.1459 228.34V238.82C81.1459 239.9 81.4059 240.88 81.9259 241.76C82.4459 242.627 83.1393 243.32 84.0059 243.84C84.8859 244.347 85.8593 244.6 86.9259 244.6ZM111.59 248.6C109.63 248.6 107.897 248.173 106.39 247.32C104.883 246.453 103.697 245.267 102.83 243.76C101.977 242.253 101.55 240.52 101.55 238.56V228.64C101.55 226.68 101.977 224.947 102.83 223.44C103.697 221.933 104.883 220.753 106.39 219.9C107.897 219.033 109.63 218.6 111.59 218.6C113.55 218.6 115.283 219.033 116.79 219.9C118.297 220.753 119.477 221.933 120.33 223.44C121.197 224.947 121.63 226.68 121.63 228.64V238.56C121.63 240.52 121.197 242.253 120.33 243.76C119.477 245.267 118.297 246.453 116.79 247.32C115.283 248.173 113.55 248.6 111.59 248.6ZM111.59 244.6C112.657 244.6 113.623 244.347 114.49 243.84C115.37 243.32 116.07 242.627 116.59 241.76C117.11 240.88 117.37 239.9 117.37 238.82V228.34C117.37 227.273 117.11 226.307 116.59 225.44C116.07 224.56 115.37 223.867 114.49 223.36C113.623 222.84 112.657 222.58 111.59 222.58C110.523 222.58 109.55 222.84 108.67 223.36C107.803 223.867 107.11 224.56 106.59 225.44C106.07 226.307 105.81 227.273 105.81 228.34V238.82C105.81 239.9 106.07 240.88 106.59 241.76C107.11 242.627 107.803 243.32 108.67 243.84C109.55 244.347 110.523 244.6 111.59 244.6ZM126.934 248V243.58H131.354V248H126.934ZM146.699 248.6C144.739 248.6 143.006 248.173 141.499 247.32C139.993 246.453 138.806 245.267 137.939 243.76C137.086 242.253 136.659 240.52 136.659 238.56V228.64C136.659 226.68 137.086 224.947 137.939 223.44C138.806 221.933 139.993 220.753 141.499 219.9C143.006 219.033 144.739 218.6 146.699 218.6C148.659 218.6 150.393 219.033 151.899 219.9C153.406 220.753 154.586 221.933 155.439 223.44C156.306 224.947 156.739 226.68 156.739 228.64V238.56C156.739 240.52 156.306 242.253 155.439 243.76C154.586 245.267 153.406 246.453 151.899 247.32C150.393 248.173 148.659 248.6 146.699 248.6ZM146.699 244.6C147.766 244.6 148.733 244.347 149.599 243.84C150.479 243.32 151.179 242.627 151.699 241.76C152.219 240.88 152.479 239.9 152.479 238.82V228.34C152.479 227.273 152.219 226.307 151.699 225.44C151.179 224.56 150.479 223.867 149.599 223.36C148.733 222.84 147.766 222.58 146.699 222.58C145.633 222.58 144.659 222.84 143.779 223.36C142.913 223.867 142.219 224.56 141.699 225.44C141.179 226.307 140.919 227.273 140.919 228.34V238.82C140.919 239.9 141.179 240.88 141.699 241.76C142.219 242.627 142.913 243.32 143.779 243.84C144.659 244.347 145.633 244.6 146.699 244.6ZM171.363 248.6C169.403 248.6 167.67 248.173 166.163 247.32C164.657 246.453 163.47 245.267 162.603 243.76C161.75 242.253 161.323 240.52 161.323 238.56V228.64C161.323 226.68 161.75 224.947 162.603 223.44C163.47 221.933 164.657 220.753 166.163 219.9C167.67 219.033 169.403 218.6 171.363 218.6C173.323 218.6 175.057 219.033 176.563 219.9C178.07 220.753 179.25 221.933 180.103 223.44C180.97 224.947 181.403 226.68 181.403 228.64V238.56C181.403 240.52 180.97 242.253 180.103 243.76C179.25 245.267 178.07 246.453 176.563 247.32C175.057 248.173 173.323 248.6 171.363 248.6ZM171.363 244.6C172.43 244.6 173.397 244.347 174.263 243.84C175.143 243.32 175.843 242.627 176.363 241.76C176.883 240.88 177.143 239.9 177.143 238.82V228.34C177.143 227.273 176.883 226.307 176.363 225.44C175.843 224.56 175.143 223.867 174.263 223.36C173.397 222.84 172.43 222.58 171.363 222.58C170.297 222.58 169.323 222.84 168.443 223.36C167.577 223.867 166.883 224.56 166.363 225.44C165.843 226.307 165.583 227.273 165.583 228.34V238.82C165.583 239.9 165.843 240.88 166.363 241.76C166.883 242.627 167.577 243.32 168.443 243.84C169.323 244.347 170.297 244.6 171.363 244.6Z" fill="white"/>
<path d="M44.5 53.5L33.5 64.5M33.5 53.5L44.5 64.5" stroke="white" stroke-width="3" stroke-linecap="round" stroke-linejoin="round"/>
<path fill-rule="evenodd" clip-rule="evenodd" d="M359 262H28V261H359V262Z" fill="white"/>
<path d="M28 458.5C28 446.074 38.0736 436 50.5 436H336.5C348.926 436 359 446.074 359 458.5V458.5C359 470.926 348.926 481 336.5 481H50.5C38.0736 481 28 470.926 28 458.5V458.5Z" fill="#36BFFA"/>
<path d="M159.26 465.5V452.54H164.615C164.741 452.54 164.903 452.546 165.101 452.558C165.299 452.564 165.482 452.582 165.65 452.612C166.4 452.726 167.018 452.975 167.504 453.359C167.996 453.743 168.359 454.229 168.593 454.817C168.833 455.399 168.953 456.047 168.953 456.761C168.953 457.469 168.833 458.117 168.593 458.705C168.353 459.287 167.987 459.77 167.495 460.154C167.009 460.538 166.394 460.787 165.65 460.901C165.482 460.925 165.296 460.943 165.092 460.955C164.894 460.967 164.735 460.973 164.615 460.973H161.429V465.5H159.26ZM161.429 458.948H164.525C164.645 458.948 164.78 458.942 164.93 458.93C165.08 458.918 165.218 458.894 165.344 458.858C165.704 458.768 165.986 458.609 166.19 458.381C166.4 458.153 166.547 457.895 166.631 457.607C166.721 457.319 166.766 457.037 166.766 456.761C166.766 456.485 166.721 456.203 166.631 455.915C166.547 455.621 166.4 455.36 166.19 455.132C165.986 454.904 165.704 454.745 165.344 454.655C165.218 454.619 165.08 454.598 164.93 454.592C164.78 454.58 164.645 454.574 164.525 454.574H161.429V458.948ZM171.006 465.5V455.78H172.923V458.147L172.689 457.841C172.809 457.517 172.968 457.223 173.166 456.959C173.37 456.689 173.613 456.467 173.895 456.293C174.135 456.131 174.399 456.005 174.687 455.915C174.981 455.819 175.281 455.762 175.587 455.744C175.893 455.72 176.19 455.732 176.478 455.78V457.805C176.19 457.721 175.857 457.694 175.479 457.724C175.107 457.754 174.771 457.859 174.471 458.039C174.171 458.201 173.925 458.408 173.733 458.66C173.547 458.912 173.409 459.2 173.319 459.524C173.229 459.842 173.184 460.187 173.184 460.559V465.5H171.006ZM182.689 465.77C181.705 465.77 180.841 465.557 180.097 465.131C179.353 464.705 178.771 464.114 178.351 463.358C177.937 462.602 177.73 461.732 177.73 460.748C177.73 459.686 177.934 458.765 178.342 457.985C178.75 457.199 179.317 456.59 180.043 456.158C180.769 455.726 181.609 455.51 182.563 455.51C183.571 455.51 184.426 455.747 185.128 456.221C185.836 456.689 186.361 457.352 186.703 458.21C187.045 459.068 187.174 460.079 187.09 461.243H184.939V460.451C184.933 459.395 184.747 458.624 184.381 458.138C184.015 457.652 183.439 457.409 182.653 457.409C181.765 457.409 181.105 457.685 180.673 458.237C180.241 458.783 180.025 459.584 180.025 460.64C180.025 461.624 180.241 462.386 180.673 462.926C181.105 463.466 181.735 463.736 182.563 463.736C183.097 463.736 183.556 463.619 183.94 463.385C184.33 463.145 184.63 462.8 184.84 462.35L186.982 462.998C186.61 463.874 186.034 464.555 185.254 465.041C184.48 465.527 183.625 465.77 182.689 465.77ZM179.341 461.243V459.605H186.028V461.243H179.341ZM191.624 465.5L188.096 455.78H190.265L192.713 462.827L195.152 455.78H197.33L193.802 465.5H191.624ZM199.376 454.304V452.315H201.545V454.304H199.376ZM199.376 465.5V455.78H201.545V465.5H199.376ZM208.909 465.77C207.925 465.77 207.061 465.557 206.317 465.131C205.573 464.705 204.991 464.114 204.571 463.358C204.157 462.602 203.95 461.732 203.95 460.748C203.95 459.686 204.154 458.765 204.562 457.985C204.97 457.199 205.537 456.59 206.263 456.158C206.989 455.726 207.829 455.51 208.783 455.51C209.791 455.51 210.646 455.747 211.348 456.221C212.056 456.689 212.581 457.352 212.923 458.21C213.265 459.068 213.394 460.079 213.31 461.243H211.159V460.451C211.153 459.395 210.967 458.624 210.601 458.138C210.235 457.652 209.659 457.409 208.873 457.409C207.985 457.409 207.325 457.685 206.893 458.237C206.461 458.783 206.245 459.584 206.245 460.64C206.245 461.624 206.461 462.386 206.893 462.926C207.325 463.466 207.955 463.736 208.783 463.736C209.317 463.736 209.776 463.619 210.16 463.385C210.55 463.145 210.85 462.8 211.06 462.35L213.202 462.998C212.83 463.874 212.254 464.555 211.474 465.041C210.7 465.527 209.845 465.77 208.909 465.77ZM205.561 461.243V459.605H212.248V461.243H205.561ZM217.287 465.5L214.317 455.762L216.441 455.78L218.34 462.017L220.266 455.78H222.093L224.01 462.017L225.918 455.78H228.042L225.072 465.5H223.38L221.175 458.813L218.979 465.5H217.287Z" fill="white"/>
<path d="M156.12 91V79.48H160.648C161.379 79.48 161.992 79.6293 162.488 79.928C162.984 80.2267 163.357 80.6133 163.608 81.088C163.859 81.5573 163.984 82.0533 163.984 82.576C163.984 83.2107 163.827 83.7547 163.512 84.208C163.203 84.6613 162.784 84.9707 162.256 85.136L162.24 84.744C162.976 84.9253 163.541 85.28 163.936 85.808C164.331 86.3307 164.528 86.9413 164.528 87.64C164.528 88.3173 164.392 88.9067 164.12 89.408C163.853 89.9093 163.461 90.3013 162.944 90.584C162.432 90.8613 161.811 91 161.08 91H156.12ZM157.816 89.408H160.824C161.203 89.408 161.541 89.336 161.84 89.192C162.144 89.048 162.381 88.8427 162.552 88.576C162.728 88.304 162.816 87.9813 162.816 87.608C162.816 87.2613 162.739 86.9493 162.584 86.672C162.435 86.3893 162.216 86.168 161.928 86.008C161.645 85.8427 161.312 85.76 160.928 85.76H157.816V89.408ZM157.816 84.184H160.624C160.933 84.184 161.211 84.1227 161.456 84C161.707 83.872 161.904 83.6907 162.048 83.456C162.197 83.216 162.272 82.928 162.272 82.592C162.272 82.144 162.123 81.776 161.824 81.488C161.525 81.2 161.125 81.056 160.624 81.056H157.816V84.184ZM166.53 80.944V79.32H168.202V80.944H166.53ZM166.53 91V82.36H168.202V91H166.53ZM175.798 91C175.254 91.1067 174.721 91.152 174.198 91.136C173.676 91.12 173.209 91.0187 172.798 90.832C172.388 90.6453 172.078 90.352 171.87 89.952C171.684 89.5947 171.582 89.232 171.566 88.864C171.556 88.4907 171.55 88.0693 171.55 87.6V79.96H173.23V87.52C173.23 87.8667 173.233 88.168 173.238 88.424C173.249 88.68 173.305 88.896 173.406 89.072C173.598 89.4027 173.902 89.592 174.318 89.64C174.74 89.6827 175.233 89.664 175.798 89.584V91ZM169.894 83.704V82.36H175.798V83.704H169.894ZM181.175 91.24C180.29 91.24 179.538 91.0427 178.919 90.648C178.301 90.2533 177.826 89.712 177.495 89.024C177.17 88.336 177.005 87.5547 176.999 86.68C177.005 85.7893 177.175 85.0027 177.511 84.32C177.847 83.632 178.327 83.0933 178.951 82.704C179.575 82.3147 180.325 82.12 181.199 82.12C182.143 82.12 182.949 82.3547 183.615 82.824C184.287 83.2933 184.73 83.936 184.943 84.752L183.279 85.232C183.114 84.7467 182.842 84.3707 182.463 84.104C182.09 83.832 181.661 83.696 181.175 83.696C180.626 83.696 180.175 83.8267 179.823 84.088C179.471 84.344 179.21 84.696 179.039 85.144C178.869 85.592 178.781 86.104 178.775 86.68C178.781 87.5707 178.983 88.2907 179.383 88.84C179.789 89.3893 180.386 89.664 181.175 89.664C181.714 89.664 182.149 89.5413 182.479 89.296C182.815 89.0453 183.071 88.688 183.247 88.224L184.943 88.624C184.661 89.4667 184.194 90.1147 183.543 90.568C182.893 91.016 182.103 91.24 181.175 91.24ZM190.341 91.24C189.477 91.24 188.727 91.0453 188.093 90.656C187.458 90.2667 186.967 89.7307 186.621 89.048C186.279 88.36 186.109 87.568 186.109 86.672C186.109 85.7707 186.285 84.9787 186.637 84.296C186.989 83.608 187.482 83.0747 188.117 82.696C188.751 82.312 189.493 82.12 190.341 82.12C191.205 82.12 191.954 82.3147 192.589 82.704C193.223 83.0933 193.714 83.6293 194.061 84.312C194.407 84.9947 194.581 85.7813 194.581 86.672C194.581 87.5733 194.405 88.368 194.053 89.056C193.706 89.7387 193.215 90.2747 192.581 90.664C191.946 91.048 191.199 91.24 190.341 91.24ZM190.341 89.664C191.167 89.664 191.783 89.3867 192.189 88.832C192.599 88.272 192.805 87.552 192.805 86.672C192.805 85.7707 192.597 85.0507 192.181 84.512C191.77 83.968 191.157 83.696 190.341 83.696C189.781 83.696 189.319 83.824 188.957 84.08C188.594 84.3307 188.325 84.68 188.149 85.128C187.973 85.5707 187.885 86.0853 187.885 86.672C187.885 87.5787 188.093 88.304 188.509 88.848C188.925 89.392 189.535 89.664 190.341 89.664ZM196.749 80.944V79.32H198.421V80.944H196.749ZM196.749 91V82.36H198.421V91H196.749ZM207.137 91V86.752C207.137 86.416 207.108 86.072 207.049 85.72C206.996 85.3627 206.889 85.032 206.729 84.728C206.574 84.424 206.353 84.1787 206.065 83.992C205.782 83.8053 205.412 83.712 204.953 83.712C204.654 83.712 204.372 83.7627 204.105 83.864C203.838 83.96 203.604 84.1173 203.401 84.336C203.204 84.5547 203.046 84.8427 202.929 85.2C202.817 85.5573 202.761 85.992 202.761 86.504L201.721 86.112C201.721 85.328 201.868 84.6373 202.161 84.04C202.454 83.4373 202.876 82.968 203.425 82.632C203.974 82.296 204.638 82.128 205.417 82.128C206.014 82.128 206.516 82.224 206.921 82.416C207.326 82.608 207.654 82.8613 207.905 83.176C208.161 83.4853 208.356 83.824 208.489 84.192C208.622 84.56 208.713 84.92 208.761 85.272C208.809 85.624 208.833 85.9333 208.833 86.2V91H207.137ZM201.065 91V82.36H202.561V84.856H202.761V91H201.065Z" fill="#A0A3BD"/>
<path d="M217 82.5L222 87.5L227 82.5" stroke="#A0A3BD" stroke-width="2.5" stroke-linecap="round" stroke-linejoin="round"/>
<path d="M32.1861 286.614C32.0903 286.525 32.0134 286.417 31.9601 286.297C31.9068 286.178 31.8782 286.049 31.8759 285.918C31.8736 285.787 31.8977 285.657 31.9467 285.536C31.9957 285.414 32.0687 285.304 32.1613 285.211C32.2539 285.119 32.3642 285.046 32.4856 284.997C32.607 284.948 32.737 284.924 32.8679 284.926C32.9988 284.928 33.128 284.957 33.2476 285.01C33.3672 285.063 33.4748 285.14 33.5641 285.236L35.8001 287.472V276.175C35.8001 275.916 35.9028 275.668 36.0856 275.486C36.2685 275.303 36.5165 275.2 36.7751 275.2C37.0336 275.2 37.2816 275.303 37.4645 275.486C37.6473 275.668 37.7501 275.916 37.7501 276.175V287.472L39.9861 285.236C40.0753 285.14 40.183 285.063 40.3026 285.01C40.4222 284.957 40.5513 284.928 40.6822 284.926C40.8131 284.924 40.9431 284.948 41.0645 284.997C41.1859 285.046 41.2962 285.119 41.3888 285.211C41.4814 285.304 41.5544 285.414 41.6034 285.536C41.6524 285.657 41.6765 285.787 41.6742 285.918C41.6719 286.049 41.6433 286.178 41.59 286.297C41.5367 286.417 41.4598 286.525 41.3641 286.614L37.4641 290.514C37.2812 290.697 37.0334 290.799 36.7751 290.799C36.5167 290.799 36.2689 290.697 36.0861 290.514L32.1861 286.614V286.614Z" fill="white"/>
<path d="M42.014 280.764C41.9247 280.86 41.8171 280.937 41.6975 280.99C41.5779 281.043 41.4488 281.072 41.3179 281.074C41.187 281.076 41.0569 281.052 40.9355 281.003C40.8141 280.954 40.7038 280.881 40.6113 280.789C40.5187 280.696 40.4457 280.586 40.3966 280.464C40.3476 280.343 40.3235 280.213 40.3258 280.082C40.3281 279.951 40.3568 279.822 40.4101 279.702C40.4634 279.583 40.5402 279.475 40.636 279.386L44.536 275.486C44.7188 275.303 44.9666 275.201 45.225 275.201C45.4834 275.201 45.7312 275.303 45.914 275.486L49.814 279.386C49.9862 279.571 50.08 279.815 50.0755 280.068C50.0711 280.32 49.9687 280.561 49.7901 280.74C49.6115 280.919 49.3705 281.021 49.1179 281.026C48.8653 281.03 48.6208 280.936 48.436 280.764L46.2 278.528V289.825C46.2 290.084 46.0973 290.332 45.9144 290.514C45.7316 290.697 45.4836 290.8 45.225 290.8C44.9664 290.8 44.7184 290.697 44.5356 290.514C44.3527 290.332 44.25 290.084 44.25 289.825V278.528L42.014 280.764Z" fill="white"/>
<path d="M63.136 289.24C62.352 289.24 61.6587 289.069 61.056 288.728C60.4533 288.381 59.9787 287.907 59.632 287.304C59.2907 286.701 59.12 286.008 59.12 285.224V281.256C59.12 280.472 59.2907 279.779 59.632 279.176C59.9787 278.573 60.4533 278.101 61.056 277.76C61.6587 277.413 62.352 277.24 63.136 277.24C63.92 277.24 64.6133 277.413 65.216 277.76C65.8187 278.101 66.2907 278.573 66.632 279.176C66.9787 279.779 67.152 280.472 67.152 281.256V285.224C67.152 286.008 66.9787 286.701 66.632 287.304C66.2907 287.907 65.8187 288.381 65.216 288.728C64.6133 289.069 63.92 289.24 63.136 289.24ZM63.136 287.64C63.5627 287.64 63.9493 287.539 64.296 287.336C64.648 287.128 64.928 286.851 65.136 286.504C65.344 286.152 65.448 285.76 65.448 285.328V281.136C65.448 280.709 65.344 280.323 65.136 279.976C64.928 279.624 64.648 279.347 64.296 279.144C63.9493 278.936 63.5627 278.832 63.136 278.832C62.7093 278.832 62.32 278.936 61.968 279.144C61.6213 279.347 61.344 279.624 61.136 279.976C60.928 280.323 60.824 280.709 60.824 281.136V285.328C60.824 285.76 60.928 286.152 61.136 286.504C61.344 286.851 61.6213 287.128 61.968 287.336C62.32 287.539 62.7093 287.64 63.136 287.64ZM69.9236 289V287.232H71.6916V289H69.9236ZM78.4798 289.24C77.6958 289.24 77.0024 289.069 76.3998 288.728C75.7971 288.381 75.3224 287.907 74.9758 287.304C74.6344 286.701 74.4638 286.008 74.4638 285.224V281.256C74.4638 280.472 74.6344 279.779 74.9758 279.176C75.3224 278.573 75.7971 278.101 76.3998 277.76C77.0024 277.413 77.6958 277.24 78.4798 277.24C79.2638 277.24 79.9571 277.413 80.5598 277.76C81.1624 278.101 81.6344 278.573 81.9757 279.176C82.3224 279.779 82.4958 280.472 82.4958 281.256V285.224C82.4958 286.008 82.3224 286.701 81.9757 287.304C81.6344 287.907 81.1624 288.381 80.5598 288.728C79.9571 289.069 79.2638 289.24 78.4798 289.24ZM78.4798 287.64C78.9064 287.64 79.2931 287.539 79.6398 287.336C79.9918 287.128 80.2718 286.851 80.4798 286.504C80.6878 286.152 80.7918 285.76 80.7918 285.328V281.136C80.7918 280.709 80.6878 280.323 80.4798 279.976C80.2718 279.624 79.9918 279.347 79.6398 279.144C79.2931 278.936 78.9064 278.832 78.4798 278.832C78.0531 278.832 77.6638 278.936 77.3118 279.144C76.9651 279.347 76.6878 279.624 76.4798 279.976C76.2718 280.323 76.1678 280.709 76.1678 281.136V285.328C76.1678 285.76 76.2718 286.152 76.4798 286.504C76.6878 286.851 76.9651 287.128 77.3118 287.336C77.6638 287.539 78.0531 287.64 78.4798 287.64ZM88.9954 289.24C88.2114 289.24 87.518 289.069 86.9154 288.728C86.3127 288.381 85.838 287.907 85.4914 287.304C85.15 286.701 84.9794 286.008 84.9794 285.224V281.256C84.9794 280.472 85.15 279.779 85.4914 279.176C85.838 278.573 86.3127 278.101 86.9154 277.76C87.518 277.413 88.2114 277.24 88.9954 277.24C89.7794 277.24 90.4727 277.413 91.0754 277.76C91.678 278.101 92.15 278.573 92.4914 279.176C92.838 279.779 93.0114 280.472 93.0114 281.256V285.224C93.0114 286.008 92.838 286.701 92.4914 287.304C92.15 287.907 91.678 288.381 91.0754 288.728C90.4727 289.069 89.7794 289.24 88.9954 289.24ZM88.9954 287.64C89.422 287.64 89.8087 287.539 90.1554 287.336C90.5074 287.128 90.7874 286.851 90.9954 286.504C91.2034 286.152 91.3074 285.76 91.3074 285.328V281.136C91.3074 280.709 91.2034 280.323 90.9954 279.976C90.7874 279.624 90.5074 279.347 90.1554 279.144C89.8087 278.936 89.422 278.832 88.9954 278.832C88.5687 278.832 88.1794 278.936 87.8274 279.144C87.4807 279.347 87.2034 279.624 86.9954 279.976C86.7874 280.323 86.6834 280.709 86.6834 281.136V285.328C86.6834 285.76 86.7874 286.152 86.9954 286.504C87.2034 286.851 87.4807 287.128 87.8274 287.336C88.1794 287.539 88.5687 287.64 88.9954 287.64ZM99.239 277.248C99.9803 277.248 100.65 277.427 101.247 277.784C101.844 278.136 102.319 278.621 102.671 279.24C103.023 279.859 103.199 280.565 103.199 281.36V285.024C103.199 285.867 103.023 286.605 102.671 287.24C102.324 287.869 101.839 288.36 101.215 288.712C100.596 289.064 99.8817 289.24 99.071 289.24C98.463 289.24 97.8923 289.125 97.359 288.896C96.8257 288.667 96.3617 288.325 95.967 287.872L97.199 286.728C97.4177 287.011 97.6923 287.237 98.023 287.408C98.3537 287.579 98.703 287.664 99.071 287.664C99.5457 287.664 99.9643 287.549 100.327 287.32C100.695 287.091 100.98 286.792 101.183 286.424C101.386 286.056 101.487 285.661 101.487 285.24V283.128L101.823 283.496C101.492 283.928 101.082 284.269 100.591 284.52C100.1 284.771 99.575 284.896 99.015 284.896C98.295 284.896 97.655 284.731 97.095 284.4C96.535 284.069 96.0923 283.619 95.767 283.048C95.4417 282.477 95.279 281.832 95.279 281.112C95.279 280.392 95.4603 279.741 95.823 279.16C96.1857 278.579 96.6657 278.115 97.263 277.768C97.8603 277.421 98.519 277.248 99.239 277.248ZM99.239 278.864C98.823 278.864 98.4417 278.965 98.095 279.168C97.7537 279.365 97.4817 279.635 97.279 279.976C97.0763 280.317 96.975 280.696 96.975 281.112C96.975 281.528 97.0763 281.909 97.279 282.256C97.4817 282.597 97.7537 282.869 98.095 283.072C98.4363 283.275 98.815 283.376 99.231 283.376C99.647 283.376 100.026 283.275 100.367 283.072C100.708 282.869 100.98 282.597 101.183 282.256C101.386 281.909 101.487 281.528 101.487 281.112C101.487 280.701 101.386 280.325 101.183 279.984C100.986 279.643 100.716 279.371 100.375 279.168C100.034 278.965 99.655 278.864 99.239 278.864ZM110.563 289V286.992H105.363V285.408L109.107 277.48H111.019L107.275 285.408H110.563V282.288H112.259V285.408H113.403V286.992H112.259V289H110.563ZM119.026 289V277.48H123.554C124.285 277.48 124.898 277.629 125.394 277.928C125.89 278.227 126.264 278.613 126.514 279.088C126.765 279.557 126.89 280.053 126.89 280.576C126.89 281.211 126.733 281.755 126.418 282.208C126.109 282.661 125.69 282.971 125.162 283.136L125.146 282.744C125.882 282.925 126.448 283.28 126.842 283.808C127.237 284.331 127.434 284.941 127.434 285.64C127.434 286.317 127.298 286.907 127.026 287.408C126.76 287.909 126.368 288.301 125.85 288.584C125.338 288.861 124.717 289 123.986 289H119.026ZM120.722 287.408H123.73C124.109 287.408 124.448 287.336 124.746 287.192C125.05 287.048 125.288 286.843 125.458 286.576C125.634 286.304 125.722 285.981 125.722 285.608C125.722 285.261 125.645 284.949 125.49 284.672C125.341 284.389 125.122 284.168 124.834 284.008C124.552 283.843 124.218 283.76 123.834 283.76H120.722V287.408ZM120.722 282.184H123.53C123.84 282.184 124.117 282.123 124.362 282C124.613 281.872 124.81 281.691 124.954 281.456C125.104 281.216 125.178 280.928 125.178 280.592C125.178 280.144 125.029 279.776 124.73 279.488C124.432 279.2 124.032 279.056 123.53 279.056H120.722V282.184ZM131.836 289V279.056H128.004V277.48H137.34V279.056H133.508V289H131.836ZM143.678 289.24C142.526 289.24 141.545 288.989 140.734 288.488C139.923 287.981 139.302 287.277 138.87 286.376C138.443 285.475 138.23 284.429 138.23 283.24C138.23 282.051 138.443 281.005 138.87 280.104C139.302 279.203 139.923 278.501 140.734 278C141.545 277.493 142.526 277.24 143.678 277.24C145.006 277.24 146.105 277.576 146.974 278.248C147.849 278.92 148.457 279.824 148.798 280.96L147.102 281.416C146.878 280.611 146.478 279.979 145.902 279.52C145.331 279.061 144.59 278.832 143.678 278.832C142.862 278.832 142.182 279.016 141.638 279.384C141.094 279.752 140.683 280.267 140.406 280.928C140.134 281.589 139.998 282.36 139.998 283.24C139.993 284.12 140.126 284.891 140.398 285.552C140.675 286.213 141.086 286.728 141.63 287.096C142.179 287.464 142.862 287.648 143.678 287.648C144.59 287.648 145.331 287.419 145.902 286.96C146.478 286.496 146.878 285.864 147.102 285.064L148.798 285.52C148.457 286.656 147.849 287.56 146.974 288.232C146.105 288.904 145.006 289.24 143.678 289.24Z" fill="white"/>
<path opacity="0.35" d="M338.667 21.8334H355.333C356.53 21.8334 357.5 22.8034 357.5 24V30C357.5 31.1967 356.53 32.1667 355.333 32.1667H338.667C337.47 32.1667 336.5 31.1967 336.5 30V24C336.5 22.8034 337.47 21.8334 338.667 21.8334Z" stroke="white"/>
<path opacity="0.4" d="M359 25V29C359.805 28.6613 360.328 27.8732 360.328 27C360.328 26.1269 359.805 25.3388 359 25" fill="white"/>
<path d="M338 24.6667C338 23.9303 338.597 23.3334 339.333 23.3334H354.667C355.403 23.3334 356 23.9303 356 24.6667V29.3334C356 30.0698 355.403 30.6667 354.667 30.6667H339.333C338.597 30.6667 338 30.0698 338 29.3334V24.6667Z" fill="white"/>
<path fill-rule="evenodd" clip-rule="evenodd" d="M323.33 23.608C325.546 23.6081 327.678 24.4596 329.283 25.9863C329.404 26.1042 329.598 26.1027 329.717 25.983L330.873 24.8163C330.933 24.7556 330.967 24.6734 330.966 24.5878C330.966 24.5022 330.931 24.4204 330.87 24.3603C326.655 20.3208 320.005 20.3208 315.79 24.3603C315.729 24.4203 315.694 24.5021 315.694 24.5877C315.693 24.6733 315.727 24.7556 315.787 24.8163L316.943 25.983C317.062 26.1029 317.256 26.1044 317.377 25.9863C318.983 24.4595 321.114 23.608 323.33 23.608ZM323.33 27.4037C324.548 27.4036 325.722 27.8561 326.624 28.6733C326.747 28.7893 326.939 28.7868 327.058 28.6677L328.212 27.501C328.273 27.4398 328.307 27.3568 328.306 27.2705C328.305 27.1843 328.27 27.102 328.208 27.042C325.46 24.4856 321.204 24.4856 318.455 27.042C318.393 27.102 318.358 27.1843 318.357 27.2706C318.356 27.3569 318.39 27.4399 318.451 27.501L319.605 28.6677C319.724 28.7868 319.917 28.7893 320.039 28.6733C320.941 27.8567 322.114 27.4042 323.33 27.4037ZM325.643 29.9575C325.645 30.044 325.611 30.1274 325.549 30.188L323.552 32.2037C323.494 32.2629 323.414 32.2963 323.33 32.2963C323.247 32.2963 323.167 32.2629 323.109 32.2037L321.111 30.188C321.049 30.1274 321.015 30.0439 321.017 29.9574C321.019 29.8709 321.057 29.789 321.121 29.731C322.396 28.6521 324.265 28.6521 325.54 29.731C325.604 29.789 325.642 29.871 325.643 29.9575Z" fill="white"/>
<path fill-rule="evenodd" clip-rule="evenodd" d="M309.667 21.6666H308.667C308.114 21.6666 307.667 22.1143 307.667 22.6666V31.3333C307.667 31.8856 308.114 32.3333 308.667 32.3333H309.667C310.219 32.3333 310.667 31.8856 310.667 31.3333V22.6666C310.667 22.1143 310.219 21.6666 309.667 21.6666ZM304 24H305C305.552 24 306 24.4477 306 25V31.3333C306 31.8856 305.552 32.3333 305 32.3333H304C303.448 32.3333 303 31.8856 303 31.3333V25C303 24.4477 303.448 24 304 24ZM300.333 26.3333H299.333C298.781 26.3333 298.333 26.781 298.333 27.3333V31.3333C298.333 31.8856 298.781 32.3333 299.333 32.3333H300.333C300.886 32.3333 301.333 31.8856 301.333 31.3333V27.3333C301.333 26.781 300.886 26.3333 300.333 26.3333ZM295.667 28.3333H294.667C294.114 28.3333 293.667 28.781 293.667 29.3333V31.3333C293.667 31.8856 294.114 32.3333 294.667 32.3333H295.667C296.219 32.3333 296.667 31.8856 296.667 31.3333V29.3333C296.667 28.781 296.219 28.3333 295.667 28.3333Z" fill="white"/>
<path d="M37.3207 32.2563C40.0087 32.2563 41.6053 30.1543 41.6053 26.5947C41.6053 25.2544 41.349 24.1265 40.8583 23.2549C40.1478 21.8999 38.9247 21.1675 37.3793 21.1675C35.0795 21.1675 33.4535 22.7129 33.4535 24.8809C33.4535 26.917 34.9183 28.3965 36.9325 28.3965C38.1703 28.3965 39.1737 27.8179 39.6718 26.8145H39.6937C39.6937 26.8145 39.723 26.8145 39.7303 26.8145C39.745 26.8145 39.7963 26.8145 39.7963 26.8145C39.7963 29.2314 38.8807 30.6743 37.3353 30.6743C36.4271 30.6743 35.724 30.1763 35.4823 29.3779H33.6C33.9149 31.1138 35.3871 32.2563 37.3207 32.2563ZM37.3866 26.895C36.1708 26.895 35.3065 26.0308 35.3065 24.8223C35.3065 23.6431 36.2147 22.7422 37.3939 22.7422C38.5731 22.7422 39.4813 23.6577 39.4813 24.8516C39.4813 26.0308 38.5951 26.895 37.3866 26.895Z" fill="white"/>
<path d="M44.6965 32.1538C45.3923 32.1538 45.8683 31.6558 45.8683 30.9966C45.8683 30.3301 45.3923 29.8394 44.6965 29.8394C44.008 29.8394 43.5246 30.3301 43.5246 30.9966C43.5246 31.6558 44.008 32.1538 44.6965 32.1538ZM44.6965 26.6606C45.3923 26.6606 45.8683 26.1699 45.8683 25.5107C45.8683 24.8442 45.3923 24.3535 44.6965 24.3535C44.008 24.3535 43.5246 24.8442 43.5246 25.5107C43.5246 26.1699 44.008 26.6606 44.6965 26.6606Z" fill="white"/>
<path d="M52.7241 32H54.5332V30.0298H55.9614V28.4331H54.5332V21.4312H51.8672C49.9995 24.2437 48.5127 26.5947 47.5605 28.3452V30.0298H52.7241V32ZM49.311 28.3672C50.5415 26.1992 51.6401 24.4634 52.6509 22.9692H52.7534V28.4771H49.311V28.3672Z" fill="white"/>
<path d="M59.99 32H61.8797V21.4312H59.9973L57.2361 23.3647V25.1812L59.8655 23.3354H59.99V32Z" fill="white"/>
<path d="M46 3H341C361.435 3 378 19.5655 378 40V772C378 792.435 361.435 809 341 809H46C25.5655 809 9 792.435 9 772V40C9 19.5655 25.5655 3 46 3Z" stroke="white" stroke-width="6"/>
</svg>
