<svg width="200" height="200" viewBox="0 0 200 200" fill="none" xmlns="http://www.w3.org/2000/svg">
<rect width="200" height="200" rx="100" fill="#A6EF67"/>
<path d="M61 126V100C61 89.6566 65.1089 79.7368 72.4228 72.4228C79.7368 65.1089 89.6566 61 100 61C110.343 61 120.263 65.1089 127.577 72.4228C134.891 79.7368 139 89.6566 139 100V126" stroke="black" stroke-width="7" stroke-linecap="round" stroke-linejoin="round"/>
<path d="M139 130.333C139 132.632 138.087 134.836 136.462 136.462C134.836 138.087 132.632 139 130.333 139H126C123.701 139 121.497 138.087 119.872 136.462C118.246 134.836 117.333 132.632 117.333 130.333V117.333C117.333 115.035 118.246 112.83 119.872 111.205C121.497 109.58 123.701 108.667 126 108.667H139V130.333ZM61 130.333C61 132.632 61.9131 134.836 63.5384 136.462C65.1637 138.087 67.3681 139 69.6667 139H74C76.2985 139 78.5029 138.087 80.1283 136.462C81.7536 134.836 82.6667 132.632 82.6667 130.333V117.333C82.6667 115.035 81.7536 112.83 80.1283 111.205C78.5029 109.58 76.2985 108.667 74 108.667H61V130.333Z" stroke="black" stroke-width="7" stroke-linecap="round" stroke-linejoin="round"/>
</svg>
