<svg width="381" height="812" viewBox="0 0 381 812" fill="none" xmlns="http://www.w3.org/2000/svg">
<path d="M46 3H341C361.435 3 378 19.5655 378 40V772C378 792.435 361.435 809 341 809H46C25.5655 809 9 792.435 9 772V40C9 19.5655 25.5655 3 46 3Z" fill="#101323"/>
<path d="M199 744.5C199 732.074 209.074 722 221.5 722H336.5C348.926 722 359 732.074 359 744.5V744.5C359 756.926 348.926 767 336.5 767H221.5C209.074 767 199 756.926 199 744.5V744.5Z" fill="#36BFFA"/>
<path d="M249.241 751.77C247.945 751.77 246.835 751.488 245.911 750.924C244.987 750.354 244.276 749.562 243.778 748.548C243.286 747.534 243.04 746.358 243.04 745.02C243.04 743.682 243.286 742.506 243.778 741.492C244.276 740.478 244.987 739.689 245.911 739.125C246.835 738.555 247.945 738.27 249.241 738.27C250.735 738.27 251.98 738.645 252.976 739.395C253.972 740.139 254.671 741.144 255.073 742.41L252.886 743.013C252.634 742.167 252.205 741.507 251.599 741.033C250.993 740.553 250.207 740.313 249.241 740.313C248.371 740.313 247.645 740.508 247.063 740.898C246.487 741.288 246.052 741.837 245.758 742.545C245.47 743.247 245.323 744.072 245.317 745.02C245.317 745.968 245.461 746.796 245.749 747.504C246.043 748.206 246.481 748.752 247.063 749.142C247.645 749.532 248.371 749.727 249.241 749.727C250.207 749.727 250.993 749.487 251.599 749.007C252.205 748.527 252.634 747.867 252.886 747.027L255.073 747.63C254.671 748.896 253.972 749.904 252.976 750.654C251.98 751.398 250.735 751.77 249.241 751.77ZM261.592 751.77C260.62 751.77 259.771 751.551 259.045 751.113C258.319 750.675 257.755 750.072 257.353 749.304C256.957 748.53 256.759 747.642 256.759 746.64C256.759 745.62 256.963 744.726 257.371 743.958C257.779 743.19 258.346 742.59 259.072 742.158C259.798 741.726 260.638 741.51 261.592 741.51C262.57 741.51 263.422 741.729 264.148 742.167C264.874 742.605 265.438 743.211 265.84 743.985C266.242 744.753 266.443 745.638 266.443 746.64C266.443 747.648 266.239 748.539 265.831 749.313C265.429 750.081 264.865 750.684 264.139 751.122C263.413 751.554 262.564 751.77 261.592 751.77ZM261.592 749.736C262.456 749.736 263.098 749.448 263.518 748.872C263.938 748.296 264.148 747.552 264.148 746.64C264.148 745.698 263.935 744.948 263.509 744.39C263.083 743.826 262.444 743.544 261.592 743.544C261.01 743.544 260.53 743.676 260.152 743.94C259.78 744.198 259.504 744.561 259.324 745.029C259.144 745.491 259.054 746.028 259.054 746.64C259.054 747.582 259.267 748.335 259.693 748.899C260.125 749.457 260.758 749.736 261.592 749.736ZM275.399 751.5V746.82C275.399 746.514 275.378 746.175 275.336 745.803C275.294 745.431 275.195 745.074 275.039 744.732C274.889 744.384 274.661 744.099 274.355 743.877C274.055 743.655 273.647 743.544 273.131 743.544C272.855 743.544 272.582 743.589 272.312 743.679C272.042 743.769 271.796 743.925 271.574 744.147C271.358 744.363 271.184 744.663 271.052 745.047C270.92 745.425 270.854 745.911 270.854 746.505L269.567 745.956C269.567 745.128 269.726 744.378 270.044 743.706C270.368 743.034 270.842 742.5 271.466 742.104C272.09 741.702 272.858 741.501 273.77 741.501C274.49 741.501 275.084 741.621 275.552 741.861C276.02 742.101 276.392 742.407 276.668 742.779C276.944 743.151 277.148 743.547 277.28 743.967C277.412 744.387 277.496 744.786 277.532 745.164C277.574 745.536 277.595 745.839 277.595 746.073V751.5H275.399ZM268.658 751.5V741.78H270.593V744.795H270.854V751.5H268.658ZM281.04 751.5V741.627C281.04 741.381 281.049 741.111 281.067 740.817C281.085 740.517 281.136 740.22 281.22 739.926C281.304 739.632 281.457 739.365 281.679 739.125C281.955 738.819 282.252 738.609 282.57 738.495C282.894 738.375 283.212 738.309 283.524 738.297C283.836 738.279 284.109 738.27 284.343 738.27H285.558V740.034H284.433C284.019 740.034 283.71 740.139 283.506 740.349C283.308 740.553 283.209 740.823 283.209 741.159V751.5H281.04ZM279.474 743.481V741.78H285.558V743.481H279.474ZM287.448 740.304V738.315H289.617V740.304H287.448ZM287.448 751.5V741.78H289.617V751.5H287.448ZM292.573 751.5V741.78H294.49V744.147L294.256 743.841C294.376 743.517 294.535 743.223 294.733 742.959C294.937 742.689 295.18 742.467 295.462 742.293C295.702 742.131 295.966 742.005 296.254 741.915C296.548 741.819 296.848 741.762 297.154 741.744C297.46 741.72 297.757 741.732 298.045 741.78V743.805C297.757 743.721 297.424 743.694 297.046 743.724C296.674 743.754 296.338 743.859 296.038 744.039C295.738 744.201 295.492 744.408 295.3 744.66C295.114 744.912 294.976 745.2 294.886 745.524C294.796 745.842 294.751 746.187 294.751 746.559V751.5H292.573ZM311.685 751.5V745.596C311.685 744.93 311.52 744.411 311.19 744.039C310.86 743.661 310.413 743.472 309.849 743.472C309.501 743.472 309.189 743.553 308.913 743.715C308.637 743.871 308.418 744.105 308.256 744.417C308.094 744.723 308.013 745.089 308.013 745.515L307.05 744.948C307.044 744.276 307.194 743.685 307.5 743.175C307.812 742.659 308.232 742.257 308.76 741.969C309.288 741.681 309.876 741.537 310.524 741.537C311.598 741.537 312.42 741.861 312.99 742.509C313.566 743.151 313.854 743.997 313.854 745.047V751.5H311.685ZM299.994 751.5V741.78H301.911V744.795H302.181V751.5H299.994ZM305.853 751.5V745.623C305.853 744.945 305.688 744.417 305.358 744.039C305.028 743.661 304.578 743.472 304.008 743.472C303.456 743.472 303.012 743.661 302.676 744.039C302.346 744.417 302.181 744.909 302.181 745.515L301.209 744.867C301.209 744.237 301.365 743.67 301.677 743.166C301.989 742.662 302.409 742.266 302.937 741.978C303.471 741.684 304.068 741.537 304.728 741.537C305.454 741.537 306.06 741.693 306.546 742.005C307.038 742.311 307.404 742.731 307.644 743.265C307.89 743.793 308.013 744.39 308.013 745.056V751.5H305.853Z" fill="white"/>
<path d="M28 744.5C28 732.074 38.0736 722 50.5 722H165.5C177.926 722 188 732.074 188 744.5V744.5C188 756.926 177.926 767 165.5 767H50.5C38.0736 767 28 756.926 28 744.5V744.5Z" fill="#344054"/>
<path d="M87.76 751.5V738.54H92.899C93.775 738.54 94.492 738.717 95.05 739.071C95.614 739.419 96.031 739.866 96.301 740.412C96.577 740.958 96.715 741.522 96.715 742.104C96.715 742.818 96.544 743.424 96.202 743.922C95.866 744.42 95.407 744.756 94.825 744.93V744.48C95.641 744.666 96.259 745.053 96.679 745.641C97.105 746.229 97.318 746.898 97.318 747.648C97.318 748.416 97.171 749.088 96.877 749.664C96.583 750.24 96.145 750.69 95.563 751.014C94.987 751.338 94.273 751.5 93.421 751.5H87.76ZM89.956 749.457H93.151C93.529 749.457 93.868 749.382 94.168 749.232C94.468 749.076 94.702 748.86 94.87 748.584C95.044 748.302 95.131 747.969 95.131 747.585C95.131 747.237 95.056 746.925 94.906 746.649C94.756 746.373 94.537 746.154 94.249 745.992C93.961 745.824 93.616 745.74 93.214 745.74H89.956V749.457ZM89.956 743.715H92.872C93.184 743.715 93.463 743.655 93.709 743.535C93.955 743.415 94.15 743.238 94.294 743.004C94.438 742.77 94.51 742.482 94.51 742.14C94.51 741.69 94.366 741.315 94.078 741.015C93.79 740.715 93.388 740.565 92.872 740.565H89.956V743.715ZM102.083 751.77C101.381 751.77 100.787 751.638 100.301 751.374C99.8155 751.104 99.4465 750.747 99.1945 750.303C98.9485 749.859 98.8255 749.37 98.8255 748.836C98.8255 748.368 98.9035 747.948 99.0595 747.576C99.2155 747.198 99.4555 746.874 99.7795 746.604C100.103 746.328 100.523 746.103 101.039 745.929C101.429 745.803 101.885 745.689 102.407 745.587C102.935 745.485 103.505 745.392 104.117 745.308C104.735 745.218 105.38 745.122 106.052 745.02L105.278 745.461C105.284 744.789 105.134 744.294 104.828 743.976C104.522 743.658 104.006 743.499 103.28 743.499C102.842 743.499 102.419 743.601 102.011 743.805C101.603 744.009 101.318 744.36 101.156 744.858L99.1765 744.237C99.4165 743.415 99.8725 742.755 100.544 742.257C101.222 741.759 102.134 741.51 103.28 741.51C104.144 741.51 104.903 741.651 105.557 741.933C106.217 742.215 106.706 742.677 107.024 743.319C107.198 743.661 107.303 744.012 107.339 744.372C107.375 744.726 107.393 745.113 107.393 745.533V751.5H105.494V749.394L105.809 749.736C105.371 750.438 104.858 750.954 104.27 751.284C103.688 751.608 102.959 751.77 102.083 751.77ZM102.515 750.042C103.007 750.042 103.427 749.955 103.775 749.781C104.123 749.607 104.399 749.394 104.603 749.142C104.813 748.89 104.954 748.653 105.026 748.431C105.14 748.155 105.203 747.84 105.215 747.486C105.233 747.126 105.242 746.835 105.242 746.613L105.908 746.811C105.254 746.913 104.693 747.003 104.225 747.081C103.757 747.159 103.355 747.234 103.019 747.306C102.683 747.372 102.386 747.447 102.128 747.531C101.876 747.621 101.663 747.726 101.489 747.846C101.315 747.966 101.18 748.104 101.084 748.26C100.994 748.416 100.949 748.599 100.949 748.809C100.949 749.049 101.009 749.262 101.129 749.448C101.249 749.628 101.423 749.772 101.651 749.88C101.885 749.988 102.173 750.042 102.515 750.042ZM114.208 751.77C113.206 751.77 112.351 751.548 111.643 751.104C110.935 750.654 110.392 750.042 110.014 749.268C109.642 748.494 109.453 747.618 109.447 746.64C109.453 745.644 109.648 744.762 110.032 743.994C110.422 743.22 110.974 742.614 111.688 742.176C112.402 741.732 113.251 741.51 114.235 741.51C115.339 741.51 116.272 741.789 117.034 742.347C117.802 742.899 118.303 743.655 118.537 744.615L116.377 745.2C116.209 744.678 115.93 744.273 115.54 743.985C115.15 743.691 114.706 743.544 114.208 743.544C113.644 743.544 113.179 743.679 112.813 743.949C112.447 744.213 112.177 744.579 112.003 745.047C111.829 745.515 111.742 746.046 111.742 746.64C111.742 747.564 111.949 748.311 112.363 748.881C112.777 749.451 113.392 749.736 114.208 749.736C114.784 749.736 115.237 749.604 115.567 749.34C115.903 749.076 116.155 748.695 116.323 748.197L118.537 748.692C118.237 749.682 117.712 750.444 116.962 750.978C116.212 751.506 115.294 751.77 114.208 751.77ZM120.572 751.5L120.59 738.54H122.786V746.46L126.341 741.78H129.05L125.279 746.64L129.374 751.5H126.503L122.786 746.82V751.5H120.572Z" fill="white"/>
<path d="M29.7 160.983L29.717 157.821L40.376 148.267C41.2373 147.508 41.821 146.782 42.127 146.091C42.4443 145.4 42.603 144.708 42.603 144.017C42.603 143.144 42.4103 142.362 42.025 141.671C41.6397 140.968 41.107 140.413 40.427 140.005C39.747 139.597 38.965 139.393 38.081 139.393C37.1743 139.393 36.364 139.608 35.65 140.039C34.9473 140.458 34.3977 141.019 34.001 141.722C33.6043 142.425 33.4117 143.184 33.423 144H29.785C29.785 142.413 30.142 141.025 30.856 139.835C31.5813 138.634 32.573 137.699 33.831 137.03C35.089 136.35 36.5283 136.01 38.149 136.01C39.6903 136.01 41.073 136.361 42.297 137.064C43.521 137.755 44.4843 138.707 45.187 139.92C45.901 141.133 46.258 142.515 46.258 144.068C46.258 145.19 46.1107 146.142 45.816 146.924C45.5213 147.706 45.0793 148.431 44.49 149.1C43.9007 149.769 43.164 150.494 42.28 151.276L34.052 158.62L33.661 157.6H46.258V160.983H29.7ZM57.6417 161V136.52H73.2817V139.869H61.1947V146.737H71.2417V150.086H61.1947V157.651H73.2817V161H57.6417ZM83.7174 161V139.869H75.5744V136.52H95.4134V139.869H87.2704V161H83.7174ZM98.3839 161V136.52H101.937V147.077H114.177V136.52H117.747V161H114.177V150.426H101.937V161H98.3839Z" fill="white"/>
<path d="M29.12 344V332.48H30.56L36.568 341.48V332.48H38.008V344H36.568L30.56 334.992V344H29.12ZM44.239 344.24C43.391 344.24 42.6497 344.053 42.015 343.68C41.3857 343.301 40.895 342.776 40.543 342.104C40.191 341.427 40.015 340.637 40.015 339.736C40.015 338.792 40.1883 337.976 40.535 337.288C40.8817 336.595 41.3643 336.061 41.983 335.688C42.607 335.309 43.3377 335.12 44.175 335.12C45.0443 335.12 45.783 335.32 46.391 335.72C47.0043 336.12 47.463 336.691 47.767 337.432C48.0763 338.173 48.2097 339.056 48.167 340.08H46.727V339.568C46.711 338.507 46.495 337.715 46.079 337.192C45.663 336.664 45.0443 336.4 44.223 336.4C43.343 336.4 42.6737 336.683 42.215 337.248C41.7563 337.813 41.527 338.624 41.527 339.68C41.527 340.699 41.7563 341.488 42.215 342.048C42.6737 342.608 43.327 342.888 44.175 342.888C44.7457 342.888 45.2417 342.757 45.663 342.496C46.0843 342.235 46.415 341.859 46.655 341.368L48.023 341.84C47.687 342.603 47.1803 343.195 46.503 343.616C45.831 344.032 45.0763 344.24 44.239 344.24ZM41.047 340.08V338.936H47.431V340.08H41.047ZM55.0221 344C54.5101 344.101 54.0035 344.141 53.5021 344.12C53.0061 344.104 52.5635 344.005 52.1741 343.824C51.7848 343.637 51.4888 343.349 51.2861 342.96C51.1155 342.619 51.0221 342.275 51.0061 341.928C50.9955 341.576 50.9901 341.179 50.9901 340.736V332.96H52.4141V340.672C52.4141 341.024 52.4168 341.325 52.4221 341.576C52.4328 341.827 52.4888 342.043 52.5901 342.224C52.7821 342.565 53.0861 342.765 53.5021 342.824C53.9235 342.883 54.4301 342.867 55.0221 342.776V344ZM49.2381 336.536V335.36H55.0221V336.536H49.2381ZM58.8663 344L56.2263 335.352L57.6423 335.36L59.5703 341.68L61.5143 335.36H62.7703L64.7063 341.68L66.6423 335.36H68.0503L65.4103 344H64.2263L62.1383 337.432L60.0503 344H58.8663ZM73.1125 344.24C72.2538 344.24 71.5125 344.045 70.8885 343.656C70.2698 343.267 69.7925 342.728 69.4565 342.04C69.1205 341.352 68.9525 340.563 68.9525 339.672C68.9525 338.765 69.1232 337.971 69.4645 337.288C69.8058 336.605 70.2885 336.075 70.9125 335.696C71.5365 335.312 72.2698 335.12 73.1125 335.12C73.9765 335.12 74.7205 335.315 75.3445 335.704C75.9685 336.088 76.4458 336.624 76.7765 337.312C77.1125 337.995 77.2805 338.781 77.2805 339.672C77.2805 340.573 77.1125 341.368 76.7765 342.056C76.4405 342.739 75.9605 343.275 75.3365 343.664C74.7125 344.048 73.9712 344.24 73.1125 344.24ZM73.1125 342.888C74.0085 342.888 74.6752 342.589 75.1125 341.992C75.5498 341.395 75.7685 340.621 75.7685 339.672C75.7685 338.696 75.5472 337.92 75.1045 337.344C74.6618 336.763 73.9978 336.472 73.1125 336.472C72.5098 336.472 72.0138 336.608 71.6245 336.88C71.2352 337.152 70.9445 337.528 70.7525 338.008C70.5605 338.488 70.4645 339.043 70.4645 339.672C70.4645 340.643 70.6885 341.421 71.1365 342.008C71.5845 342.595 72.2432 342.888 73.1125 342.888ZM79.2919 344V335.36H80.5639V337.448L80.3559 337.176C80.4572 336.909 80.5879 336.664 80.7479 336.44C80.9132 336.216 81.0972 336.032 81.2999 335.888C81.5239 335.707 81.7772 335.568 82.0599 335.472C82.3425 335.376 82.6305 335.32 82.9239 335.304C83.2172 335.283 83.4919 335.301 83.7479 335.36V336.696C83.4492 336.616 83.1212 336.595 82.7639 336.632C82.4065 336.669 82.0759 336.8 81.7719 337.024C81.4945 337.221 81.2785 337.461 81.1239 337.744C80.9745 338.027 80.8705 338.333 80.8119 338.664C80.7532 338.989 80.7239 339.323 80.7239 339.664V344H79.2919ZM85.5026 344L85.5106 332.48H86.9506V339.52L90.5746 335.36H92.4226L88.6066 339.68L92.8706 344H90.8786L86.9506 339.84V344H85.5026ZM97.37 344V332.48H104.09V333.904H98.794V337.528H103.13V338.952H98.794V344H97.37ZM109.286 344.24C108.438 344.24 107.697 344.053 107.062 343.68C106.433 343.301 105.942 342.776 105.59 342.104C105.238 341.427 105.062 340.637 105.062 339.736C105.062 338.792 105.235 337.976 105.582 337.288C105.929 336.595 106.411 336.061 107.03 335.688C107.654 335.309 108.385 335.12 109.222 335.12C110.091 335.12 110.83 335.32 111.438 335.72C112.051 336.12 112.51 336.691 112.814 337.432C113.123 338.173 113.257 339.056 113.214 340.08H111.774V339.568C111.758 338.507 111.542 337.715 111.126 337.192C110.71 336.664 110.091 336.4 109.27 336.4C108.39 336.4 107.721 336.683 107.262 337.248C106.803 337.813 106.574 338.624 106.574 339.68C106.574 340.699 106.803 341.488 107.262 342.048C107.721 342.608 108.374 342.888 109.222 342.888C109.793 342.888 110.289 342.757 110.71 342.496C111.131 342.235 111.462 341.859 111.702 341.368L113.07 341.84C112.734 342.603 112.227 343.195 111.55 343.616C110.878 344.032 110.123 344.24 109.286 344.24ZM106.094 340.08V338.936H112.478V340.08H106.094ZM118.989 344.24C118.141 344.24 117.4 344.053 116.765 343.68C116.136 343.301 115.645 342.776 115.293 342.104C114.941 341.427 114.765 340.637 114.765 339.736C114.765 338.792 114.938 337.976 115.285 337.288C115.632 336.595 116.114 336.061 116.733 335.688C117.357 335.309 118.088 335.12 118.925 335.12C119.794 335.12 120.533 335.32 121.141 335.72C121.754 336.12 122.213 336.691 122.517 337.432C122.826 338.173 122.96 339.056 122.917 340.08H121.477V339.568C121.461 338.507 121.245 337.715 120.829 337.192C120.413 336.664 119.794 336.4 118.973 336.4C118.093 336.4 117.424 336.683 116.965 337.248C116.506 337.813 116.277 338.624 116.277 339.68C116.277 340.699 116.506 341.488 116.965 342.048C117.424 342.608 118.077 342.888 118.925 342.888C119.496 342.888 119.992 342.757 120.413 342.496C120.834 342.235 121.165 341.859 121.405 341.368L122.773 341.84C122.437 342.603 121.93 343.195 121.253 343.616C120.581 344.032 119.826 344.24 118.989 344.24ZM115.797 340.08V338.936H122.181V340.08H115.797Z" fill="#A0A3BD"/>
<path d="M29.12 398V386.48H32.672C32.7893 386.48 32.9947 386.483 33.288 386.488C33.5813 386.493 33.8613 386.515 34.128 386.552C35.0187 386.669 35.7627 386.995 36.36 387.528C36.9627 388.056 37.416 388.728 37.72 389.544C38.024 390.36 38.176 391.259 38.176 392.24C38.176 393.221 38.024 394.12 37.72 394.936C37.416 395.752 36.9627 396.427 36.36 396.96C35.7627 397.488 35.0187 397.811 34.128 397.928C33.8613 397.96 33.5787 397.981 33.28 397.992C32.9867 397.997 32.784 398 32.672 398H29.12ZM30.584 396.64H32.672C32.8747 396.64 33.1013 396.635 33.352 396.624C33.6027 396.608 33.8213 396.584 34.008 396.552C34.6373 396.435 35.1467 396.171 35.536 395.76C35.9253 395.349 36.2107 394.837 36.392 394.224C36.5733 393.611 36.664 392.949 36.664 392.24C36.664 391.515 36.5707 390.845 36.384 390.232C36.2027 389.619 35.9173 389.109 35.528 388.704C35.1387 388.299 34.632 388.04 34.008 387.928C33.8213 387.891 33.6 387.867 33.344 387.856C33.088 387.845 32.864 387.84 32.672 387.84H30.584V396.64ZM40.2606 398V389.36H41.5326V391.448L41.3246 391.176C41.426 390.909 41.5566 390.664 41.7166 390.44C41.882 390.216 42.066 390.032 42.2686 389.888C42.4926 389.707 42.746 389.568 43.0286 389.472C43.3113 389.376 43.5993 389.32 43.8926 389.304C44.186 389.283 44.4606 389.301 44.7166 389.36V390.696C44.418 390.616 44.09 390.595 43.7326 390.632C43.3753 390.669 43.0446 390.8 42.7406 391.024C42.4633 391.221 42.2473 391.461 42.0926 391.744C41.9433 392.027 41.8393 392.333 41.7806 392.664C41.722 392.989 41.6926 393.323 41.6926 393.664V398H40.2606ZM50.0031 398.24C49.1445 398.24 48.4031 398.045 47.7791 397.656C47.1605 397.267 46.6831 396.728 46.3471 396.04C46.0111 395.352 45.8431 394.563 45.8431 393.672C45.8431 392.765 46.0138 391.971 46.3551 391.288C46.6965 390.605 47.1791 390.075 47.8031 389.696C48.4271 389.312 49.1605 389.12 50.0031 389.12C50.8671 389.12 51.6111 389.315 52.2351 389.704C52.8591 390.088 53.3365 390.624 53.6671 391.312C54.0031 391.995 54.1711 392.781 54.1711 393.672C54.1711 394.573 54.0031 395.368 53.6671 396.056C53.3311 396.739 52.8511 397.275 52.2271 397.664C51.6031 398.048 50.8618 398.24 50.0031 398.24ZM50.0031 396.888C50.8991 396.888 51.5658 396.589 52.0031 395.992C52.4405 395.395 52.6591 394.621 52.6591 393.672C52.6591 392.696 52.4378 391.92 51.9951 391.344C51.5525 390.763 50.8885 390.472 50.0031 390.472C49.4005 390.472 48.9045 390.608 48.5151 390.88C48.1258 391.152 47.8351 391.528 47.6431 392.008C47.4511 392.488 47.3551 393.043 47.3551 393.672C47.3551 394.643 47.5791 395.421 48.0271 396.008C48.4751 396.595 49.1338 396.888 50.0031 396.888ZM60.1505 398.24C59.3398 398.24 58.6572 398.04 58.1025 397.64C57.5478 397.235 57.1265 396.688 56.8385 396C56.5558 395.307 56.4145 394.531 56.4145 393.672C56.4145 392.803 56.5558 392.024 56.8385 391.336C57.1265 390.648 57.5478 390.107 58.1025 389.712C58.6625 389.317 59.3478 389.12 60.1585 389.12C60.9585 389.12 61.6465 389.32 62.2225 389.72C62.8038 390.115 63.2492 390.656 63.5585 391.344C63.8678 392.032 64.0225 392.808 64.0225 393.672C64.0225 394.536 63.8678 395.312 63.5585 396C63.2492 396.688 62.8038 397.235 62.2225 397.64C61.6465 398.04 60.9558 398.24 60.1505 398.24ZM56.1745 401.84V389.36H57.4465V395.72H57.6065V401.84H56.1745ZM59.9745 396.936C60.5452 396.936 61.0172 396.792 61.3905 396.504C61.7638 396.216 62.0438 395.827 62.2305 395.336C62.4172 394.84 62.5105 394.285 62.5105 393.672C62.5105 393.064 62.4172 392.515 62.2305 392.024C62.0492 391.533 61.7665 391.144 61.3825 390.856C61.0038 390.568 60.5212 390.424 59.9345 390.424C59.3745 390.424 58.9105 390.563 58.5425 390.84C58.1745 391.112 57.8998 391.493 57.7185 391.984C57.5372 392.469 57.4465 393.032 57.4465 393.672C57.4465 394.301 57.5345 394.864 57.7105 395.36C57.8918 395.851 58.1692 396.237 58.5425 396.52C58.9158 396.797 59.3932 396.936 59.9745 396.936ZM69.6663 398.24C68.7916 398.24 68.0476 398.045 67.4343 397.656C66.8263 397.261 66.3623 396.72 66.0423 396.032C65.7223 395.344 65.5569 394.56 65.5463 393.68C65.5569 392.779 65.7249 391.987 66.0503 391.304C66.3809 390.616 66.8529 390.08 67.4663 389.696C68.0796 389.312 68.8183 389.12 69.6823 389.12C70.5943 389.12 71.3783 389.344 72.0343 389.792C72.6956 390.24 73.1383 390.853 73.3623 391.632L71.9543 392.056C71.7729 391.555 71.4769 391.165 71.0663 390.888C70.6609 390.611 70.1943 390.472 69.6663 390.472C69.0743 390.472 68.5863 390.611 68.2023 390.888C67.8183 391.16 67.5329 391.539 67.3463 392.024C67.1596 392.504 67.0636 393.056 67.0583 393.68C67.0689 394.64 67.2903 395.416 67.7223 396.008C68.1596 396.595 68.8076 396.888 69.6663 396.888C70.2316 396.888 70.7009 396.76 71.0743 396.504C71.4476 396.243 71.7303 395.867 71.9223 395.376L73.3623 395.752C73.0636 396.557 72.5969 397.173 71.9623 397.6C71.3276 398.027 70.5623 398.24 69.6663 398.24ZM77.6229 398.24C76.9775 398.24 76.4362 398.123 75.9989 397.888C75.5669 397.648 75.2389 397.333 75.0149 396.944C74.7962 396.555 74.6869 396.128 74.6869 395.664C74.6869 395.211 74.7722 394.819 74.9429 394.488C75.1189 394.152 75.3642 393.875 75.6789 393.656C75.9935 393.432 76.3695 393.256 76.8069 393.128C77.2175 393.016 77.6762 392.92 78.1829 392.84C78.6949 392.755 79.2122 392.677 79.7349 392.608C80.2575 392.539 80.7455 392.472 81.1989 392.408L80.6869 392.704C80.7029 391.936 80.5482 391.368 80.2229 391C79.9029 390.632 79.3482 390.448 78.5589 390.448C78.0362 390.448 77.5775 390.568 77.1829 390.808C76.7935 391.043 76.5189 391.427 76.3589 391.96L75.0069 391.552C75.2149 390.795 75.6175 390.2 76.2149 389.768C76.8122 389.336 77.5989 389.12 78.5749 389.12C79.3589 389.12 80.0309 389.261 80.5909 389.544C81.1562 389.821 81.5615 390.243 81.8069 390.808C81.9295 391.075 82.0069 391.365 82.0389 391.68C82.0709 391.989 82.0869 392.315 82.0869 392.656V398H80.8229V395.928L81.1189 396.12C80.7935 396.819 80.3375 397.347 79.7509 397.704C79.1695 398.061 78.4602 398.24 77.6229 398.24ZM77.8389 397.048C78.3509 397.048 78.7935 396.957 79.1669 396.776C79.5455 396.589 79.8495 396.347 80.0789 396.048C80.3082 395.744 80.4575 395.413 80.5269 395.056C80.6069 394.789 80.6495 394.493 80.6549 394.168C80.6655 393.837 80.6709 393.584 80.6709 393.408L81.1669 393.624C80.7029 393.688 80.2469 393.749 79.7989 393.808C79.3509 393.867 78.9269 393.931 78.5269 394C78.1269 394.064 77.7669 394.141 77.4469 394.232C77.2122 394.307 76.9909 394.403 76.7829 394.52C76.5802 394.637 76.4149 394.789 76.2869 394.976C76.1642 395.157 76.1029 395.384 76.1029 395.656C76.1029 395.891 76.1615 396.115 76.2789 396.328C76.4015 396.541 76.5882 396.715 76.8389 396.848C77.0949 396.981 77.4282 397.048 77.8389 397.048ZM87.6809 398.232C86.6515 398.232 85.8062 398.008 85.1449 397.56C84.4889 397.107 84.0862 396.475 83.9369 395.664L85.3929 395.432C85.5102 395.901 85.7795 396.275 86.2009 396.552C86.6222 396.824 87.1449 396.96 87.7689 396.96C88.3609 396.96 88.8249 396.837 89.1609 396.592C89.4969 396.347 89.6649 396.013 89.6649 395.592C89.6649 395.347 89.6089 395.149 89.4969 395C89.3849 394.845 89.1529 394.701 88.8009 394.568C88.4542 394.435 87.9289 394.275 87.2249 394.088C86.4622 393.885 85.8622 393.675 85.4249 393.456C84.9875 393.237 84.6755 392.984 84.4889 392.696C84.3022 392.408 84.2089 392.059 84.2089 391.648C84.2089 391.141 84.3475 390.699 84.6249 390.32C84.9022 389.936 85.2889 389.64 85.7849 389.432C86.2862 389.224 86.8675 389.12 87.5289 389.12C88.1849 389.12 88.7715 389.224 89.2889 389.432C89.8062 389.64 90.2222 389.936 90.5369 390.32C90.8569 390.699 91.0462 391.141 91.1049 391.648L89.6489 391.912C89.5795 391.448 89.3555 391.083 88.9769 390.816C88.6035 390.549 88.1209 390.408 87.5289 390.392C86.9689 390.371 86.5129 390.469 86.1609 390.688C85.8142 390.907 85.6409 391.203 85.6409 391.576C85.6409 391.784 85.7049 391.963 85.8329 392.112C85.9662 392.261 86.2089 392.403 86.5609 392.536C86.9182 392.669 87.4355 392.821 88.1129 392.992C88.8755 393.184 89.4755 393.395 89.9129 393.624C90.3555 393.848 90.6702 394.115 90.8569 394.424C91.0435 394.728 91.1369 395.104 91.1369 395.552C91.1369 396.384 90.8302 397.04 90.2169 397.52C89.6035 397.995 88.7582 398.232 87.6809 398.232ZM99.3033 398V393.672C99.3033 393.261 99.2659 392.867 99.1913 392.488C99.1219 392.109 98.9966 391.771 98.8153 391.472C98.6393 391.168 98.3993 390.928 98.0953 390.752C97.7966 390.576 97.4179 390.488 96.9593 390.488C96.6019 390.488 96.2766 390.549 95.9833 390.672C95.6953 390.789 95.4473 390.971 95.2393 391.216C95.0313 391.461 94.8686 391.771 94.7513 392.144C94.6393 392.512 94.5833 392.947 94.5833 393.448L93.6473 393.16C93.6473 392.323 93.7966 391.605 94.0953 391.008C94.3993 390.405 94.8233 389.944 95.3673 389.624C95.9166 389.299 96.5619 389.136 97.3033 389.136C97.8633 389.136 98.3406 389.224 98.7353 389.4C99.1299 389.576 99.4579 389.811 99.7193 390.104C99.9806 390.392 100.186 390.717 100.335 391.08C100.485 391.437 100.589 391.803 100.647 392.176C100.711 392.544 100.743 392.893 100.743 393.224V398H99.3033ZM93.1433 398V386.48H94.4233V392.84H94.5833V398H93.1433ZM106.526 398V386.48H113.246V387.904H107.95V391.528H112.286V392.952H107.95V398H106.526ZM118.442 398.24C117.594 398.24 116.853 398.053 116.218 397.68C115.589 397.301 115.098 396.776 114.746 396.104C114.394 395.427 114.218 394.637 114.218 393.736C114.218 392.792 114.391 391.976 114.738 391.288C115.085 390.595 115.567 390.061 116.186 389.688C116.81 389.309 117.541 389.12 118.378 389.12C119.247 389.12 119.986 389.32 120.594 389.72C121.207 390.12 121.666 390.691 121.97 391.432C122.279 392.173 122.413 393.056 122.37 394.08H120.93V393.568C120.914 392.507 120.698 391.715 120.282 391.192C119.866 390.664 119.247 390.4 118.426 390.4C117.546 390.4 116.877 390.683 116.418 391.248C115.959 391.813 115.73 392.624 115.73 393.68C115.73 394.699 115.959 395.488 116.418 396.048C116.877 396.608 117.53 396.888 118.378 396.888C118.949 396.888 119.445 396.757 119.866 396.496C120.287 396.235 120.618 395.859 120.858 395.368L122.226 395.84C121.89 396.603 121.383 397.195 120.706 397.616C120.034 398.032 119.279 398.24 118.442 398.24ZM115.25 394.08V392.936H121.634V394.08H115.25ZM128.145 398.24C127.297 398.24 126.556 398.053 125.921 397.68C125.292 397.301 124.801 396.776 124.449 396.104C124.097 395.427 123.921 394.637 123.921 393.736C123.921 392.792 124.095 391.976 124.441 391.288C124.788 390.595 125.271 390.061 125.889 389.688C126.513 389.309 127.244 389.12 128.081 389.12C128.951 389.12 129.689 389.32 130.297 389.72C130.911 390.12 131.369 390.691 131.673 391.432C131.983 392.173 132.116 393.056 132.073 394.08H130.633V393.568C130.617 392.507 130.401 391.715 129.985 391.192C129.569 390.664 128.951 390.4 128.129 390.4C127.249 390.4 126.58 390.683 126.121 391.248C125.663 391.813 125.433 392.624 125.433 393.68C125.433 394.699 125.663 395.488 126.121 396.048C126.58 396.608 127.233 396.888 128.081 396.888C128.652 396.888 129.148 396.757 129.569 396.496C129.991 396.235 130.321 395.859 130.561 395.368L131.929 395.84C131.593 396.603 131.087 397.195 130.409 397.616C129.737 398.032 128.983 398.24 128.145 398.24ZM124.953 394.08V392.936H131.337V394.08H124.953Z" fill="#A0A3BD"/>
<path d="M316.144 345.592V343.72H317.816V345.592H316.144ZM316.144 332.768V330.888H317.816V332.768H316.144ZM317.064 344.24C316.264 344.24 315.549 344.096 314.92 343.808C314.291 343.52 313.773 343.112 313.368 342.584C312.968 342.051 312.707 341.421 312.584 340.696L314.24 340.432C314.4 341.115 314.741 341.659 315.264 342.064C315.787 342.464 316.413 342.664 317.144 342.664C317.869 342.664 318.459 342.491 318.912 342.144C319.371 341.797 319.6 341.355 319.6 340.816C319.6 340.432 319.483 340.12 319.248 339.88C319.019 339.64 318.643 339.437 318.12 339.272L315.416 338.44C313.816 337.944 313.016 336.984 313.016 335.56C313.016 334.888 313.176 334.304 313.496 333.808C313.821 333.312 314.277 332.928 314.864 332.656C315.451 332.384 316.136 332.248 316.92 332.248C317.672 332.259 318.339 332.397 318.92 332.664C319.507 332.931 319.992 333.315 320.376 333.816C320.765 334.317 321.035 334.92 321.184 335.624L319.48 335.928C319.405 335.517 319.248 335.155 319.008 334.84C318.773 334.525 318.475 334.28 318.112 334.104C317.755 333.928 317.352 333.837 316.904 333.832C316.483 333.821 316.104 333.888 315.768 334.032C315.437 334.171 315.173 334.368 314.976 334.624C314.784 334.875 314.688 335.16 314.688 335.48C314.688 335.832 314.824 336.131 315.096 336.376C315.368 336.621 315.797 336.832 316.384 337.008L318.504 337.624C319.475 337.912 320.176 338.299 320.608 338.784C321.04 339.269 321.256 339.915 321.256 340.72C321.256 341.424 321.08 342.04 320.728 342.568C320.381 343.091 319.893 343.501 319.264 343.8C318.635 344.093 317.901 344.24 317.064 344.24ZM327.23 344.24C326.446 344.24 325.752 344.069 325.15 343.728C324.547 343.381 324.072 342.907 323.726 342.304C323.384 341.701 323.214 341.008 323.214 340.224V336.256C323.214 335.472 323.384 334.779 323.726 334.176C324.072 333.573 324.547 333.101 325.15 332.76C325.752 332.413 326.446 332.24 327.23 332.24C328.014 332.24 328.707 332.413 329.31 332.76C329.912 333.101 330.384 333.573 330.726 334.176C331.072 334.779 331.246 335.472 331.246 336.256V340.224C331.246 341.008 331.072 341.701 330.726 342.304C330.384 342.907 329.912 343.381 329.31 343.728C328.707 344.069 328.014 344.24 327.23 344.24ZM327.23 342.64C327.656 342.64 328.043 342.539 328.39 342.336C328.742 342.128 329.022 341.851 329.23 341.504C329.438 341.152 329.542 340.76 329.542 340.328V336.136C329.542 335.709 329.438 335.323 329.23 334.976C329.022 334.624 328.742 334.347 328.39 334.144C328.043 333.936 327.656 333.832 327.23 333.832C326.803 333.832 326.414 333.936 326.062 334.144C325.715 334.347 325.438 334.624 325.23 334.976C325.022 335.323 324.918 335.709 324.918 336.136V340.328C324.918 340.76 325.022 341.152 325.23 341.504C325.438 341.851 325.715 342.128 326.062 342.336C326.414 342.539 326.803 342.64 327.23 342.64ZM334.017 344V342.232H335.785V344H334.017ZM342.574 344.24C341.79 344.24 341.096 344.069 340.494 343.728C339.891 343.381 339.416 342.907 339.07 342.304C338.728 341.701 338.558 341.008 338.558 340.224V336.256C338.558 335.472 338.728 334.779 339.07 334.176C339.416 333.573 339.891 333.101 340.494 332.76C341.096 332.413 341.79 332.24 342.574 332.24C343.358 332.24 344.051 332.413 344.654 332.76C345.256 333.101 345.728 333.573 346.069 334.176C346.416 334.779 346.59 335.472 346.59 336.256V340.224C346.59 341.008 346.416 341.701 346.069 342.304C345.728 342.907 345.256 343.381 344.654 343.728C344.051 344.069 343.358 344.24 342.574 344.24ZM342.574 342.64C343 342.64 343.387 342.539 343.734 342.336C344.086 342.128 344.366 341.851 344.574 341.504C344.782 341.152 344.886 340.76 344.886 340.328V336.136C344.886 335.709 344.782 335.323 344.574 334.976C344.366 334.624 344.086 334.347 343.734 334.144C343.387 333.936 343 333.832 342.574 333.832C342.147 333.832 341.758 333.936 341.406 334.144C341.059 334.347 340.782 334.624 340.574 334.976C340.366 335.323 340.262 335.709 340.262 336.136V340.328C340.262 340.76 340.366 341.152 340.574 341.504C340.782 341.851 341.059 342.128 341.406 342.336C341.758 342.539 342.147 342.64 342.574 342.64ZM353.089 344.24C352.305 344.24 351.612 344.069 351.009 343.728C350.406 343.381 349.932 342.907 349.585 342.304C349.244 341.701 349.073 341.008 349.073 340.224V336.256C349.073 335.472 349.244 334.779 349.585 334.176C349.932 333.573 350.406 333.101 351.009 332.76C351.612 332.413 352.305 332.24 353.089 332.24C353.873 332.24 354.566 332.413 355.169 332.76C355.772 333.101 356.244 333.573 356.585 334.176C356.932 334.779 357.105 335.472 357.105 336.256V340.224C357.105 341.008 356.932 341.701 356.585 342.304C356.244 342.907 355.772 343.381 355.169 343.728C354.566 344.069 353.873 344.24 353.089 344.24ZM353.089 342.64C353.516 342.64 353.902 342.539 354.249 342.336C354.601 342.128 354.881 341.851 355.089 341.504C355.297 341.152 355.401 340.76 355.401 340.328V336.136C355.401 335.709 355.297 335.323 355.089 334.976C354.881 334.624 354.601 334.347 354.249 334.144C353.902 333.936 353.516 333.832 353.089 333.832C352.662 333.832 352.273 333.936 351.921 334.144C351.574 334.347 351.297 334.624 351.089 334.976C350.881 335.323 350.777 335.709 350.777 336.136V340.328C350.777 340.76 350.881 341.152 351.089 341.504C351.297 341.851 351.574 342.128 351.921 342.336C352.273 342.539 352.662 342.64 353.089 342.64Z" fill="white"/>
<path d="M31.896 121V116.24L28 109.48H29.952L32.744 114.32L35.536 109.48H37.488L33.592 116.24V121H31.896ZM41.3251 121.24C40.4611 121.24 39.7118 121.045 39.0771 120.656C38.4425 120.267 37.9518 119.731 37.6051 119.048C37.2638 118.36 37.0931 117.568 37.0931 116.672C37.0931 115.771 37.2691 114.979 37.6211 114.296C37.9731 113.608 38.4665 113.075 39.1011 112.696C39.7358 112.312 40.4771 112.12 41.3251 112.12C42.1891 112.12 42.9385 112.315 43.5731 112.704C44.2078 113.093 44.6985 113.629 45.0451 114.312C45.3918 114.995 45.5651 115.781 45.5651 116.672C45.5651 117.573 45.3891 118.368 45.0371 119.056C44.6905 119.739 44.1998 120.275 43.5651 120.664C42.9305 121.048 42.1838 121.24 41.3251 121.24ZM41.3251 119.664C42.1518 119.664 42.7678 119.387 43.1731 118.832C43.5838 118.272 43.7891 117.552 43.7891 116.672C43.7891 115.771 43.5811 115.051 43.1651 114.512C42.7545 113.968 42.1411 113.696 41.3251 113.696C40.7651 113.696 40.3038 113.824 39.9411 114.08C39.5785 114.331 39.3091 114.68 39.1331 115.128C38.9571 115.571 38.8691 116.085 38.8691 116.672C38.8691 117.579 39.0771 118.304 39.4931 118.848C39.9091 119.392 40.5198 119.664 41.3251 119.664ZM50.8291 121.232C50.2318 121.232 49.7305 121.136 49.3251 120.944C48.9198 120.752 48.5891 120.501 48.3331 120.192C48.0825 119.877 47.8905 119.536 47.7571 119.168C47.6238 118.8 47.5331 118.44 47.4851 118.088C47.4371 117.736 47.4131 117.427 47.4131 117.16V112.36H49.1091V116.608C49.1091 116.944 49.1358 117.291 49.1891 117.648C49.2478 118 49.3545 118.328 49.5091 118.632C49.6691 118.936 49.8905 119.181 50.1731 119.368C50.4611 119.555 50.8345 119.648 51.2931 119.648C51.5918 119.648 51.8745 119.6 52.1411 119.504C52.4078 119.403 52.6398 119.243 52.8371 119.024C53.0398 118.805 53.1971 118.517 53.3091 118.16C53.4265 117.803 53.4851 117.368 53.4851 116.856L54.5251 117.248C54.5251 118.032 54.3785 118.725 54.0851 119.328C53.7918 119.925 53.3705 120.392 52.8211 120.728C52.2718 121.064 51.6078 121.232 50.8291 121.232ZM53.6851 121V118.504H53.4851V112.36H55.1731V121H53.6851ZM65.176 121.24C64.3493 121.24 63.656 121.04 63.096 120.64C62.536 120.235 62.112 119.688 61.824 119C61.536 118.312 61.392 117.536 61.392 116.672C61.392 115.808 61.5333 115.032 61.816 114.344C62.104 113.656 62.5253 113.115 63.08 112.72C63.64 112.32 64.328 112.12 65.144 112.12C65.9547 112.12 66.6533 112.32 67.24 112.72C67.832 113.115 68.288 113.656 68.608 114.344C68.928 115.027 69.088 115.803 69.088 116.672C69.088 117.536 68.928 118.315 68.608 119.008C68.2933 119.696 67.8427 120.24 67.256 120.64C66.6747 121.04 65.9813 121.24 65.176 121.24ZM61.112 124.84V112.36H62.6V118.576H62.792V124.84H61.112ZM64.944 119.728C65.4773 119.728 65.9173 119.592 66.264 119.32C66.616 119.048 66.8773 118.683 67.048 118.224C67.224 117.76 67.312 117.243 67.312 116.672C67.312 116.107 67.224 115.595 67.048 115.136C66.8773 114.677 66.6133 114.312 66.256 114.04C65.8987 113.768 65.4427 113.632 64.888 113.632C64.3653 113.632 63.9333 113.76 63.592 114.016C63.256 114.272 63.0053 114.629 62.84 115.088C62.68 115.547 62.6 116.075 62.6 116.672C62.6 117.269 62.68 117.797 62.84 118.256C63 118.715 63.2533 119.075 63.6 119.336C63.9467 119.597 64.3947 119.728 64.944 119.728ZM73.5444 121.24C72.9044 121.24 72.3684 121.123 71.9364 120.888C71.5044 120.648 71.1764 120.333 70.9524 119.944C70.7337 119.549 70.6244 119.117 70.6244 118.648C70.6244 118.211 70.7017 117.827 70.8564 117.496C71.011 117.165 71.2404 116.885 71.5444 116.656C71.8484 116.421 72.2217 116.232 72.6644 116.088C73.0484 115.976 73.483 115.877 73.9684 115.792C74.4537 115.707 74.963 115.627 75.4964 115.552C76.035 115.477 76.5684 115.403 77.0964 115.328L76.4884 115.664C76.499 114.987 76.355 114.485 76.0564 114.16C75.763 113.829 75.2564 113.664 74.5364 113.664C74.083 113.664 73.667 113.771 73.2884 113.984C72.9097 114.192 72.6457 114.539 72.4964 115.024L70.9364 114.544C71.1497 113.803 71.555 113.213 72.1524 112.776C72.755 112.339 73.555 112.12 74.5524 112.12C75.3257 112.12 75.9977 112.253 76.5684 112.52C77.1444 112.781 77.5657 113.197 77.8324 113.768C77.971 114.051 78.0564 114.349 78.0884 114.664C78.1204 114.979 78.1364 115.317 78.1364 115.68V121H76.6564V119.024L76.9444 119.28C76.587 119.941 76.131 120.435 75.5764 120.76C75.027 121.08 74.3497 121.24 73.5444 121.24ZM73.8404 119.872C74.315 119.872 74.723 119.789 75.0644 119.624C75.4057 119.453 75.6804 119.237 75.8884 118.976C76.0964 118.715 76.2324 118.443 76.2964 118.16C76.387 117.904 76.4377 117.616 76.4484 117.296C76.4644 116.976 76.4724 116.72 76.4724 116.528L77.0164 116.728C76.4884 116.808 76.0084 116.88 75.5764 116.944C75.1444 117.008 74.7524 117.072 74.4004 117.136C74.0537 117.195 73.7444 117.267 73.4724 117.352C73.243 117.432 73.0377 117.528 72.8564 117.64C72.6804 117.752 72.539 117.888 72.4324 118.048C72.331 118.208 72.2804 118.403 72.2804 118.632C72.2804 118.856 72.3364 119.064 72.4484 119.256C72.5604 119.443 72.731 119.592 72.9604 119.704C73.1897 119.816 73.483 119.872 73.8404 119.872ZM81.1474 124.84L82.8194 120.288L82.8434 121.632L79.0754 112.36H80.8194L83.6354 119.52H83.1234L85.8114 112.36H87.5074L82.7394 124.84H81.1474Z" fill="white"/>
<path d="M29.7 246.983L29.717 243.821L40.376 234.267C41.2373 233.508 41.821 232.782 42.127 232.091C42.4443 231.4 42.603 230.708 42.603 230.017C42.603 229.144 42.4103 228.362 42.025 227.671C41.6397 226.968 41.107 226.413 40.427 226.005C39.747 225.597 38.965 225.393 38.081 225.393C37.1743 225.393 36.364 225.608 35.65 226.039C34.9473 226.458 34.3977 227.019 34.001 227.722C33.6043 228.425 33.4117 229.184 33.423 230H29.785C29.785 228.413 30.142 227.025 30.856 225.835C31.5813 224.634 32.573 223.699 33.831 223.03C35.089 222.35 36.5283 222.01 38.149 222.01C39.6903 222.01 41.073 222.361 42.297 223.064C43.521 223.755 44.4843 224.707 45.187 225.92C45.901 227.133 46.258 228.515 46.258 230.068C46.258 231.19 46.1107 232.142 45.816 232.924C45.5213 233.706 45.0793 234.431 44.49 235.1C43.9007 235.769 43.164 236.494 42.28 237.276L34.052 244.62L33.661 243.6H46.258V246.983H29.7ZM50.2451 251.063L50.4661 249.482C50.9534 249.516 51.3331 249.425 51.6051 249.21C51.8771 248.995 52.0584 248.694 52.1491 248.309C52.2397 247.924 52.2567 247.487 52.2001 247H50.2451V242.903H54.0021V247.34C54.0021 248.677 53.6791 249.686 53.0331 250.366C52.3984 251.046 51.4691 251.278 50.2451 251.063ZM71.0664 247V242.733H60.0164V239.367L67.9724 222.52H72.0354L64.0794 239.367H71.0664V232.737H74.6704V239.367H77.1014V242.733H74.6704V247H71.0664ZM91.6367 247V242.733H80.5867V239.367L88.5427 222.52H92.6057L84.6497 239.367H91.6367V232.737H95.2407V239.367H97.6717V242.733H95.2407V247H91.6367ZM101.323 246.983L101.34 243.821L111.999 234.267C112.86 233.508 113.444 232.782 113.75 232.091C114.067 231.4 114.226 230.708 114.226 230.017C114.226 229.144 114.033 228.362 113.648 227.671C113.263 226.968 112.73 226.413 112.05 226.005C111.37 225.597 110.588 225.393 109.704 225.393C108.797 225.393 107.987 225.608 107.273 226.039C106.57 226.458 106.021 227.019 105.624 227.722C105.227 228.425 105.035 229.184 105.046 230H101.408C101.408 228.413 101.765 227.025 102.479 225.835C103.204 224.634 104.196 223.699 105.454 223.03C106.712 222.35 108.151 222.01 109.772 222.01C111.313 222.01 112.696 222.361 113.92 223.064C115.144 223.755 116.107 224.707 116.81 225.92C117.524 227.133 117.881 228.515 117.881 230.068C117.881 231.19 117.734 232.142 117.439 232.924C117.144 233.706 116.702 234.431 116.113 235.1C115.524 235.769 114.787 236.494 113.903 237.276L105.675 244.62L105.284 243.6H117.881V246.983H101.323ZM122.82 247V243.243H126.577V247H122.82ZM140.602 247.51C139.015 247.51 137.587 247.136 136.318 246.388C135.048 245.629 134.04 244.592 133.292 243.277C132.555 241.962 132.187 240.466 132.187 238.789V230.986C132.187 229.207 132.555 227.643 133.292 226.294C134.04 224.945 135.071 223.897 136.386 223.149C137.712 222.401 139.236 222.027 140.959 222.027C142.251 222.027 143.463 222.271 144.597 222.758C145.73 223.245 146.71 223.971 147.538 224.934L144.937 227.365C144.472 226.764 143.888 226.288 143.186 225.937C142.494 225.574 141.752 225.393 140.959 225.393C139.939 225.393 139.043 225.637 138.273 226.124C137.502 226.6 136.896 227.229 136.454 228.011C136.023 228.793 135.808 229.632 135.808 230.527V235.015L135.111 234.233C135.813 233.315 136.686 232.59 137.729 232.057C138.771 231.524 139.888 231.258 141.078 231.258C142.596 231.258 143.951 231.615 145.141 232.329C146.342 233.032 147.283 233.989 147.963 235.202C148.654 236.415 149 237.78 149 239.299C149 240.829 148.614 242.217 147.844 243.464C147.084 244.699 146.064 245.685 144.784 246.422C143.514 247.147 142.12 247.51 140.602 247.51ZM140.602 244.093C141.486 244.093 142.29 243.878 143.016 243.447C143.741 243.016 144.319 242.438 144.75 241.713C145.18 240.988 145.396 240.183 145.396 239.299C145.396 238.415 145.18 237.61 144.75 236.885C144.33 236.16 143.758 235.582 143.033 235.151C142.307 234.72 141.503 234.505 140.619 234.505C139.735 234.505 138.924 234.72 138.188 235.151C137.462 235.582 136.884 236.16 136.454 236.885C136.023 237.61 135.808 238.415 135.808 239.299C135.808 240.172 136.023 240.971 136.454 241.696C136.884 242.421 137.462 243.005 138.188 243.447C138.913 243.878 139.718 244.093 140.602 244.093ZM160.813 247.51C159.555 247.51 158.382 247.255 157.294 246.745C156.217 246.224 155.293 245.51 154.523 244.603C153.752 243.685 153.202 242.631 152.874 241.441L156.291 240.523C156.483 241.248 156.812 241.877 157.277 242.41C157.753 242.943 158.308 243.356 158.943 243.651C159.577 243.934 160.235 244.076 160.915 244.076C161.81 244.076 162.62 243.861 163.346 243.43C164.082 242.999 164.66 242.421 165.08 241.696C165.51 240.971 165.726 240.172 165.726 239.299C165.726 238.404 165.505 237.593 165.063 236.868C164.632 236.143 164.048 235.57 163.312 235.151C162.586 234.72 161.787 234.505 160.915 234.505C159.917 234.505 159.073 234.703 158.382 235.1C157.69 235.497 157.152 235.956 156.767 236.477L153.673 235.389L154.421 222.52H167.63V225.869H156.24L157.685 224.526L157.09 234.165L156.393 233.264C157.039 232.618 157.809 232.125 158.705 231.785C159.6 231.445 160.49 231.275 161.374 231.275C162.892 231.275 164.247 231.626 165.437 232.329C166.638 233.032 167.584 233.989 168.276 235.202C168.967 236.403 169.313 237.769 169.313 239.299C169.313 240.818 168.922 242.2 168.14 243.447C167.358 244.682 166.321 245.668 165.029 246.405C163.737 247.142 162.331 247.51 160.813 247.51ZM180.683 247V222.52H188.35C188.576 222.52 188.996 222.526 189.608 222.537C190.231 222.548 190.826 222.594 191.393 222.673C193.308 222.911 194.917 223.597 196.221 224.73C197.535 225.863 198.527 227.303 199.196 229.048C199.864 230.782 200.199 232.686 200.199 234.76C200.199 236.845 199.864 238.761 199.196 240.506C198.527 242.24 197.535 243.674 196.221 244.807C194.917 245.929 193.308 246.609 191.393 246.847C190.826 246.926 190.231 246.972 189.608 246.983C188.996 246.994 188.576 247 188.35 247H180.683ZM184.321 243.617H188.35C188.735 243.617 189.194 243.606 189.727 243.583C190.259 243.56 190.73 243.515 191.138 243.447C192.384 243.209 193.393 242.671 194.164 241.832C194.946 240.982 195.518 239.939 195.881 238.704C196.243 237.469 196.425 236.154 196.425 234.76C196.425 233.321 196.238 231.989 195.864 230.765C195.49 229.53 194.912 228.498 194.13 227.671C193.359 226.832 192.362 226.3 191.138 226.073C190.73 225.994 190.254 225.948 189.71 225.937C189.177 225.914 188.724 225.903 188.35 225.903H184.321V243.617ZM202.043 247L209.999 222.52H215.116L223.072 247H219.383L212.056 224.662H212.974L205.732 247H202.043ZM206.174 241.475V238.143H218.958V241.475H206.174ZM226.712 247V222.52H230.265V247H226.712Z" fill="white"/>
<path d="M31.896 207V202.24L28 195.48H29.952L32.744 200.32L35.536 195.48H37.488L33.592 202.24V207H31.896ZM41.3251 207.24C40.4611 207.24 39.7118 207.045 39.0771 206.656C38.4425 206.267 37.9518 205.731 37.6051 205.048C37.2638 204.36 37.0931 203.568 37.0931 202.672C37.0931 201.771 37.2691 200.979 37.6211 200.296C37.9731 199.608 38.4665 199.075 39.1011 198.696C39.7358 198.312 40.4771 198.12 41.3251 198.12C42.1891 198.12 42.9385 198.315 43.5731 198.704C44.2078 199.093 44.6985 199.629 45.0451 200.312C45.3918 200.995 45.5651 201.781 45.5651 202.672C45.5651 203.573 45.3891 204.368 45.0371 205.056C44.6905 205.739 44.1998 206.275 43.5651 206.664C42.9305 207.048 42.1838 207.24 41.3251 207.24ZM41.3251 205.664C42.1518 205.664 42.7678 205.387 43.1731 204.832C43.5838 204.272 43.7891 203.552 43.7891 202.672C43.7891 201.771 43.5811 201.051 43.1651 200.512C42.7545 199.968 42.1411 199.696 41.3251 199.696C40.7651 199.696 40.3038 199.824 39.9411 200.08C39.5785 200.331 39.3091 200.68 39.1331 201.128C38.9571 201.571 38.8691 202.085 38.8691 202.672C38.8691 203.579 39.0771 204.304 39.4931 204.848C39.9091 205.392 40.5198 205.664 41.3251 205.664ZM50.8291 207.232C50.2318 207.232 49.7305 207.136 49.3251 206.944C48.9198 206.752 48.5891 206.501 48.3331 206.192C48.0825 205.877 47.8905 205.536 47.7571 205.168C47.6238 204.8 47.5331 204.44 47.4851 204.088C47.4371 203.736 47.4131 203.427 47.4131 203.16V198.36H49.1091V202.608C49.1091 202.944 49.1358 203.291 49.1891 203.648C49.2478 204 49.3545 204.328 49.5091 204.632C49.6691 204.936 49.8905 205.181 50.1731 205.368C50.4611 205.555 50.8345 205.648 51.2931 205.648C51.5918 205.648 51.8745 205.6 52.1411 205.504C52.4078 205.403 52.6398 205.243 52.8371 205.024C53.0398 204.805 53.1971 204.517 53.3091 204.16C53.4265 203.803 53.4851 203.368 53.4851 202.856L54.5251 203.248C54.5251 204.032 54.3785 204.725 54.0851 205.328C53.7918 205.925 53.3705 206.392 52.8211 206.728C52.2718 207.064 51.6078 207.232 50.8291 207.232ZM53.6851 207V204.504H53.4851V198.36H55.1731V207H53.6851ZM61.12 207V198.36H62.608V200.456L62.4 200.184C62.5067 199.907 62.6453 199.653 62.816 199.424C62.9867 199.189 63.184 198.997 63.408 198.848C63.6267 198.688 63.8693 198.565 64.136 198.48C64.408 198.389 64.6853 198.336 64.968 198.32C65.2507 198.299 65.5227 198.312 65.784 198.36V199.928C65.5013 199.853 65.1867 199.832 64.84 199.864C64.4987 199.896 64.184 200.005 63.896 200.192C63.624 200.368 63.408 200.581 63.248 200.832C63.0933 201.083 62.9813 201.363 62.912 201.672C62.8427 201.976 62.808 202.299 62.808 202.64V207H61.12ZM71.2333 207.24C70.3746 207.24 69.6199 207.053 68.9693 206.68C68.3239 206.301 67.8199 205.776 67.4572 205.104C67.0999 204.427 66.9213 203.643 66.9213 202.752C66.9213 201.808 67.0973 200.989 67.4493 200.296C67.8066 199.603 68.3026 199.067 68.9373 198.688C69.5719 198.309 70.3106 198.12 71.1533 198.12C72.0333 198.12 72.7826 198.325 73.4013 198.736C74.0199 199.141 74.4813 199.72 74.7853 200.472C75.0946 201.224 75.2173 202.117 75.1533 203.152H73.4813V202.544C73.4706 201.541 73.2786 200.8 72.9053 200.32C72.5373 199.84 71.9746 199.6 71.2173 199.6C70.3799 199.6 69.7506 199.864 69.3293 200.392C68.9079 200.92 68.6973 201.683 68.6973 202.68C68.6973 203.629 68.9079 204.365 69.3293 204.888C69.7506 205.405 70.3586 205.664 71.1533 205.664C71.6759 205.664 72.1266 205.547 72.5053 205.312C72.8893 205.072 73.1879 204.731 73.4013 204.288L75.0413 204.808C74.7053 205.581 74.1959 206.181 73.5133 206.608C72.8306 207.029 72.0706 207.24 71.2333 207.24ZM68.1533 203.152V201.848H74.3212V203.152H68.1533ZM80.8941 207.24C80.0088 207.24 79.2568 207.043 78.6381 206.648C78.0195 206.253 77.5448 205.712 77.2141 205.024C76.8888 204.336 76.7235 203.555 76.7181 202.68C76.7235 201.789 76.8941 201.003 77.2301 200.32C77.5661 199.632 78.0461 199.093 78.6701 198.704C79.2941 198.315 80.0435 198.12 80.9181 198.12C81.8621 198.12 82.6675 198.355 83.3341 198.824C84.0061 199.293 84.4488 199.936 84.6621 200.752L82.9981 201.232C82.8328 200.747 82.5608 200.371 82.1821 200.104C81.8088 199.832 81.3795 199.696 80.8941 199.696C80.3448 199.696 79.8941 199.827 79.5421 200.088C79.1901 200.344 78.9288 200.696 78.7581 201.144C78.5875 201.592 78.4995 202.104 78.4941 202.68C78.4995 203.571 78.7021 204.291 79.1021 204.84C79.5075 205.389 80.1048 205.664 80.8941 205.664C81.4328 205.664 81.8675 205.541 82.1981 205.296C82.5341 205.045 82.7901 204.688 82.9661 204.224L84.6621 204.624C84.3795 205.467 83.9128 206.115 83.2621 206.568C82.6115 207.016 81.8221 207.24 80.8941 207.24ZM90.1395 207.24C89.2808 207.24 88.5262 207.053 87.8755 206.68C87.2302 206.301 86.7262 205.776 86.3635 205.104C86.0062 204.427 85.8275 203.643 85.8275 202.752C85.8275 201.808 86.0035 200.989 86.3555 200.296C86.7128 199.603 87.2088 199.067 87.8435 198.688C88.4782 198.309 89.2168 198.12 90.0595 198.12C90.9395 198.12 91.6888 198.325 92.3075 198.736C92.9262 199.141 93.3875 199.72 93.6915 200.472C94.0008 201.224 94.1235 202.117 94.0595 203.152H92.3875V202.544C92.3768 201.541 92.1848 200.8 91.8115 200.32C91.4435 199.84 90.8808 199.6 90.1235 199.6C89.2862 199.6 88.6568 199.864 88.2355 200.392C87.8142 200.92 87.6035 201.683 87.6035 202.68C87.6035 203.629 87.8142 204.365 88.2355 204.888C88.6568 205.405 89.2648 205.664 90.0595 205.664C90.5822 205.664 91.0328 205.547 91.4115 205.312C91.7955 205.072 92.0942 204.731 92.3075 204.288L93.9475 204.808C93.6115 205.581 93.1022 206.181 92.4195 206.608C91.7368 207.029 90.9768 207.24 90.1395 207.24ZM87.0595 203.152V201.848H93.2275V203.152H87.0595ZM96.2644 196.944V195.32H97.9364V196.944H96.2644ZM96.2644 207V198.36H97.9364V207H96.2644ZM102.925 207L99.7888 198.36H101.477L103.773 204.904L106.069 198.36H107.757L104.621 207H102.925ZM112.968 207.24C112.109 207.24 111.354 207.053 110.704 206.68C110.058 206.301 109.554 205.776 109.192 205.104C108.834 204.427 108.656 203.643 108.656 202.752C108.656 201.808 108.832 200.989 109.184 200.296C109.541 199.603 110.037 199.067 110.672 198.688C111.306 198.309 112.045 198.12 112.888 198.12C113.768 198.12 114.517 198.325 115.136 198.736C115.754 199.141 116.216 199.72 116.52 200.472C116.829 201.224 116.952 202.117 116.888 203.152H115.216V202.544C115.205 201.541 115.013 200.8 114.64 200.32C114.272 199.84 113.709 199.6 112.952 199.6C112.114 199.6 111.485 199.864 111.064 200.392C110.642 200.92 110.432 201.683 110.432 202.68C110.432 203.629 110.642 204.365 111.064 204.888C111.485 205.405 112.093 205.664 112.888 205.664C113.41 205.664 113.861 205.547 114.24 205.312C114.624 205.072 114.922 204.731 115.136 204.288L116.776 204.808C116.44 205.581 115.93 206.181 115.248 206.608C114.565 207.029 113.805 207.24 112.968 207.24ZM109.888 203.152V201.848H116.056V203.152H109.888Z" fill="white"/>
<path d="M316.144 399.592V397.72H317.816V399.592H316.144ZM316.144 386.768V384.888H317.816V386.768H316.144ZM317.064 398.24C316.264 398.24 315.549 398.096 314.92 397.808C314.291 397.52 313.773 397.112 313.368 396.584C312.968 396.051 312.707 395.421 312.584 394.696L314.24 394.432C314.4 395.115 314.741 395.659 315.264 396.064C315.787 396.464 316.413 396.664 317.144 396.664C317.869 396.664 318.459 396.491 318.912 396.144C319.371 395.797 319.6 395.355 319.6 394.816C319.6 394.432 319.483 394.12 319.248 393.88C319.019 393.64 318.643 393.437 318.12 393.272L315.416 392.44C313.816 391.944 313.016 390.984 313.016 389.56C313.016 388.888 313.176 388.304 313.496 387.808C313.821 387.312 314.277 386.928 314.864 386.656C315.451 386.384 316.136 386.248 316.92 386.248C317.672 386.259 318.339 386.397 318.92 386.664C319.507 386.931 319.992 387.315 320.376 387.816C320.765 388.317 321.035 388.92 321.184 389.624L319.48 389.928C319.405 389.517 319.248 389.155 319.008 388.84C318.773 388.525 318.475 388.28 318.112 388.104C317.755 387.928 317.352 387.837 316.904 387.832C316.483 387.821 316.104 387.888 315.768 388.032C315.437 388.171 315.173 388.368 314.976 388.624C314.784 388.875 314.688 389.16 314.688 389.48C314.688 389.832 314.824 390.131 315.096 390.376C315.368 390.621 315.797 390.832 316.384 391.008L318.504 391.624C319.475 391.912 320.176 392.299 320.608 392.784C321.04 393.269 321.256 393.915 321.256 394.72C321.256 395.424 321.08 396.04 320.728 396.568C320.381 397.091 319.893 397.501 319.264 397.8C318.635 398.093 317.901 398.24 317.064 398.24ZM327.23 398.24C326.446 398.24 325.752 398.069 325.15 397.728C324.547 397.381 324.072 396.907 323.726 396.304C323.384 395.701 323.214 395.008 323.214 394.224V390.256C323.214 389.472 323.384 388.779 323.726 388.176C324.072 387.573 324.547 387.101 325.15 386.76C325.752 386.413 326.446 386.24 327.23 386.24C328.014 386.24 328.707 386.413 329.31 386.76C329.912 387.101 330.384 387.573 330.726 388.176C331.072 388.779 331.246 389.472 331.246 390.256V394.224C331.246 395.008 331.072 395.701 330.726 396.304C330.384 396.907 329.912 397.381 329.31 397.728C328.707 398.069 328.014 398.24 327.23 398.24ZM327.23 396.64C327.656 396.64 328.043 396.539 328.39 396.336C328.742 396.128 329.022 395.851 329.23 395.504C329.438 395.152 329.542 394.76 329.542 394.328V390.136C329.542 389.709 329.438 389.323 329.23 388.976C329.022 388.624 328.742 388.347 328.39 388.144C328.043 387.936 327.656 387.832 327.23 387.832C326.803 387.832 326.414 387.936 326.062 388.144C325.715 388.347 325.438 388.624 325.23 388.976C325.022 389.323 324.918 389.709 324.918 390.136V394.328C324.918 394.76 325.022 395.152 325.23 395.504C325.438 395.851 325.715 396.128 326.062 396.336C326.414 396.539 326.803 396.64 327.23 396.64ZM334.017 398V396.232H335.785V398H334.017ZM342.574 398.24C341.79 398.24 341.096 398.069 340.494 397.728C339.891 397.381 339.416 396.907 339.07 396.304C338.728 395.701 338.558 395.008 338.558 394.224V390.256C338.558 389.472 338.728 388.779 339.07 388.176C339.416 387.573 339.891 387.101 340.494 386.76C341.096 386.413 341.79 386.24 342.574 386.24C343.358 386.24 344.051 386.413 344.654 386.76C345.256 387.101 345.728 387.573 346.069 388.176C346.416 388.779 346.59 389.472 346.59 390.256V394.224C346.59 395.008 346.416 395.701 346.069 396.304C345.728 396.907 345.256 397.381 344.654 397.728C344.051 398.069 343.358 398.24 342.574 398.24ZM342.574 396.64C343 396.64 343.387 396.539 343.734 396.336C344.086 396.128 344.366 395.851 344.574 395.504C344.782 395.152 344.886 394.76 344.886 394.328V390.136C344.886 389.709 344.782 389.323 344.574 388.976C344.366 388.624 344.086 388.347 343.734 388.144C343.387 387.936 343 387.832 342.574 387.832C342.147 387.832 341.758 387.936 341.406 388.144C341.059 388.347 340.782 388.624 340.574 388.976C340.366 389.323 340.262 389.709 340.262 390.136V394.328C340.262 394.76 340.366 395.152 340.574 395.504C340.782 395.851 341.059 396.128 341.406 396.336C341.758 396.539 342.147 396.64 342.574 396.64ZM353.089 398.24C352.305 398.24 351.612 398.069 351.009 397.728C350.406 397.381 349.932 396.907 349.585 396.304C349.244 395.701 349.073 395.008 349.073 394.224V390.256C349.073 389.472 349.244 388.779 349.585 388.176C349.932 387.573 350.406 387.101 351.009 386.76C351.612 386.413 352.305 386.24 353.089 386.24C353.873 386.24 354.566 386.413 355.169 386.76C355.772 387.101 356.244 387.573 356.585 388.176C356.932 388.779 357.105 389.472 357.105 390.256V394.224C357.105 395.008 356.932 395.701 356.585 396.304C356.244 396.907 355.772 397.381 355.169 397.728C354.566 398.069 353.873 398.24 353.089 398.24ZM353.089 396.64C353.516 396.64 353.902 396.539 354.249 396.336C354.601 396.128 354.881 395.851 355.089 395.504C355.297 395.152 355.401 394.76 355.401 394.328V390.136C355.401 389.709 355.297 389.323 355.089 388.976C354.881 388.624 354.601 388.347 354.249 388.144C353.902 387.936 353.516 387.832 353.089 387.832C352.662 387.832 352.273 387.936 351.921 388.144C351.574 388.347 351.297 388.624 351.089 388.976C350.881 389.323 350.777 389.709 350.777 390.136V394.328C350.777 394.76 350.881 395.152 351.089 395.504C351.297 395.851 351.574 396.128 351.921 396.336C352.273 396.539 352.662 396.64 353.089 396.64Z" fill="white"/>
<path d="M32.088 452V441.832H28.16V440.48H37.44V441.832H33.512V452H32.088ZM41.3625 452.24C40.5038 452.24 39.7625 452.045 39.1385 451.656C38.5198 451.267 38.0425 450.728 37.7065 450.04C37.3705 449.352 37.2025 448.563 37.2025 447.672C37.2025 446.765 37.3732 445.971 37.7145 445.288C38.0558 444.605 38.5385 444.075 39.1625 443.696C39.7865 443.312 40.5198 443.12 41.3625 443.12C42.2265 443.12 42.9705 443.315 43.5945 443.704C44.2185 444.088 44.6958 444.624 45.0265 445.312C45.3625 445.995 45.5305 446.781 45.5305 447.672C45.5305 448.573 45.3625 449.368 45.0265 450.056C44.6905 450.739 44.2105 451.275 43.5865 451.664C42.9625 452.048 42.2212 452.24 41.3625 452.24ZM41.3625 450.888C42.2585 450.888 42.9252 450.589 43.3625 449.992C43.7998 449.395 44.0185 448.621 44.0185 447.672C44.0185 446.696 43.7972 445.92 43.3545 445.344C42.9118 444.763 42.2478 444.472 41.3625 444.472C40.7598 444.472 40.2638 444.608 39.8745 444.88C39.4852 445.152 39.1945 445.528 39.0025 446.008C38.8105 446.488 38.7145 447.043 38.7145 447.672C38.7145 448.643 38.9385 449.421 39.3865 450.008C39.8345 450.595 40.4932 450.888 41.3625 450.888ZM52.3659 452C51.8539 452.101 51.3472 452.141 50.8459 452.12C50.3499 452.104 49.9072 452.005 49.5179 451.824C49.1285 451.637 48.8325 451.349 48.6299 450.96C48.4592 450.619 48.3659 450.275 48.3499 449.928C48.3392 449.576 48.3339 449.179 48.3339 448.736V440.96H49.7579V448.672C49.7579 449.024 49.7605 449.325 49.7659 449.576C49.7765 449.827 49.8325 450.043 49.9339 450.224C50.1259 450.565 50.4299 450.765 50.8459 450.824C51.2672 450.883 51.7739 450.867 52.3659 450.776V452ZM46.5819 444.536V443.36H52.3659V444.536H46.5819ZM56.826 452.24C56.1807 452.24 55.6393 452.123 55.202 451.888C54.77 451.648 54.442 451.333 54.218 450.944C53.9993 450.555 53.89 450.128 53.89 449.664C53.89 449.211 53.9753 448.819 54.146 448.488C54.322 448.152 54.5673 447.875 54.882 447.656C55.1967 447.432 55.5727 447.256 56.01 447.128C56.4207 447.016 56.8793 446.92 57.386 446.84C57.898 446.755 58.4153 446.677 58.938 446.608C59.4607 446.539 59.9487 446.472 60.402 446.408L59.89 446.704C59.906 445.936 59.7513 445.368 59.426 445C59.106 444.632 58.5513 444.448 57.762 444.448C57.2393 444.448 56.7807 444.568 56.386 444.808C55.9967 445.043 55.722 445.427 55.562 445.96L54.21 445.552C54.418 444.795 54.8207 444.2 55.418 443.768C56.0153 443.336 56.802 443.12 57.778 443.12C58.562 443.12 59.234 443.261 59.794 443.544C60.3593 443.821 60.7647 444.243 61.01 444.808C61.1327 445.075 61.21 445.365 61.242 445.68C61.274 445.989 61.29 446.315 61.29 446.656V452H60.026V449.928L60.322 450.12C59.9967 450.819 59.5407 451.347 58.954 451.704C58.3727 452.061 57.6633 452.24 56.826 452.24ZM57.042 451.048C57.554 451.048 57.9967 450.957 58.37 450.776C58.7487 450.589 59.0527 450.347 59.282 450.048C59.5113 449.744 59.6607 449.413 59.73 449.056C59.81 448.789 59.8527 448.493 59.858 448.168C59.8687 447.837 59.874 447.584 59.874 447.408L60.37 447.624C59.906 447.688 59.45 447.749 59.002 447.808C58.554 447.867 58.13 447.931 57.73 448C57.33 448.064 56.97 448.141 56.65 448.232C56.4153 448.307 56.194 448.403 55.986 448.52C55.7833 448.637 55.618 448.789 55.49 448.976C55.3673 449.157 55.306 449.384 55.306 449.656C55.306 449.891 55.3647 450.115 55.482 450.328C55.6047 450.541 55.7913 450.715 56.042 450.848C56.298 450.981 56.6313 451.048 57.042 451.048ZM63.78 452V440.24H65.204V452H63.78ZM74.1235 452L70.2675 440.48H71.7475L75.0995 450.488L78.4835 440.48H79.9635L76.1075 452H74.1235ZM83.1541 452.24C82.5088 452.24 81.9675 452.123 81.5301 451.888C81.0981 451.648 80.7701 451.333 80.5461 450.944C80.3275 450.555 80.2181 450.128 80.2181 449.664C80.2181 449.211 80.3035 448.819 80.4741 448.488C80.6501 448.152 80.8955 447.875 81.2101 447.656C81.5248 447.432 81.9008 447.256 82.3381 447.128C82.7488 447.016 83.2075 446.92 83.7141 446.84C84.2261 446.755 84.7435 446.677 85.2661 446.608C85.7888 446.539 86.2768 446.472 86.7301 446.408L86.2181 446.704C86.2341 445.936 86.0795 445.368 85.7541 445C85.4341 444.632 84.8795 444.448 84.0901 444.448C83.5675 444.448 83.1088 444.568 82.7141 444.808C82.3248 445.043 82.0501 445.427 81.8901 445.96L80.5381 445.552C80.7461 444.795 81.1488 444.2 81.7461 443.768C82.3435 443.336 83.1301 443.12 84.1061 443.12C84.8901 443.12 85.5621 443.261 86.1221 443.544C86.6875 443.821 87.0928 444.243 87.3381 444.808C87.4608 445.075 87.5381 445.365 87.5701 445.68C87.6021 445.989 87.6181 446.315 87.6181 446.656V452H86.3541V449.928L86.6501 450.12C86.3248 450.819 85.8688 451.347 85.2821 451.704C84.7008 452.061 83.9915 452.24 83.1541 452.24ZM83.3701 451.048C83.8821 451.048 84.3248 450.957 84.6981 450.776C85.0768 450.589 85.3808 450.347 85.6101 450.048C85.8395 449.744 85.9888 449.413 86.0581 449.056C86.1381 448.789 86.1808 448.493 86.1861 448.168C86.1968 447.837 86.2021 447.584 86.2021 447.408L86.6981 447.624C86.2341 447.688 85.7781 447.749 85.3301 447.808C84.8821 447.867 84.4581 447.931 84.0581 448C83.6581 448.064 83.2981 448.141 82.9781 448.232C82.7435 448.307 82.5221 448.403 82.3141 448.52C82.1115 448.637 81.9461 448.789 81.8181 448.976C81.6955 449.157 81.6341 449.384 81.6341 449.656C81.6341 449.891 81.6928 450.115 81.8101 450.328C81.9328 450.541 82.1195 450.715 82.3701 450.848C82.6261 450.981 82.9595 451.048 83.3701 451.048ZM90.1081 452V440.24H91.5321V452H90.1081ZM97.4625 452.224C96.9078 452.224 96.4305 452.136 96.0305 451.96C95.6358 451.784 95.3078 451.549 95.0465 451.256C94.7852 450.963 94.5798 450.637 94.4305 450.28C94.2812 449.923 94.1745 449.557 94.1105 449.184C94.0518 448.811 94.0225 448.461 94.0225 448.136V443.36H95.4625V447.688C95.4625 448.093 95.4998 448.485 95.5745 448.864C95.6492 449.243 95.7745 449.584 95.9505 449.888C96.1318 450.192 96.3718 450.432 96.6705 450.608C96.9745 450.784 97.3532 450.872 97.8065 450.872C98.1638 450.872 98.4892 450.811 98.7825 450.688C99.0758 450.565 99.3265 450.384 99.5345 450.144C99.7425 449.899 99.9025 449.589 100.015 449.216C100.127 448.843 100.183 448.408 100.183 447.912L101.119 448.2C101.119 449.032 100.967 449.749 100.663 450.352C100.364 450.955 99.9398 451.419 99.3905 451.744C98.8465 452.064 98.2038 452.224 97.4625 452.224ZM100.343 452V449.688H100.183V443.36H101.615V452H100.343ZM107.848 452.24C107 452.24 106.259 452.053 105.624 451.68C104.995 451.301 104.504 450.776 104.152 450.104C103.8 449.427 103.624 448.637 103.624 447.736C103.624 446.792 103.798 445.976 104.144 445.288C104.491 444.595 104.974 444.061 105.592 443.688C106.216 443.309 106.947 443.12 107.784 443.12C108.654 443.12 109.392 443.32 110 443.72C110.614 444.12 111.072 444.691 111.376 445.432C111.686 446.173 111.819 447.056 111.776 448.08H110.336V447.568C110.32 446.507 110.104 445.715 109.688 445.192C109.272 444.664 108.654 444.4 107.832 444.4C106.952 444.4 106.283 444.683 105.824 445.248C105.366 445.813 105.136 446.624 105.136 447.68C105.136 448.699 105.366 449.488 105.824 450.048C106.283 450.608 106.936 450.888 107.784 450.888C108.355 450.888 108.851 450.757 109.272 450.496C109.694 450.235 110.024 449.859 110.264 449.368L111.632 449.84C111.296 450.603 110.79 451.195 110.112 451.616C109.44 452.032 108.686 452.24 107.848 452.24ZM104.656 448.08V446.936H111.04V448.08H104.656Z" fill="#A0A3BD"/>
<path d="M284.144 453.592V451.72H285.816V453.592H284.144ZM284.144 440.768V438.888H285.816V440.768H284.144ZM285.064 452.24C284.264 452.24 283.549 452.096 282.92 451.808C282.291 451.52 281.773 451.112 281.368 450.584C280.968 450.051 280.707 449.421 280.584 448.696L282.24 448.432C282.4 449.115 282.741 449.659 283.264 450.064C283.787 450.464 284.413 450.664 285.144 450.664C285.869 450.664 286.459 450.491 286.912 450.144C287.371 449.797 287.6 449.355 287.6 448.816C287.6 448.432 287.483 448.12 287.248 447.88C287.019 447.64 286.643 447.437 286.12 447.272L283.416 446.44C281.816 445.944 281.016 444.984 281.016 443.56C281.016 442.888 281.176 442.304 281.496 441.808C281.821 441.312 282.277 440.928 282.864 440.656C283.451 440.384 284.136 440.248 284.92 440.248C285.672 440.259 286.339 440.397 286.92 440.664C287.507 440.931 287.992 441.315 288.376 441.816C288.765 442.317 289.035 442.92 289.184 443.624L287.48 443.928C287.405 443.517 287.248 443.155 287.008 442.84C286.773 442.525 286.475 442.28 286.112 442.104C285.755 441.928 285.352 441.837 284.904 441.832C284.483 441.821 284.104 441.888 283.768 442.032C283.437 442.171 283.173 442.368 282.976 442.624C282.784 442.875 282.688 443.16 282.688 443.48C282.688 443.832 282.824 444.131 283.096 444.376C283.368 444.621 283.797 444.832 284.384 445.008L286.504 445.624C287.475 445.912 288.176 446.299 288.608 446.784C289.04 447.269 289.256 447.915 289.256 448.72C289.256 449.424 289.08 450.04 288.728 450.568C288.381 451.091 287.893 451.501 287.264 451.8C286.635 452.093 285.901 452.24 285.064 452.24ZM290.894 451.992L290.902 450.504L295.918 446.008C296.323 445.651 296.598 445.309 296.742 444.984C296.891 444.659 296.966 444.333 296.966 444.008C296.966 443.597 296.875 443.229 296.694 442.904C296.512 442.573 296.262 442.312 295.942 442.12C295.622 441.928 295.254 441.832 294.838 441.832C294.411 441.832 294.03 441.933 293.694 442.136C293.363 442.333 293.104 442.597 292.918 442.928C292.731 443.259 292.64 443.616 292.646 444H290.934C290.934 443.253 291.102 442.6 291.438 442.04C291.779 441.475 292.246 441.035 292.838 440.72C293.43 440.4 294.107 440.24 294.87 440.24C295.595 440.24 296.246 440.405 296.822 440.736C297.398 441.061 297.851 441.509 298.182 442.08C298.518 442.651 298.686 443.301 298.686 444.032C298.686 444.56 298.616 445.008 298.478 445.376C298.339 445.744 298.131 446.085 297.854 446.4C297.576 446.715 297.23 447.056 296.814 447.424L292.942 450.88L292.758 450.4H298.686V451.992H290.894ZM300.694 453.912L300.798 453.168C301.028 453.184 301.206 453.141 301.334 453.04C301.462 452.939 301.548 452.797 301.59 452.616C301.633 452.435 301.641 452.229 301.614 452H300.694V450.072H302.462V452.16C302.462 452.789 302.31 453.264 302.006 453.584C301.708 453.904 301.27 454.013 300.694 453.912ZM310.625 452V449.992H305.425V448.408L309.169 440.48H311.081L307.337 448.408H310.625V445.288H312.321V448.408H313.465V449.992H312.321V452H310.625ZM320.438 452V449.992H315.238V448.408L318.982 440.48H320.894L317.15 448.408H320.438V445.288H322.134V448.408H323.278V449.992H322.134V452H320.438ZM325.128 451.992L325.136 450.504L330.152 446.008C330.557 445.651 330.832 445.309 330.976 444.984C331.125 444.659 331.2 444.333 331.2 444.008C331.2 443.597 331.109 443.229 330.928 442.904C330.747 442.573 330.496 442.312 330.176 442.12C329.856 441.928 329.488 441.832 329.072 441.832C328.645 441.832 328.264 441.933 327.928 442.136C327.597 442.333 327.339 442.597 327.152 442.928C326.965 443.259 326.875 443.616 326.88 444H325.168C325.168 443.253 325.336 442.6 325.672 442.04C326.013 441.475 326.48 441.035 327.072 440.72C327.664 440.4 328.341 440.24 329.104 440.24C329.829 440.24 330.48 440.405 331.056 440.736C331.632 441.061 332.085 441.509 332.416 442.08C332.752 442.651 332.92 443.301 332.92 444.032C332.92 444.56 332.851 445.008 332.712 445.376C332.573 445.744 332.365 446.085 332.088 446.4C331.811 446.715 331.464 447.056 331.048 447.424L327.176 450.88L326.992 450.4H332.92V451.992H325.128ZM335.377 452V450.232H337.145V452H335.377ZM343.877 452.24C343.13 452.24 342.458 452.064 341.861 451.712C341.264 451.355 340.789 450.867 340.437 450.248C340.09 449.629 339.917 448.925 339.917 448.136V444.464C339.917 443.627 340.09 442.891 340.437 442.256C340.789 441.621 341.274 441.128 341.893 440.776C342.517 440.424 343.234 440.248 344.045 440.248C344.653 440.248 345.224 440.363 345.757 440.592C346.29 440.821 346.752 441.163 347.141 441.616L345.917 442.76C345.698 442.477 345.424 442.253 345.093 442.088C344.768 441.917 344.418 441.832 344.045 441.832C343.565 441.832 343.144 441.947 342.781 442.176C342.418 442.4 342.133 442.696 341.925 443.064C341.722 443.432 341.621 443.827 341.621 444.248V446.36L341.293 445.992C341.624 445.56 342.034 445.219 342.525 444.968C343.016 444.717 343.541 444.592 344.101 444.592C344.816 444.592 345.453 444.76 346.013 445.096C346.578 445.427 347.021 445.877 347.341 446.448C347.666 447.019 347.829 447.661 347.829 448.376C347.829 449.096 347.648 449.749 347.285 450.336C346.928 450.917 346.448 451.381 345.845 451.728C345.248 452.069 344.592 452.24 343.877 452.24ZM343.877 450.632C344.293 450.632 344.672 450.531 345.013 450.328C345.354 450.125 345.626 449.853 345.829 449.512C346.032 449.171 346.133 448.792 346.133 448.376C346.133 447.96 346.032 447.581 345.829 447.24C345.632 446.899 345.362 446.627 345.021 446.424C344.68 446.221 344.301 446.12 343.885 446.12C343.469 446.12 343.088 446.221 342.741 446.424C342.4 446.627 342.128 446.899 341.925 447.24C341.722 447.581 341.621 447.96 341.621 448.376C341.621 448.787 341.722 449.163 341.925 449.504C342.128 449.845 342.4 450.12 342.741 450.328C343.082 450.531 343.461 450.632 343.877 450.632ZM353.52 452.24C352.928 452.24 352.376 452.12 351.864 451.88C351.358 451.635 350.923 451.299 350.56 450.872C350.198 450.44 349.939 449.944 349.784 449.384L351.392 448.952C351.483 449.293 351.638 449.589 351.856 449.84C352.08 450.091 352.342 450.285 352.64 450.424C352.939 450.557 353.248 450.624 353.568 450.624C353.99 450.624 354.371 450.523 354.712 450.32C355.059 450.117 355.331 449.845 355.528 449.504C355.731 449.163 355.832 448.787 355.832 448.376C355.832 447.955 355.728 447.573 355.52 447.232C355.318 446.891 355.043 446.621 354.696 446.424C354.355 446.221 353.979 446.12 353.568 446.12C353.099 446.12 352.702 446.213 352.376 446.4C352.051 446.587 351.798 446.803 351.616 447.048L350.16 446.536L350.512 440.48H356.728V442.056H351.368L352.048 441.424L351.768 445.96L351.44 445.536C351.744 445.232 352.107 445 352.528 444.84C352.95 444.68 353.368 444.6 353.784 444.6C354.499 444.6 355.136 444.765 355.696 445.096C356.262 445.427 356.707 445.877 357.032 446.448C357.358 447.013 357.52 447.656 357.52 448.376C357.52 449.091 357.336 449.741 356.968 450.328C356.6 450.909 356.112 451.373 355.504 451.72C354.896 452.067 354.235 452.24 353.52 452.24Z" fill="white"/>
<path d="M44.5 53.5L33.5 64.5M33.5 53.5L44.5 64.5" stroke="white" stroke-width="3" stroke-linecap="round" stroke-linejoin="round"/>
<path d="M137.741 66.27C136.445 66.27 135.335 65.988 134.411 65.424C133.487 64.854 132.776 64.062 132.278 63.048C131.786 62.034 131.54 60.858 131.54 59.52C131.54 58.182 131.786 57.006 132.278 55.992C132.776 54.978 133.487 54.189 134.411 53.625C135.335 53.055 136.445 52.77 137.741 52.77C139.235 52.77 140.48 53.145 141.476 53.895C142.472 54.639 143.171 55.644 143.573 56.91L141.386 57.513C141.134 56.667 140.705 56.007 140.099 55.533C139.493 55.053 138.707 54.813 137.741 54.813C136.871 54.813 136.145 55.008 135.563 55.398C134.987 55.788 134.552 56.337 134.258 57.045C133.97 57.747 133.823 58.572 133.817 59.52C133.817 60.468 133.961 61.296 134.249 62.004C134.543 62.706 134.981 63.252 135.563 63.642C136.145 64.032 136.871 64.227 137.741 64.227C138.707 64.227 139.493 63.987 140.099 63.507C140.705 63.027 141.134 62.367 141.386 61.527L143.573 62.13C143.171 63.396 142.472 64.404 141.476 65.154C140.48 65.898 139.235 66.27 137.741 66.27ZM150.092 66.27C149.12 66.27 148.271 66.051 147.545 65.613C146.819 65.175 146.255 64.572 145.853 63.804C145.457 63.03 145.259 62.142 145.259 61.14C145.259 60.12 145.463 59.226 145.871 58.458C146.279 57.69 146.846 57.09 147.572 56.658C148.298 56.226 149.138 56.01 150.092 56.01C151.07 56.01 151.922 56.229 152.648 56.667C153.374 57.105 153.938 57.711 154.34 58.485C154.742 59.253 154.943 60.138 154.943 61.14C154.943 62.148 154.739 63.039 154.331 63.813C153.929 64.581 153.365 65.184 152.639 65.622C151.913 66.054 151.064 66.27 150.092 66.27ZM150.092 64.236C150.956 64.236 151.598 63.948 152.018 63.372C152.438 62.796 152.648 62.052 152.648 61.14C152.648 60.198 152.435 59.448 152.009 58.89C151.583 58.326 150.944 58.044 150.092 58.044C149.51 58.044 149.03 58.176 148.652 58.44C148.28 58.698 148.004 59.061 147.824 59.529C147.644 59.991 147.554 60.528 147.554 61.14C147.554 62.082 147.767 62.835 148.193 63.399C148.625 63.957 149.258 64.236 150.092 64.236ZM163.899 66V61.32C163.899 61.014 163.878 60.675 163.836 60.303C163.794 59.931 163.695 59.574 163.539 59.232C163.389 58.884 163.161 58.599 162.855 58.377C162.555 58.155 162.147 58.044 161.631 58.044C161.355 58.044 161.082 58.089 160.812 58.179C160.542 58.269 160.296 58.425 160.074 58.647C159.858 58.863 159.684 59.163 159.552 59.547C159.42 59.925 159.354 60.411 159.354 61.005L158.067 60.456C158.067 59.628 158.226 58.878 158.544 58.206C158.868 57.534 159.342 57 159.966 56.604C160.59 56.202 161.358 56.001 162.27 56.001C162.99 56.001 163.584 56.121 164.052 56.361C164.52 56.601 164.892 56.907 165.168 57.279C165.444 57.651 165.648 58.047 165.78 58.467C165.912 58.887 165.996 59.286 166.032 59.664C166.074 60.036 166.095 60.339 166.095 60.573V66H163.899ZM157.158 66V56.28H159.093V59.295H159.354V66H157.158ZM169.54 66V56.127C169.54 55.881 169.549 55.611 169.567 55.317C169.585 55.017 169.636 54.72 169.72 54.426C169.804 54.132 169.957 53.865 170.179 53.625C170.455 53.319 170.752 53.109 171.07 52.995C171.394 52.875 171.712 52.809 172.024 52.797C172.336 52.779 172.609 52.77 172.843 52.77H174.058V54.534H172.933C172.519 54.534 172.21 54.639 172.006 54.849C171.808 55.053 171.709 55.323 171.709 55.659V66H169.54ZM167.974 57.981V56.28H174.058V57.981H167.974ZM175.948 54.804V52.815H178.117V54.804H175.948ZM175.948 66V56.28H178.117V66H175.948ZM181.073 66V56.28H182.99V58.647L182.756 58.341C182.876 58.017 183.035 57.723 183.233 57.459C183.437 57.189 183.68 56.967 183.962 56.793C184.202 56.631 184.466 56.505 184.754 56.415C185.048 56.319 185.348 56.262 185.654 56.244C185.96 56.22 186.257 56.232 186.545 56.28V58.305C186.257 58.221 185.924 58.194 185.546 58.224C185.174 58.254 184.838 58.359 184.538 58.539C184.238 58.701 183.992 58.908 183.8 59.16C183.614 59.412 183.476 59.7 183.386 60.024C183.296 60.342 183.251 60.687 183.251 61.059V66H181.073ZM200.185 66V60.096C200.185 59.43 200.02 58.911 199.69 58.539C199.36 58.161 198.913 57.972 198.349 57.972C198.001 57.972 197.689 58.053 197.413 58.215C197.137 58.371 196.918 58.605 196.756 58.917C196.594 59.223 196.513 59.589 196.513 60.015L195.55 59.448C195.544 58.776 195.694 58.185 196 57.675C196.312 57.159 196.732 56.757 197.26 56.469C197.788 56.181 198.376 56.037 199.024 56.037C200.098 56.037 200.92 56.361 201.49 57.009C202.066 57.651 202.354 58.497 202.354 59.547V66H200.185ZM188.494 66V56.28H190.411V59.295H190.681V66H188.494ZM194.353 66V60.123C194.353 59.445 194.188 58.917 193.858 58.539C193.528 58.161 193.078 57.972 192.508 57.972C191.956 57.972 191.512 58.161 191.176 58.539C190.846 58.917 190.681 59.409 190.681 60.015L189.709 59.367C189.709 58.737 189.865 58.17 190.177 57.666C190.489 57.162 190.909 56.766 191.437 56.478C191.971 56.184 192.568 56.037 193.228 56.037C193.954 56.037 194.56 56.193 195.046 56.505C195.538 56.811 195.904 57.231 196.144 57.765C196.39 58.293 196.513 58.89 196.513 59.556V66H194.353ZM213.602 66.27C212.654 66.27 211.799 66.105 211.037 65.775C210.281 65.445 209.657 64.974 209.165 64.362C208.679 63.744 208.37 63.012 208.238 62.166L210.488 61.824C210.68 62.592 211.073 63.186 211.667 63.606C212.267 64.026 212.957 64.236 213.737 64.236C214.199 64.236 214.634 64.164 215.042 64.02C215.45 63.876 215.78 63.666 216.032 63.39C216.29 63.114 216.419 62.775 216.419 62.373C216.419 62.193 216.389 62.028 216.329 61.878C216.269 61.722 216.179 61.584 216.059 61.464C215.945 61.344 215.795 61.236 215.609 61.14C215.429 61.038 215.219 60.951 214.979 60.879L211.631 59.889C211.343 59.805 211.031 59.694 210.695 59.556C210.365 59.412 210.05 59.217 209.75 58.971C209.456 58.719 209.213 58.401 209.021 58.017C208.835 57.627 208.742 57.147 208.742 56.577C208.742 55.743 208.952 55.044 209.372 54.48C209.798 53.91 210.368 53.484 211.082 53.202C211.802 52.92 212.6 52.782 213.476 52.788C214.364 52.794 215.156 52.947 215.852 53.247C216.548 53.541 217.13 53.97 217.598 54.534C218.066 55.098 218.396 55.779 218.588 56.577L216.257 56.982C216.161 56.526 215.975 56.139 215.699 55.821C215.429 55.497 215.096 55.251 214.7 55.083C214.31 54.915 213.893 54.825 213.449 54.813C213.017 54.807 212.615 54.873 212.243 55.011C211.877 55.143 211.58 55.335 211.352 55.587C211.13 55.839 211.019 56.133 211.019 56.469C211.019 56.787 211.115 57.048 211.307 57.252C211.499 57.45 211.736 57.609 212.018 57.729C212.306 57.843 212.597 57.939 212.891 58.017L215.213 58.665C215.531 58.749 215.888 58.863 216.284 59.007C216.68 59.151 217.061 59.352 217.427 59.61C217.793 59.868 218.093 60.207 218.327 60.627C218.567 61.047 218.687 61.581 218.687 62.229C218.687 62.901 218.546 63.492 218.264 64.002C217.988 64.506 217.613 64.926 217.139 65.262C216.665 65.598 216.122 65.85 215.51 66.018C214.904 66.186 214.268 66.27 213.602 66.27ZM222.955 66L219.985 56.262L222.109 56.28L224.008 62.517L225.934 56.28H227.761L229.678 62.517L231.586 56.28H233.71L230.74 66H229.048L226.843 59.313L224.647 66H222.955ZM237.757 66.27C237.055 66.27 236.461 66.138 235.975 65.874C235.489 65.604 235.12 65.247 234.868 64.803C234.622 64.359 234.499 63.87 234.499 63.336C234.499 62.868 234.577 62.448 234.733 62.076C234.889 61.698 235.129 61.374 235.453 61.104C235.777 60.828 236.197 60.603 236.713 60.429C237.103 60.303 237.559 60.189 238.081 60.087C238.609 59.985 239.179 59.892 239.791 59.808C240.409 59.718 241.054 59.622 241.726 59.52L240.952 59.961C240.958 59.289 240.808 58.794 240.502 58.476C240.196 58.158 239.68 57.999 238.954 57.999C238.516 57.999 238.093 58.101 237.685 58.305C237.277 58.509 236.992 58.86 236.83 59.358L234.85 58.737C235.09 57.915 235.546 57.255 236.218 56.757C236.896 56.259 237.808 56.01 238.954 56.01C239.818 56.01 240.577 56.151 241.231 56.433C241.891 56.715 242.38 57.177 242.698 57.819C242.872 58.161 242.977 58.512 243.013 58.872C243.049 59.226 243.067 59.613 243.067 60.033V66H241.168V63.894L241.483 64.236C241.045 64.938 240.532 65.454 239.944 65.784C239.362 66.108 238.633 66.27 237.757 66.27ZM238.189 64.542C238.681 64.542 239.101 64.455 239.449 64.281C239.797 64.107 240.073 63.894 240.277 63.642C240.487 63.39 240.628 63.153 240.7 62.931C240.814 62.655 240.877 62.34 240.889 61.986C240.907 61.626 240.916 61.335 240.916 61.113L241.582 61.311C240.928 61.413 240.367 61.503 239.899 61.581C239.431 61.659 239.029 61.734 238.693 61.806C238.357 61.872 238.06 61.947 237.802 62.031C237.55 62.121 237.337 62.226 237.163 62.346C236.989 62.466 236.854 62.604 236.758 62.76C236.668 62.916 236.623 63.099 236.623 63.309C236.623 63.549 236.683 63.762 236.803 63.948C236.923 64.128 237.097 64.272 237.325 64.38C237.559 64.488 237.847 64.542 238.189 64.542ZM250.331 66.27C249.383 66.27 248.588 66.045 247.946 65.595C247.304 65.145 246.821 64.533 246.497 63.759C246.173 62.979 246.011 62.106 246.011 61.14C246.011 60.162 246.173 59.286 246.497 58.512C246.821 57.738 247.295 57.129 247.919 56.685C248.549 56.235 249.326 56.01 250.25 56.01C251.168 56.01 251.963 56.235 252.635 56.685C253.313 57.129 253.838 57.738 254.21 58.512C254.582 59.28 254.768 60.156 254.768 61.14C254.768 62.112 254.585 62.985 254.219 63.759C253.853 64.533 253.337 65.145 252.671 65.595C252.005 66.045 251.225 66.27 250.331 66.27ZM245.642 70.32V56.28H247.559V63.102H247.829V70.32H245.642ZM249.998 64.326C250.562 64.326 251.027 64.185 251.393 63.903C251.759 63.621 252.029 63.24 252.203 62.76C252.383 62.274 252.473 61.734 252.473 61.14C252.473 60.552 252.383 60.018 252.203 59.538C252.023 59.052 251.744 58.668 251.366 58.386C250.988 58.098 250.508 57.954 249.926 57.954C249.374 57.954 248.924 58.089 248.576 58.359C248.228 58.623 247.97 58.995 247.802 59.475C247.64 59.949 247.559 60.504 247.559 61.14C247.559 61.77 247.64 62.325 247.802 62.805C247.97 63.285 248.231 63.66 248.585 63.93C248.945 64.194 249.416 64.326 249.998 64.326Z" fill="white"/>
<rect width="375" height="1" transform="translate(6 285)" fill="white"/>
<path fill-rule="evenodd" clip-rule="evenodd" d="M381 286.084H6V285H381V286.084Z" fill="white"/>
<path opacity="0.35" d="M338.667 21.8334H355.333C356.53 21.8334 357.5 22.8034 357.5 24V30C357.5 31.1967 356.53 32.1667 355.333 32.1667H338.667C337.47 32.1667 336.5 31.1967 336.5 30V24C336.5 22.8034 337.47 21.8334 338.667 21.8334Z" stroke="white"/>
<path opacity="0.4" d="M359 25V29C359.805 28.6613 360.328 27.8732 360.328 27C360.328 26.1269 359.805 25.3388 359 25" fill="white"/>
<path d="M338 24.6667C338 23.9303 338.597 23.3334 339.333 23.3334H354.667C355.403 23.3334 356 23.9303 356 24.6667V29.3334C356 30.0698 355.403 30.6667 354.667 30.6667H339.333C338.597 30.6667 338 30.0698 338 29.3334V24.6667Z" fill="white"/>
<path fill-rule="evenodd" clip-rule="evenodd" d="M323.33 23.608C325.546 23.6081 327.677 24.4596 329.283 25.9863C329.404 26.1042 329.598 26.1027 329.717 25.983L330.873 24.8163C330.933 24.7556 330.967 24.6734 330.966 24.5878C330.966 24.5022 330.931 24.4204 330.87 24.3603C326.655 20.3208 320.005 20.3208 315.79 24.3603C315.729 24.4203 315.694 24.5021 315.694 24.5877C315.693 24.6733 315.727 24.7556 315.787 24.8163L316.943 25.983C317.062 26.1029 317.256 26.1044 317.377 25.9863C318.983 24.4595 321.114 23.608 323.33 23.608ZM323.33 27.4037C324.548 27.4036 325.722 27.8561 326.624 28.6733C326.746 28.7893 326.939 28.7868 327.058 28.6677L328.212 27.501C328.273 27.4398 328.307 27.3568 328.306 27.2705C328.305 27.1843 328.27 27.102 328.208 27.042C325.459 24.4856 321.204 24.4856 318.455 27.042C318.393 27.102 318.358 27.1843 318.357 27.2706C318.356 27.3569 318.39 27.4399 318.451 27.501L319.605 28.6677C319.724 28.7868 319.917 28.7893 320.039 28.6733C320.941 27.8567 322.114 27.4042 323.33 27.4037ZM325.643 29.9575C325.645 30.044 325.611 30.1274 325.549 30.188L323.552 32.2037C323.493 32.2629 323.414 32.2963 323.33 32.2963C323.247 32.2963 323.167 32.2629 323.109 32.2037L321.111 30.188C321.049 30.1274 321.015 30.0439 321.017 29.9574C321.019 29.8709 321.056 29.789 321.121 29.731C322.396 28.6521 324.264 28.6521 325.54 29.731C325.604 29.789 325.642 29.871 325.643 29.9575Z" fill="white"/>
<path fill-rule="evenodd" clip-rule="evenodd" d="M309.667 21.6666H308.667C308.114 21.6666 307.667 22.1143 307.667 22.6666V31.3333C307.667 31.8856 308.114 32.3333 308.667 32.3333H309.667C310.219 32.3333 310.667 31.8856 310.667 31.3333V22.6666C310.667 22.1143 310.219 21.6666 309.667 21.6666ZM304 24H305C305.552 24 306 24.4477 306 25V31.3333C306 31.8856 305.552 32.3333 305 32.3333H304C303.448 32.3333 303 31.8856 303 31.3333V25C303 24.4477 303.448 24 304 24ZM300.333 26.3333H299.333C298.781 26.3333 298.333 26.781 298.333 27.3333V31.3333C298.333 31.8856 298.781 32.3333 299.333 32.3333H300.333C300.886 32.3333 301.333 31.8856 301.333 31.3333V27.3333C301.333 26.781 300.886 26.3333 300.333 26.3333ZM295.667 28.3333H294.667C294.114 28.3333 293.667 28.781 293.667 29.3333V31.3333C293.667 31.8856 294.114 32.3333 294.667 32.3333H295.667C296.219 32.3333 296.667 31.8856 296.667 31.3333V29.3333C296.667 28.781 296.219 28.3333 295.667 28.3333Z" fill="white"/>
<path d="M37.3207 32.2563C40.0087 32.2563 41.6053 30.1543 41.6053 26.5947C41.6053 25.2544 41.349 24.1265 40.8583 23.2549C40.1478 21.8999 38.9247 21.1675 37.3793 21.1675C35.0795 21.1675 33.4535 22.7129 33.4535 24.8809C33.4535 26.917 34.9183 28.3965 36.9325 28.3965C38.1703 28.3965 39.1737 27.8179 39.6718 26.8145H39.6937C39.6937 26.8145 39.723 26.8145 39.7303 26.8145C39.745 26.8145 39.7963 26.8145 39.7963 26.8145C39.7963 29.2314 38.8807 30.6743 37.3353 30.6743C36.4271 30.6743 35.724 30.1763 35.4823 29.3779H33.6C33.9149 31.1138 35.3871 32.2563 37.3207 32.2563ZM37.3866 26.895C36.1708 26.895 35.3065 26.0308 35.3065 24.8223C35.3065 23.6431 36.2147 22.7422 37.3939 22.7422C38.5731 22.7422 39.4813 23.6577 39.4813 24.8516C39.4813 26.0308 38.5951 26.895 37.3866 26.895Z" fill="white"/>
<path d="M44.6965 32.1538C45.3923 32.1538 45.8683 31.6558 45.8683 30.9966C45.8683 30.3301 45.3923 29.8394 44.6965 29.8394C44.008 29.8394 43.5246 30.3301 43.5246 30.9966C43.5246 31.6558 44.008 32.1538 44.6965 32.1538ZM44.6965 26.6606C45.3923 26.6606 45.8683 26.1699 45.8683 25.5107C45.8683 24.8442 45.3923 24.3535 44.6965 24.3535C44.008 24.3535 43.5246 24.8442 43.5246 25.5107C43.5246 26.1699 44.008 26.6606 44.6965 26.6606Z" fill="white"/>
<path d="M52.7241 32H54.5332V30.0298H55.9614V28.4331H54.5332V21.4312H51.8672C49.9995 24.2437 48.5127 26.5947 47.5605 28.3452V30.0298H52.7241V32ZM49.311 28.3672C50.5415 26.1992 51.6401 24.4634 52.6509 22.9692H52.7534V28.4771H49.311V28.3672Z" fill="white"/>
<path d="M59.99 32H61.8797V21.4312H59.9973L57.2361 23.3647V25.1812L59.8655 23.3354H59.99V32Z" fill="white"/>
<path d="M46 3H341C361.435 3 378 19.5655 378 40V772C378 792.435 361.435 809 341 809H46C25.5655 809 9 792.435 9 772V40C9 19.5655 25.5655 3 46 3Z" stroke="white" stroke-width="6"/>
</svg>
